<?xml version="1.0" encoding="utf-8"?>
<!-- Generator: Adobe Illustrator 27.5.0, SVG Export Plug-In . SVG Version: 6.00 Build 0)  -->
<svg version="1.1" xmlns="http://www.w3.org/2000/svg" xmlns:xlink="http://www.w3.org/1999/xlink" x="0px" y="0px"
	 viewBox="0 0 500 500" style="enable-background:new 0 0 500 500;" xml:space="preserve">
<g id="background">
	<path style="opacity:0.1;fill:#AFBDEA;" d="M390.45,396.184c3.576-2.943,6.214-6.816,7.618-11.891
		c4.327-16.766-1.731-35.953-12.938-53.995c-2.802-4.51-5.926-8.949-9.298-13.24c-12.377-14.73-29.684-34.104-50.453-29.633
		c-12.331,2.794-23.527,2.701-33.576,0.456c-10.049-2.245-18.952-6.642-26.731-12.436c-17.008-13.384-27.459-30.135-36.47-47.824
		c-3.004-5.897-5.848-11.897-8.721-17.911c-8.728-17.662-14.785-37.781-33.823-49.703c-28.124-18.629-71.271-19.663-96.891-0.086
		c-5.124,3.919-9.547,8.662-13.008,14.279c-10.384,15.613-17.307,46.164-17.307,46.164c-23.365,37.257-33.749,82.71-14.59,123.458
		c2.114,4.652,4.942,8.756,7.287,12.974c7.537,12.309,7.397,27.208,12.765,39.389H47.653v3.544h404.574v-3.544H390.45z"/>
	<path style="opacity:0.1;fill:#AFBDEA;" d="M446.675,333.229c-2.58,4.887-4.944,9.9-7.102,15.018
		c-2.789,7.869-4.893,15.943-6.231,24.244c-0.388,4.392-0.587,8.791-0.61,13.212c-0.019,3.665-0.634,7.198-1.74,10.492H84.727
		c-3.202-5.319-5.627-10.625-8.035-17.361c-2.441-6.83-3.123-14.657-3.481-21.866c-0.729-14.705,3.572-30.646,10.425-43.233
		c5.238-9.622,12.634-17.607,19.239-26.14c2.683-4.154,5.023-8.526,7.055-13.09c1.511-4.496,2.689-9.078,3.495-13.786
		c1.485-15.887,1.283-32.124,5.647-47.5c3.595-12.666,9.616-23.002,17.483-33.01c7.045-8.962,16.98-14.208,26.919-18.265
		c14.314-5.843,30.854-4.887,45.896-4.41c11.837,0.375,23.96,0.958,35.805-0.22c2.61-0.532,5.179-1.211,7.702-2.092
		c0.826-0.477,1.635-0.983,2.43-1.516c0.292-0.305,0.589-0.605,0.872-0.919c0.269-0.483,0.534-0.97,0.786-1.464
		c0.563-1.965,1.017-3.955,1.386-5.973c1.547-20.256-1.406-41.051,6.076-60.41c5.654-14.631,13.699-28.187,27.407-35.405
		c15.064-7.933,30.884-8.49,47.035-4.358c24.731,6.328,48.984,24.839,62.018,48.457c11.073,20.064,12.914,43.248,15.522,65.884
		c1.024,7.414,2.374,14.765,4.655,21.843c0.931,2,1.952,3.941,3.079,5.821c1.916,2.285,3.977,4.403,6.218,6.361
		c-1.544-1.29,2.665,2.501,1.12,1.21c0.006,0.009,15.668,15.084,22.767,29.283c7.135,14.271,10.794,29.787,11.409,45.957
		c0.623,16.389-3.635,32.176-10.114,46.788C453.012,322.484,449.575,327.735,446.675,333.229z"/>
</g>
<g id="objects">
	<path style="fill:#09414F;" d="M224.849,71.166c16.298,0.983,11.585,23.673,8.904,32.59c-0.284,0.943,0.43,1.891,1.415,1.891
		h32.705v4.748c0,0-31.29,7.802-45.874,7.802c-14.584,0-2.441-34.132-2.441-34.132L224.849,71.166z"/>
	<path style="fill:#F15A24;" d="M164.069,62.245c0,0,8.646,12.887,5.797,19.52c-5.073,11.814,6.503,18.571,15.775,15.463
		c8.121-2.722,2.661-15.976,4.726-24.087c1.846-7.251-7.963-20.615-13.906-17.467C171.247,58.436,170.03,62.404,164.069,62.245z"/>
	<path style="fill:#EAC0AA;" d="M157.108,99.384l-7.412,0.683c-0.1,0.019-0.203,0.021-0.304,0.007l-1.031,0.719
		c-0.831-0.118-2.74-2.932-2.063-3.427l1.669-1.487c0.798-0.583,1.375-0.154,2.317,0.145l5.971,0.86L157.108,99.384z"/>
	<path style="fill:#D9921E;" d="M182.937,71.994l-9.793,17.143l-19.366,7.358l0.34,3.426c0,0,19.687-1.083,23.947-3.666
		S197.175,75.554,182.937,71.994z"/>
	<path style="opacity:0.3;fill:#D9921E;" d="M183.906,90.259c4.835-6.433,8.849-15.81-0.97-18.265l-4.868,8.521
		C180.877,82.999,182.917,86.332,183.906,90.259z"/>
	<ellipse style="fill:#F2F2F2;" cx="384.342" cy="449.033" rx="33.562" ry="4.157"/>
	<ellipse style="fill:#F2F2F2;" cx="264.748" cy="433.231" rx="102.486" ry="4.157"/>
	<path style="fill:#AFBDEA;" d="M361.334,118.196h-191.52c-5.656,0-10.24,4.585-10.24,10.24v267.622
		c0,5.655,4.585,10.24,10.24,10.24h191.52c5.655,0,10.24-4.585,10.24-10.24V128.437C371.574,122.781,366.99,118.196,361.334,118.196
		z"/>
	
		<rect x="139.676" y="165.829" transform="matrix(-1.836970e-16 1 -1 -1.836970e-16 523.8125 -7.3354)" style="fill:#FFFFFF;" width="251.796" height="184.819"/>
	
		<rect x="263.914" y="41.591" transform="matrix(-1.836970e-16 1 -1 -1.836970e-16 399.5746 -131.5732)" style="fill:#F2F2F2;" width="3.32" height="184.819"/>
	<g>
		
			<rect x="318.204" y="147.938" transform="matrix(-1 -1.224647e-16 1.224647e-16 -1 659.2673 318.7347)" style="fill:#F2F2F2;" width="22.859" height="22.859"/>
		<g>
			<rect x="246.771" y="148.029" style="fill:#AFBDEA;" width="63.813" height="4.581"/>
		</g>
		<g>
			<rect x="196.767" y="157.077" style="fill:#AFBDEA;" width="113.817" height="4.581"/>
		</g>
		
			<line style="fill:none;stroke:#808080;stroke-width:1.8325;stroke-miterlimit:10;" x1="310.585" y1="166.037" x2="189.624" y2="166.037"/>
		
			<line style="fill:none;stroke:#808080;stroke-width:1.8325;stroke-miterlimit:10;" x1="310.585" y1="170.797" x2="222.049" y2="170.797"/>
	</g>
	<g>
		<g>
			<g>
				<polyline style="fill:none;stroke:#E6E6E6;stroke-linecap:round;stroke-miterlimit:10;" points="212.483,202.422 
					212.483,204.422 210.483,204.422 				"/>
				
					<line style="fill:none;stroke:#E6E6E6;stroke-linecap:round;stroke-miterlimit:10;stroke-dasharray:3.7717,3.7717;" x1="206.711" y1="204.422" x2="193.51" y2="204.422"/>
				<polyline style="fill:none;stroke:#E6E6E6;stroke-linecap:round;stroke-miterlimit:10;" points="191.624,204.422 
					189.624,204.422 189.624,202.422 				"/>
				
					<line style="fill:none;stroke:#E6E6E6;stroke-linecap:round;stroke-miterlimit:10;stroke-dasharray:3.7717,3.7717;" x1="189.624" y1="198.65" x2="189.624" y2="185.449"/>
				<polyline style="fill:none;stroke:#E6E6E6;stroke-linecap:round;stroke-miterlimit:10;" points="189.624,183.564 
					189.624,181.564 191.624,181.564 				"/>
				
					<line style="fill:none;stroke:#E6E6E6;stroke-linecap:round;stroke-miterlimit:10;stroke-dasharray:3.7717,3.7717;" x1="195.396" y1="181.564" x2="208.597" y2="181.564"/>
				<polyline style="fill:none;stroke:#E6E6E6;stroke-linecap:round;stroke-miterlimit:10;" points="210.483,181.564 
					212.483,181.564 212.483,183.564 				"/>
				
					<line style="fill:none;stroke:#E6E6E6;stroke-linecap:round;stroke-miterlimit:10;stroke-dasharray:3.7717,3.7717;" x1="212.483" y1="187.335" x2="212.483" y2="200.536"/>
			</g>
		</g>
		<g>
			<rect x="220.102" y="181.654" style="fill:#AFBDEA;" width="113.817" height="4.581"/>
		</g>
		<g>
			<rect x="220.102" y="190.702" style="fill:#AFBDEA;" width="84.212" height="4.581"/>
		</g>
		
			<line style="fill:none;stroke:#808080;stroke-width:1.8325;stroke-miterlimit:10;" x1="220.102" y1="199.662" x2="341.063" y2="199.662"/>
		
			<line style="fill:none;stroke:#808080;stroke-width:1.8325;stroke-miterlimit:10;" x1="220.102" y1="204.422" x2="308.638" y2="204.422"/>
	</g>
	<g>
		<g>
			<g>
				<polyline style="fill:none;stroke:#E6E6E6;stroke-linecap:round;stroke-miterlimit:10;" points="212.483,357.422 
					212.483,359.422 210.483,359.422 				"/>
				
					<line style="fill:none;stroke:#E6E6E6;stroke-linecap:round;stroke-miterlimit:10;stroke-dasharray:3.7717,3.7717;" x1="206.711" y1="359.422" x2="193.51" y2="359.422"/>
				<polyline style="fill:none;stroke:#E6E6E6;stroke-linecap:round;stroke-miterlimit:10;" points="191.624,359.422 
					189.624,359.422 189.624,357.422 				"/>
				
					<line style="fill:none;stroke:#E6E6E6;stroke-linecap:round;stroke-miterlimit:10;stroke-dasharray:3.7717,3.7717;" x1="189.624" y1="353.651" x2="189.624" y2="340.449"/>
				<polyline style="fill:none;stroke:#E6E6E6;stroke-linecap:round;stroke-miterlimit:10;" points="189.624,338.564 
					189.624,336.564 191.624,336.564 				"/>
				
					<line style="fill:none;stroke:#E6E6E6;stroke-linecap:round;stroke-miterlimit:10;stroke-dasharray:3.7717,3.7717;" x1="195.396" y1="336.564" x2="208.597" y2="336.564"/>
				<polyline style="fill:none;stroke:#E6E6E6;stroke-linecap:round;stroke-miterlimit:10;" points="210.483,336.564 
					212.483,336.564 212.483,338.564 				"/>
				
					<line style="fill:none;stroke:#E6E6E6;stroke-linecap:round;stroke-miterlimit:10;stroke-dasharray:3.7717,3.7717;" x1="212.483" y1="342.335" x2="212.483" y2="355.536"/>
			</g>
		</g>
		<g>
			<rect x="220.102" y="336.654" style="fill:#AFBDEA;" width="113.817" height="4.581"/>
		</g>
		<g>
			<rect x="220.102" y="345.702" style="fill:#AFBDEA;" width="84.212" height="4.581"/>
		</g>
		
			<line style="fill:none;stroke:#808080;stroke-width:1.8325;stroke-miterlimit:10;" x1="220.102" y1="354.662" x2="341.063" y2="354.662"/>
		
			<line style="fill:none;stroke:#808080;stroke-width:1.8325;stroke-miterlimit:10;" x1="220.102" y1="359.422" x2="308.638" y2="359.422"/>
	</g>
	<g>
		<g>
			<g>
				<polyline style="fill:none;stroke:#E6E6E6;stroke-linecap:round;stroke-miterlimit:10;" points="318.204,238.048 
					318.204,240.048 320.204,240.048 				"/>
				
					<line style="fill:none;stroke:#E6E6E6;stroke-linecap:round;stroke-miterlimit:10;stroke-dasharray:3.7717,3.7717;" x1="323.976" y1="240.048" x2="337.177" y2="240.048"/>
				<polyline style="fill:none;stroke:#E6E6E6;stroke-linecap:round;stroke-miterlimit:10;" points="339.063,240.048 
					341.063,240.048 341.063,238.048 				"/>
				
					<line style="fill:none;stroke:#E6E6E6;stroke-linecap:round;stroke-miterlimit:10;stroke-dasharray:3.7717,3.7717;" x1="341.063" y1="234.276" x2="341.063" y2="221.075"/>
				<polyline style="fill:none;stroke:#E6E6E6;stroke-linecap:round;stroke-miterlimit:10;" points="341.063,219.189 
					341.063,217.189 339.063,217.189 				"/>
				
					<line style="fill:none;stroke:#E6E6E6;stroke-linecap:round;stroke-miterlimit:10;stroke-dasharray:3.7717,3.7717;" x1="335.291" y1="217.189" x2="322.09" y2="217.189"/>
				<polyline style="fill:none;stroke:#E6E6E6;stroke-linecap:round;stroke-miterlimit:10;" points="320.204,217.189 
					318.204,217.189 318.204,219.189 				"/>
				
					<line style="fill:none;stroke:#E6E6E6;stroke-linecap:round;stroke-miterlimit:10;stroke-dasharray:3.7717,3.7717;" x1="318.204" y1="222.961" x2="318.204" y2="236.162"/>
			</g>
		</g>
		<g>
			<rect x="226.373" y="217.28" style="fill:#AFBDEA;" width="84.212" height="4.581"/>
		</g>
		<g>
			<rect x="196.767" y="226.328" style="fill:#AFBDEA;" width="113.817" height="4.581"/>
		</g>
		
			<line style="fill:none;stroke:#808080;stroke-width:1.8325;stroke-miterlimit:10;" x1="310.585" y1="235.288" x2="189.624" y2="235.288"/>
		
			<line style="fill:none;stroke:#808080;stroke-width:1.8325;stroke-miterlimit:10;" x1="310.585" y1="240.048" x2="222.049" y2="240.048"/>
	</g>
	<g>
		<g>
			<g>
				<polyline style="fill:none;stroke:#E6E6E6;stroke-linecap:round;stroke-miterlimit:10;" points="212.483,277.673 
					212.483,279.673 210.483,279.673 				"/>
				
					<line style="fill:none;stroke:#E6E6E6;stroke-linecap:round;stroke-miterlimit:10;stroke-dasharray:3.7717,3.7717;" x1="206.711" y1="279.673" x2="193.51" y2="279.673"/>
				<polyline style="fill:none;stroke:#E6E6E6;stroke-linecap:round;stroke-miterlimit:10;" points="191.624,279.673 
					189.624,279.673 189.624,277.673 				"/>
				
					<line style="fill:none;stroke:#E6E6E6;stroke-linecap:round;stroke-miterlimit:10;stroke-dasharray:3.7717,3.7717;" x1="189.624" y1="273.901" x2="189.624" y2="260.701"/>
				<polyline style="fill:none;stroke:#E6E6E6;stroke-linecap:round;stroke-miterlimit:10;" points="189.624,258.815 
					189.624,256.815 191.624,256.815 				"/>
				
					<line style="fill:none;stroke:#E6E6E6;stroke-linecap:round;stroke-miterlimit:10;stroke-dasharray:3.7717,3.7717;" x1="195.396" y1="256.815" x2="208.597" y2="256.815"/>
				<polyline style="fill:none;stroke:#E6E6E6;stroke-linecap:round;stroke-miterlimit:10;" points="210.483,256.815 
					212.483,256.815 212.483,258.815 				"/>
				
					<line style="fill:none;stroke:#E6E6E6;stroke-linecap:round;stroke-miterlimit:10;stroke-dasharray:3.7717,3.7717;" x1="212.483" y1="262.586" x2="212.483" y2="275.787"/>
			</g>
		</g>
		<g>
			<rect x="220.102" y="256.904" style="fill:#AFBDEA;" width="116.634" height="4.582"/>
		</g>
		<g>
			<rect x="220.102" y="265.953" style="fill:#AFBDEA;" width="52.496" height="4.582"/>
		</g>
		
			<line style="fill:none;stroke:#808080;stroke-width:1.8325;stroke-miterlimit:10;" x1="220.102" y1="274.914" x2="341.063" y2="274.914"/>
		
			<line style="fill:none;stroke:#808080;stroke-width:1.8325;stroke-miterlimit:10;" x1="220.102" y1="279.673" x2="308.638" y2="279.673"/>
	</g>
	<g>
		<g>
			<g>
				<polyline style="fill:none;stroke:#E6E6E6;stroke-linecap:round;stroke-miterlimit:10;" points="318.204,317.299 
					318.204,319.299 320.204,319.299 				"/>
				
					<line style="fill:none;stroke:#E6E6E6;stroke-linecap:round;stroke-miterlimit:10;stroke-dasharray:3.7717,3.7717;" x1="323.976" y1="319.299" x2="337.177" y2="319.299"/>
				<polyline style="fill:none;stroke:#E6E6E6;stroke-linecap:round;stroke-miterlimit:10;" points="339.063,319.299 
					341.063,319.299 341.063,317.299 				"/>
				
					<line style="fill:none;stroke:#E6E6E6;stroke-linecap:round;stroke-miterlimit:10;stroke-dasharray:3.7717,3.7717;" x1="341.063" y1="313.527" x2="341.063" y2="300.326"/>
				<polyline style="fill:none;stroke:#E6E6E6;stroke-linecap:round;stroke-miterlimit:10;" points="341.063,298.44 341.063,296.44 
					339.063,296.44 				"/>
				
					<line style="fill:none;stroke:#E6E6E6;stroke-linecap:round;stroke-miterlimit:10;stroke-dasharray:3.7717,3.7717;" x1="335.291" y1="296.44" x2="322.09" y2="296.44"/>
				<polyline style="fill:none;stroke:#E6E6E6;stroke-linecap:round;stroke-miterlimit:10;" points="320.204,296.44 318.204,296.44 
					318.204,298.44 				"/>
				
					<line style="fill:none;stroke:#E6E6E6;stroke-linecap:round;stroke-miterlimit:10;stroke-dasharray:3.7717,3.7717;" x1="318.204" y1="302.212" x2="318.204" y2="315.413"/>
			</g>
		</g>
		<g>
			<rect x="193.951" y="296.53" style="fill:#AFBDEA;" width="116.634" height="4.582"/>
		</g>
		<g>
			<rect x="196.767" y="305.578" style="fill:#AFBDEA;" width="113.817" height="4.582"/>
		</g>
		
			<line style="fill:none;stroke:#808080;stroke-width:1.8325;stroke-miterlimit:10;" x1="310.585" y1="314.539" x2="189.624" y2="314.539"/>
		
			<line style="fill:none;stroke:#808080;stroke-width:1.8325;stroke-miterlimit:10;" x1="310.585" y1="319.299" x2="222.049" y2="319.299"/>
	</g>
	<g>
		<path style="fill:#4D4D4D;" d="M288.574,128h-38c-1.105,0-2-0.895-2-2l0,0c0-1.105,0.895-2,2-2h38c1.105,0,2,0.895,2,2l0,0
			C290.574,127.105,289.679,128,288.574,128z"/>
		<circle style="fill:#4D4D4D;" cx="242.574" cy="126" r="2"/>
	</g>
	<circle style="fill:#AFBDEA;" cx="265.574" cy="396" r="7"/>
	<circle style="fill:none;stroke:#F2F2F2;stroke-miterlimit:10;" cx="265.574" cy="396" r="7"/>
	<g>
		<g>
			<polygon style="fill:#AFEAC1;" points="329.685,168.502 322.078,158.36 325.035,156.141 328.956,161.369 336.87,144.552 
				340.215,146.125 			"/>
		</g>
	</g>
	<g>
		<g>
			
				<rect x="361.841" y="337.451" transform="matrix(-0.8686 0.4955 -0.4955 -0.8686 870.3611 466.9891)" style="fill:#FFFFFF;" width="22.859" height="22.859"/>
			<g>
				<g>
					<polygon style="fill:#AFEAC1;" points="377.841,356.789 366.208,351.749 367.678,348.357 373.674,350.955 372.216,332.426 
						375.901,332.135 					"/>
				</g>
			</g>
		</g>
		<g>
			<path style="fill:#808080;" d="M400.258,375.859c0,0-0.587,12.816-0.914,14.451c-0.327,1.634,0.914,14.601,0.914,14.601
				l16.085,34.214h-4.467c0,0-17.081-26.478-18.129-30.074c-1.048-3.596-7.715-22.228-7.715-22.228L400.258,375.859z"/>
			<path style="opacity:0.3;fill:#808080;" d="M388.352,393.349c3.198-2.04,6.147-3.986,7.916-5.304
				c2.026-1.51,3.099-3.538,3.652-5.507c0.189-3.433,0.338-6.679,0.338-6.679l-14.227,10.964
				C386.032,386.823,387.05,389.67,388.352,393.349z"/>
			<path style="fill:#D9921E;" d="M394.624,325.243c6.5,5.313,10.396,12.527,9.097,22.338c-1.299,9.811-4.473,17.025-3.463,28.278
				l-16.736-3.03c0,0,2.597-18.9,1.587-26.258c-1.01-7.358-1.251-13.006,1.9-16.241
				C390.159,327.094,394.624,325.243,394.624,325.243z"/>
			<path style="opacity:0.3;fill:#D9921E;" d="M397.95,333.009l-8.391,19.044l-4.288,2.131c-0.158,3.93-0.553,8.283-0.929,11.798
				c4.884-1.655,9.847-3.554,11.733-4.984C400.258,357.825,408.891,335.689,397.95,333.009z"/>
			<path style="fill:#EAC0AA;" d="M393.948,317.985c0,0-2.438,4.34,0.675,7.258c-5.478,7.848-7.615,5.087-7.615,5.087
				s1.811-4.094-2.515-6.172L393.948,317.985z"/>
			<path style="fill:#0C5769;" d="M393.075,322.125c1.548,0.537,1.782-1.795,3.895-4.14c2.113-2.345,3.823-13.111-1.006-11.803
				c0,0,0.101-4.226-2.817-4.729c-2.918-0.503-9.055,4.326-11.973,1.61c-2.918-2.717-8.319,6.753,0.469,7.451
				C390.43,311.213,393.075,322.125,393.075,322.125z"/>
			<path style="fill:#EAC0AA;" d="M381.576,309.704c0,0,0.604,4.729-1.308,6.641l1.398,2.012c0,0-0.815,4.93,0,5.836
				c0.815,0.906,10.876,0.302,11.178-2.415v-1.509v-1.711c0,0,1.207,0.302,1.71-2.113c0.503-2.415-1.912-2.314-2.214-1.509v-4.528
				c0,0-2.415,2.817-5.735,0.101C383.286,307.792,381.576,309.704,381.576,309.704z"/>
			<path style="fill:#D9921E;" d="M397.95,333.009l-8.391,19.044l-20.797,8.594l0.766,6.699c0,0,21.786-5.194,25.97-8.368
				C399.681,355.805,408.891,335.689,397.95,333.009z"/>
			<path style="fill:#EAC0AA;" d="M368.951,362.297l-4.038-4.894c0,0-3.923,1.615-1.961,4.894c1.961,3.278,6.42,3.686,6.42,3.686
				L368.951,362.297z"/>
			<path style="fill:#808080;" d="M400.258,375.859c0,0-0.042,6.605-5.599,10.746c-5.557,4.141-21.139,15.908-21.139,15.908
				s-4.048,35.74-4.149,35.74c-0.101,0-3.485-0.654-3.485-0.654s-5.333-35.631-2.5-39.662c2.833-4.032,20.135-25.108,20.135-25.108
				L400.258,375.859z"/>
			<path style="fill:#F15A24;" d="M416.343,439.125l1.561,5.441l-8.499,4.467h-7.635c-0.627,0-0.81-0.855-0.238-1.112l8.869-4.582
				l1.475-4.214H416.343z"/>
			<path style="fill:#F15A24;" d="M369.372,438.254v5.898c0,1.344-1.361,2.262-2.607,1.758l-17.919-7.247
				c-0.607-0.246-0.408-1.152,0.246-1.12l14.548,0.711l2.246-0.654L369.372,438.254z"/>
		</g>
	</g>
	<g>
		<path style="fill:#F15A24;" d="M76.152,359.671l-10.287,67.815h-4.512l-1.283-57.15c0,0-2.475-3.308-1.425-11.57L76.152,359.671z"
			/>
		<ellipse style="fill:#F2F2F2;" cx="70.226" cy="434.245" rx="15.195" ry="1.952"/>
		<path style="fill:#F2F2F2;" d="M140.24,433.231c0,1.078-3.695,1.951-8.254,1.951c-4.559,0-8.254-0.874-8.254-1.951
			c0-1.078,3.695-1.952,8.254-1.952C136.545,431.279,140.24,432.153,140.24,433.231z"/>
		<g>
			
				<rect x="82.471" y="325.189" transform="matrix(-0.9552 -0.296 0.296 -0.9552 83.947 685.9465)" style="fill:#FFFFFF;" width="22.859" height="22.859"/>
			<g>
				<g>
					<polygon style="fill:#AFEAC1;" points="91.245,345.359 86.981,333.419 90.463,332.176 92.66,338.33 105.198,324.609 
						107.927,327.102 					"/>
				</g>
			</g>
		</g>
		<path style="fill:#0C5769;" d="M65.051,312.085c-6.5,5.313-10.396,12.527-9.097,22.338s3.01,14.235,2,25.488l18.642,0.43
			c0,0-3.04-19.57-2.03-26.928c1.01-7.358,1.25-13.006-1.9-16.241C69.515,313.935,65.051,312.085,65.051,312.085z"/>
		<path style="fill:#09414F;" d="M61.724,319.851l8.391,19.044l4.288,2.131c0.158,3.93,0.553,8.283,0.929,11.798
			c-4.884-1.655-9.847-3.554-11.733-4.984C59.416,344.666,50.783,322.53,61.724,319.851z"/>
		<path style="fill:#EAC0AA;" d="M65.726,304.827c0,0,2.438,4.34-0.675,7.258c5.478,7.848,7.615,5.087,7.615,5.087
			s-1.811-4.094,2.515-6.172L65.726,304.827z"/>
		<path style="fill:#808080;" d="M66.55,308.911c-0.222-2.574-1.354-2.137-2.912-4.882c-1.558-2.745-4.824-15.32,7.295-15.32
			c2.961,0,7.583,3.62,11.219,1.987c6.21-2.788,6.795,10.551-1.937,9.34C71.484,298.824,66.55,308.911,66.55,308.911z"/>
		<path style="fill:#EAC0AA;" d="M80.455,299.258c0,0-1.608,4.488-0.153,6.766l-1.799,1.664c0,0-0.266,4.99-1.257,5.699
			c-0.991,0.709-10.686-2.048-10.396-4.766l0.325-1.474l0.368-1.67c0,0-1.244,0.035-1.215-2.432s2.365-1.848,2.487-0.997
			l0.416-1.884c0.217-0.985,1.305-1.438,2.203-0.98c0.911,0.465,2.213,0.648,3.935-0.224
			C79.197,297.023,80.455,299.258,80.455,299.258z"/>
		<path style="fill:#EAC0AA;" d="M90.894,347.652l6.188,1.914c0,0,0.503,3.6-3.316,3.509c-3.819-0.091-6.372-3.769-6.372-3.769
			L90.894,347.652z"/>
		<path style="fill:#0C5769;" d="M61.724,319.851l8.391,19.044l20.797,8.594l-0.766,6.699c0,0-21.786-5.194-25.97-8.368
			C59.993,342.646,50.783,322.53,61.724,319.851z"/>
		<path style="fill:#D9921E;" d="M61.353,427.486v6.759h16.842c1.036,0,1.258-1.46,0.268-1.768l-12.727-3.947l0.13-1.045H61.353z"/>
	</g>
	<path style="fill:#D9921E;" d="M178.077,74.335c2.919-8.821,9.506-9.543,16.318-8.666c6.657,0.857,10.137,5.357,29.89,4.985
		c0.326-0.006,0.6,0.212,0.521,0.529l-3.723,14.987c0,0-15.125-2.271-28.069,1.795c-7.086,2.226-8.932-2.615-11.338-6.137
		C179.128,78.098,178.077,74.335,178.077,74.335z"/>
	<line style="fill:none;stroke:#B3B3B3;stroke-miterlimit:10;" x1="148.711" y1="135.661" x2="148.711" y2="0"/>
	<path style="fill:#EAC0AA;" d="M177.186,64.01c0,0,0.798,4.472,4.53,5.305c0.509,0.114,0.883,0.542,0.914,1.063
		c0.53,8.962-2.315,7.588-2.315,7.588s-1.973-4.96-6.858-3.761L177.186,64.01z"/>
	<path style="fill:#F15A24;" d="M177.734,71.12c1.325-1.08,0.873-2.62,3.088-2.095c0.76-1.012-1.277-0.848-0.176-2.787
		c1.558-2.745,4.824-15.32-7.295-15.32c-2.961,0-7.583,3.62-11.22,1.987c-6.21-2.788-6.794,10.551,1.937,9.34
		C172.801,61.034,177.734,71.12,177.734,71.12z"/>
	<path style="fill:#EAC0AA;" d="M163.83,61.467c0,0,1.051,4.538,0.473,7.299c-0.13,0.623,0.333,1.207,0.968,1.165l0.511-0.034
		c0,0,0.266,4.99,1.257,5.699s10.686-2.048,10.396-4.766l-0.325-1.474l-0.368-1.67c0,0,1.244,0.035,1.215-2.432
		c-0.029-2.466-2.365-1.848-2.487-0.997l-0.415-1.884c-0.217-0.985-1.305-1.438-2.203-0.98c-0.911,0.465-2.213,0.648-3.935-0.224
		C165.088,59.232,163.83,61.467,163.83,61.467z"/>
	<path style="fill:#D9921E;" d="M183.837,71.847l9.451,17.695l-5.59,23.945h3.598c0,0,10.641-17.854,10.89-23.099
		C202.435,85.142,192.911,65.173,183.837,71.847z"/>
	<path style="fill:#EAC0AA;" d="M191.106,113.487l-2.676,4.709h-6.602l0.719-1.91c0.349-0.927,1.118-1.632,2.071-1.901l3.192-0.899
		H191.106z"/>
	<path style="fill:#0C5769;" d="M224.849,71.166c16.298,0.983,11.585,23.673,8.904,32.59c-0.284,0.943,0.43,1.891,1.415,1.891
		h32.705v4.748c0,0-23.606,7.802-38.19,7.802c-14.584,0-7.741-31.715-7.741-31.715l-0.808-0.524L224.849,71.166z"/>
	<path style="fill:#808080;" d="M267.874,105.646h5.107c0.959,0,1.681,0.872,1.503,1.814l-2.031,10.736h-8.479l5.427-4.709
		l-1.526-3.093V105.646z"/>
	<g>
		<g>
			
				<rect x="111.381" y="346.126" transform="matrix(-0.9257 0.3782 -0.3782 -0.9257 371.7416 642.0919)" style="fill:#E6E6E6;" width="22.859" height="22.859"/>
			<g>
				<g>
					<polygon style="fill:#AFEAC1;" points="126.313,365.992 115.435,359.48 117.333,356.308 122.94,359.664 123.905,341.103 
						127.597,341.294 					"/>
				</g>
			</g>
		</g>
		<g>
			
				<rect x="128.811" y="345.882" transform="matrix(-0.9888 -0.149 0.149 -0.9888 225.6913 731.5255)" style="fill:#FFFFFF;" width="22.859" height="22.859"/>
			<g>
				<g>
					<polygon style="fill:#AFEAC1;" points="138.93,366.351 132.919,355.189 136.173,353.436 139.272,359.19 149.603,343.738 
						152.676,345.793 					"/>
				</g>
			</g>
		</g>
		<path style="fill:#AFBDEA;" d="M147.645,389.547h-32.741c-3.092,0-5.599-2.507-5.599-5.599V365.06h43.94v18.887
			C153.245,387.04,150.738,389.547,147.645,389.547z"/>
		<polygon style="fill:none;stroke:#B3B3B3;stroke-miterlimit:10;" points="131.275,324.168 109.171,362.453 153.379,362.453 		"/>
		<path style="fill:#808080;" d="M153.027,365.06h-43.504c-1.557,0-2.819-1.262-2.819-2.819l0,0c0-1.557,1.262-2.819,2.819-2.819
			h43.504c1.557,0,2.819,1.262,2.819,2.819l0,0C155.846,363.798,154.584,365.06,153.027,365.06z"/>
		<line style="fill:none;stroke:#B3B3B3;stroke-miterlimit:10;" x1="131.275" y1="324.168" x2="131.275" y2="0"/>
		<path style="fill:#AFBDEA;" d="M131.275,327.015L131.275,327.015c-0.908,0-1.644-0.736-1.644-1.644v-2.939
			c0-0.908,0.736-1.644,1.644-1.644l0,0c0.908,0,1.644,0.736,1.644,1.644v2.939C132.919,326.279,132.183,327.015,131.275,327.015z"
			/>
	</g>
	<path style="fill:#AFBDEA;" d="M148.711,140.078L148.711,140.078c-0.908,0-1.644-0.736-1.644-1.644v-2.939
		c0-0.908,0.736-1.644,1.644-1.644l0,0c0.908,0,1.644,0.736,1.644,1.644v2.939C150.355,139.342,149.619,140.078,148.711,140.078z"/>
</g>
<g id="designed_by_freepik">
	<g>
		<g id="XMLID_29_">
			<g id="XMLID_48_">
				<path id="XMLID_56_" style="fill:#1D262D;" d="M260.104,466.161c-0.432,0.443-0.803,0.931-1.108,1.453l-0.465-0.241
					c-0.067-0.298-0.349-0.503-0.659-0.466c-0.331,0.039-0.568,0.339-0.529,0.67s0.339,0.568,0.67,0.529
					c0.065-0.008,0.127-0.026,0.184-0.052l0.451,0.234c-0.251,0.554-0.433,1.139-0.539,1.744l0.746,0.132
					c0.23-1.306,0.85-2.507,1.792-3.473L260.104,466.161z"/>
				<path id="XMLID_55_" style="fill:#1D262D;" d="M265.592,463.859c-0.171,0-0.341,0.006-0.51,0.017l-0.074-0.626
					c0.188-0.149,0.296-0.389,0.266-0.645c-0.046-0.393-0.402-0.674-0.795-0.628s-0.674,0.402-0.628,0.795
					c0.03,0.254,0.189,0.461,0.405,0.564l0.073,0.624c-0.714,0.116-1.403,0.332-2.06,0.646l0.327,0.684
					c0.934-0.447,1.942-0.673,2.995-0.673c0.496,0,0.993,0.053,1.475,0.158l0.161-0.741
					C266.693,463.918,266.142,463.859,265.592,463.859z"/>
				<path id="XMLID_54_" style="fill:#1D262D;" d="M272.194,466.406c0.331-0.04,0.566-0.341,0.525-0.672
					c-0.04-0.331-0.341-0.566-0.672-0.526c-0.309,0.038-0.535,0.304-0.53,0.609l-0.416,0.363c-0.418-0.43-0.89-0.813-1.408-1.139
					l-0.404,0.641c1.134,0.715,2.021,1.726,2.563,2.925l0.691-0.313c-0.251-0.554-0.568-1.072-0.942-1.545l0.402-0.351
					C272.065,466.411,272.129,466.414,272.194,466.406z"/>
				<path id="XMLID_53_" style="fill:#1D262D;" d="M265.044,474.068c-0.386,0.023-0.775,0.035-1.157,0.035
					c-0.88,0-1.733-0.061-2.478-0.179c-0.39-0.062-0.846-0.155-1.27-0.292c1.046,1.861,3.069,3.125,5.388,3.125
					c2.855,0,5.262-1.916,5.95-4.504c-0.682,0.449-1.505,0.825-2.459,1.123C267.839,473.743,266.464,473.982,265.044,474.068z"/>
				<path id="XMLID_49_" style="fill:#1D262D;" d="M265.592,465.375c-3.352,0-6.08,2.666-6.08,5.943
					c0,0.426,0.046,0.849,0.137,1.261c0.674,0.483,2.706,0.89,5.348,0.731c2.879-0.173,5.297-0.957,6.672-2.159
					c-0.005-0.195-0.021-0.39-0.045-0.582C271.244,467.609,268.65,465.375,265.592,465.375z M263.432,471.89
					c-1.02,0-1.85-0.83-1.85-1.85c0-1.02,0.83-1.85,1.85-1.85c1.02,0,1.85,0.83,1.85,1.85
					C265.282,471.06,264.452,471.89,263.432,471.89z M268.17,470.982c-0.75,0-1.36-0.61-1.36-1.36s0.61-1.361,1.36-1.361
					c0.75,0,1.361,0.61,1.361,1.361S268.92,470.982,268.17,470.982z"/>
			</g>
			<path id="XMLID_46_" style="fill:#1D262D;" d="M281.595,467.242c-0.295-0.116-0.806-0.309-1.382-0.237
				c-0.551,0.069-0.844,0.341-0.844,1.007v0.866h2.228v1.717h-2.228v5.455h-1.932v-5.455h-1.34v-1.717h1.34v-0.888
				c0-1.68,0.896-2.783,2.568-2.783c0.642,0,1.157,0.122,1.59,0.308L281.595,467.242z"/>
			<path id="XMLID_44_" style="fill:#1D262D;" d="M286.298,470.574c-0.177-0.03-0.358-0.046-0.526-0.046
				c-0.896,0-1.51,0.548-1.51,1.614v3.908h-1.932v-7.172h1.873v0.785c0.451-0.673,1.14-0.977,2.021-0.977
				c0.414,0,0.848,0.128,1.094,0.337L286.298,470.574z"/>
			<path id="XMLID_41_" style="fill:#1D262D;" d="M293.965,472.453c0,0.222-0.015,0.489-0.037,0.651h-5.085
				c0.207,1.036,0.933,1.488,1.843,1.488c0.622,0,1.295-0.252,1.813-0.688l1.132,1.243c-0.814,0.748-1.85,1.088-3.057,1.088
				c-2.198,0-3.723-1.495-3.723-3.753c0-2.258,1.48-3.797,3.627-3.797C292.544,468.685,293.958,470.217,293.965,472.453z
				 M288.851,471.786h3.175c-0.177-0.918-0.733-1.436-1.562-1.436C289.554,470.351,289.021,470.898,288.851,471.786z"/>
			<path id="XMLID_38_" style="fill:#1D262D;" d="M301.618,472.453c0,0.222-0.015,0.489-0.037,0.651h-5.085
				c0.207,1.036,0.932,1.488,1.843,1.488c0.622,0,1.295-0.252,1.813-0.688l1.132,1.243c-0.814,0.748-1.85,1.088-3.057,1.088
				c-2.198,0-3.723-1.495-3.723-3.753c0-2.258,1.48-3.797,3.627-3.797C300.197,468.685,301.611,470.217,301.618,472.453z
				 M296.504,471.786h3.175c-0.178-0.918-0.733-1.436-1.562-1.436C297.207,470.351,296.674,470.898,296.504,471.786z"/>
			<path id="XMLID_35_" style="fill:#1D262D;" d="M309.964,472.46c0,2.154-1.495,3.775-3.471,3.775
				c-0.962,0-1.643-0.378-2.109-0.933v3.708h-1.924v-10.133h1.887v0.792c0.466-0.585,1.155-0.984,2.139-0.984
				C308.469,468.685,309.964,470.306,309.964,472.46z M304.287,472.46c0,1.132,0.747,1.976,1.843,1.976
				c1.14,0,1.85-0.881,1.85-1.976c0-1.095-0.71-1.976-1.85-1.976C305.035,470.484,304.287,471.328,304.287,472.46z"/>
			<path id="XMLID_32_" style="fill:#1D262D;" d="M313.068,466.531c0,0.696-0.54,1.229-1.236,1.229
				c-0.696,0-1.229-0.533-1.229-1.229c0-0.696,0.533-1.243,1.229-1.243C312.527,465.288,313.068,465.836,313.068,466.531z
				 M312.809,476.05h-1.932v-7.172h1.932V476.05z"/>
			<path id="XMLID_30_" style="fill:#1D262D;" d="M316.032,471.431l2.702-2.554h2.368l-3.479,3.375l3.501,3.797h-2.376l-2.716-2.901
				v2.901H314.1v-10.658h1.932V471.431z"/>
		</g>
		<g>
			<path style="fill:#1D262D;" d="M184.412,475.985v-1.055c-0.527,0.718-1.391,1.23-2.387,1.23c-1.846,0-3.149-1.406-3.149-3.706
				c0-2.256,1.289-3.721,3.149-3.721c0.952,0,1.816,0.469,2.387,1.245v-3.765h1.099v9.77H184.412z M184.412,474.066v-3.208
				c-0.395-0.615-1.245-1.143-2.124-1.143c-1.421,0-2.27,1.172-2.27,2.739c0,1.567,0.85,2.724,2.27,2.724
				C183.168,475.179,184.017,474.681,184.412,474.066z"/>
			<path style="fill:#1D262D;" d="M186.932,472.44c0-2.051,1.465-3.706,3.486-3.706c2.139,0,3.398,1.67,3.398,3.794v0.279h-5.727
				c0.088,1.333,1.025,2.446,2.549,2.446c0.805,0,1.626-0.322,2.182-0.894l0.527,0.718c-0.703,0.703-1.655,1.084-2.812,1.084
				C188.44,476.16,186.932,474.652,186.932,472.44z M190.403,469.642c-1.509,0-2.256,1.274-2.314,2.358h4.643
				C192.718,470.946,192.015,469.642,190.403,469.642z"/>
			<path style="fill:#1D262D;" d="M194.607,475.047l0.571-0.791c0.469,0.542,1.362,1.011,2.329,1.011c1.084,0,1.67-0.513,1.67-1.216
				c0-1.714-4.38-0.659-4.38-3.281c0-1.098,0.952-2.036,2.636-2.036c1.201,0,2.051,0.454,2.622,1.026l-0.513,0.762
				c-0.424-0.513-1.201-0.894-2.109-0.894c-0.967,0-1.567,0.483-1.567,1.113c0,1.552,4.38,0.527,4.38,3.281
				c0,1.187-0.952,2.138-2.783,2.138C196.306,476.16,195.325,475.809,194.607,475.047z"/>
			<path style="fill:#1D262D;" d="M201.477,467.167c0-0.41,0.337-0.747,0.732-0.747c0.41,0,0.747,0.337,0.747,0.747
				c0,0.41-0.337,0.732-0.747,0.732C201.814,467.899,201.477,467.577,201.477,467.167z M201.667,475.985v-7.075h1.099v7.075H201.667
				z"/>
			<path style="fill:#1D262D;" d="M204.582,477.801l0.556-0.82c0.586,0.703,1.289,0.967,2.3,0.967c1.172,0,2.27-0.571,2.27-2.124
				v-1.011c-0.513,0.718-1.377,1.26-2.373,1.26c-1.845,0-3.149-1.377-3.149-3.662c0-2.27,1.289-3.677,3.149-3.677
				c0.952,0,1.802,0.469,2.373,1.245v-1.069h1.098v6.87c0,2.344-1.641,3.076-3.369,3.076
				C206.237,478.856,205.417,478.621,204.582,477.801z M209.709,473.949v-3.091c-0.381-0.615-1.23-1.143-2.109-1.143
				c-1.421,0-2.27,1.128-2.27,2.695c0,1.553,0.849,2.695,2.27,2.695C208.478,475.106,209.328,474.564,209.709,473.949z"/>
			<path style="fill:#1D262D;" d="M217.413,475.985v-4.629c0-1.245-0.63-1.641-1.582-1.641c-0.865,0-1.685,0.527-2.095,1.099v5.17
				h-1.099v-7.075h1.099v1.025c0.498-0.586,1.464-1.201,2.519-1.201c1.48,0,2.256,0.747,2.256,2.285v4.966H217.413z"/>
			<path style="fill:#1D262D;" d="M219.932,472.44c0-2.051,1.465-3.706,3.486-3.706c2.139,0,3.398,1.67,3.398,3.794v0.279h-5.727
				c0.088,1.333,1.025,2.446,2.549,2.446c0.806,0,1.626-0.322,2.183-0.894l0.527,0.718c-0.703,0.703-1.655,1.084-2.812,1.084
				C221.441,476.16,219.932,474.652,219.932,472.44z M223.404,469.642c-1.509,0-2.256,1.274-2.314,2.358h4.643
				C225.718,470.946,225.015,469.642,223.404,469.642z"/>
			<path style="fill:#1D262D;" d="M233.35,475.985v-1.055c-0.527,0.718-1.392,1.23-2.388,1.23c-1.846,0-3.149-1.406-3.149-3.706
				c0-2.256,1.289-3.721,3.149-3.721c0.952,0,1.817,0.469,2.388,1.245v-3.765h1.098v9.77H233.35z M233.35,474.066v-3.208
				c-0.396-0.615-1.245-1.143-2.124-1.143c-1.421,0-2.27,1.172-2.27,2.739c0,1.567,0.849,2.724,2.27,2.724
				C232.105,475.179,232.954,474.681,233.35,474.066z"/>
			<path style="fill:#1D262D;" d="M239.692,475.985v-9.77h1.098v3.765c0.572-0.776,1.421-1.245,2.388-1.245
				c1.845,0,3.149,1.465,3.149,3.721c0,2.299-1.304,3.706-3.149,3.706c-0.996,0-1.86-0.513-2.388-1.23v1.055H239.692z
				 M242.9,475.179c1.436,0,2.285-1.157,2.285-2.724c0-1.568-0.85-2.739-2.285-2.739c-0.864,0-1.728,0.527-2.109,1.143v3.208
				C241.171,474.681,242.036,475.179,242.9,475.179z"/>
			<path style="fill:#1D262D;" d="M247.528,477.757c0.161,0.073,0.425,0.117,0.601,0.117c0.483,0,0.805-0.161,1.055-0.747
				l0.469-1.069l-2.959-7.148h1.187l2.358,5.8l2.344-5.8h1.201l-3.545,8.51c-0.425,1.025-1.143,1.421-2.08,1.435
				c-0.234,0-0.601-0.044-0.805-0.103L247.528,477.757z"/>
		</g>
	</g>
</g>
</svg>
