<?xml version="1.0" encoding="utf-8"?>
<svg xmlns="http://www.w3.org/2000/svg" version="1.1" x="0px" y="0px" viewBox="0 0 500 500" style="enable-;background-color:transparent;">
  <g id="BACKGROUND">
    <rect style="fill:none;" width="500" height="500" fill="none"/>
  </g>
  <g id="OBJECTS" style="" transform="matrix(1.286561, 0, 0, 1.169771, -67.954919, -39.148385)">
    <g>
      <linearGradient id="SVGID_1_" gradientUnits="userSpaceOnUse" x1="303.6511" y1="126.3188" x2="315.7675" y2="149.6397">
        <stop offset="0" style="stop-color:#FF5B45"/>
        <stop offset="1" style="stop-color:#FFA1A6"/>
      </linearGradient>
      <path style="fill:none;stroke:url(#SVGID_1_);strokeWidth:0.7845;stroke-miterlimit:10;" d="M289.488,134.069h18.637 c2.159,0,3.91,1.751,3.91,3.91l0,0c0,2.159,1.751,3.91,3.91,3.91h13.985"/>
      <g>
        <path style="fill:#2E1D4F;" d="M403.7,213.207c0,0-8.349,7.951-16.351,5.146c-7.669-2.682-19.868-21.029-22.627-23.712 c-0.032-1.502,0-3.08,0.173-4.357c0.25-0.263,0.456-0.513,0.61-0.751c1.482-2.342,1.887-3.889,1.887-3.889s3.773,1.662,4.46-1.2 c0.687-2.856-1.777-4.229-3.889-2.798l-0.058-4.062c0,0-7.322,1.373-13.04-5.775c-2.002,2.689-7.303,4.152-7.303,4.152 c-3.677,0.25-8.419-14.33,2.214-17.589c10.633-3.26,13.495,2.285,15.042,5.262c1.54,2.971,6.173-2.175,10.518,3.029 c4.344,5.204,0.006,14.644,1.604,17.326c4.46,7.489,8.804,2.458,14.066,6.975c5.262,4.518,0.629,10.235,2.516,16.242 C395.409,213.207,403.7,213.207,403.7,213.207z"/>
        <g>
          <linearGradient id="SVGID_00000037664363845375278590000009722403876457885318_" gradientUnits="userSpaceOnUse" x1="313.932" y1="528.8961" x2="264.7201" y2="363.9242">
            <stop offset="0" style="stop-color:#FF5B45"/>
            <stop offset="1" style="stop-color:#FFA1A6"/>
          </linearGradient>
          <path style="fill:url(#SVGID_00000037664363845375278590000009722403876457885318_);" d="M307.449,441.015 c-1.429,2.243-7.626,2.961-12.727,3.412c-5.101,0.451-20.199,3.623-24.497,1.75c-4.298-1.873-7.466-4.924-6.669-7.251 c0.803-2.324,7.652-4.379,14.23-7.032c6.546-2.646,15.214-10.188,15.96-11.737c0.754,0.411,2.411,1.447,3.123,2.822 c0.842,1.632,4.972,5.896,10.934,4.908C308.083,433.269,308.321,439.644,307.449,441.015z"/>
          <linearGradient id="SVGID_00000048483328050457784990000005342823677334960275_" gradientUnits="userSpaceOnUse" x1="416.5489" y1="861.8257" x2="407.2281" y2="821.9327" gradientTransform="matrix(0.8304 0.5571 -0.5571 0.8304 430.4751 -514.4232)">
            <stop offset="0" style="stop-color:#FFD0C2"/>
            <stop offset="1" style="stop-color:#F7AF9F"/>
          </linearGradient>
          <path style="fill:url(#SVGID_00000048483328050457784990000005342823677334960275_);" d="M307.802,427.885 c-5.962,0.988-10.092-3.276-10.934-4.908c-0.712-1.375-2.369-2.411-3.123-2.822l0.017-0.026 c0.661-1.493,1.752-10.018,1.752-10.018l13.963-1.241c-0.799,1.825-1.809,8.724-1.974,11.476 C307.438,421.415,307.634,424.447,307.802,427.885z"/>
          <path style="fill:#5D4F6D;" d="M322.243,342.056c-6.778,13.948-8.574,43.805-10.724,60.663 c-0.769,6.08-1.585,10.473-2.699,11.814c-4.197,5.052-14.544-0.024-15.658-2.816c-0.714-1.765-0.651-19.792,1.271-39.09 c1.114-11.187,2.855-22.805,5.436-31.936c7.037-24.883,30.202-71.152,31.873-73.254c0,0,21.259,0.557,23.636,6.354 C357.763,279.588,331.468,323.079,322.243,342.056z"/>
          <linearGradient id="SVGID_00000090277975873110556420000007940828865817413055_" gradientUnits="userSpaceOnUse" x1="420.9236" y1="399.1843" x2="282.6082" y2="302.2516">
            <stop offset="0" style="stop-color:#000000"/>
            <stop offset="1" style="stop-color:#000000;stop-opacity:0"/>
          </linearGradient>
          <path style="opacity:0.45;fill:url(#SVGID_00000090277975873110556420000007940828865817413055_);" d="M322.243,342.056 c-6.778,13.948-8.574,43.805-10.724,60.663c0,0-10.112-12.057-17.086-30.092c1.114-11.187,2.855-22.805,5.436-31.936 c7.037-24.883,30.202-71.152,31.873-73.254c0,0,21.259,0.557,23.636,6.354C357.763,279.588,331.468,323.079,322.243,342.056z"/>
          <path style="opacity:0.25;fill:none;stroke:#FFFFFF;strokeWidth:0.7845;stroke-miterlimit:10;" d="M302.156,416.575 c0,0,5.41-64.736,12.255-85.667c6.846-20.931,32.951-59.562,32.951-59.562"/>
          <linearGradient id="SVGID_00000051351744995883247060000001444300609307375537_" gradientUnits="userSpaceOnUse" x1="357.3006" y1="515.959" x2="308.0887" y2="350.9873">
            <stop offset="0" style="stop-color:#FF5B45"/>
            <stop offset="1" style="stop-color:#FFA1A6"/>
          </linearGradient>
          <path style="fill:url(#SVGID_00000051351744995883247060000001444300609307375537_);" d="M355.379,435.204 c0.063,2.659-4.683,6.707-8.668,9.924c-3.985,3.216-14.756,14.262-19.368,15.101c-4.613,0.839-8.943,0.071-9.578-2.306 c-0.628-2.377,3.914-7.9,7.9-13.768c3.961-5.844,6.958-16.937,6.715-18.639c0.855-0.078,2.808-0.141,4.165,0.604 c1.608,0.886,7.413,2.126,11.814-2.016C351.59,428.418,355.339,433.58,355.379,435.204z"/>
          <linearGradient id="SVGID_00000086691458549876872020000003178886060151149448_" gradientUnits="userSpaceOnUse" x1="341.7825" y1="435.0309" x2="332.4621" y2="395.1394">
            <stop offset="0" style="stop-color:#FFD0C2"/>
            <stop offset="1" style="stop-color:#F7AF9F"/>
          </linearGradient>
          <path style="fill:url(#SVGID_00000086691458549876872020000003178886060151149448_);" d="M348.358,424.104 c-4.401,4.142-10.206,2.902-11.814,2.016c-1.357-0.745-3.31-0.682-4.165-0.604v-0.031c-0.282-1.608-4.126-9.296-4.126-9.296 l10.904-8.81c0.353,1.961,3.358,8.253,4.754,10.63C344.451,418.934,346.302,421.342,348.358,424.104z"/>
          <path style="fill:#5D4F6D;" d="M344.399,270.692c0,0-33.529,54.81-39.494,71.214c-5.965,16.404-1.118,22.369,4.101,35.231 c5.219,12.862,16.404,39.332,16.218,41.569c-0.186,2.237,14.913-4.66,15.099-8.202c0.186-3.542-11.184-52.754-12.117-59.278 c-0.932-6.524,39.332-53.872,40.451-64.87S344.399,270.692,344.399,270.692z"/>
          <path style="opacity:0.25;fill:none;stroke:#FFFFFF;strokeWidth:0.7845;stroke-miterlimit:10;" d="M336.542,414.531 c0,0-14.301-55.102-14.301-65.728c0-10.625,39.705-75.587,39.705-75.587"/>
        </g>
        <g>
          <linearGradient id="SVGID_00000090267318269591175500000009492909748670829185_" gradientUnits="userSpaceOnUse" x1="280.4271" y1="199.727" x2="298.8828" y2="223.0296">
            <stop offset="0" style="stop-color:#FFD0C2"/>
            <stop offset="1" style="stop-color:#F7AF9F"/>
          </linearGradient>
          <path style="fill:url(#SVGID_00000090267318269591175500000009492909748670829185_);" d="M291.248,207.503l-3.35,3.075 c0,0-4.707-5.962-8.488-7.829c-0.769-0.377-1.702-0.863-2.714-1.412c-0.008,0-0.008,0-0.008,0 c-3.977-2.157-9.123-5.248-9.72-6.323c-0.745-1.349,7.225-0.604,9.884,0.188c2.651,0.792,6.292,2.518,6.519,2.33 c0.235-0.188-0.651-3.405-0.047-4.197c0.612-0.792,4.848,2.753,5.734,5.876c0.118,0.408,0.243,0.855,0.369,1.326 C290.267,203.604,291.248,207.503,291.248,207.503z"/>
          <linearGradient id="SVGID_00000147207888328400780210000002899785400856590224_" gradientUnits="userSpaceOnUse" x1="298.36" y1="231.9866" x2="276.3636" y2="187.3415">
            <stop offset="0" style="stop-color:#000000"/>
            <stop offset="1" style="stop-color:#000000;stop-opacity:0"/>
          </linearGradient>
          <path style="opacity:0.45;fill:url(#SVGID_00000147207888328400780210000002899785400856590224_);" d="M291.248,207.503 l-3.35,3.075c0,0-4.707-5.962-8.488-7.829c-0.769-0.377-1.702-0.863-2.714-1.412c1.396,0.133,3.734,0.384,6.354,0.761 c3.577,0.518,4.676-1.373,6.378-1.561C290.267,203.604,291.248,207.503,291.248,207.503z"/>
          <linearGradient id="SVGID_00000078743310948005190090000015073219648386941322_" gradientUnits="userSpaceOnUse" x1="324.2058" y1="284.8246" x2="333.4328" y2="194.2319">
            <stop offset="0" style="stop-color:#FF5B45"/>
            <stop offset="1" style="stop-color:#FFA1A6"/>
          </linearGradient>
          <path style="fill:url(#SVGID_00000078743310948005190090000015073219648386941322_);" d="M378.999,209.056 c0,0-0.439,7.186-1.122,14.089c-0.463,4.613-1.02,9.1-1.632,11.234c-0.047,0.157-0.086,0.298-0.133,0.431 c-0.745,2.149-1.796,11.32-3.358,20.749c-1.616,9.712-3.773,19.714-6.691,22.616c-0.283,0.275-0.565,0.486-0.855,0.628 c-4.417,2.142-13.618,0.172-19.612-1.82c-2.62-0.863-4.628-1.742-5.366-2.275c-2.424-1.773-7.178,0.369-8.111-2.895 c-0.934-3.263-3.075-1.302-3.726-4.283c-0.651-2.981,0.369-2.149,3.263-6.527c2.887-4.377,5.123-16.497,4.009-21.526 c-1.122-5.036-1.216-9.414-1.216-9.414s-22.46,10.904-28.241,7.452c-2.33-1.389-6.362-5.986-10.332-11.069 c-5.883-7.539-11.61-16.152-11.383-16.984c0.369-1.396,2.236-6.15,7.452-7.178c2.518,0.933,16.592,19.196,20.977,17.611 c4.377-1.585,25.252-19.573,29.355-22.083c2.502-1.538,7.39-2.204,10.826-2.495c2.204-0.18,3.812-0.212,3.812-0.212 c13.791,0.188,19.196,6.715,19.196,6.715l0.133,0.329L378.999,209.056z"/>
          <linearGradient id="SVGID_00000168820322083161832830000016070731046771069375_" gradientUnits="userSpaceOnUse" x1="371.8518" y1="181.9888" x2="358.7799" y2="213.3054">
            <stop offset="0" style="stop-color:#000000"/>
            <stop offset="1" style="stop-color:#000000;stop-opacity:0"/>
          </linearGradient>
          <path style="opacity:0.45;fill:url(#SVGID_00000168820322083161832830000016070731046771069375_);" d="M376.599,202.2 c-0.118-0.016-0.235-0.031-0.353-0.047c-0.165-0.023-0.329-0.039-0.487-0.063c-1.082-0.149-2.071-0.322-2.769-0.714 c-2.204-1.224-4.401,3.985-7.476,2.589c-3.075-1.396-5.664,4.472-9.594,4.958c-3.93,0.494-2.22-3.844-3.303-6.707 c-1.075-2.863,1.012-3.428,0.761-5.805c-0.047-0.424-0.141-0.785-0.274-1.09c2.204-0.18,3.812-0.212,3.812-0.212 c13.791,0.188,19.196,6.715,19.196,6.715c0.063,0.039,0.118,0.086,0.18,0.133C376.395,202.035,376.497,202.114,376.599,202.2z"/>
          <linearGradient id="SVGID_00000137123408511942925460000004036358127026072984_" gradientUnits="userSpaceOnUse" x1="425.8681" y1="249.9443" x2="351.1179" y2="246.7754">
            <stop offset="0" style="stop-color:#000000"/>
            <stop offset="1" style="stop-color:#000000;stop-opacity:0"/>
          </linearGradient>
          <path style="opacity:0.45;fill:url(#SVGID_00000137123408511942925460000004036358127026072984_);" d="M377.877,223.145 c-0.494,4.95-1.106,9.759-1.765,11.665c-1.585,4.574-4.566,40.918-10.904,43.993c-4.417,2.142-13.618,0.172-19.612-1.82 l4.668-2.126c0,0-0.431-5.837,1.428-16.466c1.867-10.622,8.763-9.037,15.289-13.885c6.519-4.848,4.934-4.942,3.35-12.952 c-1.585-8.017,1.639-16.497,1.639-16.497L377.877,223.145z"/>
          <path style="fill:#2E1D4F;" d="M386.148,282.112l-21.094,18.965c-0.75,0.674-1.904,0.613-2.578-0.137l-29.06-32.322 c-0.674-0.75-0.613-1.904,0.137-2.578l21.094-18.965c0.75-0.674,1.904-0.613,2.578,0.137l29.06,32.322 C386.959,280.284,386.897,281.439,386.148,282.112z"/>
          <linearGradient id="SVGID_00000010989124122203886910000014925833727101562524_" gradientUnits="userSpaceOnUse" x1="375.8746" y1="290.0891" x2="385.1018" y2="199.4945">
            <stop offset="0" style="stop-color:#FF5B45"/>
            <stop offset="1" style="stop-color:#FFA1A6"/>
          </linearGradient>
          <path style="fill:url(#SVGID_00000010989124122203886910000014925833727101562524_);" d="M397.826,242.922 c0.094,11.281-17.329,28.429-30.288,35.788c-0.432,0.016-0.941-0.18-1.475-0.533c-0.471-0.314-0.965-0.745-1.451-1.255 c-1.632-1.71-3.216-4.299-3.71-6.229c-0.102-0.369-0.157-0.714-0.165-1.02c2.863-3.334,7.758-8.998,12.018-14.113 c4.307-5.193,7.97-9.837,8.206-10.912c0.235-1.09-2.197-5.06-4.715-10.269c-2.424-5.005-4.934-11.147-5.256-16.992 c-0.557-10.128,3.522-14.277,4.77-15.297c0.22-0.18,0.353-0.267,0.353-0.267c0.063,0.039,0.118,0.086,0.18,0.133 c0.102,0.079,0.204,0.157,0.306,0.243C383.125,207.55,396.195,230.292,397.826,242.922z"/>
          <linearGradient id="SVGID_00000015354101791977077210000003702614112619180417_" gradientUnits="userSpaceOnUse" x1="330.6019" y1="252.4632" x2="316.4814" y2="225.2009">
            <stop offset="0" style="stop-color:#000000"/>
            <stop offset="1" style="stop-color:#000000;stop-opacity:0"/>
          </linearGradient>
          <path style="opacity:0.45;fill:url(#SVGID_00000015354101791977077210000003702614112619180417_);" d="M336.363,222.557 c-1.679,2.659-1.914,7.507-1.914,7.507s-22.46,10.904-28.241,7.452c-2.33-1.389-6.362-5.986-10.332-11.069 c5.036,4.675,10.755,9.398,13.783,9.947C315.81,237.517,329.515,226.754,336.363,222.557z"/>
          <linearGradient id="SVGID_00000007395749331168973820000004289261725113486988_" gradientUnits="userSpaceOnUse" x1="346.2326" y1="286.6779" x2="378.1085" y2="262.6311">
            <stop offset="0" style="stop-color:#FFD0C2"/>
            <stop offset="1" style="stop-color:#F7AF9F"/>
          </linearGradient>
          <path style="fill:url(#SVGID_00000007395749331168973820000004289261725113486988_);" d="M364.612,276.921 c-0.784,0.628-1.506,1.412-1.898,2.346c-0.479,1.616-1.153,3.028-1.953,4.252c-3.358,5.122-8.896,6.903-10.873,5.86 c-2.448-1.302-1.608-2.722-1.608-2.722s-1.694-0.039-1.82-1.294c5.405-0.753,6.174-3.569,6.174-3.569s-0.824,0.855-2.754,1.898 c-1.938,1.035-5.138,0.651-5.444-0.298c-0.306-0.957,1.365-1.122,3.695-1.71c2.33-0.581,4.997-4.785,4.37-4.723 c-0.628,0.063-2.73,1.804-3.781,1.632c-1.059-0.181,0.275-2.965,2.832-4.84c1.592-1.161,5.091-2.11,7.499-2.659 c0.753-0.18,1.404-0.314,1.851-0.4C361.396,272.622,362.98,275.211,364.612,276.921z"/>
          <linearGradient id="SVGID_00000026880990563452202720000014405209010179534230_" gradientUnits="userSpaceOnUse" x1="373.7559" y1="256.6874" x2="353.344" y2="287.0723">
            <stop offset="0" style="stop-color:#000000"/>
            <stop offset="1" style="stop-color:#000000;stop-opacity:0"/>
          </linearGradient>
          <path style="opacity:0.45;fill:url(#SVGID_00000026880990563452202720000014405209010179534230_);" d="M364.612,276.921 c-0.784,0.628-1.506,1.412-1.898,2.346c-0.479,1.616-1.153,3.028-1.953,4.252c0.181-1.663,0.243-3.428-0.023-4.809 c-0.471-2.455-1.24-5.727-1.687-7.617c0.753-0.18,1.404-0.314,1.851-0.4C361.396,272.622,362.98,275.211,364.612,276.921z"/>
        </g>
        <g>
          <linearGradient id="SVGID_00000107585477773891028620000014700979303309082792_" gradientUnits="userSpaceOnUse" x1="358.4393" y1="203.211" x2="362.7328" y2="184.9638">
            <stop offset="0" style="stop-color:#FFD0C2"/>
            <stop offset="1" style="stop-color:#F7AF9F"/>
          </linearGradient>
          <path style="fill:url(#SVGID_00000107585477773891028620000014700979303309082792_);" d="M365.028,197.446 c0.149,1.294-6.119,8.865-8.786,8.096c-2.675-0.761-1.279-7.029-0.518-9.014c0.134-0.353,0.228-0.785,0.275-1.247 c0.133-1.208,0.031-2.675-0.078-3.734c2.181,0.329,4.613-0.463,6.511-1.538c1.004-0.581,1.867-1.232,2.463-1.844 c-0.172,1.279-0.204,2.855-0.172,4.354c0.039,1.859,0.172,3.593,0.259,4.479C364.996,197.187,365.012,197.336,365.028,197.446z"/>
          <linearGradient id="SVGID_00000053545491799404806400000002279898878544373396_" gradientUnits="userSpaceOnUse" x1="368.7448" y1="180.5503" x2="356.069" y2="201.5214">
            <stop offset="0" style="stop-color:#000000"/>
            <stop offset="1" style="stop-color:#000000;stop-opacity:0"/>
          </linearGradient>
          <path style="opacity:0.45;fill:url(#SVGID_00000053545491799404806400000002279898878544373396_);" d="M355.998,195.281 c0.133-1.208,0.031-2.675-0.078-3.734c2.181,0.329,4.613-0.463,6.511-1.538c1.004-0.581,1.867-1.232,2.463-1.844 c-0.172,1.279-0.204,2.855-0.172,4.354c0.039,1.859,0.172,3.593,0.259,4.479C361.921,195.956,358.477,195.485,355.998,195.281z"/>
          <linearGradient id="SVGID_00000034079262963537113440000014679268357206973108_" gradientUnits="userSpaceOnUse" x1="353.3005" y1="196.0726" x2="367.2565" y2="161.6">
            <stop offset="0" style="stop-color:#FFD0C2"/>
            <stop offset="1" style="stop-color:#F7AF9F"/>
          </linearGradient>
          <path style="fill:url(#SVGID_00000034079262963537113440000014679268357206973108_);" d="M371.852,184.445 c-0.687,2.862-4.46,1.2-4.46,1.2s-0.404,1.547-1.887,3.889c-0.154,0.238-0.359,0.488-0.61,0.751 c-0.597,0.61-1.457,1.264-2.464,1.842c-1.899,1.078-4.332,1.867-6.513,1.54c-1.02-0.148-1.989-0.545-2.824-1.271 c-7.354-6.398-5.532-16.434-5.532-16.434s5.301-1.463,7.303-4.152c5.718,7.149,13.04,5.775,13.04,5.775l0.058,4.062 C370.074,180.217,372.538,181.59,371.852,184.445z"/>
          <path style="fill:#2E1D4F;" d="M352.62,181.198c0,0.759-0.394,1.375-0.88,1.375c-0.486,0-0.88-0.615-0.88-1.375 c0-0.759,0.394-1.375,0.88-1.375C352.226,179.824,352.62,180.439,352.62,181.198z"/>
          <path style="fill:#2E1D4F;" d="M359.666,181.198c0,0.759-0.394,1.375-0.88,1.375s-0.88-0.615-0.88-1.375 c0-0.759,0.394-1.375,0.88-1.375S359.666,180.439,359.666,181.198z"/>
          <path style="fill:none;stroke:#FF9271;strokeWidth:0.3922;stroke-miterlimit:10;" d="M354.675,180.93c0,0,0.173,1.083,0,1.643 c-0.173,0.559-1.362,1.398-1.292,1.853c0.07,0.454,1.643,0.839,1.643,0.839"/>
          <path style="fill:none;stroke:#F96846;strokeWidth:0.3922;stroke-miterlimit:10;" d="M354.675,187.653 c0,0,2.888,2.68,5.776-1.759"/>
        </g>
        <path style="fill:none;stroke:#5D4F6D;strokeWidth:0.7845;stroke-miterlimit:10;" d="M325.41,443.592 c0,0,3.542,3.076,5.033,0.839c1.491-2.237-4.94-2.423-4.381-5.126c0.559-2.703,6.058,1.771,6.897-1.025 c0.839-2.796-6.151-1.906-5.592-4.821c0.559-2.915,3.076,0.44,6.99-0.678"/>
        <path style="fill:none;stroke:#5D4F6D;strokeWidth:0.7845;stroke-miterlimit:10;" d="M278.878,430.05 c0,0,0.853,4.613,3.413,3.793c2.56-0.82-2.353-4.974-0.231-6.739c2.122-1.765,3.634,5.161,6.033,3.497 c2.399-1.664-3.623-5.324-1.369-7.255c2.254-1.931,2.131,2.261,5.889,3.827"/>
      </g>
      <g>
        <path style="fill:none;stroke:#2E1D4F;strokeWidth:1.5689;stroke-miterlimit:10;" d="M302.74,160.882 c1.369,3.531-0.384,7.503-3.914,8.872c-3.531,1.369-7.503-0.383-8.871-3.914c-1.369-3.531,0.384-7.503,3.914-8.872 C297.399,155.599,301.371,157.352,302.74,160.882z"/>
        <line style="fill:none;stroke:#2E1D4F;strokeWidth:1.5689;stroke-miterlimit:10;" x1="298.825" y1="169.754" x2="304.39" y2="184.105"/>
      </g>
      <g>
        <path style="fill:none;stroke:#2E1D4F;strokeWidth:1.5689;stroke-miterlimit:10;" d="M109.821,174.251 c-2.365,2.958-6.679,3.438-9.637,1.073c-2.958-2.365-3.438-6.68-1.073-9.637c2.365-2.957,6.68-3.438,9.637-1.073 C111.705,166.979,112.186,171.294,109.821,174.251z"/>
        <line style="fill:none;stroke:#2E1D4F;strokeWidth:1.5689;stroke-miterlimit:10;" x1="100.184" y1="175.324" x2="90.571" y2="187.346"/>
      </g>
      <g>
        <g>
          <path style="fill:#2E1D4F;" d="M167.62,162.788c-1.276,4.123-5.255,4.725-8.434,4.703c-1.896-0.002-3.512-0.231-4.102-0.051 c-1.578,0.467-3.307,5.013-4.254,5.345c-1.733-6.253-6.302-3.177-6.675-0.402c-0.372,2.768,2.098,3.849,4.027,4.522 c1.923,0.665,0.295,4.282-1.901,8.194c-0.933,1.652-5.519,1.964-9.049,1.23c-1.73-0.365-3.207-0.986-3.873-1.825 c-2.536-3.162-1.889-10.562-5.38-13.963c-3.491-3.402-3.295-10.87,0.403-13.8c3.689-2.924,6.31,1.243,7.07,0.89 c0.769-0.359,0.567-3.738,3.852-5.779c3.278-2.05,10.361,0.952,13.928,2.017c3.561,1.056,4.232-1.485,9.499-1.107 C167.996,153.141,169.656,156.217,167.62,162.788z"/>
          <linearGradient id="SVGID_00000088821653526228693360000014190285247258446522_" gradientUnits="userSpaceOnUse" x1="167.1506" y1="197.7946" x2="116.006" y2="148.6654">
            <stop offset="0" style="stop-color:#FFD0C2"/>
            <stop offset="1" style="stop-color:#F7AF9F"/>
          </linearGradient>
          <path style="fill:url(#SVGID_00000088821653526228693360000014190285247258446522_);" d="M158.578,179.168 c-0.541,0.832-1.232,0.447-1.663,1.232c-0.439,0.777-2.008,6.66-7.186,5.413c-1.153,1.522-1.412,6.715-1.412,6.715l-4.471-0.675 h-0.008l-7.68-1.169c0,0,0.588-1.906,1.075-4.354c3.005,0.627,6.778,0.494,8.402-0.581c0.29-0.188,0.502-0.408,0.643-0.651 c1.608-2.863,2.918-5.578,2.738-7.076c-0.055-0.549-0.322-0.941-0.832-1.114c-1.93-0.675-4.401-1.757-4.032-4.526 c0.376-2.777,4.942-5.852,6.676,0.4c0.949-0.329,2.675-4.871,4.26-5.342c0.588-0.18,2.204,0.047,4.103,0.047 c0.031,0.463,0.071,1.177,0.063,2.071c-0.016,1.647-0.181,3.883-0.816,6.158C158.202,177.27,159.135,178.329,158.578,179.168z"/>
          <path style="fill:#2E1D4F;" d="M156.888,174.683c-0.159,0.729-0.635,1.245-1.062,1.151c-0.427-0.093-0.645-0.76-0.486-1.489 c0.159-0.729,0.635-1.245,1.062-1.151C156.83,173.287,157.047,173.954,156.888,174.683z"/>
          <path style="fill:none;" d="M151.632,179.314l3.386,2.423c0,0-0.335,1.469-1.714,1.472 C151.925,183.211,151.069,180.465,151.632,179.314z"/>
          <linearGradient id="SVGID_00000082339968405292523600000003946938424117501099_" gradientUnits="userSpaceOnUse" x1="145.9048" y1="142.8308" x2="154.7126" y2="185.0525">
            <stop offset="0" style="stop-color:#000000"/>
            <stop offset="1" style="stop-color:#000000;stop-opacity:0"/>
          </linearGradient>
          <path style="opacity:0.45;fill:url(#SVGID_00000082339968405292523600000003946938424117501099_);" d="M159.253,169.558 c-1.593,0.416-4.55,1.42-6.801,3.46c-1.036,0.934-2.259,2.801-3.436,5.005c-0.055-0.549-0.322-0.941-0.832-1.114 c-1.93-0.675-4.401-1.757-4.032-4.526c0.376-2.777,4.942-5.852,6.676,0.4c0.949-0.329,2.675-4.871,4.26-5.342 c0.588-0.18,2.204,0.047,4.103,0.047C159.222,167.95,159.261,168.664,159.253,169.558z"/>
        </g>
        <g>
          <path style="fill:#5D4F6D;" d="M252.15,373.034c0,0-6.15-4.103-14.725,0c-1.49-9.508-15.289-39.514-15.289-51.822 c-3.671-6.237-18.898-18.435-19.377-18.82c0.126,0.447,4.268,14.811,8.998,37.584c3.616,17.384,7.578,39.663,10.379,64.374 c-3.915-2.981-8.943,1.491-13.791,0.934c-8.017-29.269-13.979-42.126-13.862-50.889c-3.42-12.12-8.135-14.724-21-39.702 c-4.526-8.794-7.594-14.968-9.673-19.29c-3.836-7.962-4.307-9.61-4.307-9.61l32.995-26.468c1.459,0.416,3.342,1.318,5.507,2.597 c12.544,7.366,34.705,27.056,39.788,34.689C243.764,305.554,252.15,373.034,252.15,373.034z"/>
          <linearGradient id="SVGID_00000168099557249600911630000011094491930773790124_" gradientUnits="userSpaceOnUse" x1="134.197" y1="279.9428" x2="200.9315" y2="276.0282">
            <stop offset="0" style="stop-color:#000000"/>
            <stop offset="1" style="stop-color:#000000;stop-opacity:0"/>
          </linearGradient>
          <path style="opacity:0.45;fill:url(#SVGID_00000168099557249600911630000011094491930773790124_);" d="M196.986,286.547 c-3.71,7.452-17.345,4.095-24.428,6.511c-3.656,1.247-6.676,1.953-8.747,2.346c-3.836-7.962-4.307-9.61-4.307-9.61 l32.995-26.468c1.459,0.416,3.342,1.318,5.507,2.597C193.009,271.673,200.5,279.494,196.986,286.547z"/>
          <g>
            <linearGradient id="SVGID_00000057114450462157223740000014646393015495888286_" gradientUnits="userSpaceOnUse" x1="225.3657" y1="367.8105" x2="218.0958" y2="439.112">
              <stop offset="0" style="stop-color:#FF5B45"/>
              <stop offset="1" style="stop-color:#FFA1A6"/>
            </linearGradient>
            <path style="fill:url(#SVGID_00000057114450462157223740000014646393015495888286_);" d="M228.71,445.245 c-5.429,2.824-21.259-19.039-22.193-26.186c0-0.008,0-0.016,0-0.016c-0.024-0.212-0.039-0.416-0.039-0.596 c0-6.401,1.867-13.164,1.867-13.164c3.405-6.848,13.689-1.851,13.689-1.851s3.177,10.52,6.676,17.933 C232.209,428.771,234.303,442.335,228.71,445.245z"/>
            <linearGradient id="SVGID_00000108269297374807476840000010900679098250870437_" gradientUnits="userSpaceOnUse" x1="219.0564" y1="406.7751" x2="217.938" y2="521.6964">
              <stop offset="0" style="stop-color:#FF5B45"/>
              <stop offset="1" style="stop-color:#FFA1A6"/>
            </linearGradient>
            <path style="fill:url(#SVGID_00000108269297374807476840000010900679098250870437_);" d="M228.71,445.245 c-5.429,2.824-21.259-19.039-22.193-26.186c0-0.008,0-0.016,0-0.016c0.196-2.024,1.216-6.072,6.252-6.072 c6.715,0,9.092,2.659,10.347,11.885C224.38,434.082,236.123,437.949,228.71,445.245z"/>
          </g>
          <g>
            <linearGradient id="SVGID_00000061458640105555618770000003397531792370946229_" gradientUnits="userSpaceOnUse" x1="254.9312" y1="334.5881" x2="247.6613" y2="405.8896">
              <stop offset="0" style="stop-color:#FF5B45"/>
              <stop offset="1" style="stop-color:#FFA1A6"/>
            </linearGradient>
            <path style="fill:url(#SVGID_00000061458640105555618770000003397531792370946229_);" d="M258.276,412.023 c-5.429,2.824-21.259-19.039-22.193-26.186c0-0.008,0-0.016,0-0.016c-0.024-0.212-0.039-0.416-0.039-0.596 c0-6.401,1.867-13.163,1.867-13.163c3.405-6.848,13.689-1.851,13.689-1.851s3.177,10.52,6.676,17.933 C261.774,395.549,263.869,409.112,258.276,412.023z"/>
            <linearGradient id="SVGID_00000171680477713505036970000001974274372778822590_" gradientUnits="userSpaceOnUse" x1="248.6219" y1="373.5527" x2="247.5035" y2="488.474">
              <stop offset="0" style="stop-color:#FF5B45"/>
              <stop offset="1" style="stop-color:#FFA1A6"/>
            </linearGradient>
            <path style="fill:url(#SVGID_00000171680477713505036970000001974274372778822590_);" d="M258.276,412.023 c-5.429,2.824-21.259-19.039-22.193-26.186c0-0.008,0-0.016,0-0.016c0.196-2.024,1.216-6.072,6.252-6.072 c6.715,0,9.092,2.659,10.347,11.885C253.945,400.86,265.689,404.727,258.276,412.023z"/>
          </g>
          <linearGradient id="SVGID_00000172432966982212098510000013888130537997996459_" gradientUnits="userSpaceOnUse" x1="269.9031" y1="301.4838" x2="183.409" y2="320.1248">
            <stop offset="0" style="stop-color:#000000"/>
            <stop offset="1" style="stop-color:#000000;stop-opacity:0"/>
          </linearGradient>
          <path style="opacity:0.45;fill:url(#SVGID_00000172432966982212098510000013888130537997996459_);" d="M211.758,339.977 c-2.91-2.032-6.323-5.374-5.931-9.069c0.651-6.15-9.971-8.206-8.857-17.149c1.114-8.951-7.641-7.641-10.002-14.371 c-2.361-6.731,1.993-6.323,1.993-6.323l13.791,9.32C202.752,302.385,206.949,316.843,211.758,339.977z"/>
          <path style="opacity:0.25;fill:none;stroke:#FFFFFF;strokeWidth:0.7845;stroke-miterlimit:10;" d="M192.399,266.539 c0,0,37.57,31.934,41.205,37.526c3.635,5.592,14.795,64.989,14.795,64.989"/>
          <path style="opacity:0.25;fill:none;stroke:#FFFFFF;strokeWidth:0.7845;stroke-miterlimit:10;" d="M194.485,296.798 c0,0,12.199,44.176,14.614,53.403c2.415,9.227,9.734,52.075,9.734,52.075"/>
        </g>
        <g>
          <path style="fill:#2E1D4F;" d="M174.046,232.484c0,0,2.377,3.76,6.012,13.135c3.635,9.374,12.443,9.654,13.981,12.031 c1.538,2.377-1.398,2.796-1.258,6.99c0.14,4.194-3.915,2.097-5.033,7.55c-1.118,5.452-10.905,16.637-24.746,15.658 c-13.841-0.979-5.452-27.652-5.452-27.652l7.829-19.184L174.046,232.484z"/>
          <polygon style="fill:#2E1D4F;" points="185.192,225.999 161.62,218.771 170.97,191.288 195.41,192.672 &#9;&#9;&#9;&#9;"/>
          <linearGradient id="SVGID_00000134233618618910046090000010074213493770391485_" gradientUnits="userSpaceOnUse" x1="207.5542" y1="212.6764" x2="173.2549" y2="245.298">
            <stop offset="0" style="stop-color:#FFD0C2"/>
            <stop offset="1" style="stop-color:#F7AF9F"/>
          </linearGradient>
          <path style="fill:url(#SVGID_00000134233618618910046090000010074213493770391485_);" d="M189.518,212.305 c0,0-1.911-3.029-1.771-4.427c0.14-1.398,2.61,0.885,3.635,2.61c1.025,1.724,2.237,1.072,5.033,4.241 c2.796,3.169,12.303,9.926,12.676,17.662c0.373,7.736-12.055,7.188-15.814,5.785c-3.759-1.404-7.3-12.589-7.3-12.868 s1.957-7.456,1.957-7.456L189.518,212.305z"/>
          <linearGradient id="SVGID_00000113321722812486996400000005383620641033268401_" gradientUnits="userSpaceOnUse" x1="149.7387" y1="283.855" x2="171.3622" y2="169.027">
            <stop offset="0" style="stop-color:#FF5B45"/>
            <stop offset="1" style="stop-color:#FFA1A6"/>
          </linearGradient>
          <path style="fill:url(#SVGID_00000113321722812486996400000005383620641033268401_);" d="M196.97,281 c-3.914,7.547-13.697,6.99-23.346,5.311c-9.641-1.679-4.613,7.272-12.724,3.915c-8.104-3.358-8.527,1.679-17.47,7.405 c-8.951,5.734-7.97-4.754-14.403-0.839c0.698-6.848,4.754-21.385,1.255-34.807c-3.491-13.422-15.376-25.59-13.281-51.406 c1.169-14.34,11.861-17.706,14.787-18.357c0.471-0.11,0.737-0.141,0.737-0.141c8.464-0.541,14.921-0.094,19.926,0.996 c14.254,3.138,16.756,11.579,20.475,17.502c1.436,2.275,2.275,5.413,2.753,8.951c1.192,8.888,0.047,20.294,0.047,26.798 c0,6.441,4.213,19.549,11.241,27.786C189.855,277.501,193.221,280.067,196.97,281z"/>
          <linearGradient id="SVGID_00000030448549625816730620000014017125896943343509_" gradientUnits="userSpaceOnUse" x1="261.2746" y1="225.0317" x2="152.7845" y2="251.8747">
            <stop offset="0" style="stop-color:#000000"/>
            <stop offset="1" style="stop-color:#000000;stop-opacity:0"/>
          </linearGradient>
          <path style="opacity:0.45;fill:url(#SVGID_00000030448549625816730620000014017125896943343509_);" d="M186.968,274.113 c-8.088-5.068-13.877-16.035-13.76-24.821c0.141-10.732-1.82-10.237-5.876-15.69c-4.056-5.452-3.632-15.125-3.632-15.125 l11.979,1.051c1.192,8.888,0.047,20.294,0.047,26.798C175.727,252.767,179.939,265.876,186.968,274.113z"/>
          <linearGradient id="SVGID_00000077317911600658773430000007176812686355258798_" gradientUnits="userSpaceOnUse" x1="143.4585" y1="176.3066" x2="138.1459" y2="241.1765">
            <stop offset="0" style="stop-color:#FF5B45"/>
            <stop offset="1" style="stop-color:#FFA1A6"/>
          </linearGradient>
          <path style="fill:url(#SVGID_00000077317911600658773430000007176812686355258798_);" d="M152.452,193.077 c-5.005-1.09-11.461-1.538-19.926-0.996c0,0-0.267,0.031-0.737,0.141c0,0,0.298-3.185,1.993-4.479 c1.694-1.287,15.658,1.122,16.874,1.82C151.236,189.892,151.91,191.508,152.452,193.077z"/>
          <linearGradient id="SVGID_00000101816016164168943680000003757399420665685904_" gradientUnits="userSpaceOnUse" x1="165.6521" y1="286.8516" x2="187.2755" y2="172.0238">
            <stop offset="0" style="stop-color:#FF5B45"/>
            <stop offset="1" style="stop-color:#FFA1A6"/>
          </linearGradient>
          <path style="fill:url(#SVGID_00000101816016164168943680000003757399420665685904_);" d="M164.371,198.567 c-4.446,2.6-6.103,15.742-2.049,22.733c4.054,6.99,12.003,12.303,19.972,14.82c7.969,2.517,11.185,3.216,12.583,0.699 c1.398-2.516,4.474-15.706-1.118-18.339c-5.592-2.632-13.701-8.085-19.014-11.72 C169.432,203.125,167.698,198.762,164.371,198.567z"/>
        </g>
      </g>
      <g>
        <path style="fill:#E5E3E3;" d="M131.789,125.51v12.622c0,1.143-0.936,2.079-2.079,2.079h-12.025 c-0.551,0-0.998,0.447-0.998,0.997v2.499c0,0.889-1.075,1.334-1.703,0.705l-3.904-3.909c-0.187-0.187-0.441-0.293-0.706-0.293 H99.233c-1.153,0-2.079-0.934-2.079-2.079v-12.614c0-1.152,0.934-2.087,2.087-2.087h30.469 C130.858,123.431,131.789,124.362,131.789,125.51z"/>
        <g>
          <path style="fill:none;" d="M110.091,132.196c0,0.386-0.313,0.699-0.699,0.699c-0.386,0-0.699-0.313-0.699-0.699 c0-0.386,0.313-0.699,0.699-0.699C109.778,131.497,110.091,131.81,110.091,132.196z"/>
          <path style="fill:none;" d="M115.17,132.196c0,0.386-0.313,0.699-0.699,0.699s-0.699-0.313-0.699-0.699 c0-0.386,0.313-0.699,0.699-0.699S115.17,131.81,115.17,132.196z"/>
          <path style="fill:none;" d="M120.25,132.196c0,0.386-0.313,0.699-0.699,0.699c-0.386,0-0.699-0.313-0.699-0.699 c0-0.386,0.313-0.699,0.699-0.699C119.937,131.497,120.25,131.81,120.25,132.196z"/>
        </g>
      </g>
      <g>
        <path style="fill:#E5E3E3;" d="M364.331,141.169v12.622c0,1.143,0.935,2.079,2.079,2.079h12.025c0.551,0,0.998,0.447,0.998,0.997 v2.499c0,0.889,1.075,1.334,1.703,0.705l3.904-3.909c0.187-0.187,0.441-0.293,0.706-0.293h11.142 c1.153,0,2.079-0.934,2.079-2.079v-12.614c0-1.153-0.934-2.087-2.087-2.087H366.41 C365.262,139.09,364.331,140.02,364.331,141.169z"/>
        <g>
          <path style="fill:none;" d="M386.029,147.854c0,0.386,0.313,0.699,0.699,0.699c0.386,0,0.699-0.313,0.699-0.699 c0-0.386-0.313-0.699-0.699-0.699C386.342,147.155,386.029,147.468,386.029,147.854z"/>
          <path style="fill:none;" d="M380.949,147.854c0,0.386,0.313,0.699,0.699,0.699c0.386,0,0.699-0.313,0.699-0.699 c0-0.386-0.313-0.699-0.699-0.699C381.262,147.155,380.949,147.468,380.949,147.854z"/>
          <path style="fill:none;" d="M375.87,147.854c0,0.386,0.313,0.699,0.699,0.699c0.386,0,0.699-0.313,0.699-0.699 c0-0.386-0.313-0.699-0.699-0.699C376.183,147.155,375.87,147.468,375.87,147.854z"/>
        </g>
      </g>
      <g>
        <linearGradient id="SVGID_00000134969925261566942120000012128334271118546852_" gradientUnits="userSpaceOnUse" x1="137.2476" y1="49.4429" x2="156.694" y2="86.8719">
          <stop offset="0" style="stop-color:#FF5B45"/>
          <stop offset="1" style="stop-color:#FFA1A6"/>
        </linearGradient>
        <path style="fill:none;stroke:url(#SVGID_00000134969925261566942120000012128334271118546852_);strokeWidth:0.7845;stroke-miterlimit:10;" d=" M168.463,80.365h-1.237c-6.742,0-12.208-5.466-12.208-12.208l0,0c0-6.742-5.466-12.208-12.208-12.208h-17.332"/>
        <linearGradient id="SVGID_00000065770037230331562100000002040162517662377657_" gradientUnits="userSpaceOnUse" x1="137.2477" y1="-119.4784" x2="156.694" y2="-82.0495" gradientTransform="matrix(1 0 0 -1 0 -9.3407)">
          <stop offset="0" style="stop-color:#FF5B45"/>
          <stop offset="1" style="stop-color:#FFA1A6"/>
        </linearGradient>
        <path style="fill:none;stroke:url(#SVGID_00000065770037230331562100000002040162517662377657_);strokeWidth:0.7845;stroke-miterlimit:10;" d=" M168.463,79.215h-1.237c-6.742,0-12.208,5.466-12.208,12.208v0c0,6.742-5.466,12.208-12.208,12.208h-17.332"/>
        <linearGradient id="SVGID_00000002342434225758519910000011992572233414237837_" gradientUnits="userSpaceOnUse" x1="316.5411" y1="51.5741" x2="327.5628" y2="64.7595">
          <stop offset="0" style="stop-color:#FF5B45"/>
          <stop offset="1" style="stop-color:#FFA1A6"/>
        </linearGradient>
        <path style="fill:none;stroke:url(#SVGID_00000002342434225758519910000011992572233414237837_);strokeWidth:0.7845;stroke-miterlimit:10;" d=" M298.567,75.812h14.913V63.317c0-10.246,8.306-18.552,18.552-18.552h17.052"/>
        <linearGradient id="SVGID_00000113343298680055166480000006729933903376326322_" gradientUnits="userSpaceOnUse" x1="320.015" y1="69.6285" x2="348.8255" y2="104.095">
          <stop offset="0" style="stop-color:#FF5B45"/>
          <stop offset="1" style="stop-color:#FFA1A6"/>
        </linearGradient>
        <path style="fill:none;stroke:url(#SVGID_00000113343298680055166480000006729933903376326322_);strokeWidth:0.7845;stroke-miterlimit:10;" d=" M349.084,75.812H313.48v7.638c0,10.246,8.306,18.552,18.552,18.552h18.828"/>
        <linearGradient id="SVGID_00000134223302481371175400000006319461977945896846_" gradientUnits="userSpaceOnUse" x1="260.4624" y1="116.3556" x2="272.733" y2="131.035">
          <stop offset="0" style="stop-color:#FF5B45"/>
          <stop offset="1" style="stop-color:#FFA1A6"/>
        </linearGradient>
        <line style="fill:none;stroke:url(#SVGID_00000134223302481371175400000006319461977945896846_);strokeWidth:0.7845;stroke-miterlimit:10;" x1="252.151" y1="123.695" x2="281.044" y2="123.695"/>
        <linearGradient id="SVGID_00000127020032013994292340000006451232716296502682_" gradientUnits="userSpaceOnUse" x1="259.3142" y1="86.4092" x2="275.9053" y2="106.2574">
          <stop offset="0" style="stop-color:#FF5B45"/>
          <stop offset="1" style="stop-color:#FFA1A6"/>
        </linearGradient>
        <path style="fill:none;stroke:url(#SVGID_00000127020032013994292340000006451232716296502682_);strokeWidth:0.7845;stroke-miterlimit:10;" d=" M249.168,122.731h2.428c6.072,0,10.994-4.922,10.994-10.993V89.322c0-6.072,4.922-10.993,10.993-10.993h19.483"/>
        <linearGradient id="SVGID_00000025424062100975513300000011733830642090236078_" gradientUnits="userSpaceOnUse" x1="1646.6097" y1="86.4092" x2="1663.2008" y2="106.2574" gradientTransform="matrix(-1 0 0 1 1853.8232 0)">
          <stop offset="0" style="stop-color:#FF5B45"/>
          <stop offset="1" style="stop-color:#FFA1A6"/>
        </linearGradient>
        <path style="fill:none;stroke:url(#SVGID_00000025424062100975513300000011733830642090236078_);strokeWidth:0.7845;stroke-miterlimit:10;" d=" M217.359,122.731h-2.428c-6.072,0-10.993-4.922-10.993-10.993V89.322c0-6.072-4.922-10.993-10.994-10.993h-19.482"/>
        <path style="fill:#2E1D4F;" d="M247.813,145.159h-27.678c-3.323,0-6.017-2.694-6.017-6.017v-27.678 c0-3.323,2.694-6.017,6.017-6.017h27.678c3.323,0,6.017,2.694,6.017,6.017v27.678 C253.83,142.465,251.136,145.159,247.813,145.159z"/>
        <path style="fill:#2E1D4F;" d="M299.019,86.87h-11.907c-1.429,0-2.588-1.159-2.588-2.588V72.375c0-1.429,1.159-2.588,2.588-2.588 h11.907c1.429,0,2.588,1.159,2.588,2.588v11.907C301.608,85.711,300.449,86.87,299.019,86.87z"/>
        <path style="fill:#5D4F6D;" d="M357.693,50.893h-11.906c-1.43,0-2.588-1.159-2.588-2.588V36.398c0-1.43,1.159-2.588,2.588-2.588 h11.906c1.43,0,2.588,1.159,2.588,2.588v11.906C360.282,49.734,359.123,50.893,357.693,50.893z"/>
        <path style="fill:#5D4F6D;" d="M357.693,80.718h-11.906c-1.43,0-2.588-1.159-2.588-2.588V66.223c0-1.429,1.159-2.588,2.588-2.588 h11.906c1.43,0,2.588,1.159,2.588,2.588V78.13C360.282,79.559,359.123,80.718,357.693,80.718z"/>
        <path style="fill:#E5E3E3;" d="M357.693,110.544h-11.906c-1.43,0-2.588-1.159-2.588-2.588V96.049 c0-1.429,1.159-2.588,2.588-2.588h11.906c1.43,0,2.588,1.159,2.588,2.588v11.907 C360.282,109.385,359.123,110.544,357.693,110.544z"/>
        <linearGradient id="SVGID_00000148642849969654779710000014998771671979697590_" gradientUnits="userSpaceOnUse" x1="265.6609" y1="87.3882" x2="300.3331" y2="154.1227">
          <stop offset="0" style="stop-color:#FF5B45"/>
          <stop offset="1" style="stop-color:#FFA1A6"/>
        </linearGradient>
        <path style="fill:url(#SVGID_00000148642849969654779710000014998771671979697590_);" d="M290.478,132.237h-11.906 c-1.43,0-2.588-1.159-2.588-2.588v-11.907c0-1.43,1.159-2.588,2.588-2.588h11.906c1.43,0,2.588,1.159,2.588,2.588v11.907 C293.066,131.078,291.907,132.237,290.478,132.237z"/>
        <linearGradient id="SVGID_00000059302513320891459800000005866238980405574536_" gradientUnits="userSpaceOnUse" x1="313.5033" y1="96.1128" x2="348.1755" y2="162.8473">
          <stop offset="0" style="stop-color:#FF5B45"/>
          <stop offset="1" style="stop-color:#FFA1A6"/>
        </linearGradient>
        <path style="fill:url(#SVGID_00000059302513320891459800000005866238980405574536_);" d="M338.32,140.962h-11.906 c-1.43,0-2.588-1.159-2.588-2.588v-11.907c0-1.429,1.159-2.588,2.588-2.588h11.906c1.43,0,2.588,1.159,2.588,2.588v11.907 C340.908,139.803,339.75,140.962,338.32,140.962z"/>
        <linearGradient id="SVGID_00000064343503340647284250000015124904834596260238_" gradientUnits="userSpaceOnUse" x1="151.2983" y1="44.058" x2="185.9705" y2="110.7925">
          <stop offset="0" style="stop-color:#FF5B45"/>
          <stop offset="1" style="stop-color:#FFA1A6"/>
        </linearGradient>
        <path style="fill:url(#SVGID_00000064343503340647284250000015124904834596260238_);" d="M176.115,88.907h-11.907 c-1.429,0-2.588-1.159-2.588-2.588V74.412c0-1.43,1.159-2.588,2.588-2.588h11.907c1.429,0,2.588,1.159,2.588,2.588v11.906 C178.703,87.748,177.545,88.907,176.115,88.907z"/>
        <linearGradient id="SVGID_00000062906440437100867040000006802757501011303582_" gradientUnits="userSpaceOnUse" x1="106.0074" y1="67.3239" x2="140.6796" y2="134.0584">
          <stop offset="0" style="stop-color:#FF5B45"/>
          <stop offset="1" style="stop-color:#FFA1A6"/>
        </linearGradient>
        <path style="fill:url(#SVGID_00000062906440437100867040000006802757501011303582_);" d="M130.824,112.173h-11.906 c-1.429,0-2.588-1.159-2.588-2.588V97.678c0-1.429,1.159-2.588,2.588-2.588h11.906c1.43,0,2.588,1.159,2.588,2.588v11.907 C133.412,111.014,132.254,112.173,130.824,112.173z"/>
        <g>
          <linearGradient id="SVGID_00000019673853778860241010000003720629782150985887_" gradientUnits="userSpaceOnUse" x1="224.3015" y1="112.1208" x2="239.4939" y2="130.2956">
            <stop offset="0" style="stop-color:#FF5B45"/>
            <stop offset="1" style="stop-color:#FFA1A6"/>
          </linearGradient>
          <rect x="223.972" y="119.925" style="fill:url(#SVGID_00000019673853778860241010000003720629782150985887_);" width="14.633" height="1.109"/>
          <rect x="223.972" y="123.141" style="fill:none;" width="20.004" height="1.109"/>
          <rect x="223.972" y="126.356" style="fill:none;" width="20.004" height="1.109"/>
          <rect x="223.972" y="129.572" style="fill:none;" width="20.004" height="1.109"/>
        </g>
        <path style="fill:#2E1D4F;" d="M128.727,65.026h-11.907c-1.429,0-2.588-1.159-2.588-2.588V50.532c0-1.43,1.159-2.588,2.588-2.588 h11.907c1.43,0,2.588,1.159,2.588,2.588v11.906C131.315,63.868,130.157,65.026,128.727,65.026z"/>
      </g>
    </g>
  </g>
</svg>
