<svg preserveAspectRatio="xMidYMid meet" data-bbox="20.001 39 159.999 122" viewBox="20.001 39 159.999 122" height="150" width="200"
    xmlns="http://www.w3.org/2000/svg" data-type="color" role="presentation" aria-hidden="true" aria-label="">
    <defs>
        <style>
#comp-lzzfzil6 svg [data-color="1"] {fill: #D4D4FA;}
#comp-lzzfzil6 svg [data-color="2"] {fill: #000000;}
#comp-lzzfzil6 svg [data-color="3"] {fill: #FFA500;}
        </style>
    </defs>
    <g>
        <path fill="#FFA500" d="M117.042 91.749c0 18.528-14.92 33.548-33.324 33.548-18.404 0-33.324-15.02-33.324-33.548 0-18.528 14.92-33.548 33.324-33.548 18.404 0 33.324 15.02 33.324 33.548z" data-color="1"></path>
        <path d="M68.986 116.401s-4.782 1.02-8.46 3.655c0 0-3.276 4.567-3.985 8.399l-4.46-1.867s-5.993 2.828-6.174 8.373c0 0-4.648 4.455-4.268 7.822 0 0 9.923 6.503 14.115 7.699l-.272 10.341h22.909s-.486-16.531-.707-18.495c-.221-1.964-.137-13.751-.63-16.882-.493-3.131-.672-5.774-2.937-7.219-2.264-1.445-4.719-1.615-5.131-1.826z" fill="#FFA500" data-color="1"></path>
        <path d="M128.235 114.728s7.357.277 11.213-2.477c3.856-2.755 3.689-5.489 3.861-8.765.172-3.275-1.444-8.374-1.444-8.374l1.34-1.122 1.69 1.235s2.707-.713 4.499-1.699l1.792-.986v-1.051s.607-.201.74.26c0 0 1.535 5.274 1.935 9.772.399 4.498 1.039 11.029-3.849 18.394L139.7 148.362l.522 12.462H113.07l-1.022-17.052 1.14-25.407s1.042-1.838 5.076-2.977c0 0 1.685-.327 2.82-.365 1.136-.038 2.509-.404 2.509-.404l4.319 2.329.141-2.221h.182z" fill="#FFA500" data-color="1"></path>
        <path d="M92.853 111.687s-4.548-.688-11.958 10.312-4.836 16.389-4.836 16.389.64 3.751 7.141 2.881c0 0-.07 4.822-.445 9.033-.375 4.21-1.281 10.523-1.281 10.523h31.596l-1.022-17.052s4.512-.866 4.71-6.73c.199-5.865-2.104-14.455-2.624-16.158-.52-1.703-2.136-6.555-7.12-8.144-4.985-1.59-12.016-1.684-14.161-1.054z" fill="#1A1A1A" data-color="2"></path>
        <path d="M69.759 81.907a4.004 4.004 0 0 0-5.691 0l-1.551 1.561a4.065 4.065 0 0 0 0 5.727l11.335 11.413a4.003 4.003 0 0 0 5.689 0l23.337-22.92a4.07 4.07 0 0 0 0-5.727l-1.552-1.563a4.005 4.005 0 0 0-5.691 0L76.697 88.894l-6.938-6.987z" fill="#FFFFFF" data-color="3"></path>
        <path d="m56.804 102.967.878 4.917s-1.426 1.045-1.461 1.406c-.035.361 1.461 1.383 1.461 1.383s.742 4.154 4.974 2.621l.461 1.644 2.867-1.153s-.673-2.737-.138-4.957c0 0 1.226-.881.726-2.584-.5-1.702-2.749-1.258-3.28-.392l-.288.11c.001.001-4.59-1.016-6.2-2.995z" fill="#FFFFFF" data-color="3"></path>
        <path d="M45.908 134.962s-2.863-2.375-3.883-4.057c-1.02-1.682-1.947-2.127-2.708-1.583-.761.544-.333 1.909.192 2.517.525.609 1.769 2.081.717 2.431 0 0-.265.335-.991-.4l-3.755-3.795s-.464.711-.484 1.096c0 0-.732.313-.572 1.614.16 1.301 1.026 3.232 3.396 4.728 2.37 1.496 4.012 2.367 4.15 3.091 0 .001 1.559-3.901 3.938-5.642z" fill="#FFFFFF" data-color="3"></path>
        <path d="m101.204 109.629-.373-4.97s2.135.756 2.874-1.291c.739-2.047-1.166-2.909-2.155-2.767-.989.142-1.493.789-1.493.789s-1.908-2.066-2.6-4.855c0 0-2.314 2.896-5.552 1.786 0 0-.118 4.82-.092 6.065.026 1.245-.52 4.153 2.536 4.431l.007.919 1.604 5.652 5.244-5.759z" fill="#FFFFFF" data-color="3"></path>
        <path d="M92.966 126.285s-1.291-1.619-3.396-2.144c-2.105-.525-3.757-.102-4.073.69 0 0-3.249.596-2.687 2.882 0 0 1.243-.508 3.219.078 1.976.586 3.314 1.966 3.314 1.966s1.853-2.632 3.623-3.472z" fill="#FFFFFF" data-color="3"></path>
        <path d="M98.8 129.1s.631-1.644 3.127-.816c0 0 1.963-.63 3.421.421 0 0 .846-.403 2.09.124 1.244.527 1.995 2.727 2.259 3.615.264.889-.333 2.429-1.921 1.803l-.138-.036s-.171 1.239-1.517 1.124c-1.346-.115-1.986-1.603-1.986-1.603s-.367 1.34-1.529 1.158c-1.163-.181-1.522-1.064-1.552-1.378-.03-.314.058-1.624-.074-1.957-.132-.333-1.037-1.822-1.037-1.822L98.8 129.1z" fill="#FFFFFF" data-color="3"></path>
        <path d="m128.869 100.187 1.075 5.774s.936 3.936-2.219 4.091l.511 4.676-.22 2.285-4.332-2.349s1.426-.478 1.752-2.345c.326-1.868-.149-3.043-1.241-3.845-1.093-.802-1.743-1.232-1.743-1.232s-2.309.802-2.766-1.171c-.456-1.973 1.331-2.402 2.313-2.199 0 0 1.873-1.42 2.479-2.953.605-1.533.908-3.325.908-3.325s2.818 1.682 3.483 2.593z" fill="#FFFFFF" data-color="3"></path>
        <path d="M144.744 95.112s-2.109-1.459-3.082-2.14c-.973-.681-1.556-1.755-1.389-2.759.167-1.004 2.189-3.917 2.692-4.118.503-.201 1.213.165 1.338 1.19s.02.453.02.453 2.493-.088 3.807-.364c1.314-.275 2.736-.702 2.736-.702s.49 3.602.319 5.869c0 0-1.495 1.253-3.522 1.826-2.026.573-2.919.745-2.919.745z" fill="#FFFFFF" data-color="3"></path>
        <path d="m50.394 127.361-4.081-2.696-2.509 1.602-2.917-.448 3.508-2.284s-1.744-.282-2.618.243c-.874.525-2.435 1.869-2.435 1.869s-1.173.151-1.322.941c-.149.79.845 1.649 2.432 1.916 1.588.266 3.64.295 3.64.295s.796 1.618 2.771 2.509c0 0 1.473-2.043 1.922-2.498.45-.454 1.609-1.449 1.609-1.449z" fill="#FFFFFF" data-color="3"></path>
        <path fill="#FFFFFF" d="m94.356 109.736-1.503 1.951.171 7.811-.238 6.526 1.307.81 2.106-.057 2.305-6.981.612 1.088 4.115-9.267-2.502-2.566-6.373.685z" data-color="3"></path>
        <path fill="#FFA500" d="m95.96 115.389-1.913 2.976.303 2.343-1.326 2.525-.133 2.856 1.202.745 2.106-.057.45-1.362-.05-.569-.4-4.138 1.56-2.06-1.799-3.259z" data-color="1"></path>
        <path d="M103.214 101.065s1.253-1.076.9-3.375c-.353-2.3-.762-3.704-5.258-3.313 0 0-1.78-2.22-4.484-1.459-2.704.762-3.611 2.275-3.853 3.651-.241 1.376 1.226 3.744 1.226 3.744l-.033-2.001s3.612.924 5.745-1.777c0 0 1.369 3.924 2.6 4.855.001 0 .978-1.603 3.157-.325z" fill="#FFFFFF" data-color="3"></path>
        <path d="M78.062 126.834s1.285-3.959.793-7.638c-.492-3.68-2.012-6.131-4.595-6.904-2.583-.774-3.775-2.66-4.105-3.949-.331-1.29-.025-4.455-.642-6.938-.616-2.483-2.706-3.628-5.301-3.434 0 0-7.101-.726-7.679 4.678 0 0 1.905 2.492 6.472 3.314l.208-.032s.427-.726 1.59-.769c1.164-.043 1.892.857 1.942 1.79.05.933-.846 1.694-.846 1.694s-.497 1.555-.306 3.471c.192 1.916 1.463 3.745 3.517 4.33s5.391.985 6.478 3.534c1.087 2.549 1.517 5.248 1.55 6.531.033 1.283.087 2.165.087 2.165l.837-1.843z" fill="#1A1A1A" data-color="2"></path>
        <path d="m38.187 127.632.864 1.672 1.207-.836s-1.814-.785-1.93-.971c-.115-.185-.141.135-.141.135z" fill="#1A1A1A" data-color="2"></path>
        <path d="m43.675 126.312 4.228-2.662-1.1-1.648-5.983 3.914c-.001 0 2.275.479 2.855.396z" fill="#1A1A1A" data-color="2"></path>
        <path d="M60.574 151.763s-.25-4.525 4.251-5.824c4.502-1.3 6.401 1.61 6.401 1.61s-2.464 3.133-5.326 3.727c-2.862.594-5.326.487-5.326.487z" fill="#1A1A1A" data-color="2"></path>
        <path d="m39.316 131.576-10.353-10.389s-.712-.461-1.142 0c-.431.461 0 1.15 0 1.15l11.852 11.978s.515-.019.802-.301c.287-.282.022-.904-.066-1.059-.088-.156-1.093-1.379-1.093-1.379z" fill="#1A1A1A" data-color="2"></path>
        <path d="M65.983 113.785s-3.442 1.131-4.104 2.114c-.662.983-1.353 4.157-1.353 4.157s4.644-3.187 8.46-3.655c0 0-2.241-.515-3.003-2.616z" fill="#FFFFFF" data-color="3"></path>
        <path d="m62.773 113.133.794-.399-.45 1.566-.344-1.167z"></path>
        <path d="M115.673 116.457s-2.084-1.232-1.277-4.186c.806-2.954 3.896-2.611 3.896-2.611l-2.758-7.973s.003-5.329 5.976-5.713c0 0 2.151-.952 4.013-.668 1.861.284 3.209 1.963 3.611 4.206l.025.228-6.739 1.589s-.651-1.46-1.534-1.817c0 0 1.158 2.613 1.114 4.361 0 0-2.24-.463-2.284 1.603-.044 2.066 1.787 2.223 2.736 1.767 0 0 2.947 1.245 3.084 4.082.137 2.837-2.422 3.57-2.422 3.57s-2.852-.067-4.604.477c-1.752.544-2.837 1.085-2.837 1.085z" fill="#1A1A1A" data-color="2"></path>
        <path d="m127.724 110.052.618 4.675 2.587-.108s.65-1.753.212-3.005c-.438-1.252-1.985-2.117-1.985-2.117s-.704.601-1.432.555z" fill="#FFA500" data-color="1"></path>
        <path fill="#1A1A1A" d="M169.077 62.501c0 12.98-10.451 23.501-23.344 23.501s-23.344-10.522-23.344-23.501c0-12.98 10.451-23.501 23.344-23.501s23.344 10.522 23.344 23.501z" data-color="2"></path>
        <path d="M157.934 69.909c-.54 3.9-3.632 6.781-8.159 7.609-.489.089-.973.206-1.568.334v4.266h-3.868v-4.287c-5.569-.621-8.732-3.544-9.905-8.577l6.065-1.473c.159.414.317.788.448 1.17 1.045 3.053 4.451 4.539 7.643 3.322 1.471-.561 2.158-1.669 2.263-3.063.095-1.272-.489-2.315-1.764-2.856-1.649-.7-3.35-1.292-5.031-1.926-.888-.335-1.799-.624-2.667-.998-4.362-1.88-6.283-5.029-5.737-9.352.532-4.21 3.182-6.811 7.873-7.734.191-.038.375-.1.679-.183v-3.28h3.822l.088 3.235s.848.094 3.043.867c3.123 1.101 4.876 3.284 5.874 6.311l-5.369 2.061c-.671-.997-1.211-1.999-1.951-2.854-1.159-1.34-2.793-1.687-4.524-1.252-1.354.34-2.235 1.233-2.464 2.574-.238 1.394.208 2.522 1.63 3.149 1.41.621 2.868 1.148 4.308 1.712 1.207.473 2.444.891 3.623 1.416 4.521 2.014 6.296 5.128 5.648 9.809z" fill="#FFA500" data-color="1"></path>
        <path fill="#FFFFFF" d="M157.482 133.399c0 8.35-6.723 15.118-15.017 15.118s-15.017-6.769-15.017-15.118c0-8.35 6.723-15.118 15.017-15.118s15.017 6.769 15.017 15.118z" data-color="3"></path>
        <path d="m125.509 132.157 15.082.016.077-15.15s-5.892-.433-10.625 4.398c-4.732 4.832-4.534 10.736-4.534 10.736z" fill="#1A1A1A" data-color="2"></path>
        <path d="M124.645 135.765s.705-1.398 1.171-2.658c.466-1.26.648-2.53 1.841-2.641 0 0-.169 2.625-.133 3.31.037.685-.15 1.56.708 1.432s1.985-.535 3.229-1.764c1.245-1.229 2.188-2.687 3.242-2.211 1.053.477.476 1.385.476 1.385s.621.051 1.085.626c.464.575-.141 1.127-.141 1.127s.731.279.734.974c.003.695-.66 1.685-2.173 3.081-1.513 1.397-3.894 3.546-5.581 3.835 0 0-1.18-2.133-2.173-3.599-.993-1.466-2.412-2.898-2.412-2.898h.127z" fill="#FFFFFF" data-color="3"></path>
        <path d="M129.509 143.651s-4.167 9.252-16.613 13.073l-.209-2.273c.001 0 8.059-1.17 16.822-10.8z" fill="#1A1A1A" data-color="2"></path>
        <path d="M71.226 147.548s-3.374 7.853-15.678 6.654l.129-3.509s4.153 1.478 7.71 1.078c3.556-.401 6.991-2.48 7.839-4.223z" fill="#1A1A1A" data-color="2"></path>
        <path d="m144.804 95.225-1.6-1.235s-1.565.747-1.34 1.316c.226.569 2.94-.081 2.94-.081z" fill="#1A1A1A" data-color="2"></path>
        <path d="m151.186 91.489.036 1.144s.599-.527.599-.885c0-.357-.635-.259-.635-.259z" fill="#1A1A1A" data-color="2"></path>
        <path d="M63.121 97.941c-2.014.044-6.153.635-6.589 4.707 0 0 .725.943 2.343 1.86.024.002-1.992-5.275 4.246-6.567z" fill="#FFFFFF" data-color="3"></path>
        <path d="M71.109 116.921c-6.393-1.461-4.772-8.713-4.772-8.713l-.111.092c-.175.216-.327.347-.327.347s-.497 1.555-.306 3.471c.192 1.916 1.463 3.745 3.517 4.33.866.247 1.961.462 3.019.819-.252-.131-.587-.247-1.02-.346z" fill="#FFFFFF" data-color="3"></path>
        <path d="M125.522 95.306c-1.861-.284-4.013.668-4.013.668 5.645-.382 5.731 4.187 5.731 4.187l1.917-.421-.025-.228c-.402-2.243-1.749-3.923-3.61-4.206z" fill="#FFFFFF" data-color="3"></path>
        <path d="M125.536 111.324c-.137-2.837-3.084-4.082-3.084-4.082s2.143 1.262 1.688 4.342c-.338 2.285-2.194 3.104-3.132 3.375 1.146-.087 2.105-.065 2.105-.065s2.56-.733 2.423-3.57z" fill="#FFFFFF" data-color="3"></path>
        <path d="M129.509 114.62c-.026.06 1.421 0 1.421 0s.65-1.753.212-3.005c-.438-1.252-1.985-2.117-1.985-2.117s-.162.136-.407.273c.548.39 2.157 1.854.759 4.849z" fill="#FFFFFF" data-color="3"></path>
        <path fill="#FFFFFF" d="m96.199 116.205-1.22 2.243.346 2.355-2.301 5.585-.171-3.101 1.399-2.617-.288-2.444 1.956-2.712.279.691z" data-color="3"></path>
        <path d="M118.291 109.838a.176.176 0 0 1-.167-.124c-1.576-5.155-2.751-7.861-2.763-7.888-.111-.942.349-2.836 1.672-4.259 1.146-1.235 2.696-1.862 4.482-1.767a.175.175 0 0 1 .167.183.177.177 0 0 1-.175.168c-1.695-.082-3.145.497-4.22 1.655-1.235 1.328-1.674 3.07-1.596 3.904.124.29 1.264 2.992 2.766 7.9a.177.177 0 0 1-.166.228z"></path>
        <path d="M125.659 110.299c-.131 0-.257-.003-.374-.005a.177.177 0 0 1-.169-.182c.003-.099.08-.183.181-.171.597.019 1.446-.017 2.02-.063.58-.047 1.016-.154 1.371-.337.582-.299.924-.835 1.046-1.643.204-1.347-.046-2.728-.288-4.063l-.035-.191c-.176-.973-.779-3.761-.785-3.789a.177.177 0 0 1 .133-.21.173.173 0 0 1 .208.135c.006.028.611 2.823.788 3.8l.035.191c.248 1.364.503 2.776.289 4.18-.14.926-.544 1.549-1.232 1.902-.523.269-1.108.342-1.503.374-.471.04-1.127.072-1.685.072z"></path>
        <path d="M124.766 102.903c.134-.045.236-.001.358.491.136.549.009.671-.116.687-.125.016-.278-.135-.337-.534-.06-.398-.081-.586.095-.644z"></path>
        <path d="M128.711 102.093c.133-.049.236-.009.374.479.155.544.032.67-.093.69-.124.02-.282-.125-.355-.522-.073-.396-.1-.582.074-.647z"></path>
        <path d="M127.827 101.018a.173.173 0 0 1-.159-.104c-.04-.09 0-.194.088-.233.7-.315 1.109-.152 1.357.003a.176.176 0 0 1 .058.241.172.172 0 0 1-.24.059c-.206-.126-.491-.223-1.033.019a.185.185 0 0 1-.071.015z"></path>
        <path d="M123.965 101.971a.169.169 0 0 1-.112-.041.178.178 0 0 1-.022-.249c.605-.726 1.587-.612 1.626-.608.096.012.163.1.152.196-.012.096-.104.147-.194.154-.006-.005-.834-.093-1.316.485a.174.174 0 0 1-.134.063z"></path>
        <path d="M121.448 107.628a2.006 2.006 0 0 1-1.985-1.806 2.01 2.01 0 0 1 1.781-2.203 2.02 2.02 0 0 1 1.145.227.176.176 0 0 1 .072.238.173.173 0 0 1-.236.072 1.657 1.657 0 0 0-.944-.187 1.656 1.656 0 0 0-1.469 1.818c.093.907.9 1.569 1.805 1.48a1.65 1.65 0 0 0 .82-.322.175.175 0 1 1 .21.281 2.009 2.009 0 0 1-1.199.402z"></path>
        <path d="M121.205 106.778a.177.177 0 0 1-.128-.297l.899-.974-1.298-.667a.176.176 0 0 1-.076-.236.171.171 0 0 1 .235-.076l1.503.773a.177.177 0 0 1 .048.276l-1.056 1.145a.172.172 0 0 1-.127.056z"></path>
        <path d="M128.016 117.19a.186.186 0 0 1-.083-.021l-4.332-2.35a.176.176 0 0 1-.071-.238.17.17 0 0 1 .237-.072l4.111 2.23.288-2.013-.615-4.651a.173.173 0 0 1 .15-.196c.102-.019.184.053.196.151l.619 4.675c-.001.048-.328 2.333-.328 2.333a.177.177 0 0 1-.172.152z"></path>
        <path d="M115.674 116.634a.18.18 0 0 1-.108-.037c-1.96-1.544-1.853-3.531-1.1-4.877.813-1.453 2.636-2.579 4.281-1.949a.176.176 0 0 1-.125.329c-1.468-.559-3.111.47-3.852 1.792-.884 1.578-.507 3.233 1.01 4.426.076.06.09.171.03.247a.171.171 0 0 1-.136.069z"></path>
        <path d="M130.93 114.796c-.152-.047-.198-.148-.163-.239.465-1.232.494-2.312.085-3.206-.567-1.244-1.793-1.704-1.805-1.708a.177.177 0 0 1-.104-.226.175.175 0 0 1 .224-.106c.056.021 1.377.516 2.004 1.892.448.984.422 2.154-.077 3.479a.176.176 0 0 1-.164.114z"></path>
        <path d="M122.553 115.16a.176.176 0 0 1-.006-.353c.107-.003 2.623-.128 2.793-3.15.173-3.059-3.116-4.212-3.15-4.223a.176.176 0 0 1-.11-.223.178.178 0 0 1 .221-.111c.036.012 3.574 1.254 3.387 4.576-.19 3.35-3.101 3.483-3.131 3.484h-.004z"></path>
        <path d="M128.499 105.87a.178.178 0 0 1-.121-.304c.196-.19.548-.77.537-1.095-.003-.088-.034-.114-.044-.122-.104-.091-.415.11-.581.216-.179.118-.298.192-.425.159a.255.255 0 0 1-.131-.115c-.072-.156-.563-1.756-.66-2.074a.175.175 0 1 1 .333-.104c.187.611.479 1.549.597 1.9l.097-.061c.274-.178.688-.445.994-.191a.5.5 0 0 1 .169.38c.017.465-.41 1.133-.643 1.36a.176.176 0 0 1-.122.051z"></path>
        <path d="M127.018 107.419c-.18 0-.348-.037-.506-.112-.587-.278-.777-.972-.784-1.001a.175.175 0 1 1 .337-.091c.001.005.158.568.597.774.261.124.579.096.95-.072a.17.17 0 0 1 .232.086.176.176 0 0 1-.086.233c-.262.121-.51.183-.74.183z"></path>
        <path d="M43.804 126.444a.171.171 0 0 1-.147-.083.175.175 0 0 1 .054-.242l3.952-2.525-.852-1.35-5.831 3.723a.173.173 0 0 1-.241-.055.175.175 0 0 1 .054-.242l5.978-3.818a.172.172 0 0 1 .241.053l1.039 1.648a.177.177 0 0 1-.054.244l-4.099 2.618a.167.167 0 0 1-.094.029z"></path>
        <path d="M47.902 123.826a.171.171 0 0 1-.147-.083.175.175 0 0 1 .054-.242l.65-.416-.851-1.35-.65.414a.174.174 0 0 1-.241-.055.175.175 0 0 1 .054-.242l.798-.509a.171.171 0 0 1 .241.055l1.038 1.648a.175.175 0 0 1-.054.242l-.798.509a.165.165 0 0 1-.094.029z"></path>
        <path d="M37.395 129.739a.176.176 0 0 1-.024-.35l1.562-.218 1.276-.815a.174.174 0 0 1 .241.053.176.176 0 0 1-.054.243l-1.308.835a.16.16 0 0 1-.07.025l-1.6.223a.059.059 0 0 1-.023.004z"></path>
        <path d="M37.012 129.326a.174.174 0 0 1-.146-.272l1.07-1.652a.171.171 0 0 1 .242-.051.174.174 0 0 1 .05.243l-1.07 1.652a.171.171 0 0 1-.146.08z"></path>
        <path d="M43.271 128.992c-3.21 0-4.498-.795-4.991-1.298-.31-.315-.463-.671-.445-1.025.061-1.164 1.709-1.196 1.779-1.197.085.017 4.128 1.036 5.666.567a.174.174 0 0 1 .218.118.176.176 0 0 1-.117.219c-1.586.478-5.41-.456-5.783-.551-.175.007-1.373.084-1.414.863-.013.253.105.516.344.759.399.405 1.749 1.335 5.603 1.176a.176.176 0 0 1 .182.168.175.175 0 0 1-.167.182c-.307.014-.597.019-.875.019z"></path>
        <path d="M39.316 125.851a.171.171 0 0 1-.123-.052.178.178 0 0 1-.001-.249c.06-.06 1.464-1.475 2.516-1.933 1.071-.466 2.563-.159 2.625-.148.094.02.155.114.135.209a.172.172 0 0 1-.207.136c-.015-.003-1.446-.295-2.415.127-.991.43-2.393 1.843-2.407 1.858a.168.168 0 0 1-.123.052z"></path>
        <path d="M50.394 127.408a.171.171 0 0 1-.096-.029l-3.98-2.632a.175.175 0 0 1-.05-.243.174.174 0 0 1 .242-.051l3.98 2.631a.176.176 0 0 1-.096.324z"></path>
        <path d="M47.016 131.484a.168.168 0 0 1-.072-.016c-1.704-.772-2.691-1.624-3.017-2.602a.177.177 0 0 1 .11-.223c.093-.025.191.019.222.111.293.881 1.218 1.664 2.828 2.394.088.04.128.144.088.233a.174.174 0 0 1-.159.103z"></path>
        <path d="M58.489 109.178a.587.587 0 0 1-.568-.45l-.587-2.462a.588.588 0 0 1 .431-.708.582.582 0 0 1 .703.433l.586 2.463a.588.588 0 0 1-.565.724zm-.586-3.285c-.18.036-.258.164-.228.291l.587 2.46a.235.235 0 0 0 .282.175.237.237 0 0 0 .173-.283l-.586-2.463a.238.238 0 0 0-.106-.146.25.25 0 0 0-.122-.034z"></path>
        <path d="M58.593 107.441a.176.176 0 0 1-.043-.346l4.62-1.195a.175.175 0 0 1 .086.34l-4.62 1.195a.16.16 0 0 1-.043.006z"></path>
        <path d="M55.492 160.717a.176.176 0 0 1-.175-.174c-.037-2.908.039-6.962.184-9.859a.176.176 0 0 1 .175-.167.179.179 0 0 1 .175.186c-.145 2.89-.221 6.935-.185 9.835a.176.176 0 0 1-.173.179h-.001z"></path>
        <path d="M55.755 137.687c-.107-.007-.18-.09-.175-.187.035-.598.066-1.167.097-1.713.371-6.725.54-9.794 4.705-15.83.244-.182 4.954-3.4 8.587-3.73.1.007.181.063.19.159a.175.175 0 0 1-.158.191c-3.407.31-7.963 3.345-8.351 3.607-4.09 5.936-4.258 8.976-4.625 15.623-.03.545-.061 1.116-.096 1.715a.174.174 0 0 1-.174.165z"></path>
        <path d="M78.392 160.717a.176.176 0 0 1-.175-.17c-.005-.119-.439-11.931-.786-20.115a.175.175 0 0 1 .167-.183c.1-.001.178.073.182.167.347 8.187.781 20 .786 20.118a.176.176 0 0 1-.168.183h-.006z"></path>
        <path d="M62.258 152.039c-3.772 0-7.398-1.54-10.473-3.067-3.522-1.749-6.89-3.901-10.146-5.982l-.092-.059a.178.178 0 0 1-.078-.118c-.016-.091-.358-2.247 2.225-5.717 2.333-3.133 4.283-3.122 4.378-3.121a.188.188 0 0 1 .066.016l.398.176c3.668 1.632 7.335 3.264 11.001 4.902 1.436.64 2.437.493 3.059-.453.443-.678.558-1.544.658-2.308l.192-1.454c.355-2.693.723-5.48 1.111-8.217a.177.177 0 0 1 .198-.148.176.176 0 0 1 .149.199c-.389 2.734-.756 5.52-1.111 8.212l-.192 1.453c-.105.802-.226 1.711-.713 2.455-.721 1.101-1.895 1.295-3.493.581-3.665-1.637-7.332-3.269-10.999-4.901l-.362-.162c-.248.013-1.997.21-4.058 2.979-2.222 2.984-2.2 4.974-2.169 5.373 3.269 2.089 6.629 4.235 10.134 5.977 3.194 1.585 6.991 3.182 10.884 3.019 6.074-.261 10.127-5.419 11.451-10.416.595-2.247 1.138-4.739 1.144-4.763a.17.17 0 0 1 .208-.135.176.176 0 0 1 .133.21c-.005.025-.55 2.525-1.148 4.779-1.356 5.121-5.522 10.41-11.773 10.676-.195.01-.389.014-.582.014z"></path>
        <path d="M45.908 135.137a.171.171 0 0 1-.17-.142c-.015-.08-.346-1.99 2.238-5.461 2.333-3.134 4.277-3.118 4.378-3.122a.188.188 0 0 1 .066.016l4.194 1.866a.177.177 0 0 1 .09.231c-.039.089-.144.131-.23.089l-4.158-1.85c-.248.013-1.997.21-4.058 2.98-2.477 3.325-2.178 5.165-2.175 5.184a.177.177 0 0 1-.14.205c-.013.004-.024.004-.035.004z"></path>
        <path d="M58.18 105.339a.177.177 0 0 1-.13-.296c.263-.291.98-.718 1.804-.251a.177.177 0 0 1 .066.24.177.177 0 0 1-.238.067 1.091 1.091 0 0 0-1.373.182.174.174 0 0 1-.129.058z"></path>
        <path d="M77.962 127.407c-.145-.037-.196-.136-.167-.23 2.182-6.947.776-12.846-3.498-14.678-4.273-1.832-4.33-3.594-4.424-6.514-.033-1.014-.07-2.164-.292-3.519-.82-5.006-5.159-4.354-5.341-4.322-.571-.057-1.048-.037-1.804.067-3.779.524-5.544 1.84-5.72 4.273-.007.096-.084.159-.187.162a.174.174 0 0 1-.161-.188c.188-2.591 2.101-4.052 6.02-4.593.659-.092 1.195-.136 1.819-.071a5.527 5.527 0 0 1 2.512.279c1.21.437 2.749 1.544 3.207 4.338.225 1.377.263 2.539.296 3.564.093 2.873.144 4.457 4.212 6.201 4.449 1.907 5.933 7.979 3.695 15.109a.177.177 0 0 1-.167.122z"></path>
        <path d="M60.801 113.771c-.503 0-.962-.107-1.373-.319-1.381-.712-1.763-2.374-1.837-2.776-.51-.301-1.525-.95-1.544-1.378-.019-.441.937-1.152 1.444-1.497l-.805-4.683a.175.175 0 0 1 .142-.203.18.18 0 0 1 .202.144l.825 4.795a.175.175 0 0 1-.076.176c-.743.494-1.389 1.079-1.383 1.251.016.167.689.695 1.44 1.131a.177.177 0 0 1 .086.127c.003.019.284 1.888 1.666 2.601.958.493 2.228.331 3.774-.484a.177.177 0 0 1 .162.313c-1.014.533-1.925.802-2.723.802z"></path>
        <path d="M59.25 106.449c-.14.021-.211.106-.1.601.124.552.292.604.41.561.118-.042.187-.246.063-.629-.125-.383-.19-.559-.373-.533z"></path>
        <path d="M58.325 111.862c-.09 0-.184-.005-.282-.017a.175.175 0 0 1-.151-.197c.012-.098.102-.156.195-.154.405.055.718-.023.93-.22.358-.333.336-.911.335-.918a.175.175 0 0 1 .167-.183.176.176 0 0 1 .183.167c.001.031.029.75-.447 1.192-.237.221-.549.33-.93.33z"></path>
        <path d="M64.846 109.141c-.21 0-.42-.032-.625-.096a.177.177 0 0 1 .105-.337c.34.111.698.11 1.034.001a1.72 1.72 0 0 0 1.017-.851 1.745 1.745 0 0 0-.726-2.349 1.701 1.701 0 0 0-1.318-.12 1.723 1.723 0 0 0-1.158 1.222.177.177 0 0 1-.214.126.176.176 0 0 1-.125-.214 2.071 2.071 0 0 1 1.393-1.47 2.04 2.04 0 0 1 1.584.146 2.07 2.07 0 0 1 1.018 1.229 2.09 2.09 0 0 1-.144 1.594 2.067 2.067 0 0 1-1.841 1.119z"></path>
        <path d="M65.558 107.911c-.048-.007-1.557-.441-1.557-.441a.175.175 0 0 1-.093-.272l.962-1.337a.177.177 0 0 1 .244-.04.177.177 0 0 1 .039.246l-.815 1.133 1.269.365a.176.176 0 0 1 .12.218.178.178 0 0 1-.169.128z"></path>
        <path d="M60.526 120.233c-.109-.008-.181-.092-.174-.19.007-.095.183-2.344 1.211-3.916.755-1.155 3.243-2.138 4.277-2.507a.175.175 0 0 1 .117.331c-2.085.744-3.618 1.629-4.101 2.368-.979 1.497-1.154 3.727-1.156 3.75a.175.175 0 0 1-.174.164z"></path>
        <path d="M77.225 129.02a.176.176 0 0 1-.175-.176c0-3.511-.56-6.689-1.087-7.897-.371-.853-.853-1.573-1.431-2.141-1.011-.993-2.339-1.344-3.746-1.717-.987-.262-2.009-.533-2.902-1.048-2.433-1.401-2.852-4.699-2.187-7.347.023-.095.114-.147.212-.128.093.024.15.12.126.214-.633 2.519-.252 5.647 2.022 6.956.853.49 1.852.756 2.817 1.012 1.389.369 2.824.75 3.901 1.807.611.599 1.117 1.356 1.507 2.251.541 1.24 1.116 4.48 1.116 8.039a.172.172 0 0 1-.173.175z"></path>
        <path d="M63.292 106.121c-5.03-.787-6.828-3.265-6.902-3.371a.177.177 0 0 1 .041-.245.175.175 0 0 1 .244.041c.018.024 1.8 2.464 6.644 3.224a.175.175 0 0 1 .146.2.176.176 0 0 1-.173.151z"></path>
        <path d="M63.116 115.22a.176.176 0 0 1-.169-.134l-.461-1.838a.176.176 0 0 1 .127-.214.178.178 0 0 1 .212.128l.461 1.838a.176.176 0 0 1-.17.22z"></path>
        <path d="M45.908 135.138a.169.169 0 0 1-.107-.038c-.011-.009-.299-.235-1.773-1.594a13.56 13.56 0 0 1-1.519-1.628c-.2-.257-.387-.525-.573-.794-.264-.38-.536-.773-.845-1.119a4.765 4.765 0 0 0-.297-.306c-.143-.134-.336-.297-.563-.374-.231-.082-.497-.037-.728.116-.255.171-.426.449-.445.726-.032.442.233.903.483 1.299.136.215.282.421.429.627.166.233.338.474.491.726l.061.091c.186.263.62.882-.187 1.537-.169.136-.453.251-.84.009a.175.175 0 0 1 .183-.299c.232.143.355.083.437.017.552-.449.313-.789.122-1.061-.029-.041-.055-.077-.074-.11-.147-.241-.315-.477-.478-.706a12.755 12.755 0 0 1-.439-.642c-.281-.445-.576-.965-.538-1.513.028-.39.253-.762.601-.994.322-.214.7-.271 1.034-.158.289.099.52.293.689.452.111.106.218.214.319.327.324.362.603.764.872 1.153.182.262.364.525.561.778a13.26 13.26 0 0 0 1.481 1.585c1.449 1.337 1.739 1.566 1.75 1.576.076.06.09.17.031.247a.171.171 0 0 1-.138.07z"></path>
        <path d="M37.82 135.527a.173.173 0 0 1-.109-.039c-3.13-2.538-3.289-3.928-2.53-5.35a.173.173 0 0 1 .237-.072.176.176 0 0 1 .071.238c-.575 1.078-.822 2.265 2.441 4.909a.18.18 0 0 1 .027.249.181.181 0 0 1-.137.065z"></path>
        <path d="M41.969 140.782a.173.173 0 0 1-.157-.1c-.36-.755-.941-1.084-1.902-1.628a25.585 25.585 0 0 1-1.26-.747c-1.904-1.211-3.474-2.887-4.095-4.374-.923-2.208.427-3.325.441-3.336a.175.175 0 0 1 .245.028.177.177 0 0 1-.027.247c-.048.039-1.154.972-.337 2.924.595 1.425 2.112 3.039 3.959 4.214.466.295.88.531 1.245.738.986.559 1.638.927 2.045 1.781a.176.176 0 0 1-.157.253z"></path>
        <path d="M60.603 151.835a.175.175 0 0 1-.173-.156c-.301-2.575 1.566-5.085 4.439-5.967 2.475-.758 5.083-.08 6.493 1.688a.176.176 0 0 1-.027.247.174.174 0 0 1-.246-.028c-1.322-1.657-3.78-2.289-6.119-1.57-2.668.818-4.47 3.222-4.194 5.59a.176.176 0 0 1-.153.195c-.006-.001-.013.001-.02.001z"></path>
        <path d="M142.558 133.559h-6.22a.176.176 0 0 1 0-.352h6.046v-14.958a.175.175 0 1 1 .35 0v15.134a.178.178 0 0 1-.176.176z"></path>
        <path d="M131.461 133.559h-3.936a.176.176 0 0 1 0-.352h3.936a.176.176 0 0 1 0 .352z"></path>
        <path d="M152.696 144.734a.179.179 0 0 1-.129-.057.178.178 0 0 1 .011-.249 15.045 15.045 0 0 0 4.839-11.046c0-8.249-6.666-14.958-14.858-14.958-7.038 0-13.162 5.032-14.561 11.964a.173.173 0 0 1-.206.138.176.176 0 0 1-.137-.207c1.432-7.097 7.7-12.247 14.904-12.247 8.385 0 15.208 6.868 15.208 15.311a15.4 15.4 0 0 1-4.952 11.305.183.183 0 0 1-.119.046z"></path>
        <path d="M127.588 135.061a.177.177 0 0 1-.175-.164c-.002-.036-.062-.897-.062-1.514 0-1.032.102-2.062.304-3.063.019-.096.111-.163.206-.138a.176.176 0 0 1 .137.207 15.2 15.2 0 0 0-.297 2.994c0 .605.062 1.481.062 1.49a.175.175 0 0 1-.162.187c-.006-.001-.01.001-.013.001z"></path>
        <path d="M142.558 148.693c-5.126 0-9.68-2.4-12.497-6.583a.178.178 0 0 1 .047-.245.176.176 0 0 1 .243.047c2.75 4.086 7.2 6.428 12.207 6.428.862 0 1.723-.074 2.562-.221a.179.179 0 0 1 .202.144.175.175 0 0 1-.142.203c-.858.15-1.74.227-2.622.227z"></path>
        <path d="M145.936 83.893h-3.868a.176.176 0 0 1-.175-.176v-4.13c-5.451-.654-8.691-3.499-9.901-8.694a.177.177 0 0 1 .129-.211l6.065-1.473a.177.177 0 0 1 .204.107l.142.361c.11.279.216.547.309.817a5.286 5.286 0 0 0 2.767 3.089c1.434.675 3.086.722 4.65.126 1.319-.503 2.042-1.482 2.151-2.911.092-1.235-.497-2.188-1.658-2.682-1.174-.497-2.398-.949-3.581-1.386-.482-.178-.963-.356-1.443-.537a50.798 50.798 0 0 0-.923-.334c-.58-.207-1.178-.42-1.752-.667-4.433-1.911-6.399-5.12-5.841-9.536.543-4.293 3.238-6.945 8.013-7.884a4.05 4.05 0 0 0 .384-.101l.153-.043v-3.146c0-.097.078-.176.175-.176h3.822c.095 0 .172.076.175.171l.084 3.089c.332.059 1.229.253 2.931.853 2.984 1.052 4.885 3.093 5.982 6.422a.177.177 0 0 1-.104.219l-5.369 2.061a.175.175 0 0 1-.207-.066c-.212-.315-.411-.631-.607-.942-.428-.679-.832-1.319-1.331-1.897-1.05-1.212-2.597-1.637-4.35-1.196-1.312.33-2.119 1.172-2.334 2.434-.24 1.41.274 2.406 1.529 2.958 1.009.445 2.062.849 3.081 1.239.407.156.814.311 1.22.47.408.16.818.314 1.229.466.795.297 1.616.603 2.402.954 4.584 2.038 6.411 5.213 5.749 9.99-.546 3.949-3.727 6.922-8.301 7.758-.334.061-.665.135-1.032.216l-.394.087v4.124a.176.176 0 0 1-.175.177zm-3.693-.353h3.519v-4.09c0-.083.058-.155.138-.172l.53-.116c.371-.081.706-.156 1.044-.218 4.487-.822 7.485-3.611 8.017-7.462.637-4.597-1.124-7.655-5.544-9.621a40.927 40.927 0 0 0-2.382-.945c-.412-.154-.825-.307-1.234-.468-.406-.159-.812-.315-1.219-.47-1.022-.392-2.079-.797-3.096-1.244-1.4-.617-1.999-1.772-1.732-3.34.236-1.39 1.158-2.355 2.593-2.717 1.892-.469 3.558-.008 4.698 1.308.516.596.928 1.248 1.363 1.938.17.27.343.544.524.818l5.082-1.951c-1.068-3.122-2.887-5.044-5.712-6.041-2.141-.754-2.996-.857-3.005-.858a.176.176 0 0 1-.155-.17l-.084-3.064h-3.477v3.104c0 .08-.052.149-.129.17l-.277.078a5.164 5.164 0 0 1-.414.108c-4.609.907-7.211 3.459-7.733 7.584-.536 4.241 1.359 7.325 5.632 9.167a28.3 28.3 0 0 0 1.73.658c.311.111.621.222.929.338.479.18.961.358 1.441.536 1.187.438 2.415.891 3.596 1.392 1.311.557 1.975 1.635 1.871 3.033-.117 1.554-.938 2.666-2.375 3.213-1.653.632-3.401.581-4.922-.136a5.636 5.636 0 0 1-2.949-3.292c-.091-.266-.195-.528-.303-.802l-.087-.219-5.748 1.395c1.215 4.973 4.395 7.679 9.714 8.273a.177.177 0 0 1 .155.175v4.108z"></path>
        <path d="M116.773 136.966c-.139-.032-.194-.128-.169-.222 1.346-5.049 1.483-10.106 1.484-10.157.002-.098.098-.172.178-.172a.177.177 0 0 1 .171.18c-.001.051-.138 5.149-1.496 10.24a.174.174 0 0 1-.168.131z"></path>
        <path d="M140.222 160.717a.176.176 0 0 1-.175-.176c0-.054-.014-5.488-.522-12.166a.174.174 0 0 1 .161-.188c.107.003.18.065.187.162.509 6.692.523 12.138.523 12.193a.176.176 0 0 1-.174.175z"></path>
        <path d="M112.815 154.606a.176.176 0 0 1-.024-.35c5.71-.821 12.318-6.084 16.629-10.767-.195-.49-1.107-2.684-2.541-4.6-1.446-1.933-2.591-3.125-2.922-3.459-.734.474-4.767 3.111-8.234 5.923a.172.172 0 0 1-.246-.025.177.177 0 0 1 .027-.247c3.826-3.105 8.338-5.994 8.383-6.022a.174.174 0 0 1 .214.021c.013.012 1.322 1.279 3.057 3.598 1.648 2.203 2.619 4.762 2.628 4.787a.178.178 0 0 1-.035.182c-4.349 4.747-11.076 10.118-16.91 10.956a.122.122 0 0 1-.026.003z"></path>
        <path d="M113.188 118.542a.17.17 0 0 1-.114-.044.175.175 0 0 1-.018-.247c.574-.666 1.033-1.048 1.89-1.573 1.882-1.155 3.811-1.871 7.607-1.871.096 0 .175.079.175.176a.176.176 0 0 1-.175.177c-3.714 0-5.595.695-7.426 1.818-.822.505-1.261.87-1.807 1.503a.175.175 0 0 1-.132.061z"></path>
        <path d="M128.409 114.904a.176.176 0 0 1 0-.352c5.466 0 11.927-1.405 13.668-5.35.63-1.426.971-3.079 1.044-5.053.103-2.793-.396-5.913-1.405-8.783a.176.176 0 0 1 .106-.225.177.177 0 0 1 .223.107c1.024 2.912 1.53 6.078 1.425 8.914-.074 2.019-.425 3.715-1.074 5.182-1.536 3.481-6.765 5.56-13.987 5.56z"></path>
        <path d="M150.012 120.246a.18.18 0 0 1-.102-.033.177.177 0 0 1-.039-.246c.341-.476.646-.947.899-1.347 5.61-8.853 2.176-22.768.99-26.821a.174.174 0 1 1 .334-.099c1.534 5.242 4.504 18.376-1.029 27.11a26.96 26.96 0 0 1-.911 1.363.176.176 0 0 1-.142.073z"></path>
        <path d="M144.895 95.401a.171.171 0 0 1-.105-.036 45.518 45.518 0 0 0-2.814-1.962c-1.428-.904-2.216-2.35-1.831-3.364.015-.04 1.62-4.03 3.082-4.206.237-.027.591.032.9.483 1.225 1.783-.931 4.869-1.023 4.998a.173.173 0 0 1-.244.041.176.176 0 0 1-.04-.245c.021-.031 2.105-3.015 1.02-4.595-.173-.251-.359-.361-.572-.334-1.013.123-2.424 3.003-2.797 3.983-.277.731.22 2.01 1.69 2.942a45.959 45.959 0 0 1 2.84 1.978c.077.059.092.17.034.247a.178.178 0 0 1-.14.07z"></path>
        <path d="M151.175 92.842c-.112-.009-.183-.095-.174-.192.233-2.623-.184-5.923-.188-5.957a.177.177 0 0 1 .151-.198c.1-.004.183.056.196.152.004.033.426 3.371.189 6.034a.176.176 0 0 1-.174.161z"></path>
        <path d="M129.104 142.439a.177.177 0 0 1-.173-.15.174.174 0 0 1 .146-.2c2.337-.365 7.181-5.141 7.554-6.423.248-.851-.488-1.188-.52-1.203a.172.172 0 0 1-.1-.122.179.179 0 0 1 .038-.154c.264-.309.25-.678-.039-.986a.941.941 0 0 0-.326-.236c-.178-.074-.387-.037-.635.106a.174.174 0 0 1-.238-.067.178.178 0 0 1 .066-.241c.343-.194.658-.238.937-.124.159.064.31.172.45.322.36.385.421.871.174 1.286.35.237.753.747.529 1.518-.398 1.366-5.337 6.281-7.836 6.672l-.027.002z"></path>
        <path d="M131.21 136.338a.171.171 0 0 1-.147-.083.175.175 0 0 1 .054-.242c.658-.42 2.494-2.003 2.999-2.507.065-.065.141-.136.224-.213.347-.319.821-.758.822-1.179 0-.187-.093-.365-.284-.543-.542-.507-1.016-.239-1.748.471-.1.096-.246.243-.42.418-.561.564-1.408 1.417-1.936 1.823-.755.579-1.92 1.236-2.678 1.201-.529-.027-.678-.474-.683-.707a.175.175 0 0 1 .171-.18.182.182 0 0 1 .178.172c.003.059.031.347.352.365.595 0 1.57-.457 2.447-1.132.509-.392 1.347-1.234 1.901-1.791.175-.178.323-.326.424-.424.534-.519 1.341-1.3 2.228-.476.263.246.396.516.396.803-.001.575-.541 1.073-.935 1.437-.078.072-.152.14-.214.202-.526.527-2.369 2.117-3.057 2.555a.159.159 0 0 1-.094.03z"></path>
        <path d="M124.645 135.941a.176.176 0 0 1-.139-.282c.438-.584.806-1.636 1.101-2.482.139-.397.258-.739.37-.997.062-.142.114-.306.168-.477.212-.663.501-1.581 1.539-1.411a.175.175 0 0 1 .146.2c-.014.096-.103.167-.199.147-.698-.107-.906.393-1.153 1.171-.058.183-.114.36-.181.512-.107.245-.224.583-.361.973-.303.867-.68 1.949-1.152 2.575a.172.172 0 0 1-.139.071z"></path>
        <path d="M132.395 138.008a.174.174 0 0 1-.136-.066.177.177 0 0 1 .027-.247s.907-.739 1.921-1.576c.822-.679 1.829-1.915 1.839-1.927a.176.176 0 0 1 .198-.054.648.648 0 0 1 .09.041.184.184 0 0 1 .078.242.174.174 0 0 1-.178.092c-.261.315-1.087 1.284-1.805 1.878-1.015.837-1.924 1.576-1.924 1.576a.17.17 0 0 1-.11.041z"></path>
        <path d="M142.697 95.741c-.518 0-.887-.107-.981-.376-.145-.417.311-.913 1.395-1.517a.175.175 0 0 1 .169.307c-1.314.732-1.246 1.057-1.235 1.092.1.281 2.002.217 5.146-.897 1.332-.472 2.545-1.016 3.42-1.533 1.022-.605 1.177-.934 1.15-1.01-.045-.131-.049-.156-.42-.14a.183.183 0 0 1-.18-.171.176.176 0 0 1 .169-.182c.509-.013.65.054.751.35.137.393-.289.862-1.294 1.457-.892.528-2.129 1.083-3.481 1.561-1.264.448-3.367 1.059-4.609 1.059z"></path>
        <path d="M146.841 91.925a.172.172 0 0 1-.142-.073c-1.2-1.683-.322-4.207-.284-4.313a.175.175 0 0 1 .224-.107c.09.033.138.134.106.225-.009.025-.853 2.459.239 3.989a.177.177 0 0 1-.143.279z"></path>
        <path d="M177.145 103.718c-1.574 0-2.856-1.291-2.856-2.876s1.281-2.875 2.856-2.875c1.574 0 2.855 1.29 2.855 2.875s-1.28 2.876-2.855 2.876zm0-5.398c-1.382 0-2.506 1.131-2.506 2.522s1.124 2.523 2.506 2.523c1.381 0 2.506-1.132 2.506-2.523s-1.125-2.522-2.506-2.522z"></path>
        <path d="M24.904 87.913c-1.574 0-2.855-1.29-2.855-2.875s1.28-2.875 2.855-2.875c1.574 0 2.855 1.29 2.855 2.875s-1.281 2.875-2.855 2.875zm0-5.397a2.517 2.517 0 0 0-2.506 2.522 2.517 2.517 0 0 0 2.506 2.522 2.517 2.517 0 0 0 2.506-2.522 2.517 2.517 0 0 0-2.506-2.522z"></path>
        <path d="M173.137 161H33.713a.176.176 0 0 1 0-.352h139.424a.176.176 0 0 1 0 .352z"></path>
        <path d="M75.077 106.742a4.14 4.14 0 0 1-2.947-1.227l-2.359-2.376a.177.177 0 0 1 0-.249.172.172 0 0 1 .247 0l2.359 2.376a3.807 3.807 0 0 0 5.399 0l23.162-22.748a3.871 3.871 0 0 0-.001-5.435l-1.541-1.55a3.785 3.785 0 0 0-2.701-1.127c-1.02 0-1.979.401-2.7 1.127L75.198 93.89a.172.172 0 0 1-.245-.001l-6.886-6.934a3.777 3.777 0 0 0-2.7-1.127c-1.02 0-1.979.4-2.701 1.127l-1.539 1.55a3.834 3.834 0 0 0-1.119 2.718c0 1.026.398 1.991 1.119 2.717l3.777 3.802a.177.177 0 0 1 0 .249.172.172 0 0 1-.247 0l-3.777-3.802a4.18 4.18 0 0 1-1.221-2.966 4.18 4.18 0 0 1 1.221-2.967l1.539-1.55c.787-.794 1.834-1.231 2.948-1.231s2.16.437 2.947 1.231l6.764 6.811L93.75 75.284a4.124 4.124 0 0 1 2.945-1.228 4.13 4.13 0 0 1 2.948 1.229l1.541 1.55a4.226 4.226 0 0 1 0 5.934l-23.162 22.748a4.143 4.143 0 0 1-2.945 1.225z"></path>
        <path d="M107.668 144.555c-6.585 0-15.02-4.357-20.564-8.763a.175.175 0 0 1-.065-.163c.004-.027.4-2.73 1.57-4.981 1.568-3.015 4.264-4.43 4.378-4.489a.179.179 0 0 1 .158-.001l6.931 3.503c.086.044.121.15.078.236a.177.177 0 0 1-.234.079l-6.849-3.463c-.451.255-2.781 1.663-4.152 4.298-1.017 1.957-1.435 4.266-1.517 4.769 5.496 4.346 13.798 8.623 20.264 8.623.148 0 .293-.001.439-.007 3.756-.116 6.095-1.118 7.361-3.154a.176.176 0 0 1 .241-.056c.082.052.106.16.055.243-1.334 2.144-3.764 3.198-7.647 3.32-.148.003-.298.006-.447.006z"></path>
        <path d="M115.613 141.311a.176.176 0 0 1-.148-.27c1.027-1.651 1.361-4.033 1.02-7.284-.769-7.352-2.923-13.754-2.944-13.816-1.708-5.324-7.174-7.92-10.33-7.997a.177.177 0 0 1-.171-.18c.003-.098.072-.155.179-.172 3.256.082 8.895 2.756 10.653 8.239.021.06 2.188 6.497 2.961 13.89.349 3.332-.002 5.788-1.072 7.508a.174.174 0 0 1-.148.082z"></path>
        <path d="M105.901 128.425a.174.174 0 0 1-.173-.155c-.338-2.773.216-6.264.222-6.299.016-.096.104-.155.201-.146.096.016.16.106.145.202-.006.035-.552 3.477-.22 6.2a.176.176 0 0 1-.152.196l-.023.002z"></path>
        <path d="M97.047 100.728c-.14-.021-.233.04-.269.546-.041.564.105.663.231.657.125-.006.25-.181.242-.584-.01-.403-.021-.591-.204-.619z"></path>
        <path d="M92.966 100.803c-.14-.017-.232.046-.255.553-.026.565.122.66.248.65.125-.009.246-.187.226-.59-.019-.402-.035-.59-.219-.613z"></path>
        <path d="M101.12 109.898a.176.176 0 0 1-.175-.166l-.289-5.062a.176.176 0 0 1 .164-.186.177.177 0 0 1 .185.164l.289 5.062a.176.176 0 0 1-.165.186c-.002.002-.005.002-.009.002z"></path>
        <path d="M94.73 109c-.911 0-1.847-.124-2.439-1.02-.624-.944-.637-2.178-.647-3.269-.003-.238-.005-.472-.013-.696-.029-.74.055-5.504.058-5.705a.176.176 0 0 1 .175-.174c.1.003.177.083.175.179-.001.049-.086 4.956-.058 5.687.009.229.011.465.013.707.011 1.092.023 2.221.589 3.077.601.909 1.651.874 2.673.854l.384-.009c.867-.011 1.569-.086 2.21-.235.092-.016.189.036.21.131a.175.175 0 0 1-.13.211c-.666.156-1.393.234-2.286.246-.125.001-.252.004-.379.008-.177.004-.355.008-.535.008z"></path>
        <path d="M101.697 105.026c-.483 0-.967-.155-1.377-.468a.176.176 0 0 1 .211-.281c.72.551 1.71.526 2.404-.057a1.96 1.96 0 0 0 .247-2.744 1.913 1.913 0 0 0-1.311-.692 1.896 1.896 0 0 0-1.413.444c-.26.218-.458.501-.575.818a.172.172 0 0 1-.224.103.176.176 0 0 1-.104-.226c.138-.374.372-.708.678-.965a2.251 2.251 0 0 1 1.669-.524 2.26 2.26 0 0 1 1.547.818c.391.472.576 1.068.52 1.68a2.285 2.285 0 0 1-.812 1.558 2.258 2.258 0 0 1-1.46.536z"></path>
        <path d="M91.905 100.164a.176.176 0 0 1-.074-.016.176.176 0 0 1-.085-.233c.004-.008.417-.893 1.662-.575.094.024.15.12.126.214a.18.18 0 0 1-.212.128c-.948-.249-1.247.354-1.259.381a.175.175 0 0 1-.158.101z"></path>
        <path d="M97.928 100.222a.175.175 0 0 1-.137-.067c-.825-1.045-1.625-.541-1.66-.52a.172.172 0 0 1-.242-.051.177.177 0 0 1 .052-.243c.011-.007 1.102-.699 2.123.595a.177.177 0 0 1-.136.286z"></path>
        <path d="M94.356 109.913a.176.176 0 0 1-.175-.175l-.007-.918a.177.177 0 0 1 .173-.178c.097 0 .175.079.176.175l.007.918a.176.176 0 0 1-.173.178h-.001z"></path>
        <path d="M103.187 101.272a.177.177 0 0 1-.13-.294l.067-.076c.848-1.008 1.154-2.62.761-4.011-.317-1.128-1.034-1.927-2.019-2.251-.518-.17-1.114-.223-1.77-.154-.36.036-1.059.067-1.089.067a.177.177 0 0 1-.182-.167.175.175 0 0 1 .167-.183c.007-.001.719-.032 1.069-.067.704-.07 1.348-.016 1.914.17 1.098.361 1.896 1.244 2.246 2.489.422 1.499.088 3.241-.83 4.333l-.074.086a.178.178 0 0 1-.13.058z"></path>
        <path d="M102.373 104a.17.17 0 0 1-.076-.019l-1.644-.805a.176.176 0 0 1-.096-.127.171.171 0 0 1 .047-.152l1.478-1.544a.173.173 0 0 1 .247-.005.177.177 0 0 1 .004.249l-1.311 1.37 1.428.699a.176.176 0 0 1-.077.334z"></path>
        <path d="M98.151 95.62a.177.177 0 0 1-.137-.286l.85-1.077a.176.176 0 0 1 .246-.028c.075.06.088.171.028.247l-.85 1.077a.17.17 0 0 1-.137.067z"></path>
        <path d="M106.215 135.514c-.612 0-1.247-.273-1.638-.71-.03-.033-.739-.834-.621-1.453.018-.095.104-.163.204-.139a.175.175 0 0 1 .138.206c-.063.33.297.881.538 1.151.327.365.86.593 1.376.593l.076-.001c.455-.019.875-.269 1.046-.623.119-.243.131-.541.129-.801-.018-1.776-.65-4.017-2.37-4.982-1.66-.933-3.083-.317-3.096-.311a.174.174 0 1 1-.14-.32c.064-.029 1.598-.69 3.406.325 1.851 1.038 2.53 3.412 2.55 5.287.003.299-.013.648-.163.958-.229.473-.757.794-1.345.818l-.09.002z"></path>
        <path d="M97.959 128.964a.176.176 0 0 1-.151-.266c.79-1.351 1.86-1.983 3.255-1.902.981.051 1.669.398 2.302 1.161a.176.176 0 0 1-.022.247.172.172 0 0 1-.246-.023c-.571-.688-1.166-.989-2.052-1.036-1.261-.053-2.208.485-2.936 1.731a.173.173 0 0 1-.15.088z"></path>
        <path d="M81.987 141.48c-2.111 0-3.947-.317-4.868-1.226-4.145-4.091.179-12.223 1.6-14.896 1.599-3.008 7.367-12.913 14.461-14.058a.175.175 0 0 1 .2.146.177.177 0 0 1-.145.202c-6.935 1.12-12.629 10.904-14.209 13.877-3.783 7.114-4.326 11.85-1.663 14.479 2.828 2.795 15.512-.49 15.639-.523a.176.176 0 0 1 .088.34c-.366.095-6.412 1.659-11.103 1.659z"></path>
        <path d="M100.058 101.566a.17.17 0 0 1-.125-.055c-1.373-1.434-2.259-3.79-2.544-4.626-.601.649-2.484 2.301-5.565 1.597a.176.176 0 0 1-.132-.21c.021-.094.114-.164.209-.132 3.563.801 5.397-1.684 5.415-1.709.039-.055.1-.08.171-.071a.179.179 0 0 1 .139.122c.009.032.962 3.119 2.558 4.786a.178.178 0 0 1-.004.249.182.182 0 0 1-.122.049z"></path>
        <path d="M81.474 161c-.129-.023-.19-.115-.171-.21 1.48-7.552 1.721-19.407 1.723-19.526a.176.176 0 0 1 .178-.172.177.177 0 0 1 .171.18c-.002.119-.244 12.004-1.73 19.585a.175.175 0 0 1-.171.143z"></path>
        <path d="M113.07 161a.176.176 0 0 1-.175-.178c.024-3.254-1.012-16.9-1.022-17.037a.174.174 0 0 1 .161-.188.17.17 0 0 1 .187.162c.011.138 1.048 13.798 1.023 17.067a.175.175 0 0 1-.174.174z"></path>
        <path d="M99.149 121.04a.171.171 0 0 1-.149-.086l-3.12-5.169-2.718 3.856a.17.17 0 0 1-.195.067.179.179 0 0 1-.122-.167l-.054-7.699a.176.176 0 0 1 .029-.099l1.391-2.104a.178.178 0 0 1 .173-.076.175.175 0 0 1 .141.128l1.452 5.421 5.099-5.601c.033-.036.089-.04.129-.057.048 0 .094.02.127.056l2.011 2.138a.176.176 0 0 1 .032.193l-4.066 9.096a.174.174 0 0 1-.149.103h-.011zm-3.041-5.553 3.018 5 3.882-8.684-1.801-1.915-5.099 5.599zm-2.968-3.595.049 7.101 2.512-3.562-1.413-5.274-1.148 1.735z"></path>
        <path d="M96.109 126.954c-.143-.036-.195-.134-.167-.227 1.083-3.652 2.388-6.963 2.4-6.996a.174.174 0 0 1 .227-.098c.09.036.133.138.098.229a95.196 95.196 0 0 0-2.391 6.967.175.175 0 0 1-.167.125z"></path>
        <path d="M92.786 126.201a.177.177 0 0 1-.175-.179c.065-4.456.474-6.833.478-6.857.016-.096.102-.156.203-.143a.175.175 0 0 1 .141.204c-.004.023-.408 2.378-.473 6.801a.174.174 0 0 1-.174.174z"></path>
        <path d="M101.055 127.147c-.043-.001-3.744-.134-6.972-.179a.176.176 0 0 1-.172-.179.176.176 0 0 1 .175-.174c3.234.047 6.938.179 6.975.179a.176.176 0 0 1-.006.353z"></path>
        <path d="M79.24 132.902c-.142-.035-.195-.134-.167-.226.806-2.752 1.986-4.356 3.827-5.202.043-.013.403-.075.403-.075 3.258-.568 6.045 2.117 6.162 2.232.069.067.07.179.003.249a.176.176 0 0 1-.248.003c-.027-.027-2.775-2.677-5.859-2.136l-.338.057c-1.729.802-2.845 2.336-3.617 4.97a.17.17 0 0 1-.166.128z"></path>
        <path d="M82.736 127.753a.174.174 0 0 1-.166-.122c-.005-.015-.463-1.548 1.701-2.514 2.107-.943 4.569.644 4.673.714.08.052.104.162.05.243a.171.171 0 0 1-.242.051c-.024-.015-2.405-1.55-4.34-.687-1.866.834-1.525 2.037-1.51 2.088a.175.175 0 0 1-.166.227z"></path>
        <path d="M92.966 126.461a.168.168 0 0 1-.133-.062c-.011-.013-1.118-1.306-3.588-2.19-2.405-.863-3.76.897-3.774.914a.172.172 0 0 1-.245.035.176.176 0 0 1-.034-.246 3.668 3.668 0 0 1 4.169-1.034c2.566.919 3.691 2.24 3.738 2.295a.175.175 0 0 1-.133.288z"></path>
        <path d="m96.242 121.06-2.005-.176a.176.176 0 0 1-.159-.159l-.226-2.597a.174.174 0 0 1 .159-.191c.106.001.181.063.189.159l.214 2.451 1.744.152 1.515-2.146a.173.173 0 0 1 .244-.041.176.176 0 0 1 .042.245l-1.574 2.229a.18.18 0 0 1-.143.074z"></path>
        <path d="M96.599 125.367a.175.175 0 0 1-.174-.162l-.357-4.307a.176.176 0 0 1 .159-.19c.109-.003.181.063.188.16l.357 4.307a.176.176 0 0 1-.159.19.078.078 0 0 1-.014.002z"></path>
        <path d="M92.853 123.76a.177.177 0 0 1-.157-.254l1.399-2.875a.174.174 0 0 1 .234-.08.177.177 0 0 1 .08.235l-1.399 2.875a.173.173 0 0 1-.157.099z"></path>
        <path d="M87.418 124.028c-.127-.021-.189-.114-.172-.208.02-.106.488-2.598 1.402-4.389a.174.174 0 0 1 .235-.076c.086.044.12.151.076.236-.89 1.744-1.364 4.267-1.369 4.293a.176.176 0 0 1-.172.144z"></path>
        <path d="M102.751 135.071c-.051 0-.104-.003-.157-.007-.645-.045-1.219-.381-1.499-.875-.224-.395-.251-.85-.249-1.201l.003-.271c.009-.484.017-.942-.148-1.395-.196-.54-.535-1.008-.841-1.394a.176.176 0 0 1 .028-.247.174.174 0 0 1 .246.028c.323.409.682.906.895 1.493.187.515.178 1.026.17 1.522l-.004.267c-.002.456.061.773.204 1.025.222.393.69.66 1.22.699.281.017.512-.023.692-.13.274-.16.47-.493.585-.989.059-.259.097-.533.112-.814.041-.766-.01-2.203-.814-3.234-.664-.851-1.606-1.356-2.526-1.356-1.304.008-1.703.965-1.706.974a.174.174 0 0 1-.227.098.176.176 0 0 1-.097-.229c.019-.048.492-1.185 2.009-1.196 1.047 0 2.092.557 2.822 1.493.649.831.964 2.063.888 3.47a5.27 5.27 0 0 1-.121.875c-.137.593-.389 1.001-.748 1.214-.206.119-.453.18-.737.18z"></path>
        <path d="M95.635 106.309a1.9 1.9 0 0 1-.617-.115.176.176 0 0 1-.108-.223.173.173 0 0 1 .222-.108c.385.135.708.124.954-.025.419-.252.515-.825.515-.83a.179.179 0 0 1 .201-.146c.095.016.16.106.145.202-.005.029-.124.74-.68 1.076a1.213 1.213 0 0 1-.632.169z"></path>
        <path d="M108.492 134.534c-.33 0-.656-.088-.924-.16a.174.174 0 0 1-.123-.215.172.172 0 0 1 .214-.124c.4.107.949.258 1.348.024.418-.245.497-.821.51-1.057.095-1.569-1.026-2.967-1.703-3.661-1.012-1.034-2.569-.575-2.585-.571a.171.171 0 0 1-.218-.118.176.176 0 0 1 .116-.219c.071-.023 1.774-.531 2.937.662.717.735 1.905 2.223 1.802 3.928-.037.619-.287 1.108-.684 1.34a1.351 1.351 0 0 1-.69.171z"></path>
        <path d="M94.604 104.687c-.416 0-1.089-.056-1.393-.39a.633.633 0 0 1-.151-.552c.153-.878.951-3.534.985-3.646a.17.17 0 0 1 .218-.118.177.177 0 0 1 .117.219c-.009.028-.826 2.748-.976 3.606a.282.282 0 0 0 .064.253c.266.291 1.151.286 1.444.265.095.001.181.063.188.16a.176.176 0 0 1-.159.19 3.795 3.795 0 0 1-.337.013z"></path>
        <path d="M91.746 100.489a.173.173 0 0 1-.141-.072c-.027-.037-2.703-3.776-.179-6.109 2.365-2.188 5.4-2.21 7.554-.056a.178.178 0 0 1 .001.249.173.173 0 0 1-.248 0c-2.011-2.011-4.852-1.986-7.07.067-2.293 2.12.199 5.606.224 5.641a.177.177 0 0 1-.037.246.184.184 0 0 1-.104.034z"></path>
        <path d="M39.673 134.491a.168.168 0 0 1-.123-.052L27.698 122.46a.986.986 0 0 1-.287-.699c0-.265.102-.513.287-.699.37-.37 1.022-.37 1.389 0l10.879 10.988c.068.07.068.18 0 .249a.174.174 0 0 1-.247 0l-10.878-10.988a.644.644 0 0 0-.895 0 .636.636 0 0 0 0 .9l11.852 11.979c.068.07.068.18 0 .249a.18.18 0 0 1-.125.052z"></path>
        <path d="M27.26 81.854a.177.177 0 0 1-.137-.286c.42-.533.858-1.056 1.303-1.553a.173.173 0 0 1 .247-.013.177.177 0 0 1 .013.249c-.44.492-.874 1.009-1.29 1.537a.174.174 0 0 1-.136.066zm2.689-3.005a.177.177 0 0 1-.125-.053.177.177 0 0 1 .004-.249c.483-.473.986-.933 1.498-1.367a.175.175 0 0 1 .246.021.178.178 0 0 1-.021.249c-.506.429-1.004.882-1.481 1.348a.171.171 0 0 1-.121.051zm3.074-2.602a.172.172 0 0 1-.142-.074.178.178 0 0 1 .04-.246 25.982 25.982 0 0 1 1.686-1.124.172.172 0 0 1 .24.059.176.176 0 0 1-.058.241c-.563.345-1.123.718-1.663 1.111a.18.18 0 0 1-.103.033zm3.433-2.097a.175.175 0 0 1-.156-.098.176.176 0 0 1 .078-.236c.595-.299 1.215-.58 1.845-.837a.17.17 0 0 1 .228.098.175.175 0 0 1-.096.228c-.622.253-1.234.531-1.82.826a.187.187 0 0 1-.079.019zm3.728-1.505a.175.175 0 0 1-.167-.124.177.177 0 0 1 .116-.22 24.652 24.652 0 0 1 1.958-.517.177.177 0 0 1 .075.345c-.644.14-1.294.313-1.93.509a.196.196 0 0 1-.052.007zm12.419-.477c-.124-.024-.283-.068-.531-.124a.176.176 0 0 1-.133-.21c.021-.095.117-.16.208-.132.256.057.421.102.483.119l-.021.172.109.143a.188.188 0 0 1-.115.032zm-8.495-.386a.175.175 0 0 1-.173-.154.175.175 0 0 1 .15-.197 24.17 24.17 0 0 1 2.017-.187.176.176 0 0 1 .184.166.173.173 0 0 1-.165.184 25.769 25.769 0 0 0-2.013.188zm6.018-.062a23.607 23.607 0 0 0-2.011-.146.176.176 0 0 1-.169-.182.184.184 0 0 1 .18-.171c.684.021 1.363.071 2.02.147a.175.175 0 0 1 .153.195.175.175 0 0 1-.173.157z"></path>
        <path d="M24.808 117.097a.174.174 0 0 1-.148-.083c-.017-.027-.412-.66-.976-1.795a.178.178 0 0 1 .078-.237.176.176 0 0 1 .234.079 22.61 22.61 0 0 0 .96 1.765.176.176 0 0 1-.055.242.162.162 0 0 1-.093.029zm-1.814-3.617a.175.175 0 0 1-.161-.107 38.093 38.093 0 0 1-.747-1.891.176.176 0 0 1 .104-.226c.092-.028.192.013.224.106.23.631.479 1.26.74 1.872a.176.176 0 0 1-.16.246zm-1.384-3.803a.175.175 0 0 1-.167-.126 35.88 35.88 0 0 1-.534-1.962.177.177 0 0 1 .129-.213c.098-.017.188.036.211.13.156.645.334 1.299.529 1.943a.176.176 0 0 1-.116.219.14.14 0 0 1-.052.009zm-.948-3.933a.175.175 0 0 1-.172-.146c-.12-.672-.22-1.351-.295-2.014a.177.177 0 0 1 .153-.195c.089-.004.183.059.193.155.075.656.174 1.326.293 1.993a.176.176 0 0 1-.172.207zm-.456-4.02a.176.176 0 0 1-.175-.168 29.52 29.52 0 0 1-.022-2.037.176.176 0 0 1 .175-.172.177.177 0 0 1 .175.18 27.191 27.191 0 0 0 .022 2.013.174.174 0 0 1-.167.183l-.008.001zm.104-4.043c-.114-.011-.184-.098-.174-.194.069-.678.164-1.356.284-2.019.017-.094.108-.163.203-.14a.176.176 0 0 1 .141.205 26.097 26.097 0 0 0-.28 1.99.175.175 0 0 1-.174.158zm.722-3.978c-.138-.032-.194-.128-.169-.222.173-.652.376-1.307.603-1.945a.175.175 0 0 1 .224-.107.176.176 0 0 1 .105.225 24.555 24.555 0 0 0-.595 1.918.174.174 0 0 1-.168.131zm1.354-3.807a.176.176 0 0 1-.158-.25c.098-.216.199-.433.305-.651.108-.22.216-.438.325-.655a.171.171 0 0 1 .235-.076c.086.044.12.15.077.237a30.264 30.264 0 0 0-.624 1.293.176.176 0 0 1-.16.102z"></path>
        <path d="M61.168 117.259a.174.174 0 0 1-.107-.037c-8.221-6.402-13.129-16.349-13.129-26.608 0-18.374 14.848-33.322 33.099-33.322 18.25 0 33.098 14.948 33.098 33.322a33.439 33.439 0 0 1-8.065 21.799.172.172 0 0 1-.246.017.175.175 0 0 1-.018-.247 33.085 33.085 0 0 0 7.98-21.569c0-18.18-14.691-32.969-32.749-32.969s-32.75 14.789-32.75 32.969c0 10.15 4.858 19.993 12.993 26.33.076.059.09.17.031.247a.175.175 0 0 1-.137.068z"></path>
        <path d="M92.288 55.541c-.122-.017-.187-.106-.173-.202.005-.032.12-.798.526-1.994.031-.091.129-.135.222-.11.091.032.14.132.109.225-.394 1.161-.51 1.923-.511 1.93a.175.175 0 0 1-.173.151zm1.276-3.839a.176.176 0 0 1-.158-.251c.287-.612.612-1.217.964-1.799a.177.177 0 0 1 .24-.057.177.177 0 0 1 .058.242 18.902 18.902 0 0 0-.946 1.763.176.176 0 0 1-.158.102zm2.097-3.447a.174.174 0 0 1-.107-.037.177.177 0 0 1-.031-.247 18.86 18.86 0 0 1 1.325-1.546.175.175 0 1 1 .253.244c-.457.478-.895.988-1.301 1.517a.175.175 0 0 1-.139.069zm2.782-2.911c-.05 0-.1-.021-.134-.063a.177.177 0 0 1 .022-.248 19.716 19.716 0 0 1 1.621-1.225.175.175 0 0 1 .195.291c-.554.375-1.089.78-1.592 1.203a.167.167 0 0 1-.112.042zm27.918-.544a.174.174 0 0 1-.117-.045 15.225 15.225 0 0 0-1.565-1.235.176.176 0 0 1-.045-.245c.055-.08.163-.1.243-.045.582.402 1.121.827 1.601 1.263a.177.177 0 0 1-.117.307zm-24.59-1.711a.176.176 0 0 1-.082-.331c.583-.315 1.198-.61 1.828-.876a.175.175 0 0 1 .135.324c-.619.262-1.225.552-1.799.861a.163.163 0 0 1-.082.022zm21.287-.587a.172.172 0 0 1-.082-.021 18.37 18.37 0 0 0-1.806-.843.176.176 0 0 1-.097-.229.173.173 0 0 1 .227-.098c.631.254 1.251.543 1.841.859a.177.177 0 0 1-.083.332zm-17.591-.983a.173.173 0 0 1-.166-.122.175.175 0 0 1 .112-.221c.579-.188 1.181-.36 1.79-.509l.159-.038a.176.176 0 0 1 .081.342l-.159.038c-.599.148-1.193.316-1.764.501a.16.16 0 0 1-.053.009zm13.865-.521a22.553 22.553 0 0 0-1.989-.455.175.175 0 0 1 .061-.346c.664.119 1.329.273 1.975.456a.176.176 0 0 1-.047.345zm-9.96-.427a.177.177 0 0 1-.029-.35 27.59 27.59 0 0 1 2.007-.261.173.173 0 0 1 .19.159.175.175 0 0 1-.158.191 26.356 26.356 0 0 0-2.01.261zm6.009-.284a22.772 22.772 0 0 0-1.83-.075l-.175.001a.175.175 0 0 1-.177-.174.175.175 0 0 1 .173-.178l.179-.001c.621 0 1.241.025 1.845.075a.175.175 0 0 1 .159.19.176.176 0 0 1-.174.162z"></path>
        <path d="M144.451 87.913a.177.177 0 0 1-.175-.172.175.175 0 0 1 .171-.18c12.594-.25 22.84-10.776 22.84-23.462 0-12.94-10.457-23.467-23.31-23.467-12.853 0-23.31 10.527-23.31 23.467 0 11.984 8.908 22.01 20.722 23.324a.177.177 0 0 1 .155.194c-.011.098-.079.162-.193.156-11.991-1.334-21.033-11.511-21.033-23.674 0-13.133 10.614-23.818 23.659-23.818 13.046 0 23.659 10.685 23.659 23.818 0 6.279-2.405 12.203-6.774 16.684-4.362 4.473-10.189 7.006-16.409 7.13h-.002z"></path>
        <path d="M161.703 129.732a.177.177 0 0 1-.157-.098.179.179 0 0 1 .079-.237c.58-.291 1.169-.619 1.75-.973a.177.177 0 0 1 .24.06.177.177 0 0 1-.059.242c-.589.358-1.187.691-1.776.986a.15.15 0 0 1-.077.02zm3.445-2.094a.174.174 0 0 1-.142-.075.176.176 0 0 1 .041-.245c.54-.388 1.073-.8 1.584-1.227a.174.174 0 0 1 .246.023.177.177 0 0 1-.023.247c-.518.433-1.057.85-1.604 1.243a.173.173 0 0 1-.102.034zm3.093-2.583a.177.177 0 0 1-.121-.304c.48-.464.948-.95 1.391-1.443a.173.173 0 0 1 .246-.013.177.177 0 0 1 .013.249c-.448.5-.921.992-1.408 1.462a.18.18 0 0 1-.121.049zm2.69-3.006a.172.172 0 0 1-.107-.037.177.177 0 0 1-.031-.247c.408-.528.8-1.076 1.166-1.632a.178.178 0 0 1 .242-.049c.08.055.102.163.049.245a27.404 27.404 0 0 1-1.181 1.653.179.179 0 0 1-.138.067zm2.225-3.365a.176.176 0 0 1-.152-.263c.325-.579.635-1.179.92-1.783a.172.172 0 0 1 .233-.084.177.177 0 0 1 .083.234 29.32 29.32 0 0 1-.932 1.807.174.174 0 0 1-.152.089zm1.724-3.653c-.153-.048-.198-.15-.163-.241.242-.62.466-1.258.666-1.895.03-.092.128-.148.22-.114a.177.177 0 0 1 .114.221c-.203.644-.43 1.288-.674 1.917a.176.176 0 0 1-.163.112zm1.216-3.853c-.136-.029-.192-.124-.169-.219.158-.64.299-1.3.421-1.965.018-.096.106-.168.204-.14a.175.175 0 0 1 .14.204 33.378 33.378 0 0 1-.427 1.986.173.173 0 0 1-.169.134zm.732-3.973c-.118-.015-.185-.102-.173-.199.082-.653.149-1.326.197-2.001.007-.098.074-.164.187-.163a.175.175 0 0 1 .162.187 38.237 38.237 0 0 1-.199 2.022.177.177 0 0 1-.174.154z"></path>
        <path d="M176.742 95.364a.175.175 0 0 1-.173-.154 42.199 42.199 0 0 0-.311-1.989.175.175 0 0 1 .141-.204c.098-.027.186.045.203.14.119.662.225 1.337.314 2.007a.175.175 0 0 1-.15.197l-.024.003zm-.72-3.98a.175.175 0 0 1-.17-.136 39.313 39.313 0 0 0-.506-1.947.176.176 0 0 1 .12-.218.171.171 0 0 1 .216.119c.184.643.356 1.303.51 1.966a.175.175 0 0 1-.13.211c-.013.002-.027.005-.04.005zm-1.119-3.885a.175.175 0 0 1-.165-.119 36.24 36.24 0 0 0-.714-1.88.177.177 0 0 1 .094-.23c.088-.031.192.005.228.096.258.624.5 1.263.72 1.899a.175.175 0 0 1-.107.223.155.155 0 0 1-.056.011zm-1.543-3.736a.176.176 0 0 1-.157-.099 31.56 31.56 0 0 0-.932-1.782.175.175 0 0 1 .066-.239.173.173 0 0 1 .238.066c.329.583.646 1.188.943 1.8a.176.176 0 0 1-.081.235.165.165 0 0 1-.077.019zm-1.989-3.517a.176.176 0 0 1-.146-.079 27.13 27.13 0 0 0-1.16-1.637.176.176 0 0 1 .031-.246.172.172 0 0 1 .245.032c.407.531.802 1.088 1.176 1.656a.178.178 0 0 1-.05.245.18.18 0 0 1-.096.029zm-2.462-3.197a.179.179 0 0 1-.129-.057c-.849-.93-1.42-1.386-1.426-1.391a.175.175 0 0 1-.029-.246.173.173 0 0 1 .246-.029c.024.019.596.474 1.467 1.429a.178.178 0 0 1-.011.249.181.181 0 0 1-.118.045z"></path>
        <path d="M122.107 103.963a.176.176 0 0 1-.175-.166c-.001-.025-.157-2.482-1.197-4.159a.179.179 0 0 1 .027-.221.176.176 0 0 1 .219-.019c.046.031 1.075.736 1.456 1.637l6.529-1.434c-.07-.568-.427-2.601-2.008-3.604-1.299-.825-3.11-.778-5.386.14a.173.173 0 0 1-.227-.098.175.175 0 0 1 .097-.228c2.385-.965 4.305-1.001 5.704-.11 1.989 1.264 2.177 3.914 2.184 4.027a.177.177 0 0 1-.137.183l-6.829 1.501a.177.177 0 0 1-.203-.116c-.13-.393-.428-.76-.713-1.045.713 1.621.827 3.436.832 3.524a.176.176 0 0 1-.165.186c-.001.002-.004.002-.008.002z"></path>
    </g>
</svg>