<svg preserveAspectRatio="xMidYMid meet" data-bbox="19.999 41 160.002 118" viewBox="19.999 41 160.002 118" height="150" width="200"
    xmlns="http://www.w3.org/2000/svg" data-type="color" role="presentation" aria-hidden="true" aria-label="">
    <defs>
        <style>#comp-lzvczrvq__item-j9ples3e svg [data-color="1"] {fill: #FFA500;}
#comp-lzvczrvq__item-j9ples3e svg [data-color="2"] {fill: #D4D4FA;}
#comp-lzvczrvq__item-j9ples3e svg [data-color="3"] {fill: #000000;}</style>
    </defs>
    <g>
        <path fill="#FFFFFF" d="M160.727 85.725v6.266h-6.247v-6.266h6.247z" data-color="1"></path>
        <path d="M157.793 79.753h-.391a2.482 2.482 0 0 1-2.482-2.482v-.015a2.482 2.482 0 0 1 2.482-2.482h.391a2.482 2.482 0 0 1 2.482 2.482v.015a2.482 2.482 0 0 1-2.482 2.482z" fill="#FFFFFF" data-color="1"></path>
        <path d="M120.35 85.18s4.407 2.801 4.566 7.637l-4.362.67.693-3.118c0-.001.164-3.97-.897-5.189z" fill="#FFFFFF" data-color="1"></path>
        <path d="M96.412 109.532H73.237c-13.988 0-25.327-11.339-25.327-25.327v-.151c0-13.988 11.339-25.327 25.327-25.327h23.175c13.988 0 25.327 11.339 25.327 25.327v.151c0 13.988-11.339 25.327-25.327 25.327z" fill="#FFFFFF" data-color="1"></path>
        <path d="M152.369 152.071h-9.899c-7.188 0-13.07-5.881-13.07-13.07v-.078c0-7.188 5.881-13.07 13.07-13.07h9.899c7.188 0 13.07 5.881 13.07 13.07v.078c0 7.189-5.882 13.07-13.07 13.07z" fill="#FFA500" data-color="2"></path>
        <path d="m136.765 124.346-.074-.031.074.031z"></path>
        <path d="M142.8 114.989c-.713-1.868-2.082-4.835-3.701-7.245-1.619-2.41-4.884-6.957-5.372-7.315l-1.231 2.209-1.289 2.962 1.134 9.746-12.631-1.509s-6.014.388-9.18 4.465c-3.166 4.077-2.775 5.606-4.417 8.703-1.642 3.097-1.993 4.234-4.222 3.724-2.228-.51-2.384-2.078-2.892-3.685-.508-1.607-3.897-11.908-4.138-12.677 0 0-2.429-1.945-6.611-1.24-4.182.706-5.832 3.32-5.832 3.32s1.884 11.401 3.441 15.383c1.557 3.981 4.423 13.296 14.899 13.468 0 0 5.756.144 8.866-2.124l.227.14s-1.194 12.651-1.86 15.479h28.791s-1.686-8.084-.797-14.8c.889-6.716.999-15.782.889-17.105-.051-.611-.1-1.595-.192-2.669l.08.123c.035.012.079.027.137.044.678.201 2.884.625 4.779-1.618 2.271-2.689 1.835-5.91 1.122-7.779z" fill="#1A1A1A" data-color="3"></path>
        <path d="M92.062 112.98s.445-4.254.504-4.584c.058-.331.352-2.294-.252-3.714s-.729-2.749-1.835-2.905c-1.105-.156-1.528-.097-1.819.305-.292.401-.12 1.474.182 2.107.302.632 1.424 2.764.309 3.558s-1.477.142-1.605-.872c-.128-1.014-.27-2.917.175-3.671.444-.754 1.145-1.484 1.121-2.131-.024-.647-.615-1.295-1.424-1.177-.809.118-1.317.539-1.317.539s-2.559-.006-3.136 2.266c0 0-1.606 1.259-1.854 3.324s.164 4.38.388 5.266c.224.887 1.182 3.329 1.729 3.965 0 0 1.954-1.599 3.518-1.874 1.563-.274 5.316-.402 5.316-.402z" fill="#FFFFFF" data-color="1"></path>
        <path d="M118.289 98.275s-1.531 6.352-1.681 7.193c-.15.841-.743 3.635 2.638 4.216 0 0 .376-1.328 1.228-2.133.852-.805 1.53-1.33 1.53-1.33s2.281.432 2.811-1.506c.529-1.938-1.164-2.786-1.777-2.903-.612-.117-1.212-.388-1.212-.388s-3.01-1.731-3.537-3.149z" fill="#FFFFFF" data-color="1"></path>
        <path d="M118.385 98.275s-.999-2.633 0-4.377c.998-1.745 2.802-2.292 4.285-2.273 1.482.019 4.234.695 5.917 2.268 0 0 3.597.836 4.614 2.518s.439 3.595.236 4.178c-.204.583-1.44 2.946-1.502 3.479 0 0-.229.475.878 1.393 1.106.918 2.441 2.103 2.675 4.071.235 1.968.181 5.356-3.046 6.602-3.227 1.247-6.382-.619-6.759-1.068l-.287-.031s-3.34 1.405-5.145-.829c-1.805-2.235-.895-4.963-.481-5.578s1.415-1.935 2.107-2.305c0 0 2.064.518 2.717-1.102s-.129-2.855-.833-3.247c-.704-.392-1.349-.274-1.349-.274s-3.325-1.204-4.027-3.425z" fill="#FFA500" data-color="2"></path>
        <path d="M160.574 100.38h-5.896a1.346 1.346 0 0 1-1.342-1.342v-.008c0-.738.604-1.342 1.342-1.342h5.896c.738 0 1.342.604 1.342 1.342v.008c0 .739-.604 1.342-1.342 1.342z" fill="#1A1A1A" data-color="3"></path>
        <path d="m157.597 77.264-6.195 12.65s.856 4.692 2.643 6.652h7.33s2.278-3.868 2.471-6.58l-6.249-12.722zm0 13.575a1.979 1.979 0 0 1-1.976-1.982c0-1.095.885-1.982 1.976-1.982s1.976.887 1.976 1.982a1.979 1.979 0 0 1-1.976 1.982z" fill="#FFA500" data-color="2"></path>
        <path d="M50.54 138.047s2.725-4.889 6.361-8.651c3.636-3.762 7.342-5.474 7.342-5.474s-.049 4.779-5.513 9.361c-5.462 4.582-8.19 4.764-8.19 4.764z" fill="#FFA500" data-color="2"></path>
        <path d="M50.719 116.405s-.025-4.353-.927-6.873c-.902-2.52-2.999-5.154-4.686-5.85 0 0 .023 2.542 1.369 5.85 1.347 3.308 4.249 6.987 4.249 6.987l-.005-.114z" fill="#FFA500" data-color="2"></path>
        <path d="M52.382 116.52s6.249-2.822 9.04-5.825c2.791-3.003 3.65-4.741 3.902-5.469.252-.728.586-2.79.586-2.79s-4.246 1.731-8.053 6.029c-3.807 4.296-5.397 7.265-5.475 8.055z" fill="#1A1A1A" data-color="3"></path>
        <path d="M52.825 124.053s6.677-1.467 10.035-3.7c3.358-2.234 5.104-5.161 5.156-5.788 0 0-4.709.856-8.812 3.992s-6.379 5.496-6.379 5.496z" fill="#1A1A1A" data-color="3"></path>
        <path d="M47.738 143.272s-.436-6.027-2.807-10.781c-2.372-4.754-4.477-6.823-4.477-6.823s-1.777 3.46.646 8.802c2.422 5.342 6.638 8.802 6.638 8.802z" fill="#1A1A1A" data-color="3"></path>
        <path d="M50.427 148.919s6.615-3.073 9.705-6.404 4.279-6.67 4.062-8.045c0 0-4.875 2.262-8.273 6.517-3.397 4.254-5.572 7.16-5.494 7.932z" fill="#FFA500" data-color="2"></path>
        <path d="M44.174 143.543s-2.001-4.567-5.534-7.957c-3.533-3.391-7.122-6.319-8.377-6.574 0 0-.3 4.761 4.955 9.035s8.956 5.496 8.956 5.496z" fill="#FFA500" data-color="2"></path>
        <path d="M43.318 154.148s-4.889-3.883-7.58-7.28c-2.691-3.397-4.491-8.225-4.491-8.225s5.149 1.344 8.035 5.974 4.037 9.667 4.037 9.667v-.136z" fill="#1A1A1A" data-color="3"></path>
        <path d="M121.658 69.925c0-6.159-4.846-11.198-10.768-11.198H58.593c-5.923 0-10.768 5.039-10.768 11.198v1.86h73.834v-1.86z" fill="#1A1A1A" data-color="3"></path>
        <path d="M102.483 65.703a2.36 2.36 0 0 1-2.357 2.364 2.36 2.36 0 0 1-2.357-2.364 2.36 2.36 0 0 1 2.357-2.364 2.36 2.36 0 0 1 2.357 2.364z" fill="#FFFFFF" data-color="1"></path>
        <path fill="#FFFFFF" d="M109.643 65.703a2.36 2.36 0 0 1-2.357 2.364 2.36 2.36 0 0 1-2.357-2.364 2.36 2.36 0 0 1 2.357-2.364 2.36 2.36 0 0 1 2.357 2.364z" data-color="1"></path>
        <path d="M116.801 65.703a2.36 2.36 0 0 1-2.357 2.364 2.36 2.36 0 0 1-2.357-2.364 2.36 2.36 0 0 1 2.357-2.364 2.36 2.36 0 0 1 2.357 2.364z" fill="#FFA500" data-color="2"></path>
        <path d="m28.661 87.184-3.788 2.864a1.13 1.13 0 0 1-1.584-.223l-2.855-3.799a1.138 1.138 0 0 1 .222-1.589l3.788-2.864a1.13 1.13 0 0 1 1.584.223l2.855 3.799c.377.5.277 1.212-.222 1.589z" fill="#1A1A1A" data-color="3"></path>
        <path d="m25.354 79.626.69-4.803s-.568-.07-.897.176c-.293.219-3.072 2.323-3.687 2.788a1.094 1.094 0 0 0-.276.303c-.104.169-.23.437-.28.791l-.603 4.274 4.358-3.436c0-.001.273-.204.695-.093z" fill="#FFA500" data-color="2"></path>
        <path fill="#FFA500" d="M65.368 76.047v8.229h-8.205v-8.229h8.205z" data-color="2"></path>
        <path fill="#1A1A1A" d="M60.587 94.026v8.229h-8.205v-8.229h8.205z" data-color="3"></path>
        <path d="M86.111 148.131a4.449 4.449 0 0 1-4.442 4.455c-2.453 0-4.442-1.995-4.442-4.455s1.989-4.455 4.442-4.455a4.449 4.449 0 0 1 4.442 4.455z" fill="#FFA500" data-color="2"></path>
        <path d="M93.927 143.511s2.784 1.649 7.259 1.795c4.476.145 6.937-1.379 6.937-1.379s-1.523-4.611-6.878-4.611-7.19 3.764-7.318 4.195z" fill="#FFFFFF" data-color="1"></path>
        <path d="M101.26 145.511c-.56 0-1.132-.023-1.724-.073l-.608-.067c-3.115-.42-5.871-1.779-7.976-3.931-3.295-3.37-4.918-8.025-6.072-12.133-1.257-4.47-1.868-8.093-2.641-12.68l-.025-.146a.209.209 0 0 1 .017-.123c.06-.125 1.514-3.06 6.607-3.521 4.58-.414 6.117 1.322 6.18 1.396a.2.2 0 0 1 .039.07l4.374 13.404c.346 1.077.672 2.093 1.648 2.652.949.545 2.138.418 3.028-.326.858-.719 1.34-1.77 1.797-2.875.225-.545.445-1.094.665-1.644.709-1.769 1.442-3.598 2.363-5.292 1.042-1.915 2.712-3.603 4.83-4.883 1.751-1.058 4.937-1.576 6.226-1.749a.204.204 0 0 1 .233.177.208.208 0 0 1-.177.233c-.985.133-4.336.647-6.068 1.693-2.056 1.242-3.674 2.876-4.681 4.727-.91 1.672-1.637 3.49-2.341 5.247-.222.552-.442 1.103-.668 1.649-.459 1.109-.984 2.256-1.914 3.034-1.024.857-2.395 1-3.497.368-1.114-.638-1.481-1.78-1.836-2.884l-1.519-4.664-2.84-8.693c-.208-.208-1.765-1.59-5.804-1.227-4.486.406-6.022 2.837-6.243 3.233l.013.076c.772 4.575 1.382 8.188 2.632 12.637 1.14 4.058 2.741 8.651 5.97 11.955 2.039 2.087 4.712 3.404 7.73 3.811l.598.066c16.512 1.385 20.434-17.671 20.472-17.864a.21.21 0 0 1 .242-.163.208.208 0 0 1 .163.243c-.037.187-3.774 18.267-19.193 18.267z"></path>
        <path d="M139.207 143.791a.196.196 0 0 1-.115-.036.206.206 0 0 1-.056-.287l9.533-14.184a.206.206 0 1 1 .342.231l-9.533 14.184a.208.208 0 0 1-.171.092z" fill="#FFFFFF" data-color="1"></path>
        <path d="M151.384 143.791a.207.207 0 0 1-.149-.349l6.733-7.147-6.73-6.749a.208.208 0 0 1 0-.292.204.204 0 0 1 .292 0l6.871 6.891c.079.079.08.207.004.288l-6.871 7.293a.202.202 0 0 1-.15.065z" fill="#FFFFFF" data-color="1"></path>
        <path d="M58.003 159H38.062a.207.207 0 0 1 0-.414h19.941a.207.207 0 0 1 0 .414z"></path>
        <path d="M44.174 143.75h-.281a.225.225 0 0 1-.088-.019c-14.591-6.851-13.788-14.427-13.747-14.746a.203.203 0 0 1 .107-.156.207.207 0 0 1 .189-.002c9.087 4.568 13.957 14.527 14.005 14.627a.21.21 0 0 1-.011.2.203.203 0 0 1-.174.096zm-13.715-14.406c.021 1.474.859 8.009 13.345 13.928-.952-1.799-5.54-9.866-13.345-13.928z"></path>
        <path d="M50.428 149.126c-.025-.001-.247-.028-.247-.028a.208.208 0 0 1-.157-.304c.055-.103 5.598-10.305 14.074-14.566a.207.207 0 0 1 .297.159c.04.318.803 7.858-13.88 14.719a.205.205 0 0 1-.087.02zm13.565-14.38c-7.274 3.803-12.313 11.998-13.391 13.862 12.506-5.927 13.366-12.394 13.391-13.862z"></path>
        <path d="M43.505 154.49a.205.205 0 0 1-.121-.039l-.403-.293c-2.223-1.654-9.648-7.65-11.932-15.457a.207.207 0 0 1 .042-.194.2.2 0 0 1 .186-.069c.088.013 8.793 1.468 12.428 15.794a.208.208 0 0 1-.2.258zm-11.958-15.567c2.396 7.615 9.93 13.593 11.612 14.852-3.224-11.968-10.034-14.435-11.612-14.852z"></path>
        <path d="M47.594 143.479a.203.203 0 0 1-.144-.059c-10.967-10.823-7.414-17.649-7.257-17.935a.201.201 0 0 1 .153-.105.205.205 0 0 1 .176.061c6.2 6.465 7.27 15.898 7.421 17.723a.205.205 0 0 1-.096.192l-.144.091a.204.204 0 0 1-.109.032zm-7.156-17.527c-.52 1.348-2.198 7.664 7.066 16.939-.23-2.343-1.436-10.888-7.066-16.939z"></path>
        <path d="M49.775 125.697a.213.213 0 0 1-.085-.018l-.443-.199c-14.272-6.813-13.613-14.213-13.578-14.525a.209.209 0 0 1 .107-.159.214.214 0 0 1 .191-.003c9.04 4.544 13.797 14.198 13.995 14.607a.206.206 0 0 1-.038.234.204.204 0 0 1-.149.063zm-13.7-14.382c.05 1.47 1.003 7.866 13.245 13.743-1.112-2.091-5.589-9.76-13.245-13.743z"></path>
        <path d="M50.622 116.726c-.041.014-.12-.028-.159-.075-.054-.067-5.464-6.734-5.563-12.965a.205.205 0 0 1 .277-.198c.243.089 5.952 2.31 5.749 12.921a.205.205 0 0 1-.049.13l-.097.114a.209.209 0 0 1-.158.073zm-5.3-12.714c.242 5.2 4.136 10.647 5.195 12.038.056-8.678-4.058-11.441-5.195-12.038z"></path>
        <path d="M52.207 116.889a.209.209 0 0 1-.205-.237l.064-.437a.219.219 0 0 1 .023-.068c1.231-2.303 5.859-10.126 13.72-14.077a.21.21 0 0 1 .191.003.21.21 0 0 1 .107.159c.035.316.704 7.797-13.812 14.638a.225.225 0 0 1-.088.019zm.263-.578c12.231-5.857 13.181-12.251 13.23-13.72-7.538 3.923-12.004 11.434-13.23 13.72z"></path>
        <path d="M50.545 138.557a.193.193 0 0 1-.081-.017l-.132-.057a.206.206 0 0 1-.103-.284c.52-1.026 5.329-10.144 13.923-14.463a.208.208 0 0 1 .298.162c.035.316.704 7.798-13.816 14.64a.233.233 0 0 1-.089.019zm13.497-14.3c-7.626 3.971-12.168 11.742-13.244 13.744 12.245-5.877 13.195-12.274 13.244-13.744z"></path>
        <path d="M52.778 124.29a.144.144 0 0 1-.079-.021l-.166-.106a.208.208 0 0 1-.039-.317c.072-.076 7.285-7.634 15.503-9.609a.202.202 0 0 1 .188.05.21.21 0 0 1 .064.185c-.046.276-1.265 6.782-15.315 9.77-.085.039-.121.048-.156.048zm14.974-9.565c-6.933 1.802-13.089 7.55-14.603 9.046 11.713-2.569 14.159-7.714 14.603-9.046z"></path>
        <path d="M47.207 159c-.137-.015-.218-.118-.205-.231l5-42.111c.014-.113.109-.183.23-.181a.207.207 0 0 1 .18.23l-5 42.111a.207.207 0 0 1-.205.182z"></path>
        <path d="M44.876 159a.207.207 0 0 1-.206-.197l-.702-15.25a.207.207 0 0 1 .197-.216.21.21 0 0 1 .216.197l.702 15.25a.207.207 0 0 1-.197.216h-.01z"></path>
        <path d="M43.651 158.979a.206.206 0 0 1-.206-.2l-.146-4.489a.206.206 0 0 1 .2-.213.211.211 0 0 1 .213.2l.146 4.489a.206.206 0 0 1-.2.213h-.007z"></path>
        <path d="M49.725 158.979a.208.208 0 0 1-.206-.217l.48-9.88c.005-.114.098-.18.216-.196a.207.207 0 0 1 .196.217l-.48 9.88a.206.206 0 0 1-.206.196z"></path>
        <path d="M48.513 146.519a.206.206 0 0 1-.2-.157l-.835-3.39a.207.207 0 0 1 .15-.251.207.207 0 0 1 .25.151l.835 3.39a.207.207 0 0 1-.2.257z"></path>
        <path d="M49.392 140.596a.208.208 0 0 1-.186-.298l1.021-2.096a.204.204 0 0 1 .276-.095c.102.05.145.174.095.277l-1.021 2.096a.206.206 0 0 1-.185.116z"></path>
        <path d="M50.32 132.023a.207.207 0 0 1-.206-.189l-.545-6.326a.206.206 0 0 1 .188-.224c.103-.02.213.075.224.188l.545 6.326a.206.206 0 0 1-.188.224l-.018.001z"></path>
        <path d="M51.538 121.705a.207.207 0 0 1-.203-.17l-.916-4.979a.205.205 0 0 1 .165-.24c.12-.021.22.054.24.166l.916 4.979a.205.205 0 0 1-.202.244z"></path>
        <path d="M50.808 128.639a.207.207 0 0 1-.189-.289l1.891-4.409a.205.205 0 0 1 .271-.108.207.207 0 0 1 .108.272l-1.891 4.409a.208.208 0 0 1-.19.125z"></path>
        <path d="M154.045 96.772a.208.208 0 0 1-.167-.085c-1.917-2.624-2.649-6.57-2.679-6.737a.205.205 0 0 1 .018-.129l6.195-12.649a.205.205 0 0 1 .276-.094c.102.05.144.174.094.277l-6.164 12.587c.106.531.865 4.135 2.594 6.501a.208.208 0 0 1-.044.289.21.21 0 0 1-.123.04z"></path>
        <path d="M161.431 96.694a.207.207 0 0 1-.168-.327c1.679-2.37 2.299-5.909 2.382-6.422l-6.232-12.59a.207.207 0 0 1 .092-.277.205.205 0 0 1 .277.093l6.261 12.649c.019.038.025.08.019.121-.023.164-.6 4.037-2.463 6.665a.203.203 0 0 1-.168.088z"></path>
        <path d="M161.375 96.771h-7.33a.207.207 0 0 1 0-.414h7.33a.207.207 0 0 1 0 .414z"></path>
        <path d="M160.628 100.587h-6.002a1.499 1.499 0 0 1-1.495-1.499v-.107c0-.827.67-1.499 1.495-1.499h6.002c.825 0 1.495.673 1.495 1.499v.107a1.5 1.5 0 0 1-1.495 1.499zm-6.002-2.692c-.597 0-1.082.487-1.082 1.086v.107c0 .599.485 1.086 1.082 1.086h6.002c.597 0 1.082-.487 1.082-1.086v-.107c0-.599-.485-1.086-1.082-1.086h-6.002z"></path>
        <path d="M157.603 91.046a2.187 2.187 0 0 1-2.182-2.189c0-1.207.978-2.189 2.182-2.189s2.183.982 2.183 2.189a2.188 2.188 0 0 1-2.183 2.189zm0-3.964c-.976 0-1.769.796-1.769 1.775 0 .979.794 1.775 1.769 1.775a1.775 1.775 0 0 0 0-3.55z"></path>
        <path d="M157.603 86.931a.207.207 0 0 1-.206-.207v-9.199c0-.114.092-.207.206-.207s.206.093.206.207v9.199a.206.206 0 0 1-.206.207z"></path>
        <path d="M159.219 79.96h-.328a.207.207 0 0 1 0-.414h.328c.469 0 .85-.382.85-.852v-2.862a.85.85 0 0 0-.85-.851h-3.244a.851.851 0 0 0-.85.851v2.862c0 .469.381.852.85.852h.403a.207.207 0 0 1 0 .414h-.403a1.265 1.265 0 0 1-1.262-1.265v-2.862c0-.697.566-1.265 1.262-1.265h3.244c.696 0 1.262.568 1.262 1.265v2.862c0 .697-.566 1.265-1.262 1.265z"></path>
        <path d="M122.659 106.529c-.286 0-.579-.051-.863-.159a2.436 2.436 0 0 1-1.156-.908.206.206 0 0 1 .34-.235c.236.346.568.607.961.756a2.045 2.045 0 0 0 2.581-2.759 2.03 2.03 0 0 0-1.14-1.072 2.023 2.023 0 0 0-1.962.29.205.205 0 0 1-.289-.039.207.207 0 0 1 .04-.29 2.436 2.436 0 0 1 2.358-.347 2.467 2.467 0 0 1 1.429 3.172 2.46 2.46 0 0 1-2.299 1.591z"></path>
        <path d="M122.831 105.428a.205.205 0 0 1-.167-.085l-1.092-1.503a.207.207 0 0 1 .109-.321l1.86-.539a.207.207 0 0 1 .115.398l-1.577.456.918 1.264a.206.206 0 0 1-.046.289.192.192 0 0 1-.12.041z"></path>
        <path d="M119.246 109.891c-1.226-.113-2.086-.563-2.571-1.339-.906-1.444-.173-3.471-.14-3.556l1.651-6.77a.2.2 0 0 1 .249-.151c.11.027.179.139.151.25l-1.658 6.793c-.014.041-.701 1.946.097 3.216.414.66 1.168 1.045 2.24 1.145a.206.206 0 0 1-.019.412z"></path>
        <path d="M116.471 104.096a.894.894 0 0 1-.857-1.135l1.024-3.661a.89.89 0 0 1 1.097-.619c.236.066.402.183.494.346.091.164.104.367.038.602a.205.205 0 0 1-.255.143.208.208 0 0 1-.143-.255c.036-.126.036-.223-.001-.288-.036-.064-.117-.115-.243-.151a.478.478 0 0 0-.589.332l-1.024 3.662a.48.48 0 0 0 .331.591.474.474 0 0 0 .587-.332.209.209 0 0 1 .254-.144c.11.031.174.145.144.255a.886.886 0 0 1-.42.537.876.876 0 0 1-.437.117z"></path>
        <path d="M107.991 159a.206.206 0 0 1-.195-.272c.375-1.124 1.848-11.469 1.848-15.685 0-.114.092-.207.206-.207s.206.093.206.207c0 4.014-1.434 14.512-1.87 15.816a.206.206 0 0 1-.195.141z"></path>
        <path d="M137.876 124.835c-.368 0-.725-.052-1.064-.159a.206.206 0 0 1-.135-.26.21.21 0 0 1 .258-.136c1.05.33 2.366.051 3.516-.745 5.169-3.585 1.997-10.111-1.344-15.396-1.606-2.542-3.477-5.094-5.72-7.8a.208.208 0 0 1 .026-.292.205.205 0 0 1 .29.027c2.255 2.719 4.137 5.285 5.751 7.843 2.212 3.497 7.389 11.687 1.231 15.958-.909.631-1.89.96-2.809.96z"></path>
        <path d="M136.782 159a.206.206 0 0 1-.201-.162c-.015-.071-1.58-7.218-.789-14.979 1.657-16.245.975-24.953-2.212-28.234a.207.207 0 0 1 .004-.293.206.206 0 0 1 .291.004c3.324 3.422 4.019 11.965 2.327 28.564-.784 7.692.766 14.775.782 14.846a.208.208 0 0 1-.156.247.132.132 0 0 1-.046.007z"></path>
        <path d="M163.781 159H72.147a.207.207 0 0 1 0-.414h91.634a.207.207 0 0 1 0 .414z"></path>
        <path d="M123.542 115.723c-.278 0-.58-.024-.906-.079-1.793-.301-3.679-1.73-3.593-4.836.091-3.342 2.835-4.661 2.863-4.673a.205.205 0 0 1 .274.1.207.207 0 0 1-.1.275c-.104.049-2.541 1.23-2.625 4.31-.098 3.574 2.461 4.284 3.247 4.417 2.388.397 3.281-.981 3.318-1.039a.206.206 0 0 1 .351.217c-.036.059-.826 1.308-2.829 1.308z"></path>
        <path d="M130.12 116.695c-1.887 0-3.704-.605-4.661-1.557a.207.207 0 0 1-.001-.292.204.204 0 0 1 .291-.001c.906.901 2.688 1.481 4.501 1.436 1.631-.026 3.023-.525 3.82-1.369.912-.966 1.386-2.596 1.297-4.471-.051-1.092-.285-2.044-.696-2.828-.342-.653-.885-1.089-1.459-1.551-.338-.272-.689-.554-1.001-.887-.231-.246-.47-.548-.49-.931-.026-.473.251-.991.472-1.407l.124-.236.163-.319c.207-.405.422-.824.585-1.251.467-1.231.604-2.409.409-3.5-.436-2.427-4.885-3.424-4.93-3.434a.186.186 0 0 1-.092-.048c-2.123-1.889-5.849-3-8.403-1.586-2.453 1.353-1.829 4.214-1.802 4.335.004.174.013 3.097 4.547 4.821a.207.207 0 0 1-.146.387c-4.821-1.834-4.81-5.031-4.808-5.166-.006 0-.711-3.238 2.01-4.741 2.702-1.489 6.6-.358 8.836 1.605.549.128 4.733 1.18 5.194 3.753.21 1.167.066 2.419-.428 3.721-.171.45-.392.878-.604 1.293l-.161.316c-.04.077-.083.159-.13.245-.198.37-.443.831-.423 1.188.013.25.199.479.378.67.294.312.632.584.959.848.583.468 1.184.952 1.566 1.681.44.839.69 1.848.744 3.002.055 1.167-.055 3.34-1.41 4.775-.873.925-2.372 1.47-4.114 1.497-.046.002-.091.002-.137.002z"></path>
        <path d="M166.618 134.112a.207.207 0 0 1-.109-.382c.385-.24.77-.498 1.144-.766a.208.208 0 0 1 .288.048.209.209 0 0 1-.048.289c-.381.273-.773.536-1.165.78a.224.224 0 0 1-.11.031zm3.012-2.254a.206.206 0 0 1-.155-.07.208.208 0 0 1 .018-.292 25.434 25.434 0 0 0 1.693-1.643.206.206 0 0 1 .291-.009.208.208 0 0 1 .008.293 25.75 25.75 0 0 1-1.719 1.67.207.207 0 0 1-.136.051zm3.254-3.463a.208.208 0 0 1-.162-.335c.478-.612.942-1.258 1.376-1.918a.203.203 0 0 1 .286-.059.207.207 0 0 1 .059.286 28.798 28.798 0 0 1-1.398 1.947.202.202 0 0 1-.161.079zm2.616-3.971a.208.208 0 0 1-.182-.307c.376-.684.735-1.394 1.064-2.111a.207.207 0 0 1 .273-.102.208.208 0 0 1 .101.275 32.606 32.606 0 0 1-1.077 2.138.201.201 0 0 1-.179.107zm1.989-4.322a.206.206 0 0 1-.193-.279c.278-.74.533-1.495.759-2.243a.203.203 0 0 1 .258-.138c.109.032.17.148.138.258a36.92 36.92 0 0 1-.768 2.269.21.21 0 0 1-.194.133zm1.376-4.558c-.158-.031-.227-.142-.201-.254.178-.762.331-1.544.458-2.324a.206.206 0 1 1 .407.067c-.13.789-.284 1.58-.463 2.35a.207.207 0 0 1-.201.161zm.769-4.698c-.133-.012-.217-.113-.205-.227a37.56 37.56 0 0 0 .155-2.363c.004-.115.1-.216.213-.2a.206.206 0 0 1 .199.213 37.622 37.622 0 0 1-.157 2.39.205.205 0 0 1-.205.187zm.16-4.759a.206.206 0 0 1-.206-.2 36.252 36.252 0 0 0-.152-2.363.207.207 0 0 1 .185-.227c.138-.013.213.073.225.186.077.78.129 1.584.155 2.39a.206.206 0 0 1-.2.213l-.007.001zm-.467-4.737a.208.208 0 0 1-.204-.172 34.744 34.744 0 0 0-.469-2.32.205.205 0 0 1 .152-.249.208.208 0 0 1 .248.153c.183.768.344 1.558.476 2.348a.208.208 0 0 1-.17.238c-.01.002-.022.002-.033.002zm-1.106-4.628a.206.206 0 0 1-.197-.144 32.829 32.829 0 0 0-.795-2.228.208.208 0 0 1 .115-.269.208.208 0 0 1 .269.115c.292.734.563 1.493.804 2.257a.207.207 0 0 1-.196.269zm-1.762-4.417a.207.207 0 0 1-.186-.116 30.638 30.638 0 0 0-1.117-2.082.206.206 0 0 1 .073-.283.205.205 0 0 1 .282.073c.404.686.785 1.396 1.134 2.111a.209.209 0 0 1-.095.277.226.226 0 0 1-.091.02zm-2.413-4.098a.205.205 0 0 1-.169-.088 30.214 30.214 0 0 0-1.426-1.881.208.208 0 0 1 .029-.292.208.208 0 0 1 .29.028c.512.622.997 1.264 1.446 1.907a.208.208 0 0 1-.17.326zm-3.017-3.669a.208.208 0 0 1-.149-.063 30.59 30.59 0 0 0-1.703-1.632.207.207 0 0 1-.018-.292.206.206 0 0 1 .291-.018c.598.53 1.179 1.086 1.727 1.655a.207.207 0 0 1-.148.35zm-3.556-3.149a.208.208 0 0 1-.125-.041 32.44 32.44 0 0 0-1.931-1.355.207.207 0 0 1-.062-.286.206.206 0 0 1 .285-.061c.672.435 1.33.897 1.957 1.372a.207.207 0 0 1 .04.29.204.204 0 0 1-.164.081zm-3.981-2.582a.212.212 0 0 1-.1-.025 34.795 34.795 0 0 0-2.105-1.069.207.207 0 0 1-.1-.275.204.204 0 0 1 .274-.1 36.51 36.51 0 0 1 2.129 1.081c.1.055.137.181.081.281a.2.2 0 0 1-.179.107z"></path>
        <path d="M155.706 72.546a.205.205 0 0 1-.201-.161 11.092 11.092 0 0 0-.752-2.206.206.206 0 1 1 .374-.175c.342.741.604 1.511.78 2.289a.208.208 0 0 1-.201.253zm-21.557-2.848a.207.207 0 0 1-.025-.412c.711-.085 1.432-.437 1.983-.965a.207.207 0 0 1 .285.3c-.614.588-1.422.98-2.218 1.077h-.025zm-1.9-1.005a.207.207 0 0 1-.203-.166 1.81 1.81 0 0 1-.032-.33c0-.531.222-1.143.658-1.823a4.48 4.48 0 0 1 .141-.208.207.207 0 0 1 .288-.049.208.208 0 0 1 .048.289 6.426 6.426 0 0 0-.129.192c-.394.613-.593 1.149-.593 1.597.001.088.01.172.025.252a.207.207 0 0 1-.163.243l-.04.003zm21.488-.445a.208.208 0 0 1-.168-.086 13.944 13.944 0 0 0-1.522-1.778.207.207 0 1 1 .291-.295 14.252 14.252 0 0 1 1.568 1.831.207.207 0 0 1-.169.328zm-16.261-1.588a.206.206 0 0 1-.193-.28c.26-.69.434-1.451.517-2.262.011-.114.132-.204.225-.185a.206.206 0 0 1 .185.227 9.372 9.372 0 0 1-.541 2.367.209.209 0 0 1-.193.133zm12.905-1.752a.21.21 0 0 1-.121-.039 14.637 14.637 0 0 0-2.001-1.218.207.207 0 0 1 .185-.371c.701.352 1.394.773 2.058 1.253a.208.208 0 0 1 .047.289.205.205 0 0 1-.168.086zm-15.696-.056a.203.203 0 0 1-.17-.09.205.205 0 0 1 .054-.287 10.755 10.755 0 0 1 2.143-1.116.207.207 0 0 1 .151.385 10.39 10.39 0 0 0-2.062 1.073.213.213 0 0 1-.116.035zm4.375-1.783a.205.205 0 0 1-.201-.162.208.208 0 0 1 .156-.247 20.035 20.035 0 0 1 2.37-.382c.097-.022.213.071.225.185a.207.207 0 0 1-.185.227c-.797.082-1.579.208-2.319.375a.245.245 0 0 1-.046.004zm7.074-.241a8.287 8.287 0 0 0-.802-.146c-.476-.057-1-.09-1.558-.098a.207.207 0 0 1 .003-.414c.574.008 1.114.042 1.603.1.247.029.518.079.803.149.11.026.179.138.151.25a.206.206 0 0 1-.2.159zm-8.124-.861a.204.204 0 0 1-.205-.189 17.31 17.31 0 0 0-.369-2.322.208.208 0 0 1 .156-.248.205.205 0 0 1 .247.156c.186.821.313 1.621.376 2.378a.206.206 0 0 1-.187.224l-.018.001zm-1.027-4.639a.208.208 0 0 1-.195-.139 23.558 23.558 0 0 0-.714-1.83l-.161-.359a.208.208 0 0 1 .101-.275.207.207 0 0 1 .273.102l.164.365c.268.611.513 1.237.728 1.863a.207.207 0 0 1-.128.263.233.233 0 0 1-.068.01zm-56.98-.188a.207.207 0 0 1-.177-.314c.405-.681.849-1.354 1.317-2.001a.204.204 0 0 1 .288-.046.207.207 0 0 1 .046.289 26.772 26.772 0 0 0-1.298 1.971.201.201 0 0 1-.176.101zm2.781-3.852a.204.204 0 0 1-.135-.05.208.208 0 0 1-.022-.292 30.182 30.182 0 0 1 1.633-1.749.206.206 0 0 1 .292.002.208.208 0 0 1-.002.293 29.669 29.669 0 0 0-1.61 1.725.207.207 0 0 1-.156.071zm52.202-.271a.204.204 0 0 1-.176-.1 21.524 21.524 0 0 0-1.326-1.947.206.206 0 1 1 .326-.252c.485.633.94 1.301 1.352 1.985a.208.208 0 0 1-.176.314zm-48.827-3.07a.207.207 0 0 1-.133-.365 33.432 33.432 0 0 1 1.88-1.477.204.204 0 0 1 .288.046.207.207 0 0 1-.046.289c-.64.467-1.265.958-1.856 1.459a.204.204 0 0 1-.133.048zm45.94-.698a.208.208 0 0 1-.149-.063 20.789 20.789 0 0 0-1.725-1.6.208.208 0 0 1-.029-.292.207.207 0 0 1 .29-.028 20.686 20.686 0 0 1 1.761 1.633.207.207 0 0 1-.148.35zm-42.106-2.101a.206.206 0 0 1-.109-.382 35.59 35.59 0 0 1 2.066-1.2.206.206 0 1 1 .194.365c-.692.37-1.379.769-2.042 1.185a.195.195 0 0 1-.109.032zm38.444-.916a.214.214 0 0 1-.113-.033 14.186 14.186 0 0 0-1.009-.607 33.19 33.19 0 0 0-1.043-.539.207.207 0 0 1 .182-.371c.355.176.707.358 1.056.546.318.171.657.376 1.039.624a.208.208 0 0 1-.112.38zm-34.261-1.331a.206.206 0 0 1-.086-.395 37.8 37.8 0 0 1 2.203-.922.208.208 0 0 1 .266.12.208.208 0 0 1-.12.267c-.731.279-1.464.585-2.178.911a.198.198 0 0 1-.085.019zm30.025-.806a.212.212 0 0 1-.078-.015 34.448 34.448 0 0 0-2.213-.822.207.207 0 0 1 .129-.394c.755.252 1.509.531 2.239.833a.208.208 0 0 1 .113.27.203.203 0 0 1-.19.128zm-25.591-.889a.207.207 0 0 1-.061-.405c.75-.235 1.524-.451 2.298-.643a.207.207 0 0 1 .1.402c-.767.191-1.532.405-2.275.637a.221.221 0 0 1-.062.009zm21.089-.612a42.294 42.294 0 0 0-2.354-.525.205.205 0 0 1-.164-.242.201.201 0 0 1 .241-.165c.782.149 1.564.325 2.329.524.11.029.176.141.149.252a.21.21 0 0 1-.201.156zm-16.481-.529a.207.207 0 0 1-.203-.17.208.208 0 0 1 .166-.241 40.814 40.814 0 0 1 2.359-.362c.111-.007.216.067.23.18a.208.208 0 0 1-.18.231c-.778.096-1.563.216-2.335.358a.155.155 0 0 1-.037.004zm11.82-.361a39.58 39.58 0 0 0-2.376-.22.207.207 0 0 1-.194-.219c.007-.113.11-.189.218-.194.797.049 1.598.123 2.377.221a.207.207 0 0 1-.025.412zm-7.111-.216a.207.207 0 0 1-.013-.414c.8-.049 1.603-.074 2.387-.074a.207.207 0 0 1 0 .414c-.776 0-1.57.025-2.36.074h-.014z"></path>
        <path d="M92.164 113.187a.208.208 0 0 1-.206-.212c.001-.031.083-3.125.512-5.197.424-2.05-1.139-5.461-2.139-5.841-.536-.204-1.039-.177-1.341.072-.212.174-.299.444-.247.759.18 1.08.48 1.737.721 2.264.318.696.547 1.199.235 2.082-.407 1.155-1.044 1.317-1.299 1.333-.33.014-.625-.144-.761-.417-.221-.444-1.03-3.821.253-5.57.642-.822 1.082-1.494.463-2.089-.452-.435-1.313-.303-1.834.094-.783.596-1.159 1.753-1.432 2.598-.982 3.028-.011 5.876-.001 5.904a.206.206 0 1 1-.389.137c-.042-.121-1.028-3.003-.001-6.168.291-.898.689-2.126 1.575-2.799.654-.498 1.745-.664 2.369-.063.493.473.502.986.321 1.466.41-.203.955-.203 1.516.011 1.273.484 2.843 4.15 2.396 6.312-.421 2.035-.504 5.093-.504 5.123a.208.208 0 0 1-.207.201zm-3.847-10.598-.095.122c-1.152 1.57-.409 4.739-.212 5.134.062.124.199.197.366.189.361-.022.71-.418.936-1.058.257-.726.077-1.119-.221-1.771-.251-.55-.563-1.235-.752-2.369a1.226 1.226 0 0 1-.022-.247z"></path>
        <path d="M82.783 109.634a.206.206 0 0 1-.202-.164c-.406-1.947-.737-6.155.919-8.144.629-.757 1.477-1.133 2.532-1.097a.207.207 0 0 1 .201.212c-.003.114-.113.21-.212.201-.921-.015-1.66.294-2.205.949-1.555 1.867-1.224 5.915-.832 7.793a.207.207 0 0 1-.201.25z"></path>
        <path d="M88.841 101.579a.207.207 0 0 1-.106-.384l2.036-1.225a.207.207 0 0 1 .212.355l-2.036 1.225a.209.209 0 0 1-.106.029zm4.072-2.451a.207.207 0 0 1-.106-.384l2.035-1.225a.207.207 0 0 1 .212.355l-2.035 1.225a.2.2 0 0 1-.106.029zm4.072-2.451a.207.207 0 0 1-.106-.384l2.036-1.225a.207.207 0 0 1 .212.355l-2.036 1.225a.204.204 0 0 1-.106.029zm4.072-2.45a.207.207 0 0 1-.106-.384l2.036-1.226a.205.205 0 0 1 .283.071.209.209 0 0 1-.071.284l-2.037 1.226a.196.196 0 0 1-.105.029zm4.071-2.451a.206.206 0 0 1-.106-.384l2.037-1.226a.206.206 0 0 1 .284.071.209.209 0 0 1-.071.284l-2.037 1.226a.208.208 0 0 1-.107.029zm4.072-2.45a.205.205 0 0 1-.177-.1.209.209 0 0 1 .071-.284l2.035-1.225a.206.206 0 0 1 .284.071.209.209 0 0 1-.071.284l-2.035 1.225a.218.218 0 0 1-.107.029z"></path>
        <path d="M83.115 115.462a.207.207 0 0 1-.173-.094c-2.073-3.184-2.064-6.923-2.06-8.931.005-2.433 2.013-4.184 2.098-4.257a.205.205 0 0 1 .291.022.208.208 0 0 1-.022.292c-.02.017-1.949 1.704-1.955 3.945-.004 1.965-.012 5.623 1.993 8.704a.207.207 0 0 1-.06.286.198.198 0 0 1-.112.033z"></path>
        <path d="M117.955 95.852a.196.196 0 0 1-.128-.045c-.012-.009-1.189-.944-3.033-1.881-1.962-.998-3.839-4.516-3.422-5.817.184-.572.524-1 .936-1.194-.485-.158-.88-.485-.941-1.167-.079-.862.731-1.614 1.527-1.817 1.076-.274 2.283.181 3.163.513 3.106 1.17 4.737 3.741 4.806 3.85a.208.208 0 0 1-.066.286.205.205 0 0 1-.284-.065c-.016-.026-1.629-2.563-4.601-3.683-.83-.313-1.965-.744-2.918-.498-.634.161-1.274.754-1.218 1.378.078.858.875.932 1.91.941 2.174.085 4.297 2.827 4.504 3.277a.786.786 0 0 1-.149.856c-.171.19-.692.589-1.848.187-.884-.307-1.133-.801-1.476-1.484-.261-.518-.586-1.163-1.315-1.978-.213-.238-.473-.338-.746-.28-.384.082-.717.458-.892 1.006-.328 1.021 1.355 4.374 3.216 5.321 1.883.958 3.054 1.888 3.102 1.927.09.071.104.201.034.291a.208.208 0 0 1-.161.076zm-4.426-8.787c.063.05.123.106.18.17.766.856 1.104 1.528 1.376 2.068.322.641.517 1.027 1.242 1.28.643.224 1.165.195 1.409-.074.107-.119.139-.278.08-.405-.228-.495-2.283-2.965-4.139-3.038l-.148-.001z"></path>
        <path d="M124.892 92.072a.207.207 0 0 1-.2-.156c-.748-2.94-2.046-4.816-4.628-6.69-1.679-1.22-3.916-2.436-6.34-.994a.206.206 0 1 1-.211-.356c2.631-1.566 5.012-.279 6.793 1.014 2.668 1.938 4.011 3.879 4.786 6.923a.207.207 0 0 1-.149.251.159.159 0 0 1-.051.008z"></path>
        <path d="M24.196 88.837a1.32 1.32 0 0 1-1.071-.535l-2.855-3.799a1.339 1.339 0 0 1 .263-1.878l3.787-2.864a1.337 1.337 0 0 1 1.873.264l2.855 3.799c.215.286.306.639.256.994a1.332 1.332 0 0 1-.519.885l-3.788 2.864c-.234.176-.513.27-.801.27zm.928-8.931a.925.925 0 0 0-.556.186l-3.787 2.864a.926.926 0 0 0-.182 1.299l2.855 3.799a.922.922 0 0 0 1.295.182l3.788-2.864a.93.93 0 0 0 .182-1.299l-2.855-3.799a.926.926 0 0 0-.74-.368z"></path>
        <path d="M29.781 79.926a.207.207 0 0 1-.206-.21.973.973 0 0 0-.196-.601l-2.799-3.724a.968.968 0 0 0-1.361-.191l-3.712 2.807a.973.973 0 0 0-.377.636.204.204 0 0 1-.234.174.207.207 0 0 1-.174-.235 1.38 1.38 0 0 1 .536-.907l3.713-2.807a1.378 1.378 0 0 1 1.938.273l2.799 3.723c.187.249.284.545.279.855a.207.207 0 0 1-.206.207z"></path>
        <path d="M25.427 79.359c-.141-.018-.22-.123-.204-.236l.512-3.657a.206.206 0 0 1 .233-.176.208.208 0 0 1 .176.234l-.512 3.657a.207.207 0 0 1-.205.178z"></path>
        <path d="M111.15 109.739H93.918a.207.207 0 0 1 0-.414h17.231a9.71 9.71 0 0 0 4.55-1.083.207.207 0 1 1 .187.369 10.233 10.233 0 0 1-4.736 1.128z"></path>
        <path d="M80.003 109.739H64.29a.207.207 0 0 1 0-.414h15.713a.207.207 0 0 1 0 .414z"></path>
        <path d="M55.078 109.058a.19.19 0 0 1-.074-.014c-1.151-.442-2.277-1.081-3.444-1.954-1.282-.959-2.717-3.62-2.777-3.733a10.797 10.797 0 0 1-.957-4.465v-29.38c0-5.981 4.851-10.846 10.814-10.846h14.484a.207.207 0 0 1 0 .414H58.64c-5.735 0-10.402 4.681-10.402 10.433v29.38c0 1.492.307 2.933.914 4.283.008.014 1.446 2.679 2.654 3.584 1.136.849 2.23 1.471 3.345 1.9a.205.205 0 0 1-.073.398z"></path>
        <path d="M121.659 85.213a.207.207 0 0 1-.206-.207V69.513c0-5.752-4.667-10.433-10.402-10.433h-24.19a.207.207 0 0 1 0-.414h24.189c5.964 0 10.815 4.866 10.815 10.846v15.493a.207.207 0 0 1-.206.208z"></path>
        <path d="M156.982 149.651h-20.807a.207.207 0 0 1 0-.414h20.807c2.782 0 5.045-2.27 5.045-5.059v-15.685c0-2.789-2.263-5.059-5.045-5.059h-15.793a.207.207 0 0 1 0-.414h15.793c3.01 0 5.458 2.455 5.458 5.473v15.685c0 3.018-2.448 5.473-5.458 5.473z"></path>
        <path d="M20.264 83.624c-.141-.018-.22-.123-.204-.236l.701-4.97c.017-.113.124-.183.233-.176a.208.208 0 0 1 .176.234l-.701 4.97a.21.21 0 0 1-.205.178z"></path>
        <path d="M29.09 84.765c-.141-.018-.22-.123-.204-.236l.701-4.97c.017-.113.126-.185.233-.176a.208.208 0 0 1 .176.234l-.701 4.97a.207.207 0 0 1-.205.178z"></path>
        <path d="M118.715 71.64H50.976a.207.207 0 0 1 0-.414h67.739a.207.207 0 0 1 0 .414z"></path>
        <path d="M114.355 68.182a2.479 2.479 0 0 1-2.473-2.48 2.479 2.479 0 0 1 2.473-2.48 2.48 2.48 0 0 1 2.472 2.48 2.479 2.479 0 0 1-2.472 2.48zm0-4.546a2.066 2.066 0 0 0 0 4.133 2.065 2.065 0 0 0 2.059-2.066c0-1.14-.924-2.067-2.059-2.067z"></path>
        <path d="M107.274 68.182a2.479 2.479 0 0 1-2.473-2.48 2.479 2.479 0 0 1 2.473-2.48 2.48 2.48 0 0 1 2.472 2.48 2.479 2.479 0 0 1-2.472 2.48zm0-4.546a2.066 2.066 0 0 0 0 4.133 2.065 2.065 0 0 0 2.059-2.066c0-1.14-.924-2.067-2.059-2.067z"></path>
        <path d="M100.193 68.182a2.48 2.48 0 0 1-2.473-2.48c0-1.368 1.11-2.48 2.473-2.48s2.472 1.113 2.472 2.48a2.477 2.477 0 0 1-2.472 2.48zm0-4.546a2.066 2.066 0 0 0 0 4.133c1.136 0 2.06-.927 2.06-2.066 0-1.14-.924-2.067-2.06-2.067z"></path>
        <path d="M112.932 101.579H91.495a.207.207 0 0 1 0-.414h21.231v-7.679c0-.114.092-.207.206-.207.114 0 .206.093.206.207v7.886a.206.206 0 0 1-.206.207z"></path>
        <path d="M85.397 99.3a.207.207 0 0 1-.206-.207V83.176c0-.114.092-.207.206-.207h25.407a.207.207 0 0 1 0 .414H85.603v15.71a.207.207 0 0 1-.206.207z"></path>
        <path d="M74.782 104.477a.206.206 0 0 1-.206-.207V75.061c0-.114.092-.207.206-.207.114 0 .206.093.206.207v29.209a.205.205 0 0 1-.206.207z"></path>
        <path d="M63.284 85.802h-8.205a.207.207 0 0 1-.206-.207v-8.23c0-.114.092-.207.206-.207h8.205c.114 0 .206.093.206.207v8.23a.206.206 0 0 1-.206.207zm-7.999-.413h7.793v-7.816h-7.793v7.816z"></path>
        <path d="M63.284 99.964h-8.205a.207.207 0 0 1-.206-.207v-8.23c0-.114.092-.207.206-.207h8.205c.114 0 .206.093.206.207v8.23a.206.206 0 0 1-.206.207zm-7.999-.413h7.793v-7.816h-7.793v7.816z"></path>
        <path d="M79.847 151.125c-2.563 0-4.648-2.091-4.648-4.662 0-2.57 2.085-4.662 4.648-4.662 2.563 0 4.647 2.091 4.647 4.662 0 2.571-2.084 4.662-4.647 4.662zm0-8.91a4.247 4.247 0 0 0-4.236 4.248c0 2.343 1.9 4.248 4.236 4.248 2.335 0 4.235-1.906 4.235-4.248 0-2.342-1.9-4.248-4.235-4.248z"></path>
        <path d="M35.057 57.71a.203.203 0 0 1-.146-.061.206.206 0 0 1 0-.292l3.869-3.882a.203.203 0 0 1 .291 0 .206.206 0 0 1 0 .292l-3.869 3.882a.195.195 0 0 1-.145.061z"></path>
        <path d="M38.927 57.71a.204.204 0 0 1-.146-.061l-3.869-3.882a.206.206 0 0 1 0-.292.203.203 0 0 1 .291 0l3.869 3.882a.206.206 0 0 1 0 .292.198.198 0 0 1-.145.061z"></path>
        <path d="M108.123 144.044a.208.208 0 0 1-.198-.147c-.788-2.62-3.634-4.45-6.923-4.45-3.104 0-5.832 1.63-6.786 4.056a.207.207 0 0 1-.267.117.207.207 0 0 1-.116-.268c1.016-2.583 3.898-4.318 7.17-4.318 3.47 0 6.478 1.951 7.319 4.744a.208.208 0 0 1-.138.258.228.228 0 0 1-.061.008z"></path>
    </g>
</svg>