<svg preserveAspectRatio="xMidYMid meet" data-bbox="20 27 160.001 146" viewBox="20 27 160.001 146" height="150" width="200"
    xmlns="http://www.w3.org/2000/svg" data-type="color" role="presentation" aria-hidden="true" aria-label="">
    <defs>
        <style>
#comp-lzvczrvq__item-j9plerjk svg [data-color="1"] {fill: #FFA500;}
#comp-lzvczrvq__item-j9plerjk svg [data-color="2"] {fill: #000000;}
#comp-lzvczrvq__item-j9plerjk svg [data-color="3"] {fill: #D4D4FA;}
        </style>
    </defs>
    <g>
        <path d="M158.855 102.4h-21.902c-11.498 0-20.906-9.408-20.906-20.906v-.202c0-11.498 9.408-20.906 20.906-20.906h21.902c11.498 0 20.906 9.408 20.906 20.906v.202c0 11.498-9.408 20.906-20.906 20.906z" fill="#FFFFFF" data-color="1"></path>
        <path d="M174.009 60.386h-52.21c-3.164 0-5.752 2.601-5.752 5.78v.357h63.714v-.357c0-3.179-2.589-5.78-5.752-5.78z" fill="#1A1A1A" data-color="2"></path>
        <path d="M153.597 137.872h11.109c8.168 0 14.851 6.683 14.851 14.851v.143c0 8.168-6.683 14.851-14.851 14.851h-11.109c-8.168 0-14.851-6.683-14.851-14.851v-.143c0-8.169 6.683-14.851 14.851-14.851z" fill="#1A1A1A" data-color="2"></path>
        <path d="m136.924 113.153-2.191 6.71s-2.025-6.794-7.727-8.999c-5.702-2.206-8.831-1.553-8.831-1.553s1.69-1.174 1.471-2.663c-.219-1.488-2.671-2.675-2.671-2.675l-9.343.336s-2.191.82-2.327 2.462c-.136 1.643 1.163 2.539 1.163 2.539s-5.012-.256-7.92 1.078c-2.907 1.335-6.938 2.943-9.092 9.474-2.154 6.531-2.364 13.949-2.364 13.949l-9.79 2.497s-2.769 1.684-2.346 2.751l2.001 11.121s2.138 9.307 8.999 9.3 8.631-5.088 8.631-5.088-1.954 14.587-3.497 18.367h42.263s-3.116-12.033-4.071-21.717c0 0-.954-7.494-.5-10.46 0 0 .897 8.053 6.594 9.403 5.697 1.35 9.163-1.874 11.161-6.62 1.998-4.745 3.179-13.407 3.591-16.001.413-2.593 1.85-11.92 1.85-11.92s.28-1.967-6.713-2.971c-6.992-1.002-7.783-.833-8.341.68z" fill="#FFA500" data-color="3"></path>
        <path d="M85.631 133.76H70.246c-9.67 0-17.582-7.912-17.582-17.582v-.17c0-9.67 7.912-17.582 17.582-17.582H85.63c9.67 0 17.582 7.912 17.582 17.582v.17c0 9.67-7.911 17.582-17.581 17.582z" fill="#FFFFFF" data-color="1"></path>
        <path fill="#FFA500" d="M89.561 61.859c0 6.789-5.477 12.292-12.233 12.292s-12.233-5.503-12.233-12.292 5.477-12.292 12.233-12.292 12.233 5.503 12.233 12.292z" data-color="3"></path>
        <path d="M104.494 95.158s-1.881-7.295 1.607-8.305c0 0 1.407-1.527 2.72-2.105 0 0-3.268-4.029-2.461-6.228.807-2.198 3.108-2.746 5.893-2.776 2.785-.03 5.849.821 6.028 2.981.179 2.16-2.616 5.956-2.616 5.956s4.08 1.051 4.27 4.468c.19 3.417-.281 5.683-.281 5.683l-.945.697-13.54.826-.675-1.197z" fill="#1A1A1A" data-color="2"></path>
        <path d="M118.54 100.078s3.738 1.152 3.812-2.397c0 0-.26-2.994-3.469-2.153l-.174-.702s-2.673.475-5.84-1.76c-3.168-2.235-4.913-3.817-4.913-3.817s-1.53 3.71-2.159 4.609l-.004 1.737s-3.033-.949-3.584 2.087c0 0 .009 2.421 1.94 2.605 1.93.184 1.838-.359 1.838-.359s.444 3.736 2.523 4.818l-.201 2.742s1.462 1.348 4.248 1.016c2.785-.332 3.647-1.078 3.647-1.078l-.156-2.679c-.001-.002 2.015-1.335 2.492-4.669z" fill="#FFFFFF" data-color="1"></path>
        <path d="M139.485 114.989s1.597-3.633 1.429-4.454c-.168-.821-1.765-2.633-2.555-3.301-.79-.668-.799-2.006 0-2.455.799-.449 2.056.004 3.264 1.058 1.208 1.055 2.712 2.686 3.257 2.665 0 0 4.158-3.152 5.926-3.607 1.768-.455 2.601-.551 3.049.183 0 0 1.472.077 1.811 1.124 0 0 1.257-.256 1.707.51.449.766-.168 2.249-1.633 3.278-1.465 1.03-3.709 2.338-5.343 2.764-1.634.427-2.281 4.107-2.281 4.107s-5.488-.18-8.631-1.872z" fill="#FFFFFF" data-color="1"></path>
        <path d="m86.919 137.353-1.054-3.904s1.595-1.953.671-5.813c-.924-3.86-3.478-3.053-3.478-3.053s-1.564-3.832-2.018-5.863c-.454-2.031-1.738-4.487-3.427-4.156-1.689.33-1.926 3.042-1.421 5.162.505 2.12 1.617 5.203 1.617 5.203s-1.908-1.659-2.627-1.604c-.718.056-2.187.654-2.574 1.562-.387.909-.522 1.825-.522 1.825s-1.43.778-1.476 2.226c-.045 1.447.955 2.985 4.757 5.307 0 0 .601 1.935 2.69 2.209l.56 3.422s2.476-.229 4.44-.933c1.965-.705 3.862-1.59 3.862-1.59z" fill="#FFFFFF" data-color="1"></path>
        <path d="m175.975 103.113-11.274-7.012a.697.697 0 0 0-1.063.63l.649 13.307a.697.697 0 0 0 1.051.569l3.048-1.806a.696.696 0 0 1 .955.248l4.432 7.552a.696.696 0 0 0 .955.248l2.412-1.429a.701.701 0 0 0 .246-.959l-4.432-7.552a.702.702 0 0 1 .246-.959l2.763-1.637a.703.703 0 0 0 .012-1.2z" fill="#FFA500" data-color="3"></path>
        <path d="M76.509 75.52v4.83s.426 2.406 3.559 2.406c3.134 0 3.804-2.15 3.804-2.15l.15-5.083s-3.064 1.426-7.513-.003z" fill="#1A1A1A" data-color="2"></path>
        <path d="M82.955 112.636c0 2.784-2.246 5.041-5.017 5.041-2.771 0-5.017-2.257-5.017-5.041 0-2.784 2.246-5.041 5.017-5.041 2.77 0 5.017 2.257 5.017 5.041z" fill="#FFA500" data-color="3"></path>
        <path fill="#FFA500" d="M176.459 63.398c0 .986-.796 1.786-1.778 1.786s-1.778-.8-1.778-1.786.796-1.786 1.778-1.786 1.778.8 1.778 1.786z" data-color="3"></path>
        <path fill="#FFFFFF" d="M171.171 63.398c0 .986-.796 1.786-1.778 1.786s-1.778-.8-1.778-1.786.796-1.786 1.778-1.786 1.778.8 1.778 1.786z" data-color="1"></path>
        <path fill="#FFFFFF" d="M165.883 63.398c0 .986-.796 1.786-1.778 1.786s-1.778-.8-1.778-1.786.796-1.786 1.778-1.786 1.778.8 1.778 1.786z" data-color="1"></path>
        <path d="m77.073 136.309.865.195.827 3.428s-3.605.111-3.808-.873c-.203-.983 2.116-2.75 2.116-2.75z" fill="#1A1A1A" data-color="2"></path>
        <path d="m86.074 134.08.846 3.273s3.219-1.676 2.469-2.931c-.75-1.254-3.315-.342-3.315-.342z" fill="#1A1A1A" data-color="2"></path>
        <path d="M140.469 111.892s-.483 2.766-.984 3.097c-.501.331-2.822-1.066-2.429-2.193.394-1.127 3.413-.904 3.413-.904z" fill="#1A1A1A" data-color="2"></path>
        <path d="M149.33 113.319s-1.203 2.487-1.089 3.491c0 0 3.529.018 3.739-1.364.166-1.095-2.65-2.127-2.65-2.127z" fill="#1A1A1A" data-color="2"></path>
        <path fill="#1A1A1A" d="M63.427 107.045c0 1.129-.91 2.044-2.034 2.044a2.039 2.039 0 0 1-2.034-2.044c0-1.129.91-2.044 2.034-2.044a2.04 2.04 0 0 1 2.034 2.044z" data-color="2"></path>
        <path fill="#1A1A1A" d="M100.942 116.603c0 1.129-.91 2.044-2.034 2.044a2.039 2.039 0 0 1-2.034-2.044c0-1.129.91-2.044 2.034-2.044a2.04 2.04 0 0 1 2.034 2.044z" data-color="2"></path>
        <path fill="#FFA500" d="M133.906 71.652v9.941h-9.893v-9.941h9.893z" data-color="3"></path>
        <path d="M119.653 94.832s.471-2.267.281-5.683c-.19-3.417-4.27-4.468-4.27-4.468s2.795-3.797 2.616-5.956c-.151-1.826-2.365-2.714-4.728-2.928 1.25 1.434 3.763 5.121-.131 8.509 0 0 3.754 1.491 3.179 5.749-.575 4.259-6.902.913-6.902.913s2.216 2.919 3.705 4.884l5.306-.324.944-.696z" fill="#FFFFFF" data-color="1"></path>
        <path d="M151.241 159.871a.237.237 0 0 1-.174-.075l-6.452-6.861a.243.243 0 0 1 .004-.336l6.452-6.483a.239.239 0 0 1 .339 0 .241.241 0 0 1 0 .341l-6.288 6.317 6.292 6.691a.241.241 0 0 1-.173.406z" fill="#FFFFFF" data-color="1"></path>
        <path d="M139.441 115.328a.243.243 0 0 1-.218-.342c.742-1.615 1.772-4.415 1.377-5.055-.526-.852-1.105-1.354-1.665-1.839a12.057 12.057 0 0 1-.617-.558c-1.163-1.143-.888-2.025-.716-2.351.329-.621 1.126-.94 1.932-.77 1.446.299 3.19 2.016 4.591 3.395l.124.122c.807.792 3.687.792 4.731.727.136-.02.246.092.254.225a.24.24 0 0 1-.224.255c-.162.012-3.973.241-5.096-.863l-.125-.123c-1.284-1.264-3.044-2.996-4.352-3.267-.598-.122-1.182.091-1.412.525-.258.487-.029 1.135.627 1.781.187.183.387.357.595.536.56.485 1.195 1.035 1.759 1.95.646 1.046-1.01 4.774-1.349 5.51a.233.233 0 0 1-.216.142z"></path>
        <path d="M148.116 117.104c-.167-.023-.257-.146-.237-.277.024-.158.609-3.868 2.463-4.305 1.796-.424 6.455-2.707 6.95-5.019.067-.312-.011-.582-.226-.781-.302-.279-.813-.356-1.33-.196-1.065.325-4.992 2.609-5.031 2.631a.279.279 0 0 1-.15.031c-.043-.006-3.983-.476-5.739 1.433a.237.237 0 0 1-.338.014.242.242 0 0 1-.014-.34c1.797-1.955 5.458-1.66 6.07-1.594.55-.32 4.013-2.316 5.062-2.636.682-.209 1.367-.091 1.794.302.336.311.471.762.37 1.237-.578 2.696-5.747 5.017-7.309 5.386-1.279.302-1.949 2.925-2.099 3.91a.239.239 0 0 1-.236.204z"></path>
        <path d="M147.117 109.143a.241.241 0 0 1-.125-.446c.641-.397 6.302-3.897 7.444-3.745a1.637 1.637 0 0 1 1.468 1.305.24.24 0 1 1-.474.079 1.151 1.151 0 0 0-1.046-.906c-.753-.088-4.772 2.214-7.141 3.677a.241.241 0 0 1-.126.036z"></path>
        <path d="M144.757 108.744a.24.24 0 0 1-.132-.442c.1-.065 2.447-1.613 3.006-1.913.268-.143.584-.332.93-.538 1.192-.709 2.675-1.591 3.762-1.647 1.494-.089 1.798.879 1.81.919a.242.242 0 0 1-.166.297.245.245 0 0 1-.295-.164c-.011-.034-.22-.632-1.324-.571-.97.049-2.456.934-3.542 1.58-.353.21-.676.402-.948.549-.541.29-2.945 1.876-2.97 1.892a.24.24 0 0 1-.131.038z"></path>
        <path d="M175.847 173H52.663a.24.24 0 0 1 0-.482h123.183a.24.24 0 0 1 .001.482z"></path>
        <path d="M108.905 95.534c.191-.03.32.052.375.745.061.772-.138.909-.31.902-.172-.007-.346-.245-.337-.797.007-.552.021-.81.272-.85z"></path>
        <path d="M115.472 95.597c.192-.025.318.06.355.754.041.774-.162.905-.334.893-.172-.012-.339-.254-.316-.806.023-.55.043-.808.295-.841z"></path>
        <path d="M104.702 100.589a2.718 2.718 0 0 1-2.054-.931 2.739 2.739 0 0 1-.678-1.992 2.739 2.739 0 0 1 .921-1.891 2.65 2.65 0 0 1 1.982-.682c.293.018.576.083.844.19a.24.24 0 0 1-.179.446 2.261 2.261 0 0 0-.695-.157 2.26 2.26 0 0 0-2.395 2.123 2.26 2.26 0 0 0 .56 1.642c.399.455.95.726 1.552.764.406.02.818-.062 1.181-.25a.242.242 0 0 1 .323.103.242.242 0 0 1-.102.325c-.39.205-.822.31-1.26.31z"></path>
        <path d="M104.152 99.353a.242.242 0 0 1-.147-.432l1.434-1.113-1.607-1.195a.243.243 0 0 1-.05-.337.238.238 0 0 1 .335-.05l1.862 1.384a.242.242 0 0 1 .004.384l-1.686 1.308a.225.225 0 0 1-.145.051z"></path>
        <path d="M119.858 100.589c-.439 0-.87-.105-1.259-.308a.241.241 0 0 1-.102-.325.242.242 0 0 1 .323-.103c.362.188.763.273 1.181.25a2.24 2.24 0 0 0 1.552-.764 2.263 2.263 0 0 0 .561-1.642 2.258 2.258 0 0 0-.761-1.56 2.273 2.273 0 0 0-1.635-.563 2.232 2.232 0 0 0-.741.176.24.24 0 0 1-.315-.128.242.242 0 0 1 .127-.316c.284-.122.587-.194.898-.213a2.705 2.705 0 0 1 1.982.682c.548.486.876 1.158.921 1.891a2.743 2.743 0 0 1-2.732 2.923z"></path>
        <path d="M120.408 99.353a.235.235 0 0 1-.146-.05l-1.686-1.308a.24.24 0 0 1 .004-.384l1.862-1.384a.239.239 0 0 1 .336.05.242.242 0 0 1-.05.337l-1.608 1.195 1.435 1.113a.242.242 0 0 1-.147.431z"></path>
        <path d="M137.908 150.585c-.255 0-.517-.01-.784-.031-4.116-.323-8.484-3.539-8.403-11.594a.239.239 0 0 1 .24-.238.24.24 0 0 1 .24.243c-.077 7.724 4.062 10.803 7.962 11.11.249.02.493.029.732.029 8.128 0 10.053-11.122 10.698-14.848.968-5.594 3.13-19.549 3.152-19.689a.236.236 0 0 1 .274-.201.24.24 0 0 1 .2.275c-.022.141-2.184 14.099-3.153 19.698-.665 3.826-2.642 15.246-11.158 15.246z"></path>
        <path d="M131.479 135.678c-.154-.013-.25-.13-.239-.262.307-3.393.933-6.531 1.406-8.565 1.865-8.042 4.165-14.082 4.188-14.142a.24.24 0 0 1 .31-.139.242.242 0 0 1 .138.311c-.023.06-2.311 6.072-4.169 14.078-.468 2.02-1.09 5.135-1.394 8.5a.243.243 0 0 1-.24.219z"></path>
        <path d="M112.278 105.987c-1.201 0-2.922-.23-4.296-1.326-1.057-.844-1.757-2.199-2.139-4.144-.253-1.286-.308-5.34-.286-6.664a.24.24 0 1 1 .48.009c-.024 1.422.042 5.37.277 6.562.359 1.828 1.003 3.09 1.968 3.86 1.265 1.01 2.872 1.222 3.997 1.222a.24.24 0 0 1 .24.241.243.243 0 0 1-.241.24z"></path>
        <path d="M112.278 105.987a.24.24 0 0 1 0-.482c1.126 0 2.733-.212 3.997-1.222.964-.769 1.608-2.032 1.967-3.86.225-1.144.267-3.973.24-5.594a.24.24 0 1 1 .479-.009c.019 1.137.011 4.376-.249 5.695-.382 1.945-1.082 3.301-2.139 4.144-1.373 1.098-3.094 1.328-4.295 1.328z"></path>
        <path d="M118.4 95.073c-4.555 0-9.233-4.293-10.43-5.47-.303.963-1.138 3.441-1.994 4.413a.24.24 0 0 1-.359-.319c.98-1.113 2.001-4.581 2.011-4.616a.242.242 0 0 1 .173-.166.245.245 0 0 1 .23.067c.055.058 5.645 5.822 10.667 5.602.156.015.245.098.25.23a.241.241 0 0 1-.229.252 8.395 8.395 0 0 1-.319.007z"></path>
        <path d="M108.343 107.575c-.154-.014-.251-.131-.239-.264.128-1.343.166-2.56.166-2.572.004-.133.095-.225.247-.233a.24.24 0 0 1 .232.248c0 .012-.038 1.245-.167 2.604a.241.241 0 0 1-.239.217z"></path>
        <path d="M116.202 107.456a.24.24 0 0 1-.239-.218 45.673 45.673 0 0 1-.156-2.485.24.24 0 0 1 .232-.248c.136 0 .243.103.247.233 0 .012.036 1.159.155 2.455a.242.242 0 0 1-.217.263h-.022z"></path>
        <path d="M104.543 95.569a.24.24 0 0 1-.229-.17c-.062-.201-1.486-4.943-.03-7.43a2.838 2.838 0 0 1 1.843-1.374c.289-.394 1.644-2.078 3.961-2.487 3.293-.585 8.515.238 9.792 3.886.572 1.635.575 3.503.011 7.138-.02.131-.147.226-.274.201a.24.24 0 0 1-.2-.275c.551-3.547.554-5.354.011-6.905-1.185-3.382-6.127-4.126-9.258-3.572-2.373.419-3.689 2.343-3.702 2.362a.24.24 0 0 1-.149.101c-.721.154-1.251.536-1.621 1.168-1.35 2.306.061 6.997.075 7.044a.244.244 0 0 1-.23.313z"></path>
        <path d="M91.09 173a.243.243 0 0 1-.215-.348c1.208-2.461 5.882-26.973 4.341-34.002-1.572-7.163.952-14.299.978-14.37a.24.24 0 0 1 .451.164c-.025.07-2.501 7.079-.96 14.103 1.556 7.095-3.16 31.834-4.378 34.318a.244.244 0 0 1-.217.135z"></path>
        <path d="M133.353 173a.24.24 0 0 1-.215-.134c-1.219-2.485-5.933-27.225-4.378-34.318 1.541-7.029-.934-14.032-.96-14.103a.24.24 0 1 1 .451-.164c.026.071 2.549 7.206.977 14.37-1.54 7.027 3.133 31.54 4.341 34.002a.242.242 0 0 1-.109.323.256.256 0 0 1-.107.024z"></path>
        <path d="M148.069 117.085c-1.215 0-2.59-.132-4.002-.389-3.489-.634-6.498-1.929-7.154-3.08-.198-.347-.163-.629-.099-.805.476-1.3 2.354-1.307 3.847-1.086.131.02.221.142.202.274a.243.243 0 0 1-.273.203c-1.079-.16-2.943-.272-3.326.775-.043.117-.022.248.065.4.582 1.022 3.515 2.245 6.823 2.845 1.973.358 3.867.468 5.33.31 1.331-.144 2.175-.505 2.258-.967.078-.431-.699-1.26-2.336-2.009a.241.241 0 0 1-.118-.319.238.238 0 0 1 .317-.119c1.369.626 2.773 1.621 2.608 2.532-.128.714-1.055 1.185-2.678 1.361-.453.049-.944.074-1.464.074z"></path>
        <path d="M86.689 159.75c-1.815 0-3.447-.479-4.873-1.435-3.634-2.434-5.044-7.375-5.561-10.103-.218-1.148-.479-2.756-.756-4.459-.244-1.499-.506-3.11-.777-4.651a.24.24 0 0 1 .194-.279.235.235 0 0 1 .278.195c.271 1.543.534 3.157.778 4.658.277 1.699.538 3.305.754 4.447.503 2.654 1.867 7.456 5.357 9.793 1.932 1.293 4.276 1.661 6.963 1.095 1.482-.312 5-1.54 5.654-6.171a.24.24 0 1 1 .474.069c-.717 5.07-4.797 6.314-6.031 6.574-.851.178-1.67.267-2.454.267z"></path>
        <path d="M93.97 147.896a.24.24 0 0 1-.228-.167 329.207 329.207 0 0 0-4.51-13.094.242.242 0 0 1 .14-.31.241.241 0 0 1 .309.141c.022.061 2.284 6.134 4.517 13.116a.241.241 0 0 1-.154.303.233.233 0 0 1-.074.011z"></path>
        <path d="M77.442 140.175c-1.437 0-2.492-.308-2.715-1.046a.24.24 0 0 1 .16-.3c.126-.04.26.033.299.161.273.908 3.468 1.04 7.613-.22 3.218-.977 5.992-2.53 6.454-3.611.069-.161.075-.294.019-.405-.474-.945-1.988-.762-3.174-.444-.127.041-.259-.042-.294-.17a.242.242 0 0 1 .17-.295c1.976-.533 3.228-.297 3.727.692.084.167.15.444-.007.812-.52 1.218-3.362 2.851-6.757 3.882-1.897.577-3.925.944-5.495.944z"></path>
        <path d="M74.957 139.3a.24.24 0 0 1-.229-.171c-.255-.846 1.074-2.191 2.453-3.026a.24.24 0 0 1 .246.412c-1.445.876-2.375 2.029-2.24 2.475a.24.24 0 0 1-.23.31z"></path>
        <path d="M107.249 94.792a.24.24 0 0 1-.226-.323c.429-1.189 2.067-1.531 3.044-1.312a.24.24 0 0 1 .181.288.234.234 0 0 1-.287.182c-.797-.175-2.168.123-2.488 1.006a.238.238 0 0 1-.224.159z"></path>
        <path d="M112.613 102.641c-.56 0-1.014-.146-1.046-.156a.243.243 0 0 1-.154-.304.24.24 0 0 1 .302-.154c.011.004 1.172.373 1.922-.14.394-.27.615-.75.658-1.428.008-.133.136-.239.254-.225a.24.24 0 0 1 .224.255c-.053.835-.344 1.439-.869 1.797-.402.275-.876.355-1.291.355z"></path>
        <path d="M110.591 100.318a.236.236 0 0 1-.16-.062c-.084-.075-.823-.761-.845-1.47a.932.932 0 0 1 .273-.697c.215-.221.47-.332.756-.332.312.001.602.139.815.278.146-1.326.248-3.186-.018-3.593a.24.24 0 1 1 .401-.263c.48.734.118 3.748.041 4.344a.24.24 0 0 1-.409.138c-.115-.117-.488-.421-.831-.421a.562.562 0 0 0-.414.188.444.444 0 0 0-.136.344c.014.431.5.959.686 1.127a.241.241 0 0 1 .018.34.235.235 0 0 1-.177.079z"></path>
        <path d="M107.132 88.328a.24.24 0 0 1-.196-.101l-.772-1.095a.24.24 0 1 1 .391-.279l.772 1.095a.242.242 0 0 1-.057.336.236.236 0 0 1-.138.044z"></path>
        <path d="M37.298 143.423c.576 0 1.044-.47 1.044-1.049s-.467-1.049-1.044-1.049-1.044.47-1.044 1.049.468 1.049 1.044 1.049z" fill="#1A1A1A" data-color="2"></path>
        <path d="M45.412 143.477a1.1 1.1 0 0 0 1.098-1.103 1.1 1.1 0 0 0-1.098-1.103 1.1 1.1 0 0 0-1.098 1.103 1.1 1.1 0 0 0 1.098 1.103z" fill="#1A1A1A" data-color="2"></path>
        <path d="M53.525 143.396a1.02 1.02 0 0 0 1.017-1.022c0-.564-.455-1.022-1.017-1.022s-1.017.457-1.017 1.022a1.02 1.02 0 0 0 1.017 1.022z" fill="#1A1A1A" data-color="2"></path>
        <path d="M37.298 151.63a1.1 1.1 0 0 0 1.098-1.103 1.1 1.1 0 0 0-1.098-1.103 1.1 1.1 0 0 0-1.098 1.103 1.1 1.1 0 0 0 1.098 1.103z" fill="#1A1A1A" data-color="2"></path>
        <path d="M45.412 151.684c.636 0 1.152-.518 1.152-1.158 0-.639-.516-1.157-1.152-1.157-.636 0-1.152.518-1.152 1.157 0 .64.515 1.158 1.152 1.158z" fill="#1A1A1A" data-color="2"></path>
        <path fill="#1A1A1A" d="M54.596 150.526c0 .594-.48 1.076-1.071 1.076a1.074 1.074 0 0 1-1.071-1.076c0-.594.48-1.076 1.071-1.076s1.071.482 1.071 1.076z" data-color="2"></path>
        <path d="M37.298 159.701c.562 0 1.017-.457 1.017-1.022a1.02 1.02 0 0 0-1.017-1.022 1.02 1.02 0 0 0-1.017 1.022c0 .565.455 1.022 1.017 1.022z" fill="#1A1A1A" data-color="2"></path>
        <path fill="#1A1A1A" d="M46.483 158.679c0 .594-.48 1.076-1.071 1.076a1.074 1.074 0 0 1-1.071-1.076c0-.594.48-1.076 1.071-1.076s1.071.482 1.071 1.076z" data-color="2"></path>
        <path fill="#1A1A1A" d="M54.524 158.679c0 .554-.447 1.004-.999 1.004s-.999-.45-.999-1.004.447-1.004.999-1.004.999.45.999 1.004z" data-color="2"></path>
        <path d="M21.098 143.423c.577 0 1.044-.47 1.044-1.049s-.467-1.049-1.044-1.049c-.576 0-1.044.47-1.044 1.049s.468 1.049 1.044 1.049z" fill="#1A1A1A" data-color="2"></path>
        <path d="M29.212 143.477a1.1 1.1 0 0 0 1.098-1.103 1.1 1.1 0 0 0-1.098-1.103 1.1 1.1 0 0 0-1.098 1.103 1.1 1.1 0 0 0 1.098 1.103z" fill="#1A1A1A" data-color="2"></path>
        <path d="M37.325 143.396a1.02 1.02 0 0 0 1.017-1.022 1.02 1.02 0 0 0-1.017-1.022c-.562 0-1.017.457-1.017 1.022a1.02 1.02 0 0 0 1.017 1.022z" fill="#1A1A1A" data-color="2"></path>
        <path d="M21.098 151.63a1.1 1.1 0 0 0 1.098-1.103c0-.609-.492-1.103-1.098-1.103S20 149.917 20 150.526c0 .61.492 1.104 1.098 1.104z" fill="#1A1A1A" data-color="2"></path>
        <path d="M29.212 151.684c.636 0 1.152-.518 1.152-1.158 0-.639-.516-1.157-1.152-1.157s-1.152.518-1.152 1.157c0 .64.515 1.158 1.152 1.158z" fill="#1A1A1A" data-color="2"></path>
        <path fill="#1A1A1A" d="M38.396 150.526c0 .594-.48 1.076-1.071 1.076a1.074 1.074 0 0 1-1.071-1.076c0-.594.48-1.076 1.071-1.076s1.071.482 1.071 1.076z" data-color="2"></path>
        <path d="M21.098 159.701c.562 0 1.017-.457 1.017-1.022a1.02 1.02 0 0 0-1.017-1.022 1.02 1.02 0 0 0-1.017 1.022c0 .565.455 1.022 1.017 1.022z" fill="#1A1A1A" data-color="2"></path>
        <path fill="#1A1A1A" d="M30.283 158.679c0 .594-.48 1.076-1.071 1.076a1.074 1.074 0 0 1-1.071-1.076c0-.594.48-1.076 1.071-1.076s1.071.482 1.071 1.076z" data-color="2"></path>
        <path d="M37.325 159.683c.552 0 .999-.449.999-1.004 0-.554-.447-1.004-.999-1.004s-.999.449-.999 1.004c0 .555.447 1.004.999 1.004z" fill="#1A1A1A" data-color="2"></path>
        <path d="M80.98 82.996h-1.445c-1.8 0-3.265-1.47-3.265-3.278v-3.975c0-.082.002-.162.009-.242a.245.245 0 0 1 .107-.18.247.247 0 0 1 .206-.028c2.357.765 4.97.769 7.332.009a.24.24 0 0 1 .312.207c.007.078.009.157.009.234v3.975a3.276 3.276 0 0 1-3.265 3.278zm-4.232-7.149v3.872a2.794 2.794 0 0 0 2.786 2.796h1.445a2.793 2.793 0 0 0 2.785-2.796v-3.864c-2.271.665-4.75.662-7.016-.008z"></path>
        <path d="M80.269 76.354a12.33 12.33 0 0 1-3.826-.603c-5.174-1.67-8.649-6.464-8.649-11.93 0-6.911 5.596-12.532 12.475-12.532 6.878 0 12.473 5.622 12.473 12.532 0 5.477-3.486 10.275-8.674 11.939a12.34 12.34 0 0 1-3.799.594zm0-24.584c-6.614 0-11.996 5.406-11.996 12.051 0 5.256 3.342 9.866 8.317 11.472 2.357.765 4.97.769 7.332.009 4.989-1.601 8.34-6.215 8.34-11.481.001-6.645-5.379-12.051-11.993-12.051z"></path>
        <path d="M72.907 69.155c-.134 0-.263-.004-.383-.009a.24.24 0 0 1-.229-.251c.007-.133.12-.217.25-.23.722.032 1.761.004 2.442-.593.144-.127.277-.275.395-.444a3.787 3.787 0 0 1-.796-.766 3.676 3.676 0 0 1-.712-2.711c.044-.331.346-1.642 1.018-2.011a.757.757 0 0 1 .712-.018c.459.216.634.849.749 1.269l.025.09c.143.506.214 1.036.21 1.574-.004.492-.075 1.513-.548 2.421.953.525 2.292.761 4.026.715.998-.026 1.829-.17 2.542-.439.874-.33 1.569-.873 2.023-1.545a6.595 6.595 0 0 1-.144-.078c-.732-.412-1.219-1.071-1.305-1.763a2.292 2.292 0 0 1 .226-1.249c.148-.315.42-.721.875-.863.378-.119.642-.003.798.114.604.45.629 1.672.628 1.913a3.904 3.904 0 0 1-.395 1.706c1.192.463 2.631.508 4.018.508a.24.24 0 0 1 0 .482c-1.46-.001-2.976-.05-4.257-.566-.507.784-1.298 1.415-2.298 1.793-.763.289-1.646.442-2.698.469-1.841.049-3.256-.21-4.288-.785-.139.197-.3.381-.49.547-.689.604-1.632.72-2.394.72zm2.354-6.632a.292.292 0 0 0-.141.039c-.397.218-.709 1.177-.773 1.652-.112.84.113 1.698.617 2.353.187.243.408.458.665.647.302-.597.473-1.349.479-2.163a5.131 5.131 0 0 0-.192-1.44l-.026-.093c-.087-.314-.231-.839-.491-.961a.333.333 0 0 0-.138-.034zm9.326.163c-.046 0-.1.008-.164.028-.288.09-.476.381-.584.61-.157.335-.221.675-.183.983.067.54.465 1.064 1.063 1.402.051.028.102.056.153.082a3.43 3.43 0 0 0 .355-1.512c.003-.595-.145-1.309-.434-1.523a.313.313 0 0 0-.206-.07z"></path>
        <path d="M173.747 102.641a.24.24 0 0 1 0-.482c3.184 0 5.774-2.485 5.774-5.539v-9.08a.24.24 0 0 1 .24-.241.24.24 0 0 1 .24.241v9.08c-.001 3.32-2.806 6.021-6.254 6.021z"></path>
        <path d="M115.832 74.889a.24.24 0 0 1-.24-.241v-8.483c0-3.319 2.805-6.02 6.253-6.02h51.901c3.448 0 6.253 2.701 6.253 6.02v8.407a.24.24 0 1 1-.48 0v-8.407c0-3.054-2.59-5.539-5.774-5.539h-51.901c-3.184 0-5.774 2.485-5.774 5.539v8.483a.238.238 0 0 1-.238.241z"></path>
        <path d="M155.294 102.641h-32.657a.24.24 0 0 1 0-.482h32.657a.24.24 0 0 1 0 .482z"></path>
        <path d="M97.461 134.111h-7.289a.24.24 0 0 1 0-.482h7.289c3.039 0 5.512-2.485 5.512-5.538v-23.885c0-3.055-2.473-5.539-5.512-5.539H82.954a.24.24 0 0 1 0-.482H97.46c3.303 0 5.991 2.701 5.991 6.021v23.885c.001 3.319-2.687 6.02-5.99 6.02z"></path>
        <path d="M72.685 134.111h-14.27c-3.304 0-5.992-2.701-5.992-6.02v-23.885c0-3.32 2.688-6.021 5.992-6.021h9.583a.24.24 0 0 1 0 .482h-9.583c-3.04 0-5.513 2.485-5.513 5.539v23.885c0 3.054 2.473 5.538 5.513 5.538h14.27a.24.24 0 0 1 0 .482z"></path>
        <path d="M77.938 125.462a.24.24 0 0 1-.219-.143c-1.564-3.515-2.683-8.177-1.446-10.105.377-.588.937-.888 1.663-.892 2.132 0 2.912 2.787 3.738 5.739.447 1.596.909 3.247 1.59 4.398a.242.242 0 0 1-.083.33.238.238 0 0 1-.328-.083c-.714-1.206-1.185-2.888-1.64-4.514-.775-2.77-1.507-5.388-3.264-5.388-.571.003-.985.223-1.273.671-.961 1.499-.338 5.556 1.481 9.648a.241.241 0 0 1-.219.339z"></path>
        <path d="M86.919 137.594a.242.242 0 0 1-.232-.178l-1.054-3.904a.242.242 0 0 1 .087-.255c.575-.437 1.493-5.26-.321-7.807-.935-1.31-6.077-.371-8.993 1.277-1.266.715-1.862 1.427-1.639 1.953.332.78.943 1.317 1.818 1.596 1.647.527 4.062.032 6.146-1.26a.239.239 0 0 1 .33.079.241.241 0 0 1-.079.331c-2.199 1.362-4.768 1.877-6.542 1.309-.999-.318-1.73-.964-2.113-1.866-.238-.558-.11-1.457 1.844-2.562 2.935-1.659 8.414-2.831 9.618-1.137 1.864 2.616 1.106 7.354.342 8.345l1.02 3.775a.242.242 0 0 1-.232.304z"></path>
        <path d="M80.543 133.332a4.65 4.65 0 0 1-.991-.11c-1.267-.277-2.571-.959-4.105-2.148a15.058 15.058 0 0 1-2.512-2.464c-.458-.569-1.059-1.444-1.002-2.469.016-.29.086-.585.209-.876.449-1.066 1.562-2.183 2.753-2.183.752.017 1.261.417 1.752.803l.154.121c.637.493 1.101.867 1.657 1.333a.24.24 0 0 1-.308.369c-.55-.462-1.01-.832-1.642-1.322l-.156-.123c-.45-.354-.875-.688-1.425-.7-.982 0-1.95.953-2.344 1.888a2.13 2.13 0 0 0-.171.716c-.037.654.248 1.333.896 2.139.712.884 1.53 1.686 2.432 2.385 1.476 1.143 2.719 1.797 3.914 2.058.709.154 1.38.13 1.94-.073.289-.104.689-.309.958-.689.53-.746.149-1.595-.125-2.035l-.063-.099a2.66 2.66 0 0 0-.131-.191.24.24 0 1 1 .386-.287c.085.115.106.149.151.221l.062.097c.584.939.623 1.852.11 2.573-.269.381-.68.679-1.186.863-.371.137-.78.203-1.213.203z"></path>
        <path d="M79.212 135.641c-.152 0-.307-.007-.465-.022-1.291-.122-2.667-.642-4.331-1.637a14.978 14.978 0 0 1-2.788-2.143c-.522-.508-1.223-1.304-1.289-2.329-.02-.291.015-.592.102-.895.2-.7.644-1.634 1.621-2.12a.24.24 0 0 1 .212.432c-.82.407-1.199 1.215-1.373 1.821-.071.249-.1.496-.085.731.043.654.406 1.294 1.145 2.015.81.791 1.718 1.489 2.699 2.074 1.601.958 2.914 1.457 4.131 1.571.722.069 1.387-.037 1.918-.307.273-.138.647-.389.869-.799.221-.407.253-.705.119-1.098a.241.241 0 0 1 .149-.306.241.241 0 0 1 .305.149c.177.518.132.963-.151 1.486-.223.411-.595.757-1.075.999-.492.249-1.078.378-1.713.378z"></path>
        <path d="M78.619 140.116a.241.241 0 0 1-.235-.191l-.68-3.211c-1.148-.328-1.898-1.141-2.718-2.332a.24.24 0 0 1 .061-.335.238.238 0 0 1 .333.061c.792 1.149 1.499 1.915 2.584 2.177a.242.242 0 0 1 .178.184l.711 3.356a.242.242 0 0 1-.234.291z"></path>
        <path d="M87.095 134.082a.24.24 0 0 1-.24-.236c-.002-.11-.19-11.105 4.52-18.375 4.746-7.329 15.277-6.359 15.381-6.347a.239.239 0 0 1 .214.263c-.013.132-.134.24-.262.215-.102-.01-10.346-.949-14.933 6.131-4.627 7.144-4.444 17.994-4.442 18.103a.24.24 0 0 1-.235.246h-.003z"></path>
        <path d="M134.733 120.103a.24.24 0 0 1-.227-.165c-.483-1.465-2.16-4.181-2.176-4.209-4.588-7.084-14.034-6.188-14.13-6.179a.236.236 0 0 1-.263-.215.24.24 0 0 1 .214-.264c.1-.012 9.834-.931 14.583 6.4.073.117 1.727 2.796 2.227 4.316a.241.241 0 0 1-.228.316z"></path>
        <path d="M61.393 108.744a1.697 1.697 0 0 1-1.691-1.699c0-.937.758-1.699 1.691-1.699.932 0 1.691.762 1.691 1.699s-.758 1.699-1.691 1.699zm0-2.916c-.668 0-1.211.546-1.211 1.217s.543 1.217 1.211 1.217 1.211-.546 1.211-1.217a1.214 1.214 0 0 0-1.211-1.217z" fill="#FFFFFF" data-color="1"></path>
        <path d="M98.908 118.181c-.866 0-1.57-.708-1.57-1.578 0-.87.704-1.578 1.57-1.578.866 0 1.57.708 1.57 1.578 0 .871-.704 1.578-1.57 1.578zm0-2.674c-.602 0-1.091.492-1.091 1.096 0 .605.489 1.096 1.091 1.096s1.091-.492 1.091-1.096c0-.604-.489-1.096-1.091-1.096z" fill="#FFFFFF" data-color="1"></path>
        <path d="M67.015 123.987c-.844 0-1.616-.316-2.294-.94a.24.24 0 0 1 .323-.355c.587.54 1.25.814 1.971.814l.116-.001a.24.24 0 0 1 .009.481l-.125.001zm2.469-.727a.241.241 0 0 1-.131-.443c.595-.389 1.147-.947 1.686-1.704a.239.239 0 0 1 .334-.056.242.242 0 0 1 .056.336c-.575.808-1.169 1.405-1.815 1.827a.226.226 0 0 1-.13.04zm-6.016-2.198a.24.24 0 0 1-.216-.137 15.206 15.206 0 0 1-.871-2.395.241.241 0 0 1 .166-.297.24.24 0 0 1 .296.167c.247.882.53 1.662.842 2.318a.24.24 0 0 1-.217.344zm9.039-1.722a.24.24 0 0 1-.213-.351c.206-.4.405-.807.603-1.21a71.2 71.2 0 0 1 .514-1.034.24.24 0 0 1 .323-.105.243.243 0 0 1 .105.324c-.172.337-.341.682-.511 1.028-.2.406-.4.815-.608 1.217a.238.238 0 0 1-.213.131zm-10.447-3.084a.24.24 0 0 1-.236-.198 37.863 37.863 0 0 1-.361-2.503.24.24 0 0 1 .211-.266c.128-.007.25.08.265.212.098.871.219 1.702.357 2.471a.24.24 0 0 1-.236.284zm-.576-4.993a.241.241 0 0 1-.24-.225 44.26 44.26 0 0 1-.09-2.535.24.24 0 1 1 .48 0c0 .107.003 1.088.09 2.504a.241.241 0 0 1-.224.256h-.016z"></path>
        <path d="M92.316 131.209c-.675 0-1.344-.215-1.985-.637a.24.24 0 0 1 .263-.403c.727.479 1.486.625 2.196.526a.245.245 0 0 1 .271.205.242.242 0 0 1-.204.272 3.995 3.995 0 0 1-.541.037zm2.675-1.165a.24.24 0 0 1-.166-.414c.504-.491.975-1.154 1.398-1.971a.243.243 0 0 1 .324-.103.243.243 0 0 1 .102.325c-.448.863-.949 1.567-1.491 2.095a.24.24 0 0 1-.167.068zm-6.292-1.189a.237.237 0 0 1-.191-.096 18.226 18.226 0 0 1-1.357-2.145.24.24 0 0 1 .093-.327.237.237 0 0 1 .325.094c.458.829.89 1.512 1.321 2.088a.24.24 0 0 1-.191.386zm8.69-3.163a.24.24 0 0 1-.227-.316c.24-.732.46-1.539.652-2.401a.236.236 0 0 1 .286-.182.24.24 0 0 1 .181.288 25.91 25.91 0 0 1-.665 2.446.239.239 0 0 1-.227.165zm-11.159-1.193a.238.238 0 0 1-.216-.138 95.235 95.235 0 0 1-1.035-2.292.24.24 0 1 1 .439-.195c.338.769.68 1.536 1.029 2.28a.24.24 0 0 1-.114.32.212.212 0 0 1-.103.025zm12.272-3.703c-.166-.023-.257-.145-.237-.276.216-1.448.281-2.475.281-2.485.008-.132.139-.23.255-.225a.24.24 0 0 1 .224.255c-.001.01-.067 1.055-.285 2.525a.241.241 0 0 1-.238.206zm-14.311-.881a.24.24 0 0 1-.219-.143 66.424 66.424 0 0 0-1.049-2.269.243.243 0 0 1 .109-.323.241.241 0 0 1 .321.109c.308.626.633 1.331 1.056 2.286a.241.241 0 0 1-.218.34zm-2.255-4.476a.24.24 0 0 1-.203-.112 12.15 12.15 0 0 0-.369-.555.241.241 0 0 1 .056-.336.241.241 0 0 1 .335.057c.129.183.257.376.385.577a.242.242 0 0 1-.074.333.26.26 0 0 1-.13.036z"></path>
        <path d="M154.65 159.871a.24.24 0 0 1-.198-.375l8.953-13.344a.238.238 0 0 1 .333-.065.24.24 0 0 1 .064.334l-8.952 13.344a.243.243 0 0 1-.2.106z" fill="#FFFFFF" data-color="1"></path>
        <path d="M166.086 159.871a.241.241 0 0 1-.173-.406l6.292-6.691-6.288-6.317a.241.241 0 0 1 0-.341.239.239 0 0 1 .339 0l6.452 6.483a.24.24 0 0 1 .004.336l-6.452 6.861a.237.237 0 0 1-.174.075z" fill="#FFFFFF" data-color="1"></path>
        <path d="M177.207 66.763h-58.498a.24.24 0 0 1 0-.482h58.498a.24.24 0 0 1 0 .482z"></path>
        <path d="M174.681 64.81a1.41 1.41 0 0 1-1.406-1.412 1.41 1.41 0 0 1 1.406-1.412c.775 0 1.406.634 1.406 1.412a1.411 1.411 0 0 1-1.406 1.412zm0-2.343a.93.93 0 0 0-.926.931c0 .513.416.93.926.93a.93.93 0 0 0 0-1.861z"></path>
        <path d="M169.393 64.81a1.41 1.41 0 0 1-1.406-1.412c0-.779.631-1.412 1.406-1.412s1.405.634 1.405 1.412a1.41 1.41 0 0 1-1.405 1.412zm0-2.343a.93.93 0 0 0 0 1.861.93.93 0 0 0 0-1.861z"></path>
        <path d="M164.105 64.81a1.41 1.41 0 0 1-1.406-1.412c0-.779.631-1.412 1.406-1.412s1.406.634 1.406 1.412a1.411 1.411 0 0 1-1.406 1.412zm0-2.343a.93.93 0 0 0 0 1.861.93.93 0 0 0 .926-.93.93.93 0 0 0-.926-.931z"></path>
        <path d="M108.82 84.989a.241.241 0 0 1-.182-.083c-.146-.172-3.582-4.231-2.331-6.969.7-1.534 2.716-2.312 5.991-2.312 3.272 0 5.278.771 5.963 2.292 1.224 2.72-2.268 6.754-2.417 6.924a.24.24 0 1 1-.36-.317c.034-.04 3.437-3.971 2.339-6.409-.6-1.333-2.459-2.008-5.526-2.008-3.071 0-4.94.684-5.555 2.031-1.124 2.459 2.225 6.415 2.259 6.454a.243.243 0 0 1-.025.34.24.24 0 0 1-.156.057z"></path>
        <path d="M170.812 115.078a.93.93 0 0 1-.809-.464l-4.431-7.552a.458.458 0 0 0-.627-.163l-3.048 1.806a.935.935 0 0 1-1.412-.765l-.649-13.307a.937.937 0 0 1 1.429-.845l11.274 7.011a.938.938 0 0 1 .444.811.936.936 0 0 1-.461.801l-2.763 1.637a.458.458 0 0 0-.162.629l4.432 7.553a.94.94 0 0 1-.332 1.289l-2.412 1.429a.93.93 0 0 1-.473.13zm-5.636-8.724a.94.94 0 0 1 .81.463l4.431 7.552a.457.457 0 0 0 .626.163l2.412-1.429a.458.458 0 0 0 .162-.629l-4.432-7.553a.939.939 0 0 1-.1-.714.938.938 0 0 1 .431-.576l2.763-1.637a.46.46 0 0 0 .009-.788l-11.274-7.011a.446.446 0 0 0-.473-.005.451.451 0 0 0-.224.418l.649 13.307a.455.455 0 0 0 .69.373l3.048-1.806a.933.933 0 0 1 .472-.128z"></path>
        <path d="M132.171 80.328h-9.773a.24.24 0 0 1-.24-.241v-9.819a.24.24 0 0 1 .24-.241h9.773a.24.24 0 0 1 .24.241v9.819a.242.242 0 0 1-.24.241zm-9.534-.481h9.294v-9.338h-9.294v9.338z"></path>
        <path d="M130.507 94.097h-6.444a.24.24 0 0 1-.24-.241v-6.475a.24.24 0 0 1 .24-.241h6.444a.24.24 0 0 1 .24.241v6.475a.242.242 0 0 1-.24.241zm-6.205-.481h5.965v-5.994h-5.965v5.994z"></path>
        <path d="M172.495 71.892h-29.608a.24.24 0 0 1 0-.482h29.608a.24.24 0 0 1 0 .482z"></path>
        <path d="M172.495 79.467h-29.608a.24.24 0 0 1 0-.482h29.608a.24.24 0 0 1 0 .482z"></path>
        <path d="M172.495 87.041h-29.608a.24.24 0 0 1 0-.482h29.608a.24.24 0 0 1 0 .482z"></path>
        <path d="M77.938 117.01c-2.401 0-4.353-1.962-4.353-4.374s1.953-4.373 4.353-4.373c2.4 0 4.352 1.962 4.352 4.373.001 2.412-1.952 4.374-4.352 4.374zm0-8.266c-2.136 0-3.874 1.746-3.874 3.892s1.738 3.893 3.874 3.893 3.873-1.747 3.873-3.893-1.737-3.892-3.873-3.892z"></path>
        <path d="M112.253 108.744c-4.518 0-4.846-2.151-4.858-2.242a.241.241 0 0 1 .206-.27.234.234 0 0 1 .269.205c.003.018.325 1.825 4.383 1.825 4.044 0 4.256-1.792 4.257-1.811a.245.245 0 0 1 .258-.22c.131.01.229.123.22.255-.006.093-.204 2.258-4.735 2.258z"></path>
        <path d="M107.825 110.256a.235.235 0 0 1-.1-.022c-1.665-.769-2.66-2.064-2.66-3.463 0-.817.469-1.962 2.704-2.771a.235.235 0 0 1 .307.144.24.24 0 0 1-.143.308c-1.585.574-2.388 1.354-2.388 2.319 0 1.206.89 2.337 2.381 3.025.12.056.172.199.118.32a.242.242 0 0 1-.219.14z"></path>
        <path d="M112.479 111.104c-.68 0-1.332-.038-1.94-.114a.241.241 0 0 1 .059-.479c.588.074 1.222.111 1.881.111 4.504 0 6.935-1.984 6.935-3.851 0-.969-.918-1.819-2.585-2.393a.241.241 0 0 1-.149-.306.237.237 0 0 1 .304-.149c1.875.645 2.909 1.657 2.909 2.848 0 2.101-2.598 4.333-7.414 4.333z"></path>
        <path d="M106.682 113.187c-.15-.011-.249-.126-.239-.259.203-2.704-.276-3.754-.28-3.764a.24.24 0 0 1 .112-.32.237.237 0 0 1 .319.11c.022.046.542 1.149.327 4.011a.24.24 0 0 1-.239.222z"></path>
        <path d="M118.141 113.187a.241.241 0 0 1-.239-.223c-.215-2.863.305-3.939.327-3.983a.242.242 0 0 1 .322-.107.242.242 0 0 1 .108.322c-.005.01-.481 1.032-.279 3.732a.24.24 0 0 1-.221.258l-.018.001z"></path>
        <path d="M73.85 49.989a.238.238 0 0 1-.224-.156l-5.131-13.762a.242.242 0 0 1 .14-.31.242.242 0 0 1 .309.141l5.131 13.762a.242.242 0 0 1-.225.325z"></path>
        <path d="M54.437 92.592a.24.24 0 0 1-.169-.069.242.242 0 0 1-.001-.341l15.291-15.53a.242.242 0 0 1 .339-.001.241.241 0 0 1 .001.341l-15.291 15.53a.243.243 0 0 1-.17.07z"></path>
        <path d="M98.076 84.118a.24.24 0 0 1-.155-.057l-8.289-7.055a.24.24 0 0 1-.027-.339.242.242 0 0 1 .338-.027l8.289 7.055a.24.24 0 0 1-.156.423z"></path>
        <path d="M94.701 58.333a.24.24 0 0 1-.119-.449l9.287-5.346a.24.24 0 0 1 .238.417l-9.287 5.346a.241.241 0 0 1-.119.032z"></path>
        <path d="M97.812 102.206H87.788a.24.24 0 0 1 0-.482h10.024a.24.24 0 0 1 0 .482z"></path>
        <path d="M97.812 104.796h-4.677a.24.24 0 0 1 0-.482h4.677a.24.24 0 0 1 0 .482z"></path>
        <path d="M91.576 104.796h-2.68a.24.24 0 0 1 0-.482h2.68a.24.24 0 0 1 0 .482z"></path>
        <path d="M62.083 67.383h-6.338a.24.24 0 0 1 0-.482h6.338a.24.24 0 0 1 0 .482z"></path>
        <path d="M122.398 34.872c-2.16 0-3.917-1.765-3.917-3.936 0-2.171 1.757-3.936 3.917-3.936s3.917 1.766 3.917 3.936c0 2.171-1.757 3.936-3.917 3.936zm0-7.391c-1.896 0-3.437 1.55-3.437 3.455s1.542 3.455 3.437 3.455c1.896 0 3.438-1.55 3.438-3.455 0-1.904-1.543-3.455-3.438-3.455z"></path>
        <path d="M25.324 91.476c-2.16 0-3.917-1.766-3.917-3.936s1.757-3.936 3.917-3.936 3.917 1.766 3.917 3.936-1.757 3.936-3.917 3.936zm0-7.391c-1.896 0-3.438 1.55-3.438 3.455s1.543 3.455 3.438 3.455c1.896 0 3.438-1.55 3.438-3.455 0-1.904-1.542-3.455-3.438-3.455z"></path>
        <path d="M151.007 56.065a.24.24 0 0 1-.237-.207 23.457 23.457 0 0 0-.552-2.692.241.241 0 0 1 .17-.294.239.239 0 0 1 .293.171c.316 1.2.481 2.157.563 2.749a.241.241 0 0 1-.204.272l-.033.001zm-1.398-5.363a.238.238 0 0 1-.224-.157 28.715 28.715 0 0 0-1.08-2.527.243.243 0 0 1 .11-.323.241.241 0 0 1 .321.111c.406.838.776 1.703 1.097 2.57a.242.242 0 0 1-.224.326zm-2.418-4.978a.24.24 0 0 1-.204-.115 27.915 27.915 0 0 0-1.546-2.266.241.241 0 0 1 .045-.337.24.24 0 0 1 .336.046 28.274 28.274 0 0 1 1.573 2.305.241.241 0 0 1-.204.367zm-3.335-4.403a.234.234 0 0 1-.175-.077 28.314 28.314 0 0 0-1.958-1.915.242.242 0 0 1-.021-.34.24.24 0 0 1 .338-.021c.694.615 1.363 1.27 1.992 1.948a.241.241 0 0 1-.176.405zm-4.126-3.661a.24.24 0 0 1-.141-.046 30.282 30.282 0 0 0-2.284-1.51.24.24 0 0 1 .245-.413c.802.48 1.583.995 2.32 1.533a.241.241 0 0 1 .053.336.232.232 0 0 1-.193.1zm-4.726-2.832a.247.247 0 0 1-.105-.024 34.475 34.475 0 0 0-2.507-1.101.241.241 0 0 1-.136-.312.235.235 0 0 1 .31-.136c.867.34 1.722.716 2.542 1.115a.241.241 0 0 1-.104.458zm-5.124-2.021a50.555 50.555 0 0 0-2.712-.739.24.24 0 0 1-.177-.29.236.236 0 0 1 .289-.178 41.66 41.66 0 0 1 2.673.737.24.24 0 0 1-.073.47z"></path>
        <path d="M84.751 49.807a.24.24 0 0 1-.217-.343c.019-.039.46-.976 1.397-2.441a.238.238 0 0 1 .331-.072.24.24 0 0 1 .071.333c-.917 1.435-1.361 2.376-1.365 2.385a.24.24 0 0 1-.217.138zm2.966-4.688a.237.237 0 0 1-.145-.049.243.243 0 0 1-.046-.338 37.963 37.963 0 0 1 1.759-2.161.236.236 0 0 1 .338-.022c.099.088.109.24.021.34a37.1 37.1 0 0 0-1.736 2.135.239.239 0 0 1-.191.095zm3.644-4.163a.239.239 0 0 1-.171-.072.242.242 0 0 1 .003-.341 36.98 36.98 0 0 1 2.053-1.881c.1-.086.25-.074.338.029a.242.242 0 0 1-.029.339c-.69.586-1.372 1.21-2.025 1.856a.241.241 0 0 1-.169.07zm4.211-3.576a.241.241 0 0 1-.14-.436 35.492 35.492 0 0 1 2.313-1.544.24.24 0 0 1 .25.411 35.2 35.2 0 0 0-2.282 1.522.228.228 0 0 1-.141.047zm4.709-2.876a.24.24 0 0 1-.107-.456c.82-.415 1.671-.803 2.528-1.152a.241.241 0 0 1 .18.447c-.844.344-1.683.726-2.493 1.136a.247.247 0 0 1-.108.025zm5.105-2.081a.24.24 0 0 1-.072-.47c.88-.278 1.781-.523 2.678-.729a.24.24 0 0 1 .107.47 33.67 33.67 0 0 0-2.641.719.266.266 0 0 1-.072.01zm5.366-1.237a.24.24 0 0 1-.036-.478 37.21 37.21 0 0 1 2.756-.31c.137-.024.247.09.257.222a.24.24 0 0 1-.221.258c-.913.069-1.828.171-2.721.305-.011.003-.024.003-.035.003zm6.638-.409c-.314-.007-.618-.01-.922-.01l-.222.001c-.135.019-.24-.105-.242-.239a.24.24 0 0 1 .237-.243l.227-.001c.306 0 .615.004.927.01a.242.242 0 0 1 .235.246.242.242 0 0 1-.24.236z"></path>
        <path d="M48.239 123.581c-.255-.065-.44-.12-.625-.178a.24.24 0 0 1 .143-.46c.182.057.364.112.549.166a.241.241 0 0 1-.067.472zm-3.139-1.126a.24.24 0 0 1-.094-.019 29.533 29.533 0 0 1-2.503-1.217.241.241 0 0 1 .23-.423c.808.442 1.636.845 2.461 1.197a.241.241 0 0 1-.094.462zm-4.84-2.643a.234.234 0 0 1-.133-.041 31.264 31.264 0 0 1-2.237-1.658.242.242 0 0 1-.035-.339.238.238 0 0 1 .337-.035 30.893 30.893 0 0 0 2.202 1.632c.11.074.139.224.066.334a.239.239 0 0 1-.2.107zm-4.286-3.481a.236.236 0 0 1-.166-.067 32.804 32.804 0 0 1-1.919-2.02.243.243 0 0 1 .022-.34.238.238 0 0 1 .338.022 31.537 31.537 0 0 0 1.89 1.989.242.242 0 0 1-.165.416zm-3.633-4.161a.238.238 0 0 1-.193-.098 33.624 33.624 0 0 1-1.554-2.314.24.24 0 1 1 .409-.252c.473.772.988 1.54 1.531 2.281a.24.24 0 0 1-.193.383zm-2.887-4.718a.24.24 0 0 1-.214-.132 36.281 36.281 0 0 1-1.153-2.538.24.24 0 1 1 .443-.183c.351.859.734 1.702 1.137 2.503a.24.24 0 0 1-.213.35zm-2.098-5.123a.24.24 0 0 1-.228-.166 40.515 40.515 0 0 1-.77-2.678.24.24 0 0 1 .174-.292.24.24 0 0 1 .291.175c.224.894.48 1.784.761 2.646a.24.24 0 0 1-.228.315zm-1.349-5.37a.24.24 0 0 1-.236-.198 43.07 43.07 0 0 1-.406-2.757.24.24 0 0 1 .211-.267c.149-.009.25.081.266.212.104.911.24 1.827.402 2.726a.24.24 0 0 1-.193.28c-.016.002-.031.004-.044.004z"></path>
        <path d="M25.898 82.459c-.171-.026-.258-.15-.236-.281.157-.922.348-1.841.567-2.731a.234.234 0 0 1 .29-.176.241.241 0 0 1 .175.291 38.622 38.622 0 0 0-.56 2.696.24.24 0 0 1-.236.201zm1.327-5.377a.24.24 0 0 1-.227-.316c.293-.888.622-1.767.978-2.612a.24.24 0 1 1 .442.188 34.448 34.448 0 0 0-.965 2.574.24.24 0 0 1-.228.166zm2.159-5.094a.24.24 0 0 1-.212-.353c.44-.829.916-1.637 1.418-2.402a.242.242 0 0 1 .332-.068.24.24 0 0 1 .068.333 29.822 29.822 0 0 0-1.395 2.363.239.239 0 0 1-.211.127zm3.031-4.62a.241.241 0 0 1-.186-.393 27.47 27.47 0 0 1 1.86-2.079.239.239 0 0 1 .339 0 .242.242 0 0 1 0 .341 26.91 26.91 0 0 0-1.827 2.041.237.237 0 0 1-.186.09zm3.892-3.914a.242.242 0 0 1-.151-.428 26.534 26.534 0 0 1 2.254-1.639.238.238 0 0 1 .331.072c.072.112.04.26-.072.333a25.764 25.764 0 0 0-2.212 1.608.236.236 0 0 1-.15.054zm4.619-3.008a.241.241 0 0 1-.11-.456 32.028 32.028 0 0 1 2.526-1.162.24.24 0 0 1 .18.447c-.855.35-1.692.735-2.487 1.145a.253.253 0 0 1-.109.026zm5.1-2.095a.24.24 0 0 1-.073-.469 41.43 41.43 0 0 1 2.67-.757.236.236 0 0 1 .29.175.24.24 0 0 1-.175.291c-.912.228-1.8.479-2.64.748a.222.222 0 0 1-.072.012zm5.352-1.343a.239.239 0 0 1-.235-.196.24.24 0 0 1 .19-.281c.866-.166 1.786-.32 2.733-.457a.237.237 0 0 1 .271.204.241.241 0 0 1-.203.273c-.94.136-1.852.288-2.712.452a.16.16 0 0 1-.044.005zm5.462-.799a.24.24 0 0 1-.025-.48c.916-.099 1.834-.184 2.753-.258a.24.24 0 0 1 .258.221.24.24 0 0 1-.219.26c-.914.074-1.828.159-2.741.257h-.026zm5.498-.449a.241.241 0 0 1-.015-.481c.923-.057 1.842-.105 2.756-.15.138.003.245.096.251.229a.24.24 0 0 1-.228.252c-.911.045-1.829.094-2.751.15h-.013z"></path>
    </g>
</svg>