<svg preserveAspectRatio="xMidYMid meet" data-bbox="19.999 56.441 160.002 123.001" viewBox="19.999 56.441 160.002 123.001" height="150" width="200"
    xmlns="http://www.w3.org/2000/svg" data-type="color" role="presentation" aria-hidden="true" aria-label="">
    <defs>
        <style>
#comp-lzvczrvq__item-lzvcxoii svg [data-color="1"] {fill: #D4D4FA;}
#comp-lzvczrvq__item-lzvcxoii svg [data-color="2"] {fill: #FFA500;}
#comp-lzvczrvq__item-lzvcxoii svg [data-color="3"] {fill: #000000;}</style>
    </defs>
    <g>
        <path fill="#FFA500" d="M167.968 71.259v40.127h-48.753V71.259h48.753z" data-color="1"></path>
        <path d="M126.796 171.168H81.145c-14.883 0-27.06-12.177-27.06-27.06v-15.523c0-14.883 12.177-27.06 27.06-27.06h45.651c14.883 0 27.06 12.177 27.06 27.06v15.523c-.001 14.884-12.178 27.06-27.06 27.06z" fill="#FFFFFF" data-color="2"></path>
        <path d="M65.555 179.222H50.678c-8.328 0-15.142-6.814-15.142-15.142v-.128c0-8.328 6.814-15.142 15.142-15.142h14.876c8.328 0 15.142 6.814 15.142 15.142v.128c0 8.328-6.813 15.142-15.141 15.142z" fill="#1A1A1A" data-color="3"></path>
        <path d="M91.478 131.072s.955-1.679 3.358-2.746c2.298-1.02 5.959-1.478 9.76.55l4.608 14.136s.906 3.592 3.577 3.301c2.672-.291 3.817-4.444 4.933-7.013 1.115-2.569 3.157-8.059 6.897-9.234 0 0 3.405-1.803 11.102-.724 0 0 1.178 3.091 1.157 5.913-.021 2.822-.92 12.39 3.965 11.788 2.684-.331 3.26-5.151 3.233-5.572-.026-.421-.456-8.298-.456-8.298s5.511 7.752 7.391 12.252c1.88 4.5 3.477 8.436 3.705 11.075.228 2.639.843 5.799-2.23 7.633-3.073 1.834-5.826-.497-5.826-.497l.641 15.586H116.97l.667-18.799s-6.408 2.183-11.095.45c-4.687-1.733-8.066-4.703-10.579-11.183-2.514-6.48-4.485-18.618-4.485-18.618z" fill="#1A1A1A" data-color="3"></path>
        <path d="m133.987 125.662-.116-.487c-1.882-.462-1.195-1.62-1.195-1.62-.907-.317-.961-2.236-.961-2.236 1.84.288 2.939-1.061 2.709-2.698-.23-1.637-1.823-2.001-2.712-2.061-.889-.059-1.508.749-1.508.749-4.478-.411-6.211-5.937-6.211-5.937l-.731 5.861s-2.15.184-2.39 1.222c-.231.998 1.34 1.903 1.46 1.971-.028.011-.084.236.073 2.259.195 2.51 4.49 2.977 4.49 2.977l-.055 1.322c-2.039 1.223-2.517 3.185-2.517 3.185 4.008-1.911 11.389-.825 11.389-.825-.383-1.329-1.725-3.682-1.725-3.682z" fill="#FFFFFF" data-color="2"></path>
        <path d="M131.715 121.319s.054 2.112.961 2.236c.907.124 3.739-1.595 4.258-2.236.52-.641 2.092-2.895 2.296-5.915.204-3.021-1.046-5.007-2.145-5.643-1.099-.636-4.45-2.136-5.645-1.391 0 0-2.21-1.067-3.969-.699s-3.324 1.651-3.86 2.561c0 0 .849 3.823 3 5.346 2.151 1.523 3.593 1.732 3.593 1.732s2.472-1.974 4.066.405c0 0 .302 3.096-1.044 3.289-1.347.192-1.511.315-1.511.315z" fill="#FFA500" data-color="1"></path>
        <path d="M133.621 125.335s2.48 4.651 2.252 9.032c-.228 4.381-.612 8.003-.238 9.809.374 1.806 1.83 3.935 4.368 3.757 2.537-.178 3.484-1.877 3.956-4.75s.416-5.721.057-8.276c-.358-2.555-1.779-4.815-2.549-5.973-.769-1.157-3.611-4.92-3.611-4.92s-1.596 1.972-4.235 1.321z" fill="#FFA500" data-color="1"></path>
        <path d="M132.887 123.555s-.428.807 0 1.324 2.789.588 3.528.323c1.17-.419 1.661-1.171 1.474-2.102-.186-.931-1.042-1.686-1.042-1.686s-2.266 2.017-3.96 2.141z" fill="#1A1A1A" data-color="3"></path>
        <path d="M62.601 164.786c0 1.798-1.451 3.255-3.242 3.255s-3.241-1.457-3.241-3.255c0-1.798 1.451-3.255 3.241-3.255s3.242 1.457 3.242 3.255z" fill="#FFFFFF" data-color="2"></path>
        <path d="M30.42 122.962a1.72 1.72 0 0 1-1.717 1.724 1.72 1.72 0 0 1-1.717-1.724 1.72 1.72 0 0 1 1.717-1.724 1.72 1.72 0 0 1 1.717 1.724z" fill="#FFA500" data-color="1"></path>
        <path d="M52.643 122.962a1.72 1.72 0 0 1-1.717 1.724 1.72 1.72 0 0 1-1.717-1.724 1.72 1.72 0 0 1 1.717-1.724 1.72 1.72 0 0 1 1.717 1.724z" fill="#FFA500" data-color="1"></path>
        <path d="M36.573 164.34a1.72 1.72 0 0 1-1.717 1.724c-.948 0-1.717-.772-1.717-1.724s.769-1.724 1.717-1.724a1.72 1.72 0 0 1 1.717 1.724z" fill="#FFA500" data-color="1"></path>
        <path d="M103.385 113.831c0 3.629-2.957 6.598-6.57 6.598H73.152c-3.614 0-6.57-2.969-6.57-6.598v-11.205c0-3.629 2.957-6.598 6.57-6.598h23.663c3.614 0 6.57 2.969 6.57 6.598v11.205z" fill="#FFA500" data-color="1"></path>
        <path d="M87.139 101.36c-.648-1.113-1.707-1.113-2.354 0l-4.974 8.554c-.647 1.113-.127 2.024 1.157 2.024h9.994c1.284 0 1.804-.911 1.156-2.023l-4.979-8.555z" fill="#FFFFFF" data-color="2"></path>
        <path d="M131.432 142.424s-2.27 16.648-13.949 22.344l.154-4.345c-.001 0 10.306-3.337 13.795-17.999z" fill="#1A1A1A" data-color="3"></path>
        <path d="M102.802 127.861s.843-2.672 1.074-3.353c.231-.68 1.427-4.07.004-4.439-1.423-.369-2.226 2.523-2.332 2.892-.106.369-.265 1.744-1.476 1.452-1.211-.292-1.587-2.253-1.837-3.162-.25-.91-1.47-4.61-1.839-5.386-.369-.776-.78-1.98-2.097-1.579s-.338 3.034-.174 3.521c.165.487 1.152 3.29 1.152 3.29s-1.041-.063-1.531.281c-.49.343-.553 1.057-.553 1.057s-.766.303-1.189.622c-.423.319-.555 1.45-.504 1.947.051.497.49 3.428 1.343 4.266 0 0 2.776-1.498 4.507-1.709 1.731-.213 4.621-.043 5.452.3z" fill="#FFFFFF" data-color="2"></path>
        <path d="M105.308 160.373s.041-4.488 6.222-4.695c6.181-.207 6.948 4.237 6.948 4.237s-2.884 1.644-6.585 1.641c-3.7-.002-6.585-.915-6.585-1.183z" fill="#FFA500" data-color="1"></path>
        <path fill="#FFA500" d="M151.664 117.896v6.402h-6.375v-6.402h6.375z" data-color="1"></path>
        <path d="M64.633 130.054a3.162 3.162 0 0 1-3.153-3.153v-.027a3.162 3.162 0 0 1 3.153-3.153 3.162 3.162 0 0 1 3.153 3.153v.027a3.162 3.162 0 0 1-3.153 3.153z" fill="#1A1A1A" data-color="3"></path>
        <path d="M67.785 144.341a3.162 3.162 0 0 1-3.153-3.153v-.027a3.162 3.162 0 0 1 3.153-3.153 3.162 3.162 0 0 1 3.153 3.153v.027a3.162 3.162 0 0 1-3.153 3.153z" fill="#FFA500" data-color="1"></path>
        <path d="M126.611 115.577c2.151 1.523 3.593 1.732 3.593 1.732s.038-.031.108-.079c-4.331-3.023-4.613-7.028-4.452-8.954-1.047.558-1.886 1.339-2.248 1.955-.001 0 .848 3.823 2.999 5.346z" fill="#FFFFFF" data-color="2"></path>
        <path d="M135.635 144.175c.374 1.806 1.83 3.935 4.368 3.757.045-.003.086-.01.131-.015-5.815-.52-2.771-9.21-2.891-14.453-.124-5.418-2.1-8.024-2.1-8.024-.467.048-.97.031-1.521-.105 0 0 2.48 4.651 2.252 9.032-.229 4.381-.613 8.002-.239 9.808z" fill="#FFFFFF" data-color="2"></path>
        <path d="M102.963 127.778a.231.231 0 0 1-.095-.022.223.223 0 0 1-.102-.293c.207-.431.423-1.246.611-1.966.131-.5.254-.971.369-1.292.764-2.15.814-2.98.722-3.299-.079-.269-.253-.493-.465-.598-.267-.13-.641-.09-.949.107-.202.13-.709.572-1.059 1.859-.023.082-.044.183-.07.297-.151.682-.402 1.824-1.294 2.037-.762.185-1.788-.134-2.432-2.645a65.071 65.071 0 0 0-.61-2.21c-.499-1.677-1.008-3.028-1.603-4.251l-.067-.14c-.152-.322-.297-.626-.566-.824a.886.886 0 0 0-.57-.154.947.947 0 0 0-.737.388c-.247.341-.325.897-.195 1.418.266 1.072 1.618 4.795 1.631 4.833a.222.222 0 0 1-.043.222.232.232 0 0 1-.215.066c-.005-.003-.734-.18-1.266.181-.305.207-.493.559-.56 1.045a.217.217 0 0 1-.201.188c-.007.001-.689.055-1.123.577-.305.367-.425.882-.354 1.533a.219.219 0 0 1-.194.24c-.099-.003-.227-.074-.239-.195-.083-.775.071-1.403.457-1.864.41-.49.971-.653 1.25-.704.106-.534.348-.932.723-1.186.417-.282.905-.317 1.233-.295-.344-.956-1.294-3.626-1.522-4.537-.162-.65-.059-1.332.267-1.781a1.374 1.374 0 0 1 1.06-.565c.326-.029.619.064.853.238.358.263.532.633.702.988l.064.137c.606 1.245 1.123 2.617 1.63 4.316.242.814.455 1.617.612 2.226.449 1.744 1.091 2.535 1.911 2.331.627-.15.842-1.125.971-1.707.027-.122.051-.231.075-.318.376-1.38.94-1.915 1.244-2.111.439-.283.968-.333 1.376-.132.326.16.578.477.691.869.162.56-.076 1.727-.73 3.567-.108.305-.229.767-.358 1.257-.203.775-.413 1.575-.638 2.045a.216.216 0 0 1-.195.124z"></path>
        <path d="M94.3 125.593a.22.22 0 0 1-.182-.098c-1.157-1.756-1.142-3.012-1.142-3.066.003-.119.111-.193.222-.212.12.001.215.101.214.222-.001.012-.005 1.184 1.07 2.814a.22.22 0 0 1-.182.34z"></path>
        <path d="M96.256 123.886a.217.217 0 0 1-.198-.129c-.899-2.009-.991-2.605-.995-2.629a.219.219 0 0 1 .185-.247c.111-.02.226.064.246.183 0 .007.1.591.96 2.514a.218.218 0 0 1-.198.308z"></path>
        <path d="M92.843 129.487a.217.217 0 0 1-.183-.101c-1.404-2.197-1.4-4.771-1.4-4.88a.22.22 0 0 1 .218-.218.219.219 0 0 1 .218.22c-.001.026-.003 2.557 1.331 4.641a.22.22 0 0 1-.184.338z"></path>
        <path d="M94.19 118.217H70.721c-3.743 0-6.788-3.058-6.788-6.816v-11.204c0-3.759 3.045-6.818 6.788-6.818h23.664c3.743 0 6.788 3.059 6.788 6.818V111.4c0 2.7-1.538 5.052-4.014 6.138a.219.219 0 0 1-.286-.113.22.22 0 0 1 .112-.287c2.315-1.015 3.752-3.215 3.752-5.738v-11.204c0-3.518-2.85-6.38-6.352-6.38H70.721c-3.502 0-6.352 2.862-6.352 6.38V111.4c0 3.517 2.85 6.378 6.352 6.378H94.19c.12 0 .218.098.218.219 0 .122-.098.22-.218.22z"></path>
        <path d="M88.54 110.728h-9.993c-.702 0-1.233-.251-1.492-.705-.259-.454-.207-1.039.147-1.648l4.974-8.554c.353-.608.837-.943 1.364-.944.527 0 1.011.336 1.365.943l4.978 8.555c.354.608.407 1.194.147 1.648-.258.454-.788.705-1.49.705zm-4.999-11.413c-.365 0-.717.258-.99.727l-4.974 8.554c-.271.467-.322.897-.144 1.21.179.313.575.485 1.115.485h9.993c.54 0 .935-.172 1.114-.485.179-.312.127-.741-.144-1.21l-4.978-8.555c-.274-.468-.626-.726-.992-.726z"></path>
        <path d="M79.984 179.441a.219.219 0 0 1 0-.438 2.901 2.901 0 0 0 2.891-2.905v-11.313c0-.121.098-.219.218-.219s.218.098.218.219v11.313c0 1.843-1.493 3.343-3.327 3.343z"></path>
        <path d="M41.043 179.441a3.34 3.34 0 0 1-3.328-3.342v-24.166a3.34 3.34 0 0 1 3.328-3.342h38.94c1.835 0 3.327 1.5 3.327 3.342v3.745a.219.219 0 0 1-.218.219.219.219 0 0 1-.218-.219v-3.745a2.901 2.901 0 0 0-2.891-2.905h-38.94a2.901 2.901 0 0 0-2.892 2.905v24.166a2.901 2.901 0 0 0 2.892 2.905.219.219 0 0 1 0 .437z"></path>
        <path d="M60.568 167.634a3.415 3.415 0 0 1-3.404-3.419 3.416 3.416 0 0 1 3.404-3.419 3.416 3.416 0 0 1 3.405 3.419 3.416 3.416 0 0 1-3.405 3.419zm0-6.4a2.978 2.978 0 0 0-2.968 2.981 2.978 2.978 0 0 0 2.968 2.981 2.979 2.979 0 0 0 2.969-2.981 2.98 2.98 0 0 0-2.969-2.981z"></path>
        <path d="M124.868 114.414a.214.214 0 0 1-.176-.09.215.215 0 0 1 .041-.299c.032-.024.207-.148.592-.197a.213.213 0 0 1 .243.188.216.216 0 0 1-.187.244c-.271.036-.388.114-.389.116a.232.232 0 0 1-.124.038z"></path>
        <path d="M125.204 115.82c-.172-.037-.292.031-.376.656-.094.696.08.83.236.832.157.002.325-.205.345-.705.02-.5.02-.734-.205-.783z"></path>
        <path d="M132.078 121.538a2.57 2.57 0 0 1-1.487-.471.219.219 0 0 1 .252-.357 2.13 2.13 0 0 0 1.226.391c.582 0 1.119-.222 1.524-.627.408-.406.634-.948.635-1.525a2.14 2.14 0 0 0-.625-1.529 2.128 2.128 0 0 0-1.519-.638c-.753 0-1.432.377-1.829 1.011a.216.216 0 0 1-.301.068.22.22 0 0 1-.068-.302 2.574 2.574 0 0 1 2.188-1.215 2.587 2.587 0 0 1 2.59 2.608 2.589 2.589 0 0 1-2.586 2.586z"></path>
        <path d="M132.667 120.236a.221.221 0 0 1-.12-.036l-1.631-1.082a.225.225 0 0 1-.098-.177.225.225 0 0 1 .088-.181l1.639-1.221a.22.22 0 0 1 .305.046.22.22 0 0 1-.045.306l-1.391 1.034 1.373.91a.22.22 0 0 1 .061.303.216.216 0 0 1-.181.098z"></path>
        <path d="M127.68 127.144a.22.22 0 0 1-.218-.227l.052-1.386c.005-.121.112-.22.226-.211a.22.22 0 0 1 .21.227l-.052 1.386a.22.22 0 0 1-.218.211z"></path>
        <path d="M116.97 179.441a.22.22 0 0 1-.218-.216c-.043-3.35.42-13.146.701-18.687a.218.218 0 0 1 .217-.208c.131.007.223.11.217.23-.279 5.537-.741 15.322-.698 18.66a.22.22 0 0 1-.215.222l-.004-.001z"></path>
        <path d="M147.292 179.441a.22.22 0 0 1-.217-.197c-.011-.106-1.047-10.723-.503-18.922.542-8.168.005-19.232 0-19.343-.078-1.551-1.455-6.239-3.438-8.148a.218.218 0 0 1 .303-.314c2.02 1.947 3.481 6.638 3.569 8.441.007.112.544 11.201 0 19.394-.542 8.162.492 18.743.503 18.849a.219.219 0 0 1-.195.239l-.022.001z"></path>
        <path d="M111.267 161.773c-4.171 0-8.03-1.491-10.792-4.32-3.474-3.561-5.186-8.472-6.401-12.807-1.325-4.723-1.97-8.551-2.787-13.399l-.023-.14a.223.223 0 0 1 .017-.13c.063-.132 1.595-3.229 6.964-3.716 4.831-.44 6.449 1.393 6.516 1.473a.207.207 0 0 1 .041.072l4.611 14.149c.365 1.136.709 2.209 1.737 2.799 1.003.573 2.257.442 3.193-.345.904-.759 1.431-1.915 1.893-3.033.237-.575.469-1.155.701-1.735.747-1.868 1.519-3.797 2.491-5.586 1.391-2.561 3.104-4.306 5.092-5.189 1.736-.768 3.776-1.137 6.057-1.089 1.77.039 2.61-.067 4.599.263a.217.217 0 0 1 .178.251c-.02.118-.132.205-.25.179-1.934-.321-2.735-.22-4.534-.255-2.21-.038-4.196.307-5.873 1.051-1.899.842-3.542 2.523-4.886 4.998-.96 1.766-1.728 3.683-2.47 5.539-.233.581-.465 1.163-.703 1.739-.483 1.17-1.036 2.381-2.017 3.203-1.076.904-2.523 1.057-3.688.388-1.174-.673-1.56-1.879-1.934-3.043l-4.596-14.101c-.219-.219-1.859-1.677-6.119-1.293-4.712.427-6.345 2.993-6.58 3.412.825 4.9 1.467 8.718 2.788 13.419 1.199 4.281 2.886 9.129 6.291 12.619 3.965 4.061 10.271 5.28 16.464 3.17l.693-.213c10.425-4.112 13.179-17.586 13.205-17.721a.22.22 0 0 1 .255-.173.22.22 0 0 1 .173.256c-.028.138-2.829 13.846-13.49 18.05l-.702.218a18.982 18.982 0 0 1-6.114 1.04z"></path>
        <path d="M150.158 164.978c-1.994 0-3.608-1.145-3.633-1.164a.219.219 0 0 1 .255-.355c.159.113 3.872 2.742 6.832-.548 3.72-4.128-2.93-19.131-8.948-27.924a.217.217 0 1 1 .358-.247c6.255 9.138 12.833 24.114 8.914 28.464-1.22 1.352-2.569 1.774-3.778 1.774z"></path>
        <path d="M128.28 125.758c-2.15 0-5.107-.266-5.949-2.563-.209-.571-.305-1.226-.286-1.947.001-.027.013-.123.032-.243.016-.113.047-.318.056-.439-.444-.26-1.665-1.092-1.455-2.263.182-1.016 1.805-1.231 2.388-1.277l.71-5.68a.214.214 0 0 1 .242-.189.217.217 0 0 1 .189.243l-.731 5.861a.22.22 0 0 1-.207.192c-.559.019-2.037.224-2.162.928-.181 1.006 1.178 1.772 1.333 1.857.159.136.152.256.067.831-.013.09-.024.162-.025.192-.019.663.068 1.264.259 1.783.747 2.041 3.519 2.276 5.54 2.276a.219.219 0 0 1-.001.438z"></path>
        <path d="M163.305 179.441H20.218a.219.219 0 0 1 0-.438h143.087a.219.219 0 0 1 0 .438z"></path>
        <path d="M29.223 82.762a.95.95 0 0 0 .947-.951.95.95 0 0 0-.947-.951.95.95 0 0 0-.947.951.95.95 0 0 0 .947.951z" fill="#FFA500" data-color="1"></path>
        <path d="M36.585 82.811c.55 0 .996-.448.996-1a.998.998 0 0 0-.996-1.001.998.998 0 0 0-.996 1.001c0 .553.446 1 .996 1z" fill="#FFA500" data-color="1"></path>
        <path d="M43.948 82.738c.51 0 .923-.415.923-.927a.925.925 0 0 0-.923-.927.925.925 0 0 0-.923.927c0 .512.413.927.923.927z" fill="#FFA500" data-color="1"></path>
        <path d="M29.223 90.205c.55 0 .996-.448.996-1s-.446-1-.996-1-.996.448-.996 1 .446 1 .996 1z" fill="#FFA500" data-color="1"></path>
        <path d="M36.585 90.254c.577 0 1.045-.47 1.045-1.05 0-.58-.468-1.05-1.045-1.05s-1.045.47-1.045 1.05c0 .58.468 1.05 1.045 1.05z" fill="#FFA500" data-color="1"></path>
        <path d="M43.948 90.18c.537 0 .972-.437.972-.976s-.435-.976-.972-.976c-.537 0-.972.437-.972.976s.435.976.972.976z" fill="#FFA500" data-color="1"></path>
        <path d="M29.223 97.524c.51 0 .923-.415.923-.927s-.413-.927-.923-.927-.923.415-.923.927a.926.926 0 0 0 .923.927z" fill="#FFA500" data-color="1"></path>
        <path d="M36.585 97.573a.974.974 0 0 0 .972-.976.974.974 0 0 0-.972-.976.975.975 0 0 0 0 1.952z" fill="#FFA500" data-color="1"></path>
        <path d="M43.948 97.508a.908.908 0 0 0 .906-.91c0-.503-.406-.91-.906-.91s-.906.407-.906.91a.907.907 0 0 0 .906.91z" fill="#FFA500" data-color="1"></path>
        <path d="M114.593 171.387h-31.5a.219.219 0 0 1 0-.438h31.5a.219.219 0 0 1 0 .438z"></path>
        <path d="M148.636 171.387a.219.219 0 0 1 0-.438c2.757 0 5.001-2.253 5.001-5.022v-2.87c0-.121.098-.219.218-.219s.218.098.218.219v2.87c0 3.011-2.439 5.46-5.437 5.46z"></path>
        <path d="M153.855 152.797a.219.219 0 0 1-.218-.219v-19.905c0-.121.098-.219.218-.219s.218.098.218.219v19.905a.218.218 0 0 1-.218.219z"></path>
        <path d="M153.855 125.256a.219.219 0 0 1-.218-.219v-18.269c0-2.769-2.244-5.022-5.001-5.022h-44.318a.219.219 0 0 1 0-.438h44.318c2.998 0 5.437 2.449 5.437 5.46v18.269a.218.218 0 0 1-.218.219z"></path>
        <path d="M54.085 148.766a.219.219 0 0 1-.218-.219v-41.779c0-3.011 2.439-5.46 5.437-5.46h3.316a.219.219 0 0 1 0 .438h-3.316c-2.757 0-5.001 2.253-5.001 5.022v41.779a.219.219 0 0 1-.218.219z"></path>
        <path d="M164.809 116.154h-10.954a.219.219 0 0 1 0-.438h10.736V76.028h-8.269a.219.219 0 0 1 0-.438h8.487c.12 0 .218.098.218.219v40.126a.218.218 0 0 1-.218.219z"></path>
        <path d="M116.057 101.746a.219.219 0 0 1-.218-.219V75.809c0-.121.098-.219.218-.219h25.155a.219.219 0 0 1 0 .438h-24.937v25.499a.219.219 0 0 1-.218.219z"></path>
        <path d="M31.767 164.559h-2.503a.219.219 0 0 1 0-.438h2.503a.219.219 0 0 1 0 .438zm-3.063-1.951a.219.219 0 0 1-.218-.219v-2.512a.218.218 0 1 1 .436 0v2.512a.219.219 0 0 1-.218.219zm0-5.026a.219.219 0 0 1-.218-.219v-2.514a.218.218 0 1 1 .436 0v2.514a.219.219 0 0 1-.218.219zm0-5.028a.219.219 0 0 1-.218-.219v-2.514a.218.218 0 1 1 .436 0v2.514a.219.219 0 0 1-.218.219zm0-5.027a.219.219 0 0 1-.218-.219v-2.512a.218.218 0 1 1 .436 0v2.512a.219.219 0 0 1-.218.219zm0-5.027a.219.219 0 0 1-.218-.219v-2.514a.218.218 0 1 1 .436 0v2.514a.219.219 0 0 1-.218.219zm0-5.027a.219.219 0 0 1-.218-.219v-2.514a.218.218 0 1 1 .436 0v2.514a.219.219 0 0 1-.218.219zm0-5.028a.219.219 0 0 1-.218-.219v-2.512a.218.218 0 1 1 .436 0v2.512a.219.219 0 0 1-.218.219zm0-5.026a.219.219 0 0 1-.218-.219v-2.514a.218.218 0 1 1 .436 0v2.514a.219.219 0 0 1-.218.219z"></path>
        <path d="M49.21 123.181h-2.503a.219.219 0 0 1 0-.438h2.503a.219.219 0 0 1 0 .438zm-5.007 0h-2.502a.219.219 0 0 1 0-.438h2.502a.219.219 0 0 1 0 .438zm-5.005 0h-2.503a.219.219 0 0 1 0-.438h2.503a.219.219 0 0 1 0 .438zm-5.006 0h-2.503a.219.219 0 0 1 0-.438h2.503a.219.219 0 0 1 0 .438z"></path>
        <path d="M50.926 124.905a1.941 1.941 0 0 1-1.935-1.943 1.94 1.94 0 0 1 1.935-1.943c1.067 0 1.935.872 1.935 1.943a1.94 1.94 0 0 1-1.935 1.943zm0-3.448c-.826 0-1.499.675-1.499 1.505 0 .83.673 1.505 1.499 1.505.826 0 1.499-.675 1.499-1.505a1.503 1.503 0 0 0-1.499-1.505z"></path>
        <path d="M34.856 166.283a1.941 1.941 0 0 1-1.935-1.943 1.94 1.94 0 0 1 1.935-1.943c1.067 0 1.935.872 1.935 1.943a1.94 1.94 0 0 1-1.935 1.943zm0-3.448c-.826 0-1.499.675-1.499 1.505 0 .83.673 1.505 1.499 1.505s1.499-.675 1.499-1.505c0-.83-.672-1.505-1.499-1.505z"></path>
        <path d="M28.704 124.905a1.941 1.941 0 0 1-1.935-1.943 1.94 1.94 0 0 1 1.935-1.943c1.066 0 1.934.872 1.934 1.943a1.941 1.941 0 0 1-1.934 1.943zm0-3.448c-.826 0-1.499.675-1.499 1.505 0 .83.673 1.505 1.499 1.505.826 0 1.498-.675 1.498-1.505a1.504 1.504 0 0 0-1.498-1.505z"></path>
        <path d="M133.106 85.544h-11.03a.219.219 0 0 1 0-.438h11.03a.219.219 0 0 1 0 .438z"></path>
        <path d="M133.106 89.112h-11.03a.219.219 0 0 1 0-.438h11.03a.219.219 0 0 1 0 .438z"></path>
        <path d="M133.106 92.68h-11.03a.219.219 0 0 1 0-.438h11.03a.219.219 0 0 1 0 .438z"></path>
        <path d="M158.791 85.544h-11.03a.219.219 0 0 1 0-.438h11.03a.219.219 0 0 1 0 .438z"></path>
        <path d="M158.791 89.112h-11.03a.219.219 0 0 1 0-.438h11.03a.219.219 0 0 1 0 .438z"></path>
        <path d="M158.791 92.68h-11.03a.219.219 0 0 1 0-.438h11.03a.219.219 0 0 1 0 .438z"></path>
        <path d="M133.106 99.315h-11.03a.219.219 0 0 1 0-.438h11.03a.219.219 0 0 1 0 .438z"></path>
        <path d="M158.791 99.315h-11.03a.219.219 0 0 1 0-.438h11.03a.219.219 0 0 1 0 .438z"></path>
        <path d="M158.791 102.883h-6.809a.219.219 0 0 1 0-.438h6.809a.219.219 0 0 1 0 .438z"></path>
        <path d="M158.791 106.451h-4.936a.219.219 0 0 1 0-.438h4.936a.219.219 0 0 1 0 .438z"></path>
        <path d="M140.433 101.372a.219.219 0 0 1-.218-.219V85.15c0-.121.098-.219.218-.219s.218.098.218.219v16.004c0 .12-.098.218-.218.218z"></path>
        <path d="M132.676 123.773a.21.21 0 0 1-.07-.012c-.048-.016-1.179-.42-1.11-2.451.005-.119.118-.212.226-.211a.22.22 0 0 1 .21.227c-.052 1.492.6 1.916.774 2.003 2.6-.357 4.74-2.224 5.733-5.006 1-2.805.947-6.639-1.536-8.424-1.066-.765-2.473-1.205-4.183-1.308-.353-.02-.666-.028-.953-.019-.019 0-.043.004-.07.008-.147.02-.255.031-.352-.016-4.482-2.252-7.087 1.116-7.498 1.704.23.792 1.99 6.34 6.247 6.822a.22.22 0 0 1 .193.242c-.015.119-.126.196-.241.193-4.861-.551-6.576-6.968-6.646-7.24a.22.22 0 0 1 .027-.173c.029-.046 2.967-4.527 8.11-1.938-.012-.011.06-.02.099-.026a1.24 1.24 0 0 1 .119-.013c.306-.007.626-.001.991.021 1.792.107 3.276.575 4.41 1.389 2.665 1.916 2.745 5.97 1.692 8.926-1.056 2.961-3.354 4.942-6.144 5.299a.14.14 0 0 1-.028.003z"></path>
        <path d="M124.311 130.427c-.173-.039-.241-.158-.21-.275.028-.106.718-2.6 3.073-3.309 1.655-.5 4.699-1.127 6.785-1.396a.218.218 0 0 1 .243.188.216.216 0 0 1-.187.244c-2.067.269-5.08.889-6.715 1.383-2.119.638-2.772 2.98-2.779 3.003a.218.218 0 0 1-.21.162z"></path>
        <path d="M134.566 125.672c-.927 0-1.556-.227-1.879-.678-.436-.611-.12-1.37-.107-1.402a.218.218 0 0 1 .401.171c-.003.007-.233.571.061.979.279.391.969.55 1.998.475 1.24-.095 2.106-.42 2.505-.939.29-.376.272-.773.235-.976-.179-1-1.002-1.715-1.01-1.722a.217.217 0 0 1 .281-.333c.039.032.948.819 1.157 1.977.049.275.074.813-.318 1.321-.483.628-1.431 1-2.818 1.107-.177.013-.345.02-.506.02z"></path>
        <path d="M139.955 148.151c-1.47-.005-2.604-.462-3.384-1.358-1.399-1.607-1.728-4.586-1.063-9.658.785-5.992-1.857-11.58-1.884-11.636a.217.217 0 1 1 .39-.19c.028.058 2.728 5.759 1.924 11.883-.646 4.936-.349 7.81.96 9.314.705.808 1.701 1.203 3.046 1.207 2.747 0 3.657-3.119 3.938-5.738.243-2.259.223-4.395-.056-6.348-.599-4.171-3.215-7.684-5.521-10.784l-.495-.659a.218.218 0 0 1 .348-.263l.495.661c2.339 3.142 4.989 6.703 5.604 10.984.285 1.989.305 4.16.059 6.455-.432 4.011-1.939 6.13-4.361 6.13z"></path>
        <path d="M122.962 122.699c-.388 0-.671-.103-.697-.113a.218.218 0 0 1-.127-.279.223.223 0 0 1 .278-.13c.041.017 1.019.361 1.73-.462a.216.216 0 0 1 .308-.021c.09.079.1.218.021.309a1.94 1.94 0 0 1-1.513.696z"></path>
        <path d="M160.072 164.666a.218.218 0 0 1-.209-.158.22.22 0 0 1 .148-.27c.776-.224 1.57-.494 2.359-.8a.22.22 0 0 1 .282.125.22.22 0 0 1-.124.283c-.802.31-1.609.584-2.396.811a.179.179 0 0 1-.06.009zm4.676-1.81a.22.22 0 0 1-.095-.416c.745-.36 1.482-.756 2.192-1.179a.219.219 0 0 1 .222.376c-.721.428-1.47.831-2.224 1.196a.218.218 0 0 1-.095.023zm4.308-2.559a.22.22 0 0 1-.128-.396 28.001 28.001 0 0 0 1.95-1.544.214.214 0 0 1 .306.023.219.219 0 0 1-.023.308 28.078 28.078 0 0 1-1.979 1.568.213.213 0 0 1-.126.041zm3.774-3.292a.219.219 0 0 1-.158-.369 24.764 24.764 0 0 0 1.613-1.889.215.215 0 0 1 .305-.04.217.217 0 0 1 .04.306 25.249 25.249 0 0 1-1.642 1.924.214.214 0 0 1-.158.068zm3.05-3.969a.213.213 0 0 1-.115-.034.218.218 0 0 1-.07-.301c.435-.705.837-1.439 1.194-2.179a.217.217 0 1 1 .39.191c-.364.753-.772 1.5-1.216 2.22a.212.212 0 0 1-.183.103zm2.182-4.51a.241.241 0 0 1-.075-.013.221.221 0 0 1-.13-.281c.279-.764.53-1.563.742-2.374a.217.217 0 1 1 .42.11 26.406 26.406 0 0 1-.753 2.414.217.217 0 0 1-.204.144zm1.273-4.848c-.155-.024-.235-.137-.214-.256.074-.432.139-.874.195-1.324.047-.385.088-.768.122-1.147.009-.121.106-.205.235-.199.12.011.209.117.198.236-.033.384-.075.772-.124 1.163-.056.458-.122.905-.198 1.345a.216.216 0 0 1-.214.182zm.446-4.999a.22.22 0 0 1-.218-.222l.001-.312a32.036 32.036 0 0 0-.077-2.181.218.218 0 0 1 .201-.234c.112-.036.225.082.233.201.052.725.079 1.47.08 2.213l-.001.317a.222.222 0 0 1-.219.218zm-.357-5.006a.219.219 0 0 1-.215-.185 29.309 29.309 0 0 0-.48-2.448.218.218 0 0 1 .16-.263.214.214 0 0 1 .262.161c.196.819.361 1.654.488 2.483a.221.221 0 0 1-.182.25l-.033.002zm-1.168-4.883a.22.22 0 0 1-.207-.15 31.286 31.286 0 0 0-.868-2.338.218.218 0 0 1 .116-.286.214.214 0 0 1 .285.117c.326.781.622 1.579.881 2.37a.22.22 0 0 1-.139.277.26.26 0 0 1-.068.01zm-1.929-4.634a.22.22 0 0 1-.194-.119 34.472 34.472 0 0 0-1.216-2.179.22.22 0 0 1 .072-.301.219.219 0 0 1 .3.073c.433.717.848 1.46 1.232 2.209a.219.219 0 0 1-.194.317zm-2.602-4.294a.214.214 0 0 1-.176-.091 35.715 35.715 0 0 0-1.516-1.982.217.217 0 0 1 .028-.307.215.215 0 0 1 .306.028 36.362 36.362 0 0 1 1.535 2.006.219.219 0 0 1-.177.346zm-3.194-3.872a.218.218 0 0 1-.157-.067c-1.068-1.112-1.8-1.704-1.808-1.709a.219.219 0 0 1 .273-.341c.029.024.758.612 1.848 1.747a.22.22 0 0 1-.156.37z"></path>
        <path d="M68.472 132.892h-3.958a1.396 1.396 0 0 1-1.392-1.396v-3.975c0-.771.624-1.398 1.392-1.398h3.958c.766 0 1.391.627 1.391 1.398v3.975a1.397 1.397 0 0 1-1.391 1.396zm-3.958-6.331a.96.96 0 0 0-.956.96v3.975c0 .529.429.959.956.959h3.958c.527 0 .955-.43.955-.959v-3.975a.959.959 0 0 0-.955-.96h-3.958z"></path>
        <path d="M68.472 143.348h-3.958a1.396 1.396 0 0 1-1.392-1.398v-3.975c0-.771.624-1.398 1.392-1.398h3.958c.766 0 1.391.627 1.391 1.398v3.975a1.397 1.397 0 0 1-1.391 1.398zm-3.958-6.333a.96.96 0 0 0-.956.96v3.975c0 .529.429.96.956.96h3.958a.959.959 0 0 0 .955-.96v-3.975a.959.959 0 0 0-.955-.96h-3.958z"></path>
        <path d="M88.222 127.916H72.07a.219.219 0 0 1 0-.438h16.152a.219.219 0 0 1 0 .438z"></path>
        <path d="M88.222 131.888H72.07a.219.219 0 0 1 0-.438h16.152a.219.219 0 0 1 0 .438z"></path>
        <path d="M88.222 138.371H72.07a.219.219 0 0 1 0-.438h16.152a.219.219 0 0 1 0 .438z"></path>
        <path d="M88.222 142.343H72.07a.219.219 0 0 1 0-.438h16.152a.219.219 0 0 1 0 .438z"></path>
        <path d="M118.477 127.916h-16.151a.219.219 0 0 1 0-.438h16.151a.219.219 0 0 1 0 .438z"></path>
        <path d="M118.477 131.888h-12.924a.219.219 0 0 1 0-.438h12.924a.219.219 0 0 1 0 .438z"></path>
        <path d="M118.203 138.371h-10.599a.219.219 0 0 1 0-.438h10.599a.219.219 0 0 1 0 .438z"></path>
        <path d="M116.516 142.343h-7.601a.219.219 0 0 1 0-.438h7.601a.219.219 0 0 1 0 .438z"></path>
        <path d="M105.309 160.451a.219.219 0 0 1-.218-.219c0-2.631 3.055-4.772 6.81-4.772 3.562 0 6.546 1.948 6.793 4.434a.219.219 0 0 1-.195.239c-.122-.004-.225-.076-.238-.196-.225-2.265-3.018-4.039-6.36-4.039-3.515 0-6.374 1.944-6.374 4.335 0 .12-.098.218-.218.218z"></path>
        <path d="M150.643 123.181h-6.374a.219.219 0 0 1-.218-.219v-6.401c0-.121.098-.219.218-.219h6.374c.12 0 .218.098.218.219v6.401a.218.218 0 0 1-.218.219zm-6.156-.438h5.939v-5.963h-5.939v5.963z"></path>
        <path d="M81.539 90.473a.218.218 0 0 1-.214-.177c-.007-.039-.184-.97-.247-2.533a.217.217 0 1 1 .433-.019c.063 1.527.239 2.459.242 2.468a.22.22 0 0 1-.214.261zm-.233-5.016a.22.22 0 0 1-.217-.23c.041-.838.122-1.687.237-2.522a.218.218 0 1 1 .431.059 28.454 28.454 0 0 0-.234 2.484.218.218 0 0 1-.217.209zm.69-4.975c-.166-.034-.24-.15-.211-.269a27.58 27.58 0 0 1 .679-2.44.213.213 0 0 1 .274-.138.217.217 0 0 1 .138.275 27.66 27.66 0 0 0-.668 2.402.217.217 0 0 1-.212.17zm1.566-4.768a.217.217 0 0 1-.199-.306c.337-.773.714-1.537 1.119-2.271a.22.22 0 0 1 .295-.085.219.219 0 0 1 .084.297 26.721 26.721 0 0 0-1.1 2.233.218.218 0 0 1-.199.132zm2.427-4.387a.218.218 0 0 1-.179-.342c.475-.693.988-1.372 1.524-2.017a.216.216 0 0 1 .306-.028.22.22 0 0 1 .028.308 26.332 26.332 0 0 0-1.5 1.985.22.22 0 0 1-.179.094zm58.707-.03a.216.216 0 0 1-.169-.082c-.2-.248-.764-.928-1.662-1.865a.221.221 0 0 1 .005-.309.215.215 0 0 1 .308.005 29.874 29.874 0 0 1 1.686 1.895.217.217 0 0 1-.032.306.208.208 0 0 1-.136.05zm-3.468-3.64a.219.219 0 0 1-.147-.058 46.293 46.293 0 0 0-1.879-1.647.217.217 0 0 1-.029-.308.215.215 0 0 1 .305-.03 46.51 46.51 0 0 1 1.898 1.662.22.22 0 0 1-.148.381zm-52.041-.184a.22.22 0 0 1-.154-.373 29.368 29.368 0 0 1 1.855-1.71.219.219 0 0 1 .281.334 29.368 29.368 0 0 0-1.828 1.685.216.216 0 0 1-.154.064zm48.175-3.016a.209.209 0 0 1-.128-.042 42.624 42.624 0 0 0-2.05-1.423.22.22 0 0 1-.063-.302.22.22 0 0 1 .301-.064c.703.46 1.4.944 2.069 1.438a.219.219 0 0 1 .047.306.223.223 0 0 1-.176.087zm-44.357-.221a.219.219 0 0 1-.128-.396 35.82 35.82 0 0 1 2.098-1.392.22.22 0 0 1 .3.072.22.22 0 0 1-.072.301c-.718.44-1.415.902-2.071 1.374a.21.21 0 0 1-.127.041zm40.159-2.518a.217.217 0 0 1-.107-.028 42.106 42.106 0 0 0-2.201-1.168.217.217 0 0 1-.1-.292.213.213 0 0 1 .29-.1c.742.364 1.491.761 2.225 1.18a.22.22 0 0 1 .082.298.221.221 0 0 1-.189.11zm-35.896-.1a.217.217 0 0 1-.101-.411 40.55 40.55 0 0 1 2.264-1.098.218.218 0 1 1 .176.399c-.764.342-1.518.708-2.24 1.086a.216.216 0 0 1-.099.024zm4.563-2.05a.218.218 0 0 1-.077-.422 51.335 51.335 0 0 1 2.371-.841.219.219 0 0 1 .274.14.219.219 0 0 1-.14.275c-.801.262-1.591.543-2.35.834a.243.243 0 0 1-.078.014zm26.837-.054a.222.222 0 0 1-.083-.016 37.765 37.765 0 0 0-2.332-.869.218.218 0 0 1 .136-.415c.789.264 1.583.56 2.361.88a.22.22 0 0 1 .119.285.216.216 0 0 1-.201.135zm-22.077-1.489a.216.216 0 0 1-.21-.164.217.217 0 0 1 .155-.266 38.282 38.282 0 0 1 2.456-.551c.118-.014.233.057.254.175a.22.22 0 0 1-.174.255c-.805.152-1.622.335-2.427.545a.255.255 0 0 1-.054.006zm17.329-.093a38.67 38.67 0 0 0-2.483-.537.217.217 0 0 1-.175-.253.209.209 0 0 1 .253-.177c.821.148 1.649.328 2.459.537a.22.22 0 0 1 .158.266.22.22 0 0 1-.212.164zm-12.414-.834a.22.22 0 0 1-.217-.193.219.219 0 0 1 .191-.242 34.332 34.332 0 0 1 2.511-.203c.128-.015.222.089.226.209a.219.219 0 0 1-.207.228 34.06 34.06 0 0 0-2.479.201h-.025zm7.494-.054a35.241 35.241 0 0 0-2.503-.167.218.218 0 0 1-.211-.224c.004-.122.11-.205.225-.212.828.024 1.673.081 2.513.167a.22.22 0 0 1 .194.24.22.22 0 0 1-.218.196z"></path>
    </g>
</svg>