<svg preserveAspectRatio="xMidYMid meet" data-bbox="20 45 160.001 110" viewBox="20 45 160.001 110" height="150" width="200"
    xmlns="http://www.w3.org/2000/svg" data-type="color" role="presentation" aria-hidden="true" aria-label="">
    <defs>
        <style>
#comp-lzvczrvq__item1 svg [data-color="1"] {fill: #FFA500;}
#comp-lzvczrvq__item1 svg [data-color="2"] {fill: #D4D4FA;}
#comp-lzvczrvq__item1 svg [data-color="3"] {fill: #000000;}
        </style>
    </defs>
    <g>
        <path d="M84.866 49.927c-1.229-.604-2.417-1.939-2.417-1.939s-.922 3.318-3.109 4.224c0 0-.925-1.105-2.133-.781-1.208.323-1.531 1.324-1.486 2.211.045.887 1.022 1.936 2.399 1.712l-.832 6.968-2.577 2.674 3.871 4.826 7.145-.081.391-4.44-2.153-2.979h-.074l.146-2.46s1.582.059 2.134-.964c.551-1.023.727-3.218.79-3.684.063-.466.489-4.987.489-4.987s-1.355.305-2.584-.3z" fill="#FFFFFF" data-color="1"></path>
        <path d="M70.45 115.09s.45.868 1.704.071c1.254-.798 2.89-3.939 2.89-3.939l1.464-2.446s.194-2.076-1.547-2.24c-1.741-.163-23.53-.1-23.53-.1l-2.102.265s-1.262.495-1.869 1.437c-.608.942-1.936 3.173-1.936 3.173l1.075-.748.797-.227.575.136 1.565-2.055.556-.212h24.607l.149.149-4.398 6.736z" fill="#FFA500" data-color="2"></path>
        <path d="M74.698 108.206H50.091l-.742.385-1.326 1.955a1.402 1.402 0 0 0-.609-.128c-.894.009-.91.325-.91.325s-.476.296-1.097.633-1.461 1.575-1.461 1.575.035.856 1.045 2.615l.6 5.597 21.516-.632 3.343-5.439 4.397-6.736-.149-.15z" fill="#FFFFFF" data-color="1"></path>
        <path d="M98.709 132.735s-7.31.402-12.797 2.257c-5.487 1.855-9.054 4.335-11.157 7.238-2.103 2.903-1.681 5.123-1.278 6.132.402 1.009 1.942 2.126 6.883 2.295 4.941.169 13.378-.649 13.378-.649s.138-3-.012-4.712l8.511.33 3.589.085 10.018 2.017-.778 3.095s4.945-.029 9.365-.297c4.42-.268 6.586-.818 7.085-1.242.499-.423 1.425-.916 1.142-2.975-.282-2.06-2.404-5.381-5.128-7.13-2.725-1.749-5.048-3.078-8.234-3.905-3.186-.828-5.361-1.385-7.201-1.612-1.839-.23-13.386-.927-13.386-.927z" fill="#FFA500" data-color="2"></path>
        <path d="M122.925 90.335s.061 3.684 1.122 6.694c1.061 3.009 2.56 6.049 5.319 7.233 2.759 1.184 5.748.425 6.409.172.661-.253 3.893-1.687 5.817-1.539l7.502.091s3.874.401 5.83 2.2c1.956 1.799 2.822 3.407 3.554 5.218.731 1.812 2.898 6.511 3.5 8.001.602 1.49 1.384 3.316 1.939 5.267.555 1.951 1.311 4.73 1.345 6.544.033 1.814.146 5.333-1.883 7.516-2.029 2.184-3.148 2.322-3.148 2.322s.14 4.373 0 5.512l-26.999.084s.082-7.789.133-9.592c.052-1.803-.073-6.221-.073-6.221l-1.254-12.662s-4.292-.202-8.836-3.893c-4.544-3.692-6.003-7.052-6.352-7.747-.35-.695-2.351-5.253-2.914-7.896-.563-2.642-1.109-6.767-1.109-6.767l10.098-.537z" fill="#1A1A1A" data-color="3"></path>
        <path d="M146.692 94.76s2.521-.856 2.599 1.615c0 0-.171 1.969-2.312 1.524l-.172 4.985s-2.302 5.11-4.957 4.436c0 0-1.197-.223-.833-1.988.365-1.765.575-2.439.575-2.439l.188-2.205s-2.02-.238-2.154-1.853c-.134-1.615-.351-1.983 0-3.785s.886-5.011.886-5.011.789 1.108 3.047 2.523 3.231 1.959 3.231 1.959l-.098.239z" fill="#FFFFFF" data-color="1"></path>
        <path d="M98.746 137.091s-.425 3.501 2.719 5.138c0 0-1.513-.723-1.828-3.021l-.08-1.893-.811-.224z" fill="#FFFFFF" data-color="1"></path>
        <path d="m112.873 144.954 2.916.341s-.707-2.669-1.744-2.81c-1.037-.14-1.172 2.469-1.172 2.469z" fill="#1A1A1A" data-color="3"></path>
        <path d="m113.775 149.873 2.07-.081s-.414 1.206-1.035 1.037c-.621-.168-1.035-.956-1.035-.956z" fill="#1A1A1A" data-color="3"></path>
        <path d="m113.292 90.161.369.975s-.872-.23-.857-.527c.016-.296.488-.448.488-.448z" fill="#1A1A1A" data-color="3"></path>
        <path d="m121.317 89.628-1.096 1.664s2.738-.541 2.704-.957c-.035-.417-1.608-.707-1.608-.707z" fill="#1A1A1A" data-color="3"></path>
        <path d="M112.805 88.337s.777 2.549.976 2.829c0 0 1.336.368 3.241.31 1.904-.058 3.294-.198 3.294-.198s.468-.914 1.11-1.806c.642-.891 1.369-1.78 1.432-2.559.063-.778.278-1.257-.696-2.149-.974-.892-2.544-1.982-2.544-1.982s-.745-.446-1.251-.128c-.506.318-.359 1.836.144 2.426.503.59 1.369 1.341 1.369 1.341s-1.285 1.884-3.089 1.842c-1.805-.042-3.986.074-3.986.074z" fill="#FFFFFF" data-color="1"></path>
        <path d="M145.017 122.617s-.818-1.757-1.176-2.698c-.358-.941-.618-2.144-1.29-2.184-.672-.041-.936.314-.952.759-.016.445.187 1.326.412 2.192.225.866-.027 1.479-.509 1.552-.483.073-2.006-.881-2.962-1.82-.956-.938-1.966-2.17-2.576-2.184-.61-.014-1.371.507-.98 1.364l.1.16s-.77-.069-.994.311c-.224.38-.359.876-.072 1.171 0 0-.551.383-.164 1.036s1.012 1.343 1.012 1.343-.604.231-.321.885 2.134 1.895 3.747 2.824c1.613.929 2.608 1.176 2.608 1.176s1.245-2.25 2.035-3.255c.793-1.006 2.082-2.632 2.082-2.632z" fill="#FFFFFF" data-color="1"></path>
        <path d="M101.465 146.236s-.337-2.415-1.182-3.005c-.845-.59-1.053-.7-1.053-.7l1.169 3.18-2.21-1.197-1.015-2.512s-1.184-.063-1.781.043-2.512.693-2.512.693.744 1.038.875 2.871.167 2.562.167 2.562 1.619.54 2.235.714c.616.174 2.191.671 3.241.152 0 0 1.862-.064 1.886-.998 0 0 .79-.188.774-.845-.016-.659-.594-.958-.594-.958z" fill="#FFFFFF" data-color="1"></path>
        <path d="M115.845 145.424s-3.884-.475-4.534-.536c-.65-.061-3.763-.179-3.763-.179s-1.11.38-1.956 1.449c-.846 1.07-1.847 2.45-1.847 2.45s-.696 1.181-.108 1.441 1.766-.833 1.766-.833-1.085 1.968-.145 2.279c.939.311 3.331-3.062 3.331-3.062l-.944 2.83s.059.77.557.752c.498-.019 1.212-.545 1.408-1.009.196-.464 1.412-2.365 1.412-2.365s1.276.929 2.411 1.11c1.135.18 2.413.043 2.413.043s.429-1.254.257-2.6c-.173-1.347-.258-1.77-.258-1.77z" fill="#FFFFFF" data-color="1"></path>
        <path d="M73.742 80.136s-.007-.876-.006-1.665c.002-.79.06-3.653 1.817-4.752 1.757-1.099.143-.088.143-.088v3.781s.221 1.041.971.743c.75-.298.496-.014 1.38-.806.884-.791 2.771-2.689 2.771-2.689s.954-1.118 1.571-1.12c.617-.003 1.349.385 1.077 1.48l.058.123s.488-.364 1.007.051c.519.415-.137 1.967-.137 1.967s.345-.018.337.724c-.008.743-.324 1.583-1.057 2.396-.732.813-4.441 3.766-4.441 3.766s-1.656-1.688-2.978-2.574c-1.321-.884-2.513-1.337-2.513-1.337z" fill="#FFFFFF" data-color="1"></path>
        <path d="M111.257 88.337h-26.35c-5.066 0-9.212-4.145-9.212-9.212v-.092c0-5.066 4.145-9.212 9.212-9.212h26.35c5.066 0 9.211 4.145 9.211 9.211v.092c.001 5.068-4.144 9.213-9.211 9.213z" fill="#FFFFFF" data-color="1"></path>
        <path d="M158.089 109.516s-1.37-3.505-3.639-4.679c-2.269-1.174-3.37-1.943-7.53-1.943v-4.893s2.425.238 2.374-1.733c0 0 .04-1.965-2.374-1.644 0 0-2.716-1.611-3.561-2.188-.845-.577-2.904-2.52-2.904-2.52s-.679 2.947-.82 3.879c-.142.933-.539 3.02-.461 4.111.078 1.091.346 2.781 2.606 2.781l-.188 2.115s-1.963.171-2.968.589c-1.005.418-2.637 1.162-3.38 1.235 0 0-.817-.78-.788-2.204.029-1.423.863-2.678 1.791-3.284.928-.606 1.703-1.539 2.016-2.614.313-1.075.178-1.949.041-2.8-.137-.851-.365-2.236.071-3.687.437-1.451.765-2.433 1.943-2.9 1.179-.468 2.752-.914 4.605-.569 1.853.345 4.432.963 5.779 1.867 1.347.904 2.05 1.218 2.356 3.309 0 0-.008 1.482-.622 2.775s-.964 2.743-.836 3.623c.128.88.817 1.754 1.855 2.279s3.034 1.533 3.981 2.526c.947.993 1.593 2.005 1.734 3.349.143 1.347-.51 3.022-1.081 3.22z" fill="#FFA500" data-color="2"></path>
        <path d="M73.742 80.136s5.141 2.267 6.085 5.292c0 0-2.741 4.79-4.421 6.634-1.679 1.844-4.829 5.726-9.864 5.713-5.036-.013-7.639-3.343-7.928-3.77-.289-.427-1.775-2.563-1.298-6.328.477-3.766 1.731-6.952 2.912-9.415 1.182-2.463 3.332-7.047 5.481-8.817 2.148-1.769 5.044-4.292 10.002-4.448l3.871 4.826s-2.529.732-2.887 3.694c0 0-1.113.643-1.533 2.055-.419 1.413-.378 3.268-.378 3.268l-.042 1.296z" fill="#FFA500" data-color="2"></path>
        <path d="m86.118 65.178-.391 4.563h10.776c.001 0-4.036-4.067-10.385-4.563z" fill="#FFA500" data-color="2"></path>
        <path d="M79.34 52.213s2.788-1.826 2.982-4.127c0 0 1.162 1.422 2.293 1.778 1.131.356 2.836.362 2.836.362l-.102 1.737s1.117-2.242.557-3.859c-.56-1.617-2.274-2.511-3.236-2.705-.962-.195-2.368-.455-3.55.231l-.42.114s-2.626.029-3.314 1.337c-.688 1.308-1.04 1.981-1.056 2.952-.016.972.23 1.685.23 1.685s1.777-.992 2.78.495z" fill="#1A1A1A" data-color="3"></path>
        <path fill="#FFFFFF" d="m78.121 55.354-.197 1.168-.673-1.024.87-.144z" data-color="1"></path>
        <path fill="#FFFFFF" d="m104.976 146.919-2.904-.131-6.448 1.82 6.644 6.155 15.116-1.324-10.61-6.247-1.798-.273z" data-color="1"></path>
        <path fill="#1A1A1A" d="m100.399 145.711-2.236-5.607-1.507.615 1.533 3.794 2.21 1.198z" data-color="3"></path>
        <path fill="#FFFFFF" d="m98.163 140.104-.298-.738-1.507.549.298.804 1.507-.615z" data-color="1"></path>
        <path d="m151.452 117.992-7.767-7.761s-1.951-1.511-4.316-.192l-10.442 10.316s-1.783 2.135-.331 4.586l14.291 14.468s1.322 1.475 2.958 1.544c0 0 1.322.053 1.951-.421s2.69-2.372 2.69-2.372-6.404-3.985-8.056-5.961c-1.652-1.976-2.145-2.135-2.145-2.135l.617-1.561s1.559-2.708 2.142-3.515c.582-.806 2.612-2.941 2.612-2.941l6.64 4.696c1.007.712 1.668 1.249 1.668 1.249s-1.274-3.79-1.581-4.875c-.308-1.085-.931-5.125-.931-5.125z" fill="#FFFFFF" data-color="1"></path>
        <path d="M38.973 93.613s.991-.667 2.065-1.021c1.074-.354 1.959-.581 2.308-.892.349-.312.784-1.429.967-2.289.182-.86.848-1.841-1.242-3.062 0 0-.927-.456-2.704-.609-1.777-.153-2.584.168-3.679-.132-1.095-.3-1.937-.797-3.007-.785-1.069.012-2.184-.136-3.609 1.215-1.425 1.351-1.833 3.107-2.046 4.061-.213.954-.206 1.916-.561 3.199-.355 1.283-.736 2.509-1.877 3.059-1.141.55-2.062 1.685-2.625 2.912-.562 1.227-.801 3.241.113 4.859.914 1.618 3.603 2.927 5.578 3.324 1.975.397 4.651.291 5.964-.55 1.313-.841 3.094-1.269 3.722-2.778.628-1.509.609-3.011.609-3.011s-.033-1.558-.376-2.581c-.343-1.024-.752-1.513-.752-1.513s-1.933-.233-1.808-1.935c.125-1.703 1.755-1.841 2.027-1.786.27.055.933.315.933.315z" fill="#FFFFFF" data-color="1"></path>
        <path d="m44.182 89.967-.396 4.634s1.33 1.028 1.26 1.261c-.07.233-1.376 1.254-1.376 1.254s-.16 1.572-.301 2.031c-.14.46-.825 2.488-3.754 2.25l-.641 4.077-1.28-.29s.814-.879.976-1.843c.162-.964.361-1.896.228-3.051-.133-1.155-.633-2.823-1.004-3.175-.372-.352-.9-.036-1.486-.795s-.43-2.226.366-2.67c.795-.444 1.767-.423 2.201-.038 0 0 1.262-.82 2.354-1.086 1.09-.265 2.28-.363 2.853-2.559z" fill="#FFFFFF" data-color="1"></path>
        <path d="M63.244 115.944s5.497 1.529 5.864 8.259c0 0-4.748 3.504-11.213 5.244-6.465 1.739-8.988 1.041-8.988 1.041s1.001 5.393 1.394 8.543c.393 3.149.745 6.577.745 6.577H23.822s.021-11.759 0-15.897-.138-10.457-.138-10.457.3-6.872 1.366-9.342c1.066-2.469 1.409-3.092 1.409-3.092s2.547 1.26 5.161.775c2.614-.485 3.951-.764 5.919-2.479 0 0 1.604.051 2.938 1.779 1.335 1.728 2.701 3.846 3.845 7.048 1.143 3.202 3.323 5.78 6.23 6.12 2.906.34 6.147-.324 8.57-1.589s4.122-2.53 4.122-2.53z" fill="#1A1A1A" data-color="3"></path>
        <path d="M98.709 133.659s.47-4.594 1.949-5.383c1.479-.789 2.714-.98 2.714-.98s-1.456-1.906-.68-3.361c.776-1.455 2.391-1.518 4.154-1.307 1.762.211 3 .611 3.566 1.75.566 1.139-.948 3.722-.948 3.722s1.934.896 2.395 2.456c.461 1.56.231 3.057-.231 4.554-.461 1.497-.922 2.275-.943 2.276-.022.001-2.098-.969-1.952-3.456 0 0-2.559 1.434-4.615 1.202-2.056-.232-3.461-.324-3.461-.324s-.372-.995-1.948-1.149z" fill="#1A1A1A" data-color="3"></path>
        <path d="M100.636 135.58s.023-1.715-1.498-1.852c0 0-1.453.321-1.497 1.504-.045 1.184.291 2.037 1.917 2.084 0 0-.377 1.931.346 3.152s2.036 2.296 3.661 2.737c1.625.441 2.527-.01 3.374-.726.847-.715 2.405-2.597 3.065-3.703.661-1.107.682-1.393.682-1.393s-2.135-.89-1.952-3.456c0 0-1.457 1.197-4.159 1.086-2.702-.111-3.918-.208-3.918-.208l-.021.775z" fill="#FFFFFF" data-color="1"></path>
        <path d="m58.138 129.381 6.826-2.715s-1.038 2.201-2.36 2.475c-1.321.275-4.466.24-4.466.24z" fill="#FFA500" data-color="2"></path>
        <path d="M82.195 55.762s.766.52.809 1.057c.043.537-.064 1.057-.064 1.057s.789.246 1.523 0c.734-.246.503-.961.283-1.057s-.881.085-1.112-.068c-.231-.154-.451-.322-.451-.586 0-.264-.265-.811-.604-.812-.339.001-.384.409-.384.409z" fill="#FFFFFF" data-color="1"></path>
        <path d="M98.746 137.091s-.425 3.501 2.719 5.138c0 0-1.513-.723-1.828-3.021l-.08-1.893-.811-.224z" opacity=".8"></path>
        <path opacity=".8" d="m78.121 55.354-.197 1.168-.673-1.024.87-.144z"></path>
        <path d="M82.195 55.762s.766.52.809 1.057c.043.537-.064 1.057-.064 1.057s.789.246 1.523 0c.734-.246.503-.961.283-1.057s-.881.085-1.112-.068c-.231-.154-.451-.322-.451-.586 0-.264-.265-.811-.604-.812-.339.001-.384.409-.384.409z" opacity=".8"></path>
        <path d="M133.432 68.499c0 2.351-1.914 4.275-4.253 4.275H113.86c-2.339 0-4.253-1.924-4.253-4.275V61.24c0-2.351 1.914-4.275 4.253-4.275h15.319c2.339 0 4.253 1.924 4.253 4.275v7.259z" fill="#1A1A1A" data-color="3"></path>
        <path d="M124.408 67.137c.717-.421.717-1.111 0-1.532l-5.514-3.236c-.718-.421-1.305-.082-1.305.753v6.502c0 .835.587 1.174 1.304.752l5.515-3.239z" fill="#FFFFFF" data-color="1"></path>
        <path d="M99.093 111.826c-.264 1.906-1.778 3.314-3.994 3.719-.24.044-.476.101-.768.163v2.085h-1.893v-2.095c-2.726-.303-4.275-1.732-4.849-4.191l2.969-.72c.078.202.155.385.22.572.511 1.492 2.179 2.218 3.742 1.623.72-.274 1.056-.816 1.108-1.497.047-.621-.24-1.131-.863-1.396-.807-.342-1.64-.631-2.463-.941-.435-.164-.881-.305-1.305-.488-2.135-.919-3.076-2.458-2.808-4.57.261-2.057 1.558-3.328 3.854-3.779.093-.019.184-.049.332-.09v-1.603h1.871l.043 1.581s.415.046 1.49.424c1.529.538 2.387 1.605 2.875 3.084l-2.628 1.007c-.329-.487-.593-.977-.955-1.395-.568-.655-1.367-.824-2.214-.612-.663.166-1.094.602-1.206 1.258-.116.681.102 1.233.798 1.539.69.304 1.404.561 2.109.837.591.231 1.196.435 1.773.692 2.21.983 3.079 2.505 2.762 4.793z" fill="#FFA500" data-color="2"></path>
        <path fill="#FFA500" d="M111.53 119.923v-7.616h7.579v7.616h-7.579z" data-color="2"></path>
        <path fill="#1A1A1A" d="m81.652 69.879 2.408-.138-1.365-2.241-1.043 2.379z" data-color="3"></path>
        <path d="M56.514 91.519c.356 1.399.931 2.236 1.1 2.485.264.391 2.467 3.209 6.695 3.697 1.036-1.641-.03-4.188-2.383-5.69-1.923-1.229-4.111-1.376-5.412-.492z" fill="#1A1A1A" data-color="3"></path>
        <path d="M117.864 83.393s-.443 2.512 1.423 3.712l.592-.684c.001 0-1.884-1.362-2.015-3.028z" opacity=".5"></path>
        <path d="M149.523 139.036c.529-.477.963-.877.963-.877s-6.404-3.985-8.056-5.961c-1.532-1.833-2.066-2.101-2.136-2.131-.008-.003 4.914 6.573 9.229 8.969z" opacity=".5"></path>
        <path fill="#FFA500" d="M133.863 89.85v3.95h-3.93v-3.95h3.93z" data-color="2"></path>
        <path d="M85.938 45.898c.006.013 1.604 3.385.627 4.289.511.038.885.039.885.039l-.102 1.737s1.117-2.242.557-3.859c-.354-1.023-1.171-1.756-1.967-2.206z" fill="#FFFFFF" data-color="1"></path>
        <path d="M82.245 47.848s-1.621 3.521-3.446 3.879l.541.485c0 .001 2.512-1.117 2.905-4.364z" fill="#FFFFFF" data-color="1"></path>
        <path d="M110.329 128.689s1.479 2.198.582 4.728c-.897 2.53-1.597 2.747-1.597 2.747s.271.886 1.429 1.101c0 0 1.174-2.094 1.3-4.038.127-1.945.127-3.447-1.714-4.538z" fill="#FFFFFF" data-color="1"></path>
        <path d="M106.71 122.577s2.871.607 2.817 2.507c-.037 1.297-.755 2.751-.755 2.751l.694.264s1.012-1.655 1.08-2.873c.066-1.218-.344-1.946-3.836-2.649z" fill="#FFFFFF" data-color="1"></path>
        <path d="M159.172 106.299c-.141-1.344-.787-2.356-1.735-3.349-.947-.993-2.944-2.001-3.981-2.526-1.037-.525-1.727-1.399-1.855-2.279-.128-.88.222-2.33.836-3.623.614-1.293.622-2.775.622-2.775-.306-2.091-1.009-2.405-2.356-3.309a5.696 5.696 0 0 0-.663-.376c.065.048 3.336 2.272 1.417 5.665-1.64 2.899-1.794 5.899 0 7.259 1.748 1.325 3.549 3.008 3.35 4.059 2.056 1.331 3.283 4.471 3.283 4.471.57-.198 1.223-1.873 1.082-3.217z" fill="#FFFFFF" data-color="1"></path>
        <path d="M165.305 132.617s-3.764-1.826-6.722 1.289c-2.958 3.115-1.432 6.451-1.432 6.451s3.7.714 6.152-2.482c2.366-3.083 2.002-5.258 2.002-5.258z" fill="#FFA500" data-color="2"></path>
        <path d="M96.598 69.99a.165.165 0 0 1-.109-.041c-3.838-3.317-6.98-4.048-10.398-4.606a.168.168 0 0 1-.137-.192c.014-.09.095-.148.19-.139 3.469.566 6.658 1.31 10.562 4.683.069.06.077.165.017.235a.159.159 0 0 1-.125.06z"></path>
        <path d="M65.392 97.941c-.266 0-.534-.011-.806-.033-3.83-.306-8.097-3-8.462-7.389-.374-4.488 1.382-8.947 2.954-12.33 1.623-3.492 3.428-7.092 6.056-9.363 3.581-3.095 5.88-3.44 8.542-3.839.328-.049.664-.1 1.01-.157a.165.165 0 0 1 .19.139.168.168 0 0 1-.137.192c-.348.057-.685.107-1.014.157-2.719.407-4.866.729-8.374 3.761-2.578 2.228-4.363 5.792-5.972 9.252-1.554 3.345-3.291 7.751-2.924 12.159.35 4.206 4.465 6.79 8.158 7.086 6.771.551 11.419-5.876 15.066-12.248-.087-.278-.619-1.61-3.235-3.484-2.61-1.872-3.914-1.848-4.152-1.817-.436.439-4.536 4.584-9.436 10.241a.168.168 0 0 1-.234.016.167.167 0 0 1-.016-.235c5.168-5.965 9.448-10.254 9.491-10.297a.152.152 0 0 1 .077-.043c.057-.016 1.42-.322 4.464 1.863 3.069 2.2 3.372 3.687 3.383 3.75a.164.164 0 0 1-.019.113c-2.349 4.107-7.148 12.505-14.61 12.506z"></path>
        <path d="M73.083 145.817H20.166a.167.167 0 0 1-.166-.168c0-.093.074-.167.166-.167h52.917a.167.167 0 0 1 0 .335z"></path>
        <path d="M179.833 145.817h-47.308a.168.168 0 0 1 0-.335h47.308a.167.167 0 0 1 0 .335z"></path>
        <path d="m105.892 145.878-4.338-.104a.166.166 0 0 1-.162-.17.166.166 0 0 1 .166-.164l4.337.104a.165.165 0 0 1 .162.17.164.164 0 0 1-.165.164z"></path>
        <path d="M83.713 58.266c-.4 0-.795-.13-1.134-.381-.465-.345-.745-.928-.75-1.559-.004-.424.122-.775.335-.937.2-.153.427-.193.644-.108.267.105.472.387.534.735.079.445.12.475.21.541.092.067.132.098.578.043.35-.052.678.069.856.294.143.182.174.412.088.651-.099.272-.412.517-.818.64a1.91 1.91 0 0 1-.543.081zm-1.132-2.696a.356.356 0 0 0-.216.083c-.104.08-.207.317-.204.67.004.526.234 1.01.614 1.293.578.426 1.16.316 1.384.248.342-.104.552-.299.602-.435.047-.129.035-.239-.036-.328-.105-.134-.322-.195-.555-.172-.529.067-.643.023-.816-.105-.183-.135-.251-.251-.34-.752-.041-.23-.17-.419-.327-.481a.303.303 0 0 0-.106-.021z"></path>
        <path d="M82.874 58.044a.168.168 0 0 1-.145-.25c.615-1.106-.662-1.857-.717-1.888a.168.168 0 0 1 .165-.291c.563.322 1.464 1.224.843 2.342a.168.168 0 0 1-.146.087z"></path>
        <path d="M160.229 145.857a.167.167 0 0 1-.165-.176l.01-.219c.097-2.018.097-2.018 0-5.071l-.01-.332a.164.164 0 0 1 .161-.171.165.165 0 0 1 .17.161l.011.331c.098 3.066.098 3.066 0 5.098l-.011.22a.166.166 0 0 1-.166.159z"></path>
        <path d="M154.182 128.439a.167.167 0 0 1-.149-.093c-2.76-5.511-3.112-14.34-3.115-14.429a.164.164 0 0 1 .159-.172c.088.006.169.067.171.16.004.088.354 8.846 3.081 14.292a.168.168 0 0 1-.147.242z"></path>
        <path d="M67.665 84.811a.166.166 0 0 1-.094-.03.166.166 0 0 1-.043-.231c3.028-4.439 4.305-10.999 4.318-11.064a.166.166 0 0 1 .194-.132c.09.017.149.105.132.195-.013.066-1.302 6.694-4.37 11.189a.169.169 0 0 1-.137.073z"></path>
        <path d="M80.818 80.665a.167.167 0 0 1-.121-.282c.1-.107.342-.301.676-.571 1.054-.851 3.015-2.435 3.243-3.463.119-.537.031-.908-.255-1.074-.27-.155-.667-.09-.842.074a.166.166 0 0 1-.235-.01.168.168 0 0 1 .01-.236c.266-.246.815-.36 1.233-.118.242.141.618.513.414 1.436-.253 1.142-2.197 2.712-3.359 3.651-.311.252-.557.449-.641.54a.174.174 0 0 1-.123.053z"></path>
        <path d="M79.164 84.275a.167.167 0 0 1-.107-.295c.852-.721 2.172-1.833 3.787-3.162 1.12-.923 1.738-1.833 1.789-2.634.04-.624-.273-.964-.287-.978a.168.168 0 0 1 .005-.236.165.165 0 0 1 .234.005c.017.018.424.448.379 1.218-.051.912-.695 1.882-1.91 2.883a397.35 397.35 0 0 0-3.785 3.159.162.162 0 0 1-.105.04z"></path>
        <path d="M73.742 80.303c-.126-.025-.182-.114-.162-.204.09-.406.098-.78.03-1.48-.373-3.866 1.912-5.088 2.01-5.137a.167.167 0 0 1 .152.296c-.089.047-2.181 1.18-1.831 4.81.071.739.062 1.139-.037 1.583a.166.166 0 0 1-.162.132z"></path>
        <path d="M79.512 79.529a.163.163 0 0 1-.138-.076.167.167 0 0 1 .047-.231c2.191-1.449 3.844-3.351 3.929-4.519.025-.342-.076-.61-.31-.821-.121-.107-.313-.234-.562-.192-.308.048-.589.282-.851.517-.264.236-.516.499-.759.753-.104.108-.208.217-.314.323a27.669 27.669 0 0 1-1.713 1.571c-.14.12-.279.248-.419.377-.354.326-.719.663-1.133.904-.235.135-.445.199-.628.186-.471-.019-.746-.108-.921-.301-.209-.228-.224-.56-.209-.884.004-.093.061-.167.174-.159a.166.166 0 0 1 .158.174c-.016.341.021.534.122.645.107.117.327.178.691.194a.935.935 0 0 0 .448-.142c.382-.222.734-.546 1.074-.86.143-.131.285-.263.428-.384a27.138 27.138 0 0 0 1.693-1.552c.104-.106.207-.213.31-.322.248-.258.504-.525.777-.77.299-.267.624-.535 1.022-.598.294-.042.583.048.834.273.312.28.453.647.421 1.093-.11 1.499-2.19 3.525-4.078 4.775a.198.198 0 0 1-.093.026z"></path>
        <path d="M83.936 60.028c-.62 0-1.357-.095-2.229-.288a6.812 6.812 0 0 1-1.562-.529.167.167 0 0 1-.076-.223.164.164 0 0 1 .222-.076c.432.212.918.377 1.487.502 1.837.405 3.025.375 3.742-.09.433-.28.711-.737.852-1.398.088-.41.26-1.439.392-2.343.1-.688.516-5.327.52-5.372.008-.092.076-.153.18-.152a.166.166 0 0 1 .15.181c-.017.192-.421 4.695-.523 5.392a50.469 50.469 0 0 1-.396 2.365c-.16.752-.486 1.278-.997 1.608-.434.282-1.012.423-1.762.423z"></path>
        <path d="M77.288 62.489c-.112-.013-.176-.098-.165-.189l.902-6.984c.011-.092.098-.16.186-.143.09.011.155.095.143.187l-.902 6.985a.165.165 0 0 1-.164.144z"></path>
        <path d="M77.706 55.567a2.158 2.158 0 0 1-1.559-.669 2.193 2.193 0 0 1 .052-3.086 2.168 2.168 0 0 1 3.614 1.034.166.166 0 0 1-.121.202.162.162 0 0 1-.202-.121 1.834 1.834 0 0 0-3.06-.874 1.856 1.856 0 0 0-.044 2.613c.598.62 1.53.747 2.266.301a.166.166 0 0 1 .228.058.168.168 0 0 1-.057.229c-.349.21-.734.313-1.117.313z"></path>
        <path d="M82.753 52.269c.134-.001.214.069.18.549-.038.536-.189.608-.306.585-.117-.023-.211-.204-.148-.581.062-.377.098-.552.274-.553z"></path>
        <path d="M86.519 52.644c.134-.001.213.069.179.55-.038.536-.189.608-.306.585-.117-.023-.211-.204-.148-.581.062-.378.099-.553.275-.554z"></path>
        <path d="M87.356 52.064a.166.166 0 0 1-.162-.134c-.016-.075-.173-.682-1.03-.526-.084.025-.176-.042-.194-.133a.166.166 0 0 1 .132-.195c1.189-.228 1.414.777 1.416.788a.166.166 0 0 1-.162.2z"></path>
        <path d="M81.805 51.557a.167.167 0 0 1-.11-.293c1.171-1.036 2.078-.205 2.087-.198.067.063.07.169.007.236a.166.166 0 0 1-.234.007c-.029-.027-.702-.627-1.64.205a.165.165 0 0 1-.11.043z"></path>
        <path d="M83.892 62.565a.17.17 0 0 1-.166-.177l.145-2.536a.166.166 0 1 1 .332.019l-.145 2.536a.167.167 0 0 1-.166.158z"></path>
        <path d="M79.34 52.38a.167.167 0 0 1-.076-.315c2.472-1.283 2.909-4.084 2.913-4.112a.167.167 0 0 1 .309-.059c.06.105 1.515 2.567 4.945 2.166.1.006.174.055.184.147a.168.168 0 0 1-.146.186c-2.892.328-4.487-1.287-5.044-2.005-.213.852-.926 2.892-3.009 3.974a.17.17 0 0 1-.076.018z"></path>
        <path d="M76.958 54.517a.168.168 0 0 1-.157-.111.166.166 0 0 1 .1-.213l1.421-.513-1.101-1.427a.168.168 0 0 1 .029-.234.163.163 0 0 1 .233.029l1.241 1.608a.166.166 0 0 1-.075.259l-1.636.59a.122.122 0 0 1-.055.012z"></path>
        <path d="M81.796 47.043a.165.165 0 0 1-.14-.078l-.693-1.104a.167.167 0 0 1 .281-.178l.693 1.104a.167.167 0 0 1-.141.256z"></path>
        <path d="M133.23 145.817a.168.168 0 0 1-.165-.175c.002-.074.303-7.405-.012-15.874a.164.164 0 0 1 .159-.172.161.161 0 0 1 .171.16c.318 8.482.016 15.827.012 15.9a.166.166 0 0 1-.165.161z"></path>
        <path d="M132.968 116.404c-.111-.013-.176-.096-.165-.188.36-2.976 1.023-5.316 1.517-6.754a.165.165 0 0 1 .211-.104c.086.03.133.125.103.212-.488 1.424-1.145 3.74-1.5 6.687a.168.168 0 0 1-.166.147z"></path>
        <path d="M142.717 100.862c-.342 0-.671-.009-.927-.019-.596-.025-1.054-.121-1.441-.3-.667-.311-1.071-.887-1.237-1.761-.253-1.323-.059-2.67.128-3.971l.026-.186c.121-.851.953-4.727.987-4.818a.162.162 0 0 1 .212-.1.167.167 0 0 1 .1.213c-.028.118-.839 3.84-.97 4.753l-.026.184c-.184 1.275-.373 2.593-.131 3.862.145.761.489 1.259 1.05 1.52.346.16.765.247 1.316.271.551.023 1.358.029 1.922-.012.091-.001.171.063.177.154a.165.165 0 0 1-.153.178 14.65 14.65 0 0 1-1.033.032z"></path>
        <path d="M146.979 94.793a.17.17 0 0 1-.078-.02c-5.577-2.992-6.854-5.104-6.906-5.193a.166.166 0 0 1 .286-.169c.013.02 1.302 2.131 6.776 5.068a.166.166 0 0 1 .068.225.167.167 0 0 1-.146.089z"></path>
        <path d="M144.037 93.738c-.129-.038-.224.007-.323.479-.11.525.015.637.134.647.119.01.259-.138.302-.518.043-.38.056-.558-.113-.608z"></path>
        <path d="M140.54 93.176c-.128-.042-.224 0-.339.467-.128.522-.006.637.112.652.119.015.263-.129.319-.507.056-.379.075-.556-.092-.612z"></path>
        <path d="M139.968 92.16a.168.168 0 0 1-.091-.307c.228-.151.609-.323 1.289-.048a.166.166 0 0 1 .091.217.163.163 0 0 1-.216.092c-.524-.212-.789-.11-.982.019a.167.167 0 0 1-.091.027z"></path>
        <path d="M147.567 98.169a1.89 1.89 0 0 1-1.084-.34.168.168 0 0 1-.042-.233.166.166 0 0 1 .231-.042c.231.163.505.258.79.277.413.031.819-.111 1.133-.388.314-.277.502-.66.53-1.08a1.562 1.562 0 0 0-.386-1.139 1.55 1.55 0 0 0-1.074-.532 1.532 1.532 0 0 0-.89.211.172.172 0 0 1-.228-.06.169.169 0 0 1 .06-.229c.326-.19.688-.277 1.079-.254a1.9 1.9 0 0 1 1.769 2.026c-.032.509-.26.974-.641 1.31a1.876 1.876 0 0 1-1.247.473z"></path>
        <path d="M147.829 97.353a.167.167 0 0 1-.117-.049l-1.043-1.048a.167.167 0 0 1 .036-.264l1.401-.787a.166.166 0 0 1 .227.064.17.17 0 0 1-.063.228l-1.211.68.888.892a.167.167 0 0 1 0 .236.174.174 0 0 1-.118.048z"></path>
        <path d="M37.864 97.185a2.027 2.027 0 1 1 .213-4.043c.402.043.777.205 1.084.465.07.06.078.165.02.235a.164.164 0 0 1-.234.02 1.686 1.686 0 0 0-2.761 1.114 1.689 1.689 0 0 0 2.384 1.717.163.163 0 0 1 .221.08.167.167 0 0 1-.08.222 1.95 1.95 0 0 1-.847.19z"></path>
        <path d="M37.413 96.251a.167.167 0 0 1-.095-.304l1.111-.787-1.163-.947a.168.168 0 0 1-.025-.235.164.164 0 0 1 .233-.025l1.334 1.087a.166.166 0 0 1-.009.266l-1.291.913a.16.16 0 0 1-.095.032z"></path>
        <path d="M142.228 107.517c-.175 0-.352-.017-.535-.052a.93.93 0 0 1-.653-.476c-.633-1.114.287-3.837.388-4.13l.163-2.182c.006-.092.097-.152.178-.154a.165.165 0 0 1 .153.178l-.164 2.205c-.019.072-1.009 2.896-.429 3.917a.6.6 0 0 0 .427.314c2.883.548 4.878-4.268 4.899-4.317a.166.166 0 0 1 .217-.09.168.168 0 0 1 .09.218c-.081.197-1.899 4.569-4.734 4.569z"></path>
        <path d="M142.288 98.166c-.205 0-.427-.049-.663-.148a.168.168 0 0 1-.09-.218.166.166 0 0 1 .217-.09c.357.151.662.164.906.036.41-.211.538-.749.539-.755a.172.172 0 0 1 .199-.125c.089.02.145.11.125.2-.006.028-.162.693-.71.977-.16.082-.334.123-.523.123z"></path>
        <path d="M99.185 137.432c-.255 0-.517-.066-.757-.194-.857-.457-1.219-1.595-.807-2.537.209-.478.579-.83 1.041-.992a1.596 1.596 0 0 1 1.292.104c.342.182 1.027.9.837 1.845a.17.17 0 0 1-.196.131.167.167 0 0 1-.13-.196c.157-.778-.434-1.361-.667-1.486a1.278 1.278 0 0 0-1.028-.082c-.373.13-.674.418-.845.811-.343.786-.048 1.731.658 2.108.228.122.486.175.734.147.074 0 .243-.01.345-.055a.162.162 0 0 1 .219.083.167.167 0 0 1-.084.22 1.265 1.265 0 0 1-.464.086 1.439 1.439 0 0 1-.148.007z"></path>
        <path d="M110.542 137.432a.17.17 0 0 1-.065-.014c-1.561-.666-1.841-2.539-1.892-3.249-3.6 1.872-8.029.784-8.076.772a.167.167 0 0 1 .081-.323c.044.011 4.544 1.114 8.068-.869a.162.162 0 0 1 .165.002c.052.03.083.085.083.145-.001.025.001 2.49 1.699 3.216a.166.166 0 0 1 .088.218.162.162 0 0 1-.151.102z"></path>
        <path d="M82.985 150.886c-4.187.001-8.154-.418-9.331-1.936-.703-.907-.91-2.128-.597-3.527.706-3.154 3.85-6.484 8.206-8.693 8.018-4.061 17.351-4.102 17.479-4.102a.169.169 0 0 1 .167.168.166.166 0 0 1-.166.167c-.123 0-9.382.04-17.33 4.066-5.104 2.586-7.495 6.07-8.031 8.468-.291 1.299-.105 2.422.535 3.248 2.064 2.664 14.08 1.687 18.605 1.32.465-.037.866-.07 1.19-.094.09.007.172.063.178.154a.166.166 0 0 1-.153.178c-.323.024-.724.057-1.187.094-2.298.187-6.011.489-9.565.489z"></path>
        <path d="M117.435 151.026c-.918 0-1.762-.014-2.484-.043a.165.165 0 0 1-.159-.172.166.166 0 0 1 .165-.161c4.679.178 14.444-.178 16.469-1.507.759-.498 1.143-1.313 1.109-2.359-.078-2.425-2.419-6.158-7.478-9.027-4.769-2.706-12.752-3.883-13.09-3.933a.167.167 0 0 1-.14-.189c.013-.09.082-.155.188-.141.339.049 8.383 1.235 13.206 3.971 5.171 2.934 7.566 6.788 7.646 9.307.037 1.169-.398 2.086-1.259 2.649-1.764 1.157-9.106 1.605-14.173 1.605z"></path>
        <path d="M104.574 143.529a3.47 3.47 0 0 1-.911-.123c-5.382-1.458-4.278-6.083-4.267-6.13a.164.164 0 0 1 .202-.12.166.166 0 0 1 .12.202c-.045.177-1.03 4.356 4.031 5.725 4.398 1.201 7.676-7.819 7.71-7.911.016-.046 1.609-4.583-1.198-6.39-2.855-1.839-7.151-1.775-9.224-.566-2.002 1.165-2.141 5.53-2.142 5.575a.167.167 0 0 1-.166.163.17.17 0 0 1-.166-.172c.005-.187.147-4.596 2.308-5.854 2.156-1.254 6.615-1.327 9.57.573 3.03 1.952 1.348 6.738 1.33 6.786-.128.357-2.989 8.242-7.197 8.242z"></path>
        <path d="M109.441 128.306a.157.157 0 0 1-.089-.027.167.167 0 0 1-.052-.23c1.032-1.642 1.325-2.918.868-3.792-.492-.94-1.864-1.462-4.083-1.552-1.654-.057-2.733.29-3.185 1.058-.771 1.311.49 3.442.504 3.463a.169.169 0 0 1-.056.23.167.167 0 0 1-.229-.057c-.056-.094-1.376-2.322-.504-3.806.519-.882 1.683-1.306 3.486-1.221 2.345.094 3.812.676 4.363 1.729.517.988.219 2.376-.881 4.125a.168.168 0 0 1-.142.08z"></path>
        <path d="M104.678 136.959c-.223.105-.448.645-.396.907.052.262.106.379.373.096.265-.284.65-1.3.023-1.003z"></path>
        <path d="M108.43 138.096c-.223.105-.448.645-.396.907.052.262.106.379.373.096.265-.284.65-1.299.023-1.003z"></path>
        <path d="M106.413 141.378a.166.166 0 0 1-.164-.143.166.166 0 0 1 .14-.189c.248-.036.972-.594 1.031-.888a5.757 5.757 0 0 0-.788-.463.166.166 0 0 1-.086-.208l.924-2.563a.162.162 0 0 1 .212-.1.167.167 0 0 1 .1.213l-.873 2.421c.145.074.391.201.669.371.14.084.201.229.168.395-.091.447-.944 1.099-1.309 1.152l-.024.002z"></path>
        <path d="M106.167 137.011c-.052-.009-2.134-.688-2.134-.688a.169.169 0 0 1-.107-.211.17.17 0 0 1 .21-.107l2.082.679a.168.168 0 0 1-.051.327z"></path>
        <path d="M109.959 138.355c-.053-.01-1.822-.6-1.822-.6a.166.166 0 0 1-.104-.211.16.16 0 0 1 .21-.105l1.77.59a.166.166 0 0 1 .104.211.166.166 0 0 1-.158.115z"></path>
        <path d="M103.564 140.92a.168.168 0 0 1-.109-.041c-.102-.089-.544-.257-.824-.347a.167.167 0 0 1 .101-.318c.124.04.751.247.942.412a.169.169 0 0 1 .017.236.17.17 0 0 1-.127.058z"></path>
        <path d="M98.447 136.201a.168.168 0 0 1-.027-.333l1.032-.169-.564-1.199a.167.167 0 1 1 .301-.142l.657 1.399a.161.161 0 0 1-.003.148.167.167 0 0 1-.12.088l-1.25.205a.122.122 0 0 1-.026.003z"></path>
        <path d="M108.951 132.902c-.109-.012-.175-.094-.165-.186.057-.524.164-3.168.165-3.195.004-.092.095-.16.173-.159a.166.166 0 0 1 .158.173c-.004.108-.107 2.681-.165 3.217a.168.168 0 0 1-.166.15z"></path>
        <path d="M100.399 145.805a.167.167 0 0 1-.154-.105l-2.173-5.378-1.199.489 1.47 3.64a.167.167 0 0 1-.092.217.164.164 0 0 1-.216-.092l-1.533-3.794a.167.167 0 0 1 .092-.217l1.507-.616a.165.165 0 0 1 .127 0c.04.018.072.051.089.092l2.236 5.534a.167.167 0 0 1-.154.23z"></path>
        <path d="M96.656 140.888a.167.167 0 0 1-.154-.105l-.299-.739a.167.167 0 0 1 .092-.217l1.508-.616a.165.165 0 0 1 .127 0 .17.17 0 0 1 .089.092l.299.739a.167.167 0 0 1-.092.217.165.165 0 0 1-.216-.092l-.236-.584-1.2.49.236.584a.167.167 0 0 1-.092.217.151.151 0 0 1-.062.014z"></path>
        <path d="M101.413 150.487a.168.168 0 0 1-.114-.046l-1.425-1.355a.167.167 0 0 1-.007-.236.165.165 0 0 1 .234-.007l1.161 1.104.075-1.799c.004-.092.077-.152.173-.159a.167.167 0 0 1 .159.174l-.091 2.165a.165.165 0 0 1-.165.159z"></path>
        <path d="M108.492 152.289a1.09 1.09 0 0 1-.474-.112 1.15 1.15 0 0 1-.496-.427 1.134 1.134 0 0 1-.15-.663c.017-.277.111-.535.206-.775.101-.257.219-.525.384-.872.354-.737.76-1.492 1.207-2.241a.167.167 0 0 1 .228-.058.169.169 0 0 1 .058.229 27.872 27.872 0 0 0-1.193 2.215c-.161.339-.276.601-.374.851-.089.224-.17.445-.185.672a.807.807 0 0 0 .102.466c.073.12.193.222.358.301.329.162.68.071.962-.243.162-.181.288-.408.41-.628l.115-.205c.185-.318.357-.642.529-.967l.206-.393c.235-.452.478-.92.796-1.33a.166.166 0 0 1 .233-.029.168.168 0 0 1 .029.234c-.298.387-.535.841-.762 1.28l-.207.396c-.175.328-.349.657-.535.978l-.113.199c-.132.236-.267.48-.453.688-.254.286-.565.434-.881.434z"></path>
        <path d="M105.726 151.752a.99.99 0 0 1-.303-.048c-.385-.129-.651-.478-.685-.742-.161-1.235 2.246-3.976 2.52-4.284a.163.163 0 0 1 .234-.013.167.167 0 0 1 .013.235c-.718.807-2.557 3.101-2.438 4.019.016.118.183.376.461.469.285.095.597-.02.898-.331 1.19-1.23 2.727-3.829 2.743-3.855a.168.168 0 0 1 .228-.058.169.169 0 0 1 .058.229c-.064.107-1.572 2.659-2.791 3.918-.354.364-.686.461-.938.461z"></path>
        <path d="M104.134 150.388c-.261 0-.502-.1-.718-.296-.752-.685.809-2.468.989-2.669.556-.8 1.993-2.715 3.048-2.87 1.551-.236 8.137.667 8.416.706a.164.164 0 0 1 .141.188c-.012.09-.079.158-.187.142-.067-.01-6.813-.925-8.323-.706-.643.095-1.704 1.122-2.837 2.747-.514.577-1.423 1.851-1.025 2.213a.75.75 0 0 0 .566.207c.576-.057 1.101-.755 1.105-.763a.166.166 0 0 1 .233-.034.168.168 0 0 1 .034.234c-.025.034-.62.824-1.339.894a.922.922 0 0 1-.103.007z"></path>
        <path d="M114.524 150.026c-2.29 0-3.501-1.184-3.559-1.243a.167.167 0 0 1 .235-.236c.014.016 1.638 1.584 4.612 1.022.097-.024.177.043.194.133a.166.166 0 0 1-.132.195 7.306 7.306 0 0 1-1.35.129z"></path>
        <path d="M102.343 155a.167.167 0 0 1-.111-.043l-6.719-6.119a.167.167 0 0 1-.011-.236.165.165 0 0 1 .234-.012l6.665 6.071 14.512-1.294-6.457-3.613a.168.168 0 0 1-.065-.227.162.162 0 0 1 .225-.065l6.929 3.877a.166.166 0 0 1 .082.181.164.164 0 0 1-.147.131l-15.122 1.348-.015.001z"></path>
        <path d="M87.325 52.332a.167.167 0 0 1-.148-.243c.758-1.502 1.623-4.266-1.098-5.883-2.892-1.718-4.998-.375-5.085-.317-.029.019-.074.023-.098.028-1.459-.065-2.57.334-3.301 1.171-1.417 1.624-.959 4.398-.954 4.425a.168.168 0 0 1-.135.194.167.167 0 0 1-.192-.136c-.02-.12-.488-2.961 1.032-4.704.791-.907 1.969-1.344 3.511-1.286.351-.213 2.516-1.37 5.39.337 3.064 1.821 1.877 5.027 1.225 6.322a.163.163 0 0 1-.147.092z"></path>
        <path d="M82.645 67.585a.168.168 0 0 1-.114-.046l-5.357-5.097a.168.168 0 0 1-.007-.236.165.165 0 0 1 .234-.007l5.149 4.9 1.174-4.818a.173.173 0 0 1 .201-.123.169.169 0 0 1 .122.202l-1.242 5.097a.163.163 0 0 1-.114.12.12.12 0 0 1-.046.008z"></path>
        <path d="M81.796 69.99c-.142-.041-.187-.136-.157-.223l.849-2.405a.167.167 0 0 1 .212-.102.168.168 0 0 1 .101.213l-.849 2.405a.164.164 0 0 1-.156.112z"></path>
        <path d="M78.583 69.99a.167.167 0 0 1-.13-.063L74.582 65.1a.167.167 0 0 1 .01-.22l2.576-2.675a.167.167 0 0 1 .235-.005c.066.065.067.17.004.236l-2.474 2.569 3.779 4.712a.168.168 0 0 1-.129.273z"></path>
        <path d="M84.109 69.99a.167.167 0 0 1-.142-.081l-1.464-2.405a.167.167 0 0 1 .055-.229.165.165 0 0 1 .228.055l1.464 2.405a.167.167 0 0 1-.055.229.15.15 0 0 1-.086.026z"></path>
        <path d="M85.72 69.99c-.106-.01-.173-.09-.165-.182l.393-4.578-2.191-2.805a.169.169 0 0 1 .028-.235.164.164 0 0 1 .233.028l2.232 2.857a.174.174 0 0 1 .035.118l-.398 4.645a.169.169 0 0 1-.167.152z"></path>
        <path d="M78.016 56.789a.165.165 0 0 1-.117-.049c-.502-.507-.857-1.289-.872-1.322a.167.167 0 0 1 .083-.22.162.162 0 0 1 .219.083c.004.007.345.759.804 1.223a.166.166 0 0 1-.001.236.161.161 0 0 1-.116.049z"></path>
        <path d="M85.261 56.275a.166.166 0 0 1-.161-.128.167.167 0 0 1 .122-.202l.187-.041c.133-.029.258-.055.375-.101.169-.067.292-.176.336-.296a.426.426 0 0 0-.025-.319c-.098-.207-.3-.308-.452-.358a7.546 7.546 0 0 0-.37-.081.165.165 0 0 1-.163-.175l.094-2.342c.004-.092.084-.154.173-.159a.166.166 0 0 1 .159.173l-.088 2.189c.119.022.241.058.296.076.303.098.534.287.65.531a.756.756 0 0 1 .037.577c-.077.213-.263.389-.525.494-.143.056-.288.087-.428.117a3.752 3.752 0 0 0-.177.04.19.19 0 0 1-.04.005z"></path>
        <path d="M120.965 142.97c-2.967 0-6.639-.224-6.874-.239a.165.165 0 0 1-.155-.177c.005-.092.073-.163.176-.155.086.005 8.746.535 10.265-.002a.167.167 0 0 1 .11.315c-.55.194-1.936.258-3.522.258z"></path>
        <path d="M100.92 148.241c-.755 0-2.122-.345-4.287-2.035a.166.166 0 1 1 .204-.263c2.555 1.994 3.916 2.018 4.383 1.94.275-.048.479-.166.589-.34.34-.537-.42-1.16-.541-1.254-.314-.125-3.372-1.358-4.224-2.464a.169.169 0 0 1 .029-.235.17.17 0 0 1 .233.03c.824 1.07 4.071 2.353 4.104 2.366.086.055 1.211.895.679 1.735-.163.257-.444.425-.813.49a1.98 1.98 0 0 1-.356.03z"></path>
        <path d="M99.708 149.126c-1.801 0-4.035-1.351-4.143-1.417a.168.168 0 0 1-.056-.229.164.164 0 0 1 .228-.055c.03.018 2.939 1.776 4.656 1.28.443-.129.758-.393.962-.805a.168.168 0 0 1 .222-.075.167.167 0 0 1 .075.224 1.823 1.823 0 0 1-1.167.976 2.773 2.773 0 0 1-.777.101z"></path>
        <path d="M101.543 146.475a.168.168 0 0 1-.164-.141c-.003-.016-.276-1.663-.743-2.439-.456-.76-1.569-1.258-1.58-1.263a.167.167 0 0 1-.085-.22.164.164 0 0 1 .219-.085c.05.022 1.222.547 1.731 1.395.499.831.775 2.488.786 2.559a.166.166 0 0 1-.137.191l-.027.003z"></path>
        <path d="M92.882 142.905a.167.167 0 0 1-.01-.334c.004 0 .402-.031 1.202-.363 1.497-.618 3.107-.288 3.174-.275.09.019.147.108.128.199a.164.164 0 0 1-.197.129c-.014-.004-1.579-.323-2.98.256-.86.355-1.289.386-1.307.387-.004-.001-.007.001-.01.001z"></path>
        <path d="M98.294 149.442c-1.183 0-2.576-.519-3.148-.733-.089-.033-.156-.058-.197-.071a21.606 21.606 0 0 0-1.067-.307.167.167 0 0 1 .084-.323c.027.007.67.176 1.086.312.044.014.116.041.209.076 2.084.776 3.485.919 4.163.425a.165.165 0 0 1 .232.037.167.167 0 0 1-.036.233c-.35.256-.819.351-1.326.351z"></path>
        <path d="M80.235 142.954a.167.167 0 0 1-.166-.158.167.167 0 0 1 .156-.176c8.884-.535 12.019-.875 12.049-.878.093-.001.173.057.183.148a.167.167 0 0 1-.147.184c-.031.004-3.17.343-12.065.878a.036.036 0 0 1-.01.002z"></path>
        <path d="M93.724 150.305c-.111-.013-.176-.096-.165-.188.756-6.088-1.356-8.065-1.377-8.084a.167.167 0 0 1-.013-.235.163.163 0 0 1 .234-.013c.092.083 2.262 2.115 1.485 8.374a.166.166 0 0 1-.164.146z"></path>
        <path d="M114.888 150.988c-.438 0-.882-.376-1.263-1.069a.168.168 0 0 1 .065-.227.163.163 0 0 1 .225.065c.333.605.701.936 1.023.893.337-.04.634-.481.815-1.212.198-.795.236-1.829.109-2.911-.271-2.308-1.137-3.798-1.801-3.798-.534.06-.924.954-1.024 2.229a.171.171 0 0 1-.179.153.167.167 0 0 1-.152-.18c.117-1.505.591-2.451 1.265-2.531.964-.093 1.939 1.682 2.221 4.088.131 1.122.09 2.198-.117 3.03-.22.885-.61 1.406-1.099 1.464-.03.003-.058.006-.088.006z"></path>
        <path d="m104.861 147.119-2.793-.066a.164.164 0 0 1-.162-.17.166.166 0 0 1 .166-.164l2.793.066a.165.165 0 0 1 .162.17.166.166 0 0 1-.166.164z"></path>
        <path d="M100.283 150.776a.167.167 0 0 1-.166-.158.167.167 0 0 1 .157-.176l2.839-.169c.097.006.17.064.175.157a.165.165 0 0 1-.156.176l-2.839.169-.01.001z"></path>
        <path d="M109.758 151.96a.168.168 0 0 1-.013-.334l1.773-.142c.082-.007.17.06.179.153a.168.168 0 0 1-.152.18l-1.773.142-.014.001z"></path>
        <path d="M102.916 153.246a.168.168 0 0 1-.013-.334l2.9-.233c.09-.001.17.06.179.153a.168.168 0 0 1-.152.18l-2.9.233-.014.001z"></path>
        <path d="M158.089 109.684a.167.167 0 0 1-.091-.307c1.193-.786 1.194-3.057.67-4.339-.409-1.002-1.186-1.952-2.249-2.746-.784-.586-1.629-1.01-2.525-1.458l-.296-.148c-.667-.335-1.594-.883-1.959-1.786-.482-1.195-.169-2.31.199-3.241.067-.17.139-.343.212-.521.422-1.028.9-2.193.85-3.28-.046-.943-.514-2.171-1.326-2.694-1.073-.692-2.071-1.212-2.882-1.505-.694-.249-6.849-2.366-9.133.32-.753.884-1.17 2.134-1.278 3.817-.038.601.067 1.21.169 1.799.101.582.205 1.183.176 1.793a4.803 4.803 0 0 1-1.238 3.015c-.259.282-.561.508-.852.728-.253.19-.492.37-.707.584a4.04 4.04 0 0 0-.985 1.575c-.332.986-.372 2.347.518 3.219.066.064.067.17.002.236a.164.164 0 0 1-.235.002c-.999-.98-.965-2.484-.599-3.565a4.369 4.369 0 0 1 1.067-1.706c.231-.229.49-.424.741-.613.293-.219.57-.428.807-.687a4.466 4.466 0 0 0 1.152-2.804c.026-.572-.071-1.13-.173-1.72-.105-.607-.213-1.236-.173-1.877.111-1.758.555-3.071 1.357-4.012 2.428-2.857 8.782-.677 9.497-.417.834.3 1.855.831 2.949 1.536.947.612 1.43 1.964 1.477 2.96.055 1.161-.439 2.363-.874 3.423-.073.175-.144.347-.21.516-.345.871-.638 1.907-.201 2.993.322.798 1.182 1.302 1.801 1.612l.296.148c.868.435 1.766.886 2.575 1.489 1.111.83 1.927 1.829 2.357 2.887.556 1.359.592 3.83-.795 4.745a.161.161 0 0 1-.091.029z"></path>
        <path d="M146.808 103.052a.166.166 0 0 1-.165-.171l.113-4.836a.166.166 0 0 1 .165-.164.166.166 0 0 1 .165.171l-.113 4.836a.165.165 0 0 1-.165.164z"></path>
        <path d="M157.896 140.606c-5.817 0-13.519-5.917-17.733-10.507a.172.172 0 0 1-.034-.172c.01-.024.933-2.455 2.498-4.543 1.648-2.2 2.894-3.402 2.906-3.415a.172.172 0 0 1 .204-.02c.07.045 6.997 4.474 10.752 8.162.066.064.067.17.002.236a.165.165 0 0 1-.235.002c-3.47-3.407-9.679-7.462-10.586-8.047-.314.317-1.403 1.448-2.777 3.282-1.363 1.818-2.231 3.9-2.416 4.366 6.336 6.87 15.715 12.503 20.7 9.469 8.143-4.968 1.676-18.931-1.799-26.431l-.235-.508a21.666 21.666 0 0 1-.439-1.063c-.785-1.989-1.971-4.994-4.64-6.629-1.74-1.065-3.527-1.725-7.059-1.725a.168.168 0 0 1 0-.335c3.61 0 5.443.68 7.232 1.776 2.763 1.692 4.023 4.883 4.775 6.789.163.412.303.766.433 1.047l.235.507c3.517 7.595 10.067 21.734 1.67 26.856-1.026.627-2.196.903-3.454.903z"></path>
        <path d="M132.683 105.111c-1.976 0-3.935-.596-5.481-2.157-1.071-1.081-1.954-2.463-2.701-4.228-1.05-2.482-1.669-5.46-1.741-8.388-.002-.093.062-.178.165-.171.09 0 .164.072.165.164.072 2.886.681 5.821 1.714 8.265.731 1.724 1.592 3.072 2.631 4.122 2.846 2.872 7.181 2.326 10.289.861 1.146-.542 2.447-.829 3.865-.853a.17.17 0 0 1 .169.165.169.169 0 0 1-.164.17c-1.37.022-2.624.298-3.729.819-1.535.726-3.366 1.231-5.182 1.231z"></path>
        <path d="M132.038 117.34c-3.648-.27-6.873-2.39-8.982-3.963-5.74-4.274-9.633-12.78-10.416-22.755a.168.168 0 0 1 .152-.18.17.17 0 0 1 .179.153c.776 9.881 4.619 18.297 10.282 22.514 2.077 1.547 5.248 3.634 8.797 3.896a.165.165 0 0 1 .153.178.166.166 0 0 1-.165.157z"></path>
        <path d="M69.243 124.371a.167.167 0 0 1-.165-.149c-.657-6.19-5.126-7.858-5.756-8.063-2.34 1.702-5.04 3.007-7.612 3.676-1.845.482-3.475.623-4.98.424-2.075-.267-3.993-1.558-5.262-3.54-.68-1.063-1.131-2.259-1.568-3.415-.264-.702-.538-1.428-.86-2.113-.982-2.096-2.091-3.696-3.392-4.893-.625-.576-1.399-.945-2.126-1.014a.167.167 0 0 1-.15-.182c.009-.092.084-.148.181-.151.797.076 1.642.477 2.319 1.101 1.332 1.226 2.467 2.86 3.468 4.996.327.698.602 1.429.87 2.136.43 1.141.875 2.319 1.536 3.353 1.216 1.899 3.048 3.135 5.025 3.39 1.461.186 3.05.053 4.855-.417 2.557-.665 5.244-1.97 7.567-3.672a.168.168 0 0 1 .14-.027c.053.015 5.346 1.509 6.074 8.373a.166.166 0 0 1-.147.184l-.017.003z"></path>
        <path d="M140.58 96.695a.167.167 0 0 1-.162-.129c-.091-.392-.267-1.329.06-1.583.199-.158.621-.013.946.137l.378-2.081c.016-.09.09-.155.193-.134.09.016.15.104.133.194l-.417 2.298a.17.17 0 0 1-.09.12.172.172 0 0 1-.15-.002c-.33-.174-.71-.294-.796-.265-.092.074-.064.678.067 1.239a.168.168 0 0 1-.162.206z"></path>
        <path d="M120.221 91.459a.168.168 0 0 1-.142-.255c.01-.015.875-1.411 1.853-2.723.991-1.327 1.002-2.63.51-3.184-.662-.741-2.893-2.802-3.828-2.577-.198.051-.326.211-.394.492-.43 1.769 2.308 3.469 2.335 3.486a.167.167 0 0 1 .055.229.167.167 0 0 1-.228.055c-.121-.074-2.973-1.846-2.487-3.849.124-.506.415-.68.638-.735 1.338-.36 4.129 2.647 4.155 2.677.695.781.488 2.298-.49 3.607-.97 1.3-1.828 2.686-1.837 2.699a.165.165 0 0 1-.14.078z"></path>
        <path d="M120.47 83.329a.167.167 0 0 1-.167-.167v-8.885a.167.167 0 0 1 .334 0v8.885a.168.168 0 0 1-.167.167z"></path>
        <path d="M75.696 77.362a.166.166 0 0 1-.166-.167v-3.368c0-2.3 1.862-4.172 4.152-4.172h28.751a.168.168 0 0 1 0 .335H79.682c-2.106 0-3.82 1.722-3.82 3.837v3.368a.166.166 0 0 1-.166.167z"></path>
        <path d="M116.483 88.505H79.682c-.616 0-.979-.042-1.509-.288a.17.17 0 0 1-.082-.222.172.172 0 0 1 .221-.082c.477.222.794.257 1.37.257h36.801c1.397 0 2.582-.667 3.253-1.831a.162.162 0 0 1 .227-.061c.08.046.107.148.061.228-.732 1.27-2.023 1.999-3.541 1.999z"></path>
        <path d="M113.78 91.334a.167.167 0 0 1-.151-.098c-.645-1.393-.983-2.847-.987-2.861a.167.167 0 0 1 .125-.2c.088-.016.179.036.199.125.004.015.333 1.435.965 2.796a.17.17 0 0 1-.08.222.179.179 0 0 1-.071.016z"></path>
        <path d="M146.009 141.123a4.125 4.125 0 0 1-2.936-1.221l-13.995-14.064a4.194 4.194 0 0 1 0-5.901l9.319-9.365a4.142 4.142 0 0 1 5.872 0l7.305 7.341a.167.167 0 0 1 0 .236.166.166 0 0 1-.235 0l-7.305-7.341a3.78 3.78 0 0 0-2.701-1.119 3.785 3.785 0 0 0-2.701 1.119l-9.319 9.365a3.857 3.857 0 0 0 0 5.429l13.995 14.064a3.812 3.812 0 0 0 5.402 0l1.654-1.663a.166.166 0 0 1 .235 0 .167.167 0 0 1 0 .236l-1.654 1.663a4.13 4.13 0 0 1-2.936 1.221z"></path>
        <path d="M140.779 128.951c-2.401-.374-7.097-5.04-7.475-6.335-.213-.733.17-1.216.502-1.442-.235-.393-.177-.854.165-1.219.134-.142.278-.245.428-.305.269-.105.567-.066.891.119a.17.17 0 0 1 .058.055l5.571 8.87a.167.167 0 0 1-.14.257zm-6.074-9.025a.477.477 0 0 0-.183.035.887.887 0 0 0-.308.223c-.276.293-.29.642-.038.936a.169.169 0 0 1-.059.262c-.03.013-.728.34-.494 1.141.335 1.149 4.469 5.265 6.798 6.004l-5.33-8.487a.822.822 0 0 0-.386-.114z"></path>
        <path d="M138.775 123.161a.169.169 0 0 1-.089-.027c-.652-.413-2.405-1.924-2.907-2.425a6.029 6.029 0 0 0-.205-.193c-.373-.346-.885-.818-.886-1.363-.001-.272.126-.529.376-.761.839-.777 1.61-.04 2.118.452.097.094.24.236.409.407.525.528 1.319 1.324 1.801 1.695.432.331 1.743 1.335 2.265 1.088.373-.178.488-.521.029-1.816-.331-.932-.362-1.805-.082-2.278a.725.725 0 0 1 .524-.37c.999-.149 1.264.618 1.473 1.241.048.14.095.278.149.404.107.243.219.569.351.945.282.804.631 1.802 1.048 2.358a.166.166 0 0 1-.123.266l-6.241.376-.01.001zm-2.948-4.771c-.18 0-.354.078-.537.248-.182.169-.27.337-.27.516 0 .398.451.813.779 1.117.078.072.152.14.215.202.47.469 2.147 1.916 2.805 2.351l5.896-.355c-.37-.607-.675-1.478-.927-2.198-.13-.37-.241-.689-.343-.922a5.516 5.516 0 0 1-.158-.43c-.237-.704-.419-1.118-1.109-1.018a.397.397 0 0 0-.289.211c-.224.377-.181 1.18.108 1.994.411 1.157.509 1.893-.199 2.23-.615.298-1.665-.402-2.608-1.124-.5-.384-1.303-1.19-1.834-1.724-.168-.169-.308-.31-.404-.402-.45-.436-.796-.696-1.125-.696z"></path>
        <path d="M137.65 124.745a.17.17 0 0 1-.104-.037s-.863-.702-1.829-1.496c-.682-.563-1.466-1.482-1.716-1.782-.068.019-.14-.02-.175-.086a.166.166 0 0 1 .068-.225.835.835 0 0 1 .059-.03c.068-.031.18-.024.225.034.01.012.967 1.187 1.749 1.831.964.793 1.827 1.494 1.827 1.494a.167.167 0 0 1-.104.297z"></path>
        <path d="M117.19 91.643c-1.096.001-2.11-.071-2.912-.206-1.092-.184-1.628-.453-1.638-.823-.011-.334.224-.481.661-.635a.167.167 0 0 1 .11.315c-.445.157-.442.234-.44.31.002.077.251.316 1.362.504.952.16 2.212.225 3.554.193 3.167-.087 4.881-.681 4.873-.961-.001-.035-.05-.347-1.465-.547a.165.165 0 0 1-.141-.188.17.17 0 0 1 .187-.142c1.167.164 1.74.448 1.75.867.025.919-3.388 1.255-5.195 1.304-.239.007-.475.009-.706.009z"></path>
        <path d="M111.224 75.613H88.816a.166.166 0 0 1-.166-.167c0-.093.074-.168.166-.168h22.408a.168.168 0 0 1 0 .335z"></path>
        <path d="M111.224 79.323h-5.342a.168.168 0 0 1 0-.335h5.342a.167.167 0 0 1 0 .335z"></path>
        <path d="M101.728 79.323H85.016a.167.167 0 0 1-.166-.168c0-.093.074-.167.166-.167h16.712c.092 0 .166.075.166.167a.167.167 0 0 1-.166.168z"></path>
        <path d="M111.224 82.702H85.016a.166.166 0 0 1-.166-.167c0-.093.074-.168.166-.168h26.208a.168.168 0 0 1 0 .335z"></path>
        <path d="M140.409 87.272a.167.167 0 0 1-.167-.167v-.56c0-2.116-1.713-3.837-3.82-3.837H120.47a.167.167 0 0 1 0-.335h15.954c2.29 0 4.153 1.872 4.153 4.172v.56a.168.168 0 0 1-.168.167z"></path>
        <path d="M51.43 92.801a.167.167 0 0 1-.166-.168v-6.089c0-2.3 1.862-4.172 4.152-4.172h2.073c.092 0 .166.075.166.168a.166.166 0 0 1-.166.167h-2.073c-2.106 0-3.82 1.722-3.82 3.837v6.089a.167.167 0 0 1-.166.168z"></path>
        <path d="M51.43 106.677a.166.166 0 0 1-.166-.167v-7.276a.166.166 0 1 1 .332 0v7.276a.166.166 0 0 1-.166.167z"></path>
        <path d="M76.89 135.929H55.415c-2.289 0-4.152-1.872-4.152-4.174v-1.267c0-.093.074-.168.166-.168s.166.075.166.168v1.267c0 2.117 1.713 3.839 3.82 3.839H76.89c.092 0 .166.075.166.168a.166.166 0 0 1-.166.167z"></path>
        <path d="M133.37 135.929h-7.643a.167.167 0 0 1 0-.335h7.643a.168.168 0 0 1 0 .335z"></path>
        <path d="M39.575 101.567c-.206 0-.417-.005-.634-.015a.166.166 0 0 1-.159-.173.167.167 0 0 1 .166-.16c3.043.124 4.221-.671 4.381-2.94.026-.367.085-1.125.085-1.125a.17.17 0 0 1 .088-.135c.538-.284 1.321-.818 1.378-1.11.007-.035-.001-.052-.016-.07-.381-.457-1.174-1.101-1.182-1.107a.167.167 0 0 1-.061-.145l.363-4.239c.008-.092.086-.146.18-.152a.168.168 0 0 1 .151.181l-.355 4.151c.206.171.821.692 1.159 1.096a.407.407 0 0 1 .088.348c-.099.506-1.113 1.102-1.468 1.298l-.078 1.033c-.186 2.62-1.749 3.264-4.086 3.264z"></path>
        <path d="M73.568 113.645a.173.173 0 0 1-.091-.028.166.166 0 0 1-.049-.23l2.643-4.098a1.66 1.66 0 0 0 .065-1.711 1.644 1.644 0 0 0-1.464-.875H50.38a3.29 3.29 0 0 0-2.776 1.516L45.3 111.73a.165.165 0 0 1-.23.048.167.167 0 0 1-.047-.231l2.303-3.51a3.62 3.62 0 0 1 3.054-1.669h24.292c.744 0 1.401.393 1.756 1.049a1.99 1.99 0 0 1-.078 2.052l-2.643 4.098a.166.166 0 0 1-.139.078z"></path>
        <path d="M70.54 115.24a.168.168 0 0 1-.139-.259l4.276-6.6-24.297-.008c-.302 0-.522.06-.776.216l-1.482 1.896a.166.166 0 1 1-.261-.207l1.501-1.919c.36-.238.643-.32 1.018-.32h24.292c.167 0 .254.098.297.178a.325.325 0 0 1-.014.348l-4.276 6.6a.168.168 0 0 1-.139.075z"></path>
        <path d="M61.21 129.614h-3.407a.167.167 0 0 1-.166-.168c0-.093.074-.167.166-.167h3.407a3.6 3.6 0 0 0 3.037-1.658l.578-.895a.165.165 0 0 1 .23-.049.165.165 0 0 1 .048.23l-.578.895a3.929 3.929 0 0 1-3.315 1.812z"></path>
        <path d="M51.046 145.776a.166.166 0 0 1-.165-.152c-.746-8.242-2.122-15.035-2.136-15.103a.168.168 0 0 1 .129-.198.165.165 0 0 1 .196.13c.014.067 1.394 6.878 2.142 15.139a.167.167 0 0 1-.15.182.115.115 0 0 1-.016.002z"></path>
        <path d="M23.823 145.878a.168.168 0 0 1-.166-.164c-.052-2.652-.005-5.846.04-8.934.06-4.13.116-8.03-.04-10.77-.882-15.559 2.646-19.164 2.796-19.31a.167.167 0 0 1 .231.24c-.036.036-3.567 3.694-2.695 19.051.156 2.752.099 6.658.04 10.794-.045 3.086-.091 6.276-.04 8.922a.167.167 0 0 1-.163.171h-.003z"></path>
        <path d="M65.312 117.164a.167.167 0 0 1-.112-.29c.891-.816 1.611-1.607 2.201-2.418.351-.482.68-1.006.978-1.557a6.58 6.58 0 0 0 .346-.806c.114-.301.232-.613.397-.904.224-.396.527-.611.903-.639.415-.033.849.142 1.082.442.197.253.273.612.215 1.01-.05.346-.172.731-.372 1.179-.266.596-.597 1.44-.413 1.878.056.132.16.227.318.284l.104.017c.936.183 1.817-.959 2.472-1.975a.166.166 0 0 1 .279.181c-.458.711-1.517 2.374-2.812 2.122l-.129-.024c-.273-.098-.445-.255-.538-.475-.183-.436-.059-1.078.416-2.146.188-.419.302-.776.347-1.09.026-.178.041-.512-.147-.757-.166-.213-.474-.336-.797-.314-.264.019-.468.169-.637.47-.152.27-.26.555-.375.858-.107.282-.216.573-.365.847a14.114 14.114 0 0 1-1 1.595c-.604.829-1.338 1.636-2.245 2.466a.172.172 0 0 1-.116.046z"></path>
        <path d="M71.425 118.42a.166.166 0 0 1-.086-.309c.027-.017 2.753-1.72 3.633-3.674 1.04-2.306.025-2.874-.019-2.898a.167.167 0 0 1-.071-.224.16.16 0 0 1 .221-.073c.056.028 1.353.712.171 3.332-.923 2.047-3.646 3.75-3.762 3.821a.172.172 0 0 1-.087.025z"></path>
        <path d="M72.039 119.59a.167.167 0 0 1-.088-.308c2.75-1.746 3.473-3.111 3.595-3.948.108-.74-.233-1.143-.248-1.16a.17.17 0 0 1 .015-.236.168.168 0 0 1 .234.015c.019.02.454.523.33 1.416-.185 1.322-1.445 2.734-3.748 4.197a.195.195 0 0 1-.09.024z"></path>
        <path d="M69.107 123.42a.168.168 0 0 1-.14-.077.166.166 0 0 1 .05-.23c.005-.004.561-.365 3.414-2.372 2.118-1.488 2.584-2.446 2.602-2.987.013-.363-.185-.527-.194-.534a.17.17 0 0 1-.028-.234.167.167 0 0 1 .231-.03c.014.011.334.261.323.792-.019.9-.942 2-2.744 3.267-2.866 2.015-3.404 2.364-3.425 2.377a.159.159 0 0 1-.089.028z"></path>
        <path d="M42.251 94.344c.142.011.234-.069.242-.174l.048-.629a.192.192 0 0 0-.176-.206c-.142-.011-.234.069-.242.174l-.048.629a.193.193 0 0 0 .176.206z"></path>
        <path d="M43.119 99.4c-.139 0-.258-.028-.42-.079-.439-.14-.8-.506-.966-.981-.112-.322-.106-.623.016-.806a.557.557 0 0 1 .38-.249.623.623 0 0 1 .43.105c.147.1.227.24.298.364a.763.763 0 0 0 .179.239c.059.043.165.089.415-.011a.166.166 0 0 1 .216.092.167.167 0 0 1-.092.217c-.113.046-.454.184-.739-.03a1.016 1.016 0 0 1-.267-.34c-.061-.106-.113-.198-.195-.253a.3.3 0 0 0-.195-.052.229.229 0 0 0-.154.105c-.049.075-.064.265.022.51.131.376.412.665.753.773.183.057.268.075.417.058.085.002.173.057.183.148a.167.167 0 0 1-.147.184 1.627 1.627 0 0 1-.134.006z"></path>
        <path d="M30.682 107.81a10.84 10.84 0 0 1-5.065-1.254c-2.748-1.451-3.365-3.369-3.4-4.722-.059-2.342 1.536-4.574 3.067-5.484 1.743-1.036 1.921-2.305 2.167-4.06.099-.707.212-1.508.45-2.369.806-2.901 1.537-3.687 2.901-4.68 1.358-.988 3.754-.552 5.03-.019.806.336 2.344.34 3.58.342.543 0 1.056.001 1.461.029 1.277.085 3.888.847 3.812 2.654-.073 1.771-.776 3.81-2.144 4.101-2.359.501-3.476 1.422-3.487 1.431a.164.164 0 0 1-.234-.02.167.167 0 0 1 .02-.235c.047-.04 1.183-.982 3.632-1.504 1.142-.242 1.81-2.089 1.881-3.788.065-1.546-2.378-2.231-3.502-2.307a23.084 23.084 0 0 0-1.44-.028c-1.331-.002-2.84-.006-3.706-.368-1.163-.485-3.469-.921-4.709-.019-1.33.969-1.994 1.687-2.775 4.499-.233.84-.339 1.595-.442 2.325-.249 1.778-.447 3.183-2.326 4.301-1.45.863-2.961 2.975-2.904 5.189.046 1.813 1.161 3.346 3.223 4.434 3.962 2.092 7.632.969 9.026.392 1.85-.769 3.271-1.988 3.619-3.105.809-2.596.194-5.464-.864-6.415a.167.167 0 0 1-.013-.235.164.164 0 0 1 .235-.013c1.298 1.166 1.738 4.264.958 6.761-.376 1.208-1.871 2.51-3.809 3.315a11.041 11.041 0 0 1-4.242.852z"></path>
        <path d="M38.973 105.643c-.116-.017-.179-.102-.164-.194l.641-4.077a.17.17 0 0 1 .19-.139c.09.014.153.1.138.191l-.641 4.077a.166.166 0 0 1-.164.142z"></path>
        <path d="M43.327 95.594c-.361-.026-.585-.29-.562-.59l.185-2.416a.543.543 0 0 1 .584-.504.551.551 0 0 1 .521.588l-.185 2.418a.547.547 0 0 1-.543.504zm-.029-.167.013-.166c.116-.004.219-.078.228-.196l.185-2.417a.213.213 0 0 0-.195-.228c-.129-.001-.239.077-.247.194l-.185 2.417a.213.213 0 0 0 .195.229l.006.167z"></path>
        <path d="m43.022 93.978-3.98-.284a.165.165 0 0 1-.153-.178.166.166 0 0 1 .165-.155l3.98.284c.091.006.16.085.153.178a.165.165 0 0 1-.165.155z"></path>
        <path d="M65.89 112.117H54.817a.166.166 0 0 1-.166-.167c0-.093.074-.168.166-.168H65.89c.092 0 .166.075.166.168a.166.166 0 0 1-.166.167z"></path>
        <path d="M67.107 110.091H56.035a.166.166 0 0 1-.166-.167c0-.093.074-.167.166-.167h11.073a.167.167 0 0 1-.001.334z"></path>
        <path d="M63.003 116.282h-10.85a.166.166 0 0 1-.166-.167c0-.093.074-.168.166-.168h10.85c.092 0 .166.075.166.168a.166.166 0 0 1-.166.167z"></path>
        <path d="M59.502 118.415h-6.598a.166.166 0 0 1-.166-.167c0-.093.074-.168.166-.168h6.598c.092 0 .166.075.166.168a.166.166 0 0 1-.166.167z"></path>
        <path d="M36.565 81.553a.166.166 0 0 1-.161-.129c-.007-.029-.172-.729-.266-1.928a.168.168 0 0 1 .152-.18c.103 0 .172.063.179.153.092 1.171.256 1.87.257 1.877a.167.167 0 0 1-.123.201.159.159 0 0 1-.038.006zm-.321-3.822a.168.168 0 0 1-.166-.17c.008-.64.046-1.29.11-1.934.01-.09.081-.152.182-.149.091.01.158.092.149.183-.064.634-.1 1.275-.109 1.905a.167.167 0 0 1-.166.165zm.381-3.819c-.121-.02-.18-.107-.163-.199.118-.633.265-1.267.436-1.884a.161.161 0 0 1 .204-.116c.089.024.14.116.116.205a22.662 22.662 0 0 0-.43 1.858.166.166 0 0 1-.163.136zm1.023-3.698c-.144-.043-.188-.14-.156-.225.222-.599.474-1.199.748-1.782a.168.168 0 0 1 .221-.079.167.167 0 0 1 .08.222c-.27.576-.519 1.166-.737 1.756a.168.168 0 0 1-.156.108zm1.633-3.469a.158.158 0 0 1-.083-.023.17.17 0 0 1-.061-.229c.322-.557.67-1.106 1.035-1.63a.166.166 0 1 1 .272.19 22.994 22.994 0 0 0-1.019 1.609.167.167 0 0 1-.144.083zm2.178-3.15a.168.168 0 0 1-.129-.273c.394-.484.822-.971 1.273-1.447a.163.163 0 0 1 .235-.006.166.166 0 0 1 .006.235c-.445.471-.867.952-1.257 1.43a.167.167 0 0 1-.128.061zm2.631-2.781a.167.167 0 0 1-.112-.29c.459-.423.951-.845 1.46-1.254a.164.164 0 0 1 .233.025.167.167 0 0 1-.026.235c-.503.406-.99.823-1.443 1.24a.165.165 0 0 1-.112.044zm2.979-2.401a.168.168 0 0 1-.096-.304 37.952 37.952 0 0 1 1.594-1.073.165.165 0 0 1 .229.052.167.167 0 0 1-.052.23c-.532.339-1.063.696-1.58 1.064a.168.168 0 0 1-.095.031zm3.23-2.051a.168.168 0 0 1-.081-.314c.566-.317 1.14-.616 1.705-.888a.168.168 0 0 1 .222.078.167.167 0 0 1-.078.223c-.56.27-1.128.565-1.687.878a.154.154 0 0 1-.081.023zm3.445-1.658a.166.166 0 0 1-.154-.105.168.168 0 0 1 .092-.218c.59-.237 1.198-.458 1.809-.655a.167.167 0 0 1 .102.318c-.603.195-1.204.413-1.787.648a.2.2 0 0 1-.062.012zm16.76-.226a.174.174 0 0 1-.066-.014 17.838 17.838 0 0 0-1.777-.659.167.167 0 0 1-.11-.209.161.161 0 0 1 .208-.11c.631.198 1.24.423 1.81.671a.166.166 0 0 1 .086.219.162.162 0 0 1-.151.102zm-13.122-.941a.167.167 0 0 1-.038-.33 24.401 24.401 0 0 1 1.888-.372.165.165 0 0 1 .19.14.167.167 0 0 1-.138.19 23.65 23.65 0 0 0-1.862.368c-.014.001-.027.004-.04.004zm9.478-.204a21.85 21.85 0 0 0-1.906-.301.167.167 0 0 1-.146-.184c.01-.092.08-.152.183-.148.637.071 1.277.173 1.902.302a.168.168 0 0 1-.033.331zm-5.704-.378a.166.166 0 0 1-.165-.157.165.165 0 0 1 .154-.177 19.35 19.35 0 0 1 1.925-.046.165.165 0 0 1 .162.171.167.167 0 0 1-.166.163 22.266 22.266 0 0 0-1.898.045l-.012.001z"></path>
        <path d="M49.388 119.503c-.33 0-.649-.005-.909-.017a.167.167 0 0 1-.159-.173.172.172 0 0 1 .173-.159c.63.027 1.646.018 2.261-.018.569-.035 1.257-.078 1.671-.418a.724.724 0 0 0 .279-.506c.012-.23-.129-.482-.36-.639-.199-.137-.454-.217-.804-.252-.106-.016-.282.014-.466.042-.498.073-1.18.176-1.536-.308-.511-.693-.134-1.537 1.123-2.51.529-.408.962-.757 1.364-1.093 1.024-.856 1.816-1.619 2.494-2.405l.078-.089c.179-.205.348-.398.406-.648a.677.677 0 0 0-.062-.447.723.723 0 0 0-.492-.404c-.313-.071-.725.041-1.05.287-.67.51-2.871 2.58-2.893 2.6a.162.162 0 0 1-.167.036.168.168 0 0 1-.11-.131c-.001-.006-.096-.573-.507-.841-.236-.152-.536-.181-.899-.082a.17.17 0 0 1-.191-.086c-.002-.005-.245-.47-.74-.62-.35-.104-.746-.035-1.18.21a.164.164 0 0 1-.226-.064.169.169 0 0 1 .064-.228c.518-.29 1.002-.37 1.442-.236.465.143.746.489.866.672.404-.084.756-.034 1.046.155.322.211.492.543.575.782.566-.529 2.149-2 2.719-2.433.406-.31.913-.443 1.325-.347.313.073.56.273.713.579a1 1 0 0 1 .09.674c-.078.331-.283.565-.481.792l-.076.088c-.69.799-1.494 1.575-2.533 2.443a45.96 45.96 0 0 1-1.374 1.1c-1.085.839-1.441 1.528-1.058 2.047.237.322.784.241 1.22.176.215-.033.402-.058.549-.045.4.041.714.141.957.307.329.225.523.583.505.932a1.055 1.055 0 0 1-.401.748c-.496.407-1.276.455-1.845.49a21.85 21.85 0 0 1-1.401.039z"></path>
        <path d="M47.107 112.982a.167.167 0 0 1-.139-.259c.881-1.342 1.765-1.71 1.802-1.725.086-.028.181.007.215.093a.167.167 0 0 1-.091.217c-.008.004-.83.353-1.649 1.599a.162.162 0 0 1-.138.075z"></path>
        <path d="M48.887 113.852a.17.17 0 0 1-.113-.045.17.17 0 0 1-.01-.236c1.136-1.235 1.525-1.48 1.541-1.489a.164.164 0 0 1 .228.055.168.168 0 0 1-.055.229c-.004.002-.383.248-1.47 1.431a.158.158 0 0 1-.121.055z"></path>
        <path d="M43.946 113.122a.167.167 0 0 1-.137-.261c1.116-1.65 2.918-2.418 2.994-2.451a.168.168 0 0 1 .218.09.168.168 0 0 1-.089.218c-.018.007-1.789.765-2.848 2.33a.166.166 0 0 1-.138.074z"></path>
        <path d="M128.005 74.444h-15.318c-2.437 0-4.42-1.993-4.42-4.441v-7.259c0-2.45 1.983-4.442 4.42-4.442h15.318c2.437 0 4.42 1.993 4.42 4.442v7.259c0 2.448-1.983 4.441-4.42 4.441zm-15.318-15.807c-2.254 0-4.087 1.842-4.087 4.107v7.259c0 2.264 1.833 4.106 4.087 4.106h15.318c2.254 0 4.087-1.842 4.087-4.106v-7.259c0-2.265-1.833-4.107-4.087-4.107h-15.318z"></path>
        <path d="M118.309 70.725a.825.825 0 0 1-.421-.11c-.301-.174-.468-.525-.468-.992v-6.501c0-.466.167-.818.468-.992.297-.173.686-.14 1.089.094l5.514 3.236c.4.236.621.559.621.911s-.221.675-.62.91l-5.516 3.24a1.346 1.346 0 0 1-.667.204zm.001-8.37a.511.511 0 0 0-.257.065c-.194.112-.3.361-.3.702v6.501c0 .341.106.59.3.703.193.112.463.079.754-.094l5.516-3.24c.294-.172.456-.392.456-.62 0-.228-.162-.449-.457-.622l-5.514-3.236a1.002 1.002 0 0 0-.498-.159z"></path>
        <path d="M92.563 117.96H90.67a.167.167 0 0 1-.166-.168v-1.947c-2.663-.339-4.248-1.747-4.845-4.3a.167.167 0 0 1 .123-.201l2.969-.721a.169.169 0 0 1 .194.102l.075.19c.053.132.102.259.147.388a2.505 2.505 0 0 0 1.312 1.462c.685.324 1.47.343 2.214.059.614-.233.951-.688 1-1.352.043-.576-.221-1-.762-1.229-.57-.242-1.163-.46-1.737-.672-.24-.089-.481-.177-.72-.267-.147-.056-.296-.108-.445-.161a13.254 13.254 0 0 1-.867-.329c-2.208-.951-3.186-2.546-2.908-4.743.271-2.137 1.612-3.457 3.987-3.923.055-.011.108-.027.174-.046.025-.006.025-1.483.025-1.483 0-.093.074-.167.166-.167h1.871c.09 0 .164.072.166.163l.04 1.446c.204.041.64.146 1.382.406 1.487.524 2.433 1.537 2.979 3.189a.168.168 0 0 1-.098.209l-2.628 1.007a.163.163 0 0 1-.197-.061c-.104-.154-.201-.308-.297-.46-.208-.33-.405-.641-.646-.919-.631-.728-1.463-.705-2.049-.56-.608.153-.983.542-1.083 1.124-.112.658.117 1.102.701 1.359.486.215.995.409 1.486.596.206.078.411.157.616.237.201.078.405.154.608.23.387.145.788.294 1.173.464 2.282 1.015 3.191 2.594 2.861 4.969-.272 1.965-1.855 3.443-4.128 3.859-.158.03-.315.065-.489.104l-.143.031v1.949a.17.17 0 0 1-.168.166zm-1.727-.335h1.561v-1.917c0-.078.055-.147.131-.163l.272-.06c.177-.04.338-.075.5-.105 2.162-.395 3.604-1.733 3.86-3.577.306-2.205-.541-3.672-2.667-4.617-.375-.168-.771-.314-1.154-.457-.205-.077-.409-.153-.613-.232-.204-.08-.408-.158-.613-.236a33.79 33.79 0 0 1-1.501-.602c-.723-.318-1.033-.913-.896-1.721.122-.713.594-1.207 1.33-1.392.955-.241 1.802-.004 2.38.664.257.296.46.619.676.959.071.113.144.228.219.342l2.354-.902c-.518-1.457-1.385-2.358-2.721-2.828-1.033-.363-1.449-.414-1.453-.414a.167.167 0 0 1-.147-.161l-.039-1.419h-1.543v1.436c0 .076-.05.142-.124.162l-.141.04c-.077.022-.139.04-.203.052-2.218.435-3.47 1.659-3.72 3.637-.257 2.031.654 3.51 2.709 4.395.275.117.566.221.847.321.151.053.302.107.451.163l.717.267c.578.213 1.176.434 1.752.677.666.282 1.017.852.964 1.561-.059.794-.479 1.361-1.214 1.641-.83.316-1.708.29-2.472-.07a2.831 2.831 0 0 1-1.485-1.655c-.042-.123-.091-.246-.141-.372l-.022-.058-2.667.647c.601 2.343 2.129 3.621 4.666 3.901.084.01.148.081.148.166v1.927z"></path>
        <path d="M91.605 119.927c-6.431 0-11.662-5.259-11.662-11.722 0-6.463 5.231-11.721 11.662-11.721 6.431 0 11.663 5.258 11.663 11.721s-5.232 11.722-11.663 11.722zm0-23.108c-6.247 0-11.33 5.107-11.33 11.386 0 6.28 5.083 11.387 11.33 11.387 6.248 0 11.331-5.107 11.331-11.387-.001-6.278-5.083-11.386-11.331-11.386z"></path>
        <path d="M99.071 124.967c-1.014 0-1.84-.83-1.84-1.85 0-1.019.825-1.849 1.84-1.849 1.014 0 1.84.83 1.84 1.849 0 1.02-.825 1.85-1.84 1.85zm0-3.364c-.831 0-1.508.68-1.508 1.514 0 .835.676 1.515 1.508 1.515.831 0 1.508-.68 1.508-1.515 0-.834-.676-1.514-1.508-1.514z"></path>
        <path d="M89.273 56.061a.167.167 0 0 1-.037-.33l4.716-1.075a.167.167 0 0 1 .199.125c.02.09-.036.18-.125.2l-4.716 1.075c-.012.002-.025.005-.037.005z"></path>
        <path d="M96.861 59.445c-.03-.004-7.487-1.39-7.487-1.39a.166.166 0 0 1-.133-.194.162.162 0 0 1 .193-.134l7.457 1.387a.167.167 0 0 1-.03.331z"></path>
        <path d="M92.416 62.286a.164.164 0 0 1-.092-.029l-3.6-2.418a.167.167 0 0 1-.046-.231.164.164 0 0 1 .23-.046l3.6 2.418a.168.168 0 0 1-.092.306z"></path>
        <path d="M163.566 107.838a.167.167 0 0 1-.101-.035.166.166 0 0 1-.031-.234l.267-.358a.161.161 0 0 1 .231-.035c.074.054.09.159.035.233-.089.122-.179.242-.27.363a.163.163 0 0 1-.131.066zm1.372-1.93a.168.168 0 0 1-.138-.262c.362-.537.707-1.078 1.03-1.608a.163.163 0 0 1 .228-.055.167.167 0 0 1 .055.229 40.548 40.548 0 0 1-1.037 1.622.169.169 0 0 1-.138.074zm1.987-3.282a.175.175 0 0 1-.079-.02.17.17 0 0 1-.067-.227c.305-.564.593-1.137.858-1.705a.166.166 0 1 1 .3.143 33.401 33.401 0 0 1-.866 1.722.169.169 0 0 1-.146.087zm1.621-3.476a.169.169 0 0 1-.155-.229 26.46 26.46 0 0 0 .635-1.798.167.167 0 1 1 .317.102 27.662 27.662 0 0 1-.643 1.819.167.167 0 0 1-.154.106zm1.145-3.659c-.127-.025-.182-.116-.162-.205a23.04 23.04 0 0 0 .35-1.873c.013-.09.088-.158.188-.141.09.013.153.098.14.189-.088.62-.207 1.26-.355 1.9a.166.166 0 0 1-.161.13zm.534-3.799a.168.168 0 0 1-.165-.176c.016-.314.023-.629.023-.945.001-.319-.006-.639-.023-.959a.166.166 0 0 1 .157-.175c.08-.002.169.066.174.158.017.325.026.652.025.977 0 .319-.01.641-.025.96a.167.167 0 0 1-.166.16zm-.203-3.829a.168.168 0 0 1-.164-.14 16.699 16.699 0 0 0-.428-1.852.167.167 0 0 1 .113-.207.165.165 0 0 1 .206.113c.185.635.331 1.271.438 1.89a.17.17 0 0 1-.137.193l-.028.003zm-1.059-3.686a.168.168 0 0 1-.155-.106 22.094 22.094 0 0 0-.783-1.737.168.168 0 0 1 .074-.224c.08-.041.18-.01.223.075.294.586.561 1.178.795 1.764a.168.168 0 0 1-.094.217.2.2 0 0 1-.06.011zm-1.718-3.43a.164.164 0 0 1-.141-.081 25.463 25.463 0 0 0-1.048-1.592.17.17 0 0 1 .038-.234.169.169 0 0 1 .233.039c.378.532.735 1.075 1.06 1.613a.167.167 0 0 1-.055.229.166.166 0 0 1-.087.026zm-20.7-3.064c-.052 0-.103-.002-.156-.005a.165.165 0 0 1-.157-.175.166.166 0 0 1 .165-.159c.23.011.451-.001.66-.035.371-.057.749-.17 1.125-.339a.16.16 0 0 1 .219.083.166.166 0 0 1-.083.22 4.641 4.641 0 0 1-1.211.365c-.181.03-.37.045-.562.045zm18.475-.059a.164.164 0 0 1-.128-.06 25.517 25.517 0 0 0-1.268-1.421.168.168 0 0 1 .005-.236.168.168 0 0 1 .235.005c.447.465.88.948 1.285 1.437a.17.17 0 0 1-.022.236.17.17 0 0 1-.107.039zm-20.413-.537a.162.162 0 0 1-.097-.033 2.646 2.646 0 0 1-.677-.704 2.693 2.693 0 0 1-.393-.977.167.167 0 0 1 .131-.196.167.167 0 0 1 .195.131c.061.316.178.605.345.859.153.235.354.443.593.617a.166.166 0 0 1 .037.232.164.164 0 0 1-.134.071zm5.244-.838a.163.163 0 0 1-.126-.059.166.166 0 0 1 .018-.235 10.653 10.653 0 0 0 1.314-1.351.163.163 0 0 1 .233-.024.165.165 0 0 1 .024.234 10.507 10.507 0 0 1-1.354 1.394.167.167 0 0 1-.109.041zm12.512-1.383a.17.17 0 0 1-.11-.042 23.105 23.105 0 0 0-1.47-1.206.168.168 0 0 1-.034-.234.166.166 0 0 1 .233-.034c.502.378 1.003.79 1.491 1.223a.17.17 0 0 1 .014.236.163.163 0 0 1-.124.057zm-18.556-1.241a.172.172 0 0 1-.062-.013.166.166 0 0 1-.091-.217c.097-.242.221-.475.364-.689.218-.323.488-.628.804-.905a.166.166 0 1 1 .218.251 4.38 4.38 0 0 0-.747.842 3.418 3.418 0 0 0-.333.627.165.165 0 0 1-.153.104zm8.447-.336a.168.168 0 0 1-.145-.249c.302-.549.565-1.129.778-1.723a.163.163 0 0 1 .212-.1.167.167 0 0 1 .1.213 12.112 12.112 0 0 1-.8 1.771.162.162 0 0 1-.145.088zm7.049-.719a.168.168 0 0 1-.088-.025 18.68 18.68 0 0 0-1.658-.918.169.169 0 0 1-.078-.223.169.169 0 0 1 .222-.078c.57.277 1.137.592 1.689.935a.168.168 0 0 1 .054.23.168.168 0 0 1-.141.079zm-12.754-1.488a.166.166 0 0 1-.151-.099.165.165 0 0 1 .083-.22c.178-.081.357-.155.537-.227.422-.161.857-.3 1.292-.413a.162.162 0 0 1 .203.119.167.167 0 0 1-.119.204c-.424.111-.848.246-1.256.402-.173.067-.348.14-.52.218a.155.155 0 0 1-.069.016zm9.319-.181a16.799 16.799 0 0 0-1.871-.53.165.165 0 0 1-.127-.198c.019-.09.11-.154.197-.128.619.133 1.243.312 1.857.53a.169.169 0 0 1 .102.213.171.171 0 0 1-.158.113zm-5.636-.776a.167.167 0 0 1-.015-.334c.36-.033.724-.06 1.086-.048.283 0 .568.011.85.03a.167.167 0 0 1 .155.177c-.006.093-.084.153-.176.155-.287-.02-.579-.028-.866-.029-.339 0-.681.016-1.018.047l-.016.002zm3.324-.434c-.122-.022-.181-.11-.163-.2.122-.617.201-1.249.237-1.881.005-.093.073-.167.175-.157a.165.165 0 0 1 .156.176 13.96 13.96 0 0 1-.242 1.927.166.166 0 0 1-.163.135zm.216-3.823a.166.166 0 0 1-.165-.154 14.359 14.359 0 0 0-.278-1.875.166.166 0 1 1 .324-.072c.137.625.233 1.271.285 1.92a.168.168 0 0 1-.152.18l-.014.001zm-.819-3.738a.167.167 0 0 1-.156-.11 13.184 13.184 0 0 0-.784-1.723.167.167 0 0 1 .065-.227.163.163 0 0 1 .225.065c.307.56.578 1.154.806 1.769a.167.167 0 0 1-.098.214.15.15 0 0 1-.058.012zm-1.828-3.361a.168.168 0 0 1-.133-.067c-.37-.501-.78-.989-1.219-1.451a.167.167 0 0 1 .24-.231c.448.472.868.971 1.246 1.482a.167.167 0 0 1-.134.267zm-2.633-2.772a.167.167 0 0 1-.105-.038c-.487-.401-1-.781-1.526-1.125a.167.167 0 0 1-.048-.231.166.166 0 0 1 .23-.048c.536.352 1.06.737 1.555 1.147a.167.167 0 0 1 .023.235.173.173 0 0 1-.129.06zm-26.972-.176a.168.168 0 0 1-.08-.314 40.721 40.721 0 0 1 1.705-.887.164.164 0 0 1 .222.076.166.166 0 0 1-.075.223c-.577.283-1.145.579-1.69.88a.171.171 0 0 1-.082.022zm3.438-1.678a.165.165 0 0 1-.152-.102.165.165 0 0 1 .088-.218 33.729 33.729 0 0 1 1.787-.706.163.163 0 0 1 .212.1.166.166 0 0 1-.1.213 34.89 34.89 0 0 0-1.771.699.153.153 0 0 1-.064.014zm20.342-.247a.161.161 0 0 1-.076-.019 19.036 19.036 0 0 0-1.728-.783.169.169 0 0 1-.094-.217.172.172 0 0 1 .216-.094c.596.236 1.187.504 1.756.797a.166.166 0 0 1 .072.224.162.162 0 0 1-.146.092zm-16.748-1.055a.165.165 0 0 1-.159-.121.166.166 0 0 1 .113-.207 29.362 29.362 0 0 1 1.858-.488c.1-.016.18.036.199.125.02.09-.036.18-.125.2-.604.137-1.223.3-1.839.483a.126.126 0 0 1-.047.008zm13.197-.354a22.23 22.23 0 0 0-1.891-.443.166.166 0 0 1-.133-.194c.016-.09.103-.157.193-.134.627.117 1.258.266 1.876.443a.166.166 0 0 1 .114.206.166.166 0 0 1-.159.122zm-9.469-.49a.167.167 0 0 1-.025-.332 26.251 26.251 0 0 1 1.91-.224c.088-.001.17.059.179.153a.168.168 0 0 1-.152.18c-.622.049-1.258.124-1.886.222l-.026.001zm5.715-.21a22.312 22.312 0 0 0-1.909-.086.169.169 0 0 1-.167-.168.168.168 0 0 1 .167-.167c.609.001 1.222.028 1.822.078l.104.008c.091.01.157.093.147.184a.165.165 0 0 1-.164.151z"></path>
        <path d="M122.073 121.271h-7.579a.168.168 0 0 1-.167-.168v-7.616c0-.093.074-.168.167-.168h7.579c.092 0 .167.075.167.168v7.616a.168.168 0 0 1-.167.168zm-7.413-.335h7.246v-7.281h-7.246v7.281z"></path>
        <path d="M127.825 121.271h-1.032a.168.168 0 0 1-.167-.168v-4.294a.167.167 0 1 1 .334 0v4.127h.866c.092 0 .167.075.167.167a.17.17 0 0 1-.168.168z"></path>
        <path d="M69.837 128.192a.166.166 0 0 1-.166-.167v-5.269c0-.093.074-.168.166-.168s.166.075.166.168v5.269a.166.166 0 0 1-.166.167z"></path>
        <path d="M69.837 106.615a.167.167 0 0 1-.166-.168v-9.712c0-.093.074-.168.166-.168s.166.075.166.168v9.712a.167.167 0 0 1-.166.168z"></path>
        <path d="M64.308 97.87a.168.168 0 0 1-.14-.257c.472-.747.496-1.721.068-2.744-.437-1.045-1.288-2.01-2.398-2.718-1.807-1.153-3.958-1.361-5.23-.496a.167.167 0 0 1-.231-.045.168.168 0 0 1 .045-.232c1.401-.948 3.647-.752 5.595.492 1.166.745 2.063 1.764 2.526 2.87.472 1.128.438 2.211-.094 3.052a.168.168 0 0 1-.141.078z"></path>
        <path d="M50.507 130.643c-1.93 0-3.769-.238-5.472-.726-6.626-1.896-11.059-7.177-14.18-11.566a.169.169 0 0 1 .038-.234.167.167 0 0 1 .231.039c3.09 4.346 7.474 9.572 14.001 11.441 6.778 1.941 15.759-.128 24.026-5.533a.166.166 0 1 1 .181.279c-6.276 4.104-12.97 6.3-18.825 6.3z"></path>
        <path d="M117.399 90.03a.165.165 0 0 1-.164-.146c-.147-1.105-.458-1.463-.462-1.466a.17.17 0 0 1 .01-.235.167.167 0 0 1 .233.006c.04.042.387.439.548 1.652a.166.166 0 0 1-.165.189z"></path>
        <path d="M132.258 92.801h-3.93a.168.168 0 0 1-.167-.168v-3.949c0-.093.074-.168.167-.168h3.93c.092 0 .167.075.167.168v3.949a.166.166 0 0 1-.167.168zm-3.763-.335h3.597v-3.615h-3.597v3.615z"></path>
        <path d="M133.606 97.682h-1.568a.167.167 0 0 1-.167-.167v-1.577c0-.093.074-.168.167-.168h1.568c.092 0 .167.075.167.168v1.577a.168.168 0 0 1-.167.167zm-1.402-.335h1.235v-1.242h-1.235v1.242z"></path>
        <path d="M42.8 143.435c-1.532 0-2.767-.526-3.67-1.565-2.34-2.688-1.684-7.832-1.655-8.048a.168.168 0 0 1 .165-.146h9.403c.077 0 .145.054.162.13.05.219 1.218 5.41-.903 8.093-.807 1.019-1.985 1.536-3.502 1.536zm-5.013-9.425c-.089.858-.436 5.31 1.593 7.64.837.963 1.988 1.449 3.42 1.449 1.411 0 2.502-.474 3.241-1.41 1.844-2.331 1.034-6.859.867-7.68h-9.121z"></path>
        <path d="M157.169 140.446a.165.165 0 0 1-.152-.1c-1.092-2.5-.142-5.457 2.314-7.188 1.898-1.341 4.069-1.607 5.957-.732.083.038.12.139.082.222a.172.172 0 0 1-.221.082c-1.774-.823-3.827-.569-5.626.701-2.325 1.64-3.23 4.428-2.201 6.781a.167.167 0 0 1-.153.234z"></path>
    </g>
</svg>